<svg width="96" height="84" viewBox="0 0 96 84" fill="none" xmlns="http://www.w3.org/2000/svg">
<rect x="0.5" y="0.5" width="95" height="83" rx="7.5" fill="#EBEBEB" fill-opacity="0.2"/>
<rect x="0.5" y="0.5" width="95" height="83" rx="7.5" stroke="#E9E9E9"/>
<mask id="mask0_80_121" style="mask-type:alpha" maskUnits="userSpaceOnUse" x="24" y="5" width="48" height="49">
<g clip-path="url(#clip0_80_121)">
<path d="M24.75 21.5001H27.531C27.6766 21.5002 27.819 21.4578 27.9409 21.3783C28.0628 21.2988 28.159 21.1856 28.2176 21.0524L29.3404 18.5001H31.4903C31.6046 18.5002 31.7174 18.4741 31.8201 18.4238C31.9228 18.3736 32.0126 18.3005 32.0828 18.2102L36.7451 12.2057L42.4676 18.4221C42.5316 18.4976 42.6099 18.5597 42.6981 18.6048C42.7862 18.6498 42.8823 18.677 42.981 18.6848C43.0797 18.6925 43.1789 18.6807 43.273 18.6499C43.367 18.6191 43.4541 18.57 43.5291 18.5054C43.6041 18.4408 43.6656 18.362 43.71 18.2736C43.7544 18.1851 43.7808 18.0888 43.7878 17.99C43.7948 17.8913 43.7822 17.7922 43.7507 17.6984C43.7192 17.6045 43.6694 17.5179 43.6042 17.4434L41.7098 15.2414L48.1114 7.53698L51.5239 13.1399C51.5908 13.2499 51.6849 13.3408 51.7971 13.4039C51.9094 13.4669 52.036 13.5 52.1648 13.4999H53.9606L56.0726 16.7009L54.6727 18.3996C54.6084 18.4754 54.5597 18.5632 54.5296 18.658C54.4995 18.7528 54.4886 18.8526 54.4974 18.9516C54.5062 19.0507 54.5346 19.147 54.581 19.2349C54.6274 19.3229 54.6908 19.4007 54.7676 19.464C54.8443 19.5272 54.9329 19.5745 55.0281 19.6032C55.1233 19.6319 55.2232 19.6413 55.3221 19.631C55.421 19.6207 55.5169 19.5909 55.6042 19.5432C55.6914 19.4955 55.7683 19.4309 55.8304 19.3532L60.4639 13.9525L63.8726 18.6884C63.9421 18.785 64.0335 18.8637 64.1394 18.9179C64.2453 18.9722 64.3626 19.0004 64.4816 19.0004H67.6579L70.683 22.4916C70.8133 22.642 70.998 22.7344 71.1964 22.7487C71.3949 22.7629 71.5909 22.6976 71.7412 22.5674C71.8916 22.4371 71.9841 22.2524 71.9983 22.0539C72.0125 21.8555 71.9473 21.6595 71.817 21.5091L68.5676 17.7591C68.4972 17.6779 68.4101 17.6127 68.3123 17.568C68.2144 17.5234 68.1082 17.5003 68.0006 17.5004H64.8656L61.1314 12.3122C61.0656 12.2206 60.9799 12.1451 60.8808 12.0912C60.7817 12.0373 60.6718 12.0065 60.5591 12.001C60.4466 11.9962 60.3344 12.0165 60.2307 12.0604C60.127 12.1043 60.0344 12.1707 59.9595 12.2549L57.0889 15.5181L54.9904 12.337C54.922 12.2334 54.829 12.1485 54.7197 12.0897C54.6104 12.031 54.4882 12.0002 54.3641 12.0002H52.5863L48.8464 5.85998C48.7843 5.75801 48.6987 5.67233 48.5968 5.61004C48.495 5.54776 48.3797 5.51067 48.2606 5.50186C48.1417 5.4941 48.0225 5.51439 47.9129 5.56109C47.8032 5.60779 47.706 5.6796 47.6291 5.77073L40.686 14.1269L37.2233 10.5411C37.1486 10.4638 37.0581 10.4035 36.9581 10.3642C36.8581 10.3249 36.7507 10.3075 36.6434 10.3133C36.5361 10.3191 36.4313 10.3479 36.336 10.3978C36.2408 10.4476 36.1574 10.5173 36.0915 10.6022L31.1227 17.0001H28.851C28.7054 17.0001 28.563 17.0424 28.4411 17.1219C28.3192 17.2014 28.223 17.3146 28.1644 17.4479L27.0416 20.0001H24.75C24.5511 20.0001 24.3603 20.0791 24.2197 20.2198C24.079 20.3604 24 20.5512 24 20.7501C24 20.949 24.079 21.1398 24.2197 21.2804C24.3603 21.4211 24.5511 21.5001 24.75 21.5001Z" fill="#555555"/>
<path d="M48 26.875C48.89 26.875 49.76 26.6111 50.5001 26.1166C51.2401 25.6221 51.8169 24.9193 52.1575 24.0971C52.4981 23.2748 52.5872 22.37 52.4135 21.4971C52.2399 20.6242 51.8113 19.8224 51.182 19.193C50.5526 18.5637 49.7508 18.1351 48.8779 17.9615C48.005 17.7878 47.1002 17.8769 46.2779 18.2175C45.4557 18.5581 44.7529 19.1349 44.2584 19.8749C43.7639 20.615 43.5 21.485 43.5 22.375C43.5013 23.5681 43.9758 24.7119 44.8194 25.5556C45.6631 26.3992 46.8069 26.8737 48 26.875ZM34.125 25.375C33.5283 25.375 32.956 25.6121 32.534 26.034C32.1121 26.456 31.875 27.0283 31.875 27.625C31.875 28.2217 32.1121 28.794 32.534 29.216C32.956 29.638 33.5283 29.875 34.125 29.875H41.25V32.6991L42.75 32.2128V29.125C42.75 28.9261 42.671 28.7353 42.5303 28.5947C42.3897 28.454 42.1989 28.375 42 28.375H34.125C33.9261 28.375 33.7353 28.296 33.5947 28.1553C33.454 28.0147 33.375 27.8239 33.375 27.625C33.375 27.4261 33.454 27.2353 33.5947 27.0947C33.7353 26.954 33.9261 26.875 34.125 26.875H44.0449C43.5556 26.4448 43.1392 25.9383 42.8119 25.375H34.125ZM64.125 27.625C64.1243 27.0285 63.887 26.4566 63.4652 26.0348C63.0434 25.613 62.4715 25.3757 61.875 25.375H53.1881C52.8608 25.9383 52.4444 26.4448 51.9551 26.875H61.875C62.0739 26.875 62.2647 26.954 62.4053 27.0947C62.546 27.2353 62.625 27.4261 62.625 27.625C62.625 27.8239 62.546 28.0147 62.4053 28.1553C62.2647 28.296 62.0739 28.375 61.875 28.375H54C53.8011 28.375 53.6103 28.454 53.4697 28.5947C53.329 28.7353 53.25 28.9261 53.25 29.125V32.2128L54.75 32.6991V29.875H61.875C62.4715 29.8743 63.0434 29.637 63.4652 29.2152C63.887 28.7934 64.1243 28.2215 64.125 27.625ZM71.25 49C70.0119 48.9693 68.7819 49.2079 67.6451 49.6994C66.3365 50.2604 64.9225 50.5334 63.4991 50.5C62.0757 50.5334 60.6618 50.2604 59.3531 49.6994C58.2163 49.2079 56.9863 48.9693 55.7483 49C54.5104 48.9693 53.2807 49.2079 52.1441 49.6994C50.8356 50.2603 49.4218 50.5334 47.9985 50.5C46.5752 50.5334 45.1614 50.2604 43.8529 49.6994C42.7164 49.2079 41.4866 48.9693 40.2488 49C39.011 48.9693 37.7814 49.2079 36.645 49.6994C35.3364 50.2604 33.9224 50.5334 32.499 50.5C31.0757 50.5334 29.6619 50.2604 28.3534 49.6994C27.2171 49.208 25.9876 48.9694 24.75 49C24.5511 49 24.3603 48.921 24.2197 48.7803C24.079 48.6397 24 48.4489 24 48.25V51.25C24 51.4489 24.079 51.6397 24.2197 51.7803C24.3603 51.921 24.5511 52 24.75 52C25.9877 51.9693 27.2173 52.2079 28.3537 52.6994C29.6623 53.2604 31.0761 53.5334 32.4994 53.5C33.9227 53.5334 35.3365 53.2603 36.645 52.6994C37.7814 52.2079 39.011 51.9693 40.2488 52C41.4865 51.9693 42.7161 52.2079 43.8525 52.6994C45.1612 53.2605 46.5753 53.5335 47.9989 53.5C49.4222 53.5334 50.836 53.2603 52.1445 52.6994C53.2809 52.208 54.5105 51.9693 55.7483 52C56.9863 51.9693 58.2163 52.2079 59.3531 52.6994C60.6616 53.2603 62.0755 53.5334 63.4987 53.5C64.9222 53.5334 66.3361 53.2604 67.6448 52.6994C68.7817 52.2079 70.0118 51.9692 71.25 52C71.4489 52 71.6397 51.921 71.7803 51.7803C71.921 51.6397 72 51.4489 72 51.25V48.25C72 48.4489 71.921 48.6397 71.7803 48.7803C71.6397 48.921 71.4489 49 71.25 49Z" fill="#555555"/>
<path d="M71.25 44.5001C69.8265 44.4667 68.4124 44.7397 67.1036 45.3007C65.967 45.7921 64.7371 46.0307 63.4991 46.0001C62.261 46.0308 61.031 45.7921 59.8942 45.3007C58.5856 44.7397 57.1717 44.4667 55.7483 44.5001C54.3248 44.4666 52.9109 44.7397 51.6023 45.3007C50.4658 45.7921 49.2362 46.0307 47.9985 46.0001C46.7608 46.0307 45.5312 45.7921 44.3948 45.3007C43.0861 44.7397 41.6722 44.4666 40.2488 44.5001C38.8255 44.4667 37.4116 44.7397 36.1031 45.3007C34.9667 45.7921 33.7371 46.0307 32.4994 46.0001C31.2616 46.0307 30.032 45.7921 28.8956 45.3007C27.5871 44.7397 26.1733 44.4667 24.75 44.5001C24.5511 44.5001 24.3603 44.5791 24.2197 44.7197C24.079 44.8604 24 45.0511 24 45.2501V48.2501C24 48.0511 24.079 47.8604 24.2197 47.7197C24.3603 47.5791 24.5511 47.5001 24.75 47.5001C26.1733 47.4667 27.5871 47.7397 28.8956 48.3007C30.032 48.7921 31.2616 49.0307 32.4994 49.0001C33.7371 49.0307 34.9667 48.7921 36.1031 48.3007C37.4119 47.7396 38.826 47.4666 40.2495 47.5001C41.6727 47.4667 43.0864 47.7398 44.3948 48.3007C45.5312 48.7921 46.7608 49.0307 47.9985 49.0001C49.2364 49.0308 50.4661 48.7922 51.6026 48.3007C52.9111 47.7397 54.325 47.4667 55.7483 47.5001C57.1717 47.4667 58.5856 47.7397 59.8942 48.3007C61.031 48.7921 62.261 49.0308 63.4991 49.0001C64.7371 49.0307 65.967 48.7921 67.1036 48.3007C68.4124 47.7397 69.8265 47.4667 71.25 47.5001C71.4489 47.5001 71.6397 47.5791 71.7803 47.7197C71.921 47.8604 72 48.0511 72 48.2501V45.2501C72 45.0511 71.921 44.8604 71.7803 44.7197C71.6397 44.5791 71.4489 44.5001 71.25 44.5001Z" fill="#555555"/>
<path d="M35.5614 43.902C37.0423 43.2723 38.6402 42.9649 40.2489 43.0001C41.8577 42.9649 43.4555 43.2722 44.9364 43.9016C45.9003 44.3254 46.9462 44.5298 47.9987 44.5001C49.051 44.5298 50.0968 44.3255 51.0606 43.902C52.5416 43.2723 54.1395 42.9649 55.7484 43.0001C57.3572 42.9649 58.955 43.2722 60.4359 43.9016C60.7419 44.0201 61.0258 44.1288 61.3311 44.2207C62.5313 42.2217 63.2323 39.963 63.3748 37.6357C63.3784 37.4745 63.3299 37.3163 63.2366 37.1848C63.1432 37.0533 63.01 36.9554 62.8566 36.9056L48.7502 32.3298V40.4621C48.7502 40.661 48.6712 40.8518 48.5305 40.9924C48.3899 41.1331 48.1991 41.2121 48.0002 41.2121C47.8013 41.2121 47.6105 41.1331 47.4699 40.9924C47.3292 40.8518 47.2502 40.661 47.2502 40.4621V32.3298L33.1438 36.9056C32.9903 36.9553 32.857 37.0532 32.7636 37.1847C32.6701 37.3163 32.6216 37.4744 32.6252 37.6357C32.7677 39.9629 33.4687 42.2215 34.6689 44.2203C34.9734 44.1285 35.2566 44.0201 35.5614 43.902Z" fill="#555555"/>
</g>
</mask>
<g mask="url(#mask0_80_121)">
<rect x="15.1992" y="-0.899902" width="69.6" height="55.2" fill="#707070"/>
</g>
<path d="M14.846 69.33H10.59L9.806 71.5H8.462L11.99 61.798H13.46L16.974 71.5H15.63L14.846 69.33ZM14.482 68.294L12.718 63.366L10.954 68.294H14.482ZM18.0356 67.636C18.0356 66.852 18.1943 66.166 18.5116 65.578C18.8289 64.9807 19.2629 64.5187 19.8136 64.192C20.3736 63.8653 20.9989 63.702 21.6896 63.702C22.2869 63.702 22.8423 63.842 23.3556 64.122C23.8689 64.3927 24.2609 64.752 24.5316 65.2V61.14H25.8196V71.5H24.5316V70.058C24.2796 70.5153 23.9063 70.8933 23.4116 71.192C22.9169 71.4813 22.3383 71.626 21.6756 71.626C20.9943 71.626 20.3736 71.458 19.8136 71.122C19.2629 70.786 18.8289 70.3147 18.5116 69.708C18.1943 69.1013 18.0356 68.4107 18.0356 67.636ZM24.5316 67.65C24.5316 67.0713 24.4149 66.5673 24.1816 66.138C23.9483 65.7087 23.6309 65.382 23.2296 65.158C22.8376 64.9247 22.4036 64.808 21.9276 64.808C21.4516 64.808 21.0176 64.92 20.6256 65.144C20.2336 65.368 19.9209 65.6947 19.6876 66.124C19.4543 66.5533 19.3376 67.0573 19.3376 67.636C19.3376 68.224 19.4543 68.7373 19.6876 69.176C19.9209 69.6053 20.2336 69.9367 20.6256 70.17C21.0176 70.394 21.4516 70.506 21.9276 70.506C22.4036 70.506 22.8376 70.394 23.2296 70.17C23.6309 69.9367 23.9483 69.6053 24.1816 69.176C24.4149 68.7373 24.5316 68.2287 24.5316 67.65ZM30.8285 70.324L33.2085 63.828H34.5665L31.5565 71.5H30.0725L27.0625 63.828H28.4345L30.8285 70.324ZM42.8202 67.37C42.8202 67.6127 42.8062 67.8693 42.7782 68.14H36.6462C36.6929 68.896 36.9495 69.4887 37.4162 69.918C37.8922 70.338 38.4662 70.548 39.1382 70.548C39.6889 70.548 40.1462 70.422 40.5102 70.17C40.8835 69.9087 41.1449 69.5633 41.2942 69.134H42.6662C42.4609 69.8713 42.0502 70.4733 41.4342 70.94C40.8182 71.3973 40.0529 71.626 39.1382 71.626C38.4102 71.626 37.7569 71.4627 37.1782 71.136C36.6089 70.8093 36.1609 70.3473 35.8342 69.75C35.5075 69.1433 35.3442 68.4433 35.3442 67.65C35.3442 66.8567 35.5029 66.1613 35.8202 65.564C36.1375 64.9667 36.5809 64.5093 37.1502 64.192C37.7289 63.8653 38.3915 63.702 39.1382 63.702C39.8662 63.702 40.5102 63.8607 41.0702 64.178C41.6302 64.4953 42.0595 64.934 42.3582 65.494C42.6662 66.0447 42.8202 66.67 42.8202 67.37ZM41.5042 67.104C41.5042 66.6187 41.3969 66.2033 41.1822 65.858C40.9675 65.5033 40.6735 65.2373 40.3002 65.06C39.9362 64.8733 39.5302 64.78 39.0822 64.78C38.4382 64.78 37.8875 64.9853 37.4302 65.396C36.9822 65.8067 36.7255 66.376 36.6602 67.104H41.5042ZM48.2398 63.688C49.1732 63.688 49.9292 63.9727 50.5078 64.542C51.0865 65.102 51.3758 65.914 51.3758 66.978V71.5H50.1158V67.16C50.1158 66.3947 49.9245 65.8113 49.5418 65.41C49.1592 64.9993 48.6365 64.794 47.9738 64.794C47.3018 64.794 46.7652 65.004 46.3638 65.424C45.9718 65.844 45.7758 66.4553 45.7758 67.258V71.5H44.5018V63.828H45.7758V64.92C46.0278 64.528 46.3685 64.2247 46.7978 64.01C47.2365 63.7953 47.7172 63.688 48.2398 63.688ZM55.0109 64.878V69.4C55.0109 69.7733 55.0902 70.0393 55.2489 70.198C55.4076 70.3473 55.6829 70.422 56.0749 70.422H57.0129V71.5H55.8649C55.1556 71.5 54.6236 71.3367 54.2689 71.01C53.9142 70.6833 53.7369 70.1467 53.7369 69.4V64.878H52.7429V63.828H53.7369V61.896H55.0109V63.828H57.0129V64.878H55.0109ZM65.3605 63.828V71.5H64.0865V70.366C63.8438 70.758 63.5032 71.066 63.0645 71.29C62.6352 71.5047 62.1592 71.612 61.6365 71.612C61.0392 71.612 60.5025 71.4907 60.0265 71.248C59.5505 70.996 59.1725 70.6227 58.8925 70.128C58.6218 69.6333 58.4865 69.0313 58.4865 68.322V63.828H59.7465V68.154C59.7465 68.91 59.9378 69.4933 60.3205 69.904C60.7032 70.3053 61.2258 70.506 61.8885 70.506C62.5698 70.506 63.1065 70.296 63.4985 69.876C63.8905 69.456 64.0865 68.8447 64.0865 68.042V63.828H65.3605ZM68.7856 65.074C69.0096 64.6353 69.3269 64.2947 69.7376 64.052C70.1576 63.8093 70.6663 63.688 71.2636 63.688V65.004H70.9276C69.4996 65.004 68.7856 65.7787 68.7856 67.328V71.5H67.5116V63.828H68.7856V65.074ZM79.7343 67.37C79.7343 67.6127 79.7203 67.8693 79.6923 68.14H73.5603C73.6069 68.896 73.8636 69.4887 74.3303 69.918C74.8063 70.338 75.3803 70.548 76.0523 70.548C76.6029 70.548 77.0603 70.422 77.4243 70.17C77.7976 69.9087 78.0589 69.5633 78.2083 69.134H79.5803C79.3749 69.8713 78.9643 70.4733 78.3483 70.94C77.7323 71.3973 76.9669 71.626 76.0523 71.626C75.3243 71.626 74.6709 71.4627 74.0923 71.136C73.5229 70.8093 73.0749 70.3473 72.7483 69.75C72.4216 69.1433 72.2583 68.4433 72.2583 67.65C72.2583 66.8567 72.4169 66.1613 72.7343 65.564C73.0516 64.9667 73.4949 64.5093 74.0643 64.192C74.6429 63.8653 75.3056 63.702 76.0523 63.702C76.7803 63.702 77.4243 63.8607 77.9843 64.178C78.5443 64.4953 78.9736 64.934 79.2723 65.494C79.5803 66.0447 79.7343 66.67 79.7343 67.37ZM78.4183 67.104C78.4183 66.6187 78.3109 66.2033 78.0963 65.858C77.8816 65.5033 77.5876 65.2373 77.2143 65.06C76.8503 64.8733 76.4443 64.78 75.9963 64.78C75.3523 64.78 74.8016 64.9853 74.3443 65.396C73.8963 65.8067 73.6396 66.376 73.5743 67.104H78.4183ZM84.1319 71.626C83.5439 71.626 83.0166 71.528 82.5499 71.332C82.0832 71.1267 81.7146 70.8467 81.4439 70.492C81.1732 70.128 81.0239 69.7127 80.9959 69.246H82.3119C82.3492 69.6287 82.5266 69.9413 82.8439 70.184C83.1706 70.4267 83.5952 70.548 84.1179 70.548C84.6032 70.548 84.9859 70.4407 85.2659 70.226C85.5459 70.0113 85.6859 69.7407 85.6859 69.414C85.6859 69.078 85.5366 68.8307 85.2379 68.672C84.9392 68.504 84.4772 68.3407 83.8519 68.182C83.2826 68.0327 82.8159 67.8833 82.4519 67.734C82.0972 67.5753 81.7892 67.3467 81.5279 67.048C81.2759 66.74 81.1499 66.3387 81.1499 65.844C81.1499 65.452 81.2666 65.0927 81.4999 64.766C81.7332 64.4393 82.0646 64.1827 82.4939 63.996C82.9232 63.8 83.4132 63.702 83.9639 63.702C84.8132 63.702 85.4992 63.9167 86.0219 64.346C86.5446 64.7753 86.8246 65.3633 86.8619 66.11H85.5879C85.5599 65.7087 85.3966 65.3867 85.0979 65.144C84.8086 64.9013 84.4166 64.78 83.9219 64.78C83.4646 64.78 83.1006 64.878 82.8299 65.074C82.5592 65.27 82.4239 65.5267 82.4239 65.844C82.4239 66.096 82.5032 66.306 82.6619 66.474C82.8299 66.6327 83.0352 66.7633 83.2779 66.866C83.5299 66.9593 83.8752 67.0667 84.3139 67.188C84.8646 67.3373 85.3126 67.4867 85.6579 67.636C86.0032 67.776 86.2972 67.9907 86.5399 68.28C86.7919 68.5693 86.9226 68.9473 86.9319 69.414C86.9319 69.834 86.8152 70.212 86.5819 70.548C86.3486 70.884 86.0172 71.15 85.5879 71.346C85.1679 71.5327 84.6826 71.626 84.1319 71.626Z" fill="#707070"/>
<defs>
<clipPath id="clip0_80_121">
<rect width="48" height="48" fill="white" transform="translate(24 5.5)"/>
</clipPath>
</defs>
</svg>
