<svg width="30" height="20" viewBox="0 0 30 20" fill="none" xmlns="http://www.w3.org/2000/svg">
<path fill-rule="evenodd" clip-rule="evenodd" d="M2.61404 0.00195392H27.3859C28.0405 0.00195392 28.6356 0.26835 29.0649 0.698146C29.4942 1.12745 29.7611 1.72164 29.7611 2.37674V16.9572C29.7611 17.6123 29.4942 18.2065 29.0649 18.6358C28.6356 19.0651 28.041 19.332 27.3859 19.332H2.61404C1.95894 19.332 1.36476 19.0651 0.93545 18.6358C0.506149 18.2065 0.239258 17.6123 0.239258 16.9572V2.37674C0.239258 1.72362 0.506148 1.12943 0.936443 0.699135L0.935453 0.698145C1.36475 0.268844 1.95894 0.00195392 2.61404 0.00195392ZM27.8924 17.4642L27.8914 17.4632C28.0211 17.3335 28.1018 17.1543 28.1018 16.9572V2.37675C28.1018 2.18017 28.0211 2.00092 27.8914 1.87119C27.7616 1.74146 27.5829 1.66124 27.3853 1.66124H2.61351C2.41644 1.66124 2.23719 1.74146 2.10746 1.87119L2.10647 1.8702C1.97723 1.99993 1.89751 2.17918 1.89751 2.37625V16.9567C1.89751 17.1533 1.97822 17.3325 2.10795 17.4622V17.4637C2.2362 17.592 2.41594 17.6727 2.61351 17.6727H27.3853C27.5829 17.6727 27.7626 17.5925 27.8919 17.4637L27.8924 17.4642Z" fill="#285680"/>
<path fill-rule="evenodd" clip-rule="evenodd" d="M9.79902 8.00359H20.1954C20.1973 8.00359 20.1993 8.00359 20.2008 8.00359C20.4885 8.00359 20.7207 7.77136 20.7207 7.48367C20.7207 7.2554 20.5737 7.0618 20.3697 6.99149L15.2111 4.67068C15.0754 4.60977 14.9209 4.60977 14.7848 4.67068L9.5861 7.0103C9.36179 7.11032 9.23949 7.35394 9.29099 7.5931C9.34248 7.83276 9.55392 8.00359 9.79902 8.00359ZM10.4492 13.6692C10.162 13.6692 9.92925 13.9019 9.92925 14.1896C9.92925 14.4768 10.1615 14.7095 10.4492 14.7095H19.5462C19.8334 14.7095 20.0661 14.4768 20.0661 14.1896C20.0661 13.9024 19.8334 13.6692 19.5462 13.6692H19.416V9.50591H19.6997C19.9562 9.50591 20.1642 9.27467 20.1642 8.98847C20.1637 8.70227 19.9562 8.47053 19.6997 8.47053H10.4165C10.1595 8.47053 9.95203 8.70227 9.95203 8.98847C9.95203 9.27417 10.1595 9.50591 10.4165 9.50591H10.5794V13.6692H10.4492ZM11.6187 9.50591H13.178V13.6692H11.6187V9.50591ZM14.2173 9.50591H15.7766V13.6692H14.2173V9.50591ZM16.8169 9.50591H18.3762V13.6692H16.8169V9.50591Z" fill="#4482C3"/>
</svg>
