<svg width="96" height="84" viewBox="0 0 96 84" fill="none" xmlns="http://www.w3.org/2000/svg">
<rect x="0.5" y="0.5" width="95" height="83" rx="7.5" fill="#EBEBEB" fill-opacity="0.2"/>
<rect x="0.5" y="0.5" width="95" height="83" rx="7.5" stroke="#E9E9E9"/>
<mask id="mask0_80_58" style="mask-type:alpha" maskUnits="userSpaceOnUse" x="24" y="7" width="48" height="45">
<path d="M71.8514 24.5799C69.6671 22.3182 66.3717 21.4375 63.235 22.2759C61.9426 22.6212 60.8089 23.2482 59.8641 24.0514C59.7734 22.8466 59.403 21.6559 58.7077 20.5709C57.0449 17.9639 53.9989 16.5055 50.7414 16.7591C50.5222 16.7732 50.3332 16.9071 50.2576 17.0973C50.1821 17.2876 50.2274 17.4989 50.3786 17.6469C52.6687 19.8945 54.6036 22.6916 56.274 26.1158C54.6338 24.904 52.5478 24.291 50.3786 24.453C47.1361 24.6926 44.3849 26.602 43.1983 29.4344C43.1227 29.6246 43.1605 29.836 43.3117 29.9839C43.4175 30.0896 43.5686 30.153 43.7274 30.153C43.7803 30.153 43.8407 30.146 43.8936 30.1319C47.3402 29.1314 51.2251 28.7439 55.6995 28.9623C53.7873 30.5828 52.0111 32.3724 50.4315 34.3452C49.0105 36.0785 47.7408 38.0724 46.6599 40.2706C46.1006 41.3557 45.6245 42.5746 45.1861 43.9978C43.3343 43.9978 41.5128 44.2092 39.7744 44.5897C39.7215 44.0683 39.6611 43.568 39.5628 43.1101C39.2454 41.4684 38.7616 39.9325 38.1267 38.5585C37.4843 37.1212 36.7134 35.7684 35.8366 34.4791C38.6256 35.0357 40.9686 35.8671 42.9489 37.0014C43.0396 37.0508 43.1454 37.0789 43.2436 37.0789C43.3495 37.0789 43.4553 37.0508 43.546 36.9944C43.7274 36.8817 43.8332 36.6844 43.8029 36.4871C43.5233 34.3593 42.0041 32.612 39.8349 31.9215C38.5954 31.5269 37.3105 31.534 36.1238 31.8863C37.711 30.1248 39.3512 28.7509 41.1047 27.7222C41.2861 27.6166 41.3919 27.4193 41.3692 27.215C41.3465 27.0106 41.1954 26.8415 40.9913 26.7781C38.8221 26.0736 36.4639 26.5808 34.8465 28.0886C34.257 28.6382 33.8186 29.2723 33.5238 29.9557C33.0552 29.3709 32.4657 28.8637 31.7628 28.4761C29.7825 27.3981 27.3639 27.4616 25.4592 28.6523C25.2854 28.765 25.1871 28.9552 25.2098 29.1525C25.2325 29.3498 25.3761 29.5189 25.5726 29.5894C26.8575 30.0403 28.0366 30.5264 29.1174 31.0478C28.9889 31.0619 28.868 31.0619 28.7395 31.083C26.4796 31.4424 24.6732 32.9361 24.0232 34.9934C23.9627 35.1836 24.0232 35.388 24.1743 35.5289C24.2801 35.6205 24.4238 35.6768 24.5674 35.6768C24.6278 35.6768 24.6958 35.6698 24.7563 35.6487C26.4342 35.0991 28.0139 34.6975 29.518 34.4509C29.1249 34.775 28.7697 35.1484 28.4749 35.5782C27.2203 37.3678 27.1825 39.6224 28.3616 41.4614C28.4674 41.6234 28.6488 41.715 28.8453 41.715C28.8604 41.715 28.868 41.715 28.8831 41.715C29.1023 41.6868 29.2837 41.5671 29.3668 41.3839C30.6215 38.6572 32.0575 36.473 33.743 34.7468C34.4232 36.2405 34.9523 37.7976 35.2924 39.3758C35.5796 40.63 35.7157 41.9898 35.693 43.4342C35.7006 44.3149 35.5796 45.1745 35.4058 45.9988C32.7378 47.1613 30.4401 48.7889 28.7697 50.7828H27.2581C26.9482 50.7828 26.6912 51.0224 26.6912 51.3113C26.6912 51.6001 26.9482 51.8397 27.2581 51.8397H63.1897C63.4996 51.8397 63.7566 51.6001 63.7566 51.3113C63.7566 51.0224 63.4996 50.7828 63.1897 50.7828H61.6781C59.2065 47.8377 55.3745 45.6888 50.9908 44.6742C51.0815 43.7512 51.2326 42.8071 51.5047 41.87C52.0338 39.8197 52.767 37.9174 53.6739 36.2123C54.8379 33.9718 56.2891 31.8299 57.9519 29.85C59.7885 32.9643 61.0583 36.6703 61.8065 41.1514C61.8368 41.3486 61.9879 41.5107 62.192 41.5741C62.2525 41.5952 62.3129 41.6023 62.3659 41.6023C62.5095 41.6023 62.6531 41.5459 62.7664 41.4473C65.0868 39.3124 65.8804 36.1912 64.8298 33.3165C64.467 32.3231 63.9077 31.4494 63.2048 30.6885C65.5554 31.5974 67.9665 32.8163 70.4833 34.3875C70.5816 34.4438 70.6874 34.4791 70.8008 34.4791C70.899 34.4791 70.9897 34.4579 71.0729 34.4157C71.2618 34.317 71.3677 34.1338 71.3601 33.9366C71.2467 30.8999 69.3269 28.2436 66.349 27.0106C65.9031 26.8274 65.4496 26.6936 64.9961 26.5808C66.9915 26.0947 69.1455 25.7283 71.5037 25.4888C71.7153 25.4676 71.8967 25.3408 71.9723 25.1506C72.0328 24.9392 71.995 24.7278 71.8514 24.5799ZM57.7251 21.1134C58.5414 22.3957 58.8664 23.8471 58.7153 25.2562C58.36 25.7213 58.0577 26.2286 57.8158 26.7711C56.1908 23.1848 54.2937 20.2256 52.0565 17.8089C54.3995 17.9851 56.5007 19.1899 57.7251 21.1134ZM44.7855 28.8002C45.9873 26.919 48.0733 25.686 50.4617 25.5099C50.6658 25.4958 50.8623 25.4888 51.0588 25.4888C53.2582 25.4888 55.299 26.3977 56.6821 27.9688C52.2077 27.6729 48.2925 27.9477 44.7855 28.8002ZM39.4721 32.929C40.8175 33.3588 41.8605 34.2959 42.3669 35.4866C40.3791 34.5214 38.0965 33.8027 35.436 33.3236C36.6378 32.6472 38.1041 32.4922 39.4721 32.929ZM35.6477 28.8355C36.5698 27.9829 37.7791 27.525 39.0262 27.525C39.1471 27.525 39.268 27.532 39.389 27.5391C37.6884 28.7016 36.0936 30.1953 34.5442 32.0483C34.4837 31.7876 34.4006 31.534 34.3023 31.2803C34.461 30.3785 34.9145 29.5189 35.6477 28.8355ZM31.1883 29.3921C32.0726 29.8782 32.7378 30.5898 33.1383 31.4212C33.1157 31.6115 33.1157 31.8088 33.1157 32.006C32.7604 31.7735 32.3901 31.5692 31.9895 31.4142C30.5837 30.5264 28.9813 29.7373 27.1523 29.0327C28.4674 28.5889 29.9412 28.7086 31.1883 29.3921ZM28.9284 32.1188C29.2005 32.0765 29.4726 32.0554 29.7447 32.0554C30.3494 32.0554 30.9389 32.1681 31.4907 32.3724C31.8535 32.6049 32.2011 32.8445 32.5412 33.0911C30.372 33.1474 28.0819 33.5279 25.5877 34.2607C26.2906 33.1333 27.4924 32.3442 28.9284 32.1188ZM28.8453 39.8831C28.4372 38.636 28.6337 37.2762 29.4197 36.1419C30.1982 35.0286 31.4226 34.317 32.7907 34.1479C31.3017 35.705 30.0017 37.6003 28.8453 39.8831ZM34.3023 34.2113C34.4308 34.2325 34.5668 34.2536 34.6953 34.2748C34.5215 34.31 34.3477 34.3311 34.1587 34.3523C34.204 34.3029 34.2494 34.2607 34.3023 34.2113ZM36.411 39.1574C36.1767 38.0653 35.8517 36.9803 35.4587 35.9164C36.0634 36.8887 36.6076 37.9103 37.0837 38.9742C37.6808 40.2847 38.1419 41.7432 38.4518 43.3144C38.5576 43.7935 38.6331 44.3078 38.6785 44.8644C37.9907 45.0476 37.318 45.259 36.668 45.4915C36.7814 44.8292 36.857 44.1317 36.8494 43.4271C36.857 41.9264 36.7134 40.4891 36.411 39.1574ZM60.2118 50.7758H30.2436C33.6296 47.2248 39.2529 45.0617 45.2239 45.0617C51.2024 45.0617 56.8257 47.2248 60.2118 50.7758ZM52.646 35.7332C51.7013 37.5087 50.9454 39.4815 50.3937 41.5952C50.1216 42.5394 49.9629 43.4976 49.8646 44.4276C48.7158 44.2162 47.5442 44.0753 46.3501 44.026C46.7431 42.7789 47.1739 41.6868 47.6727 40.7216C48.7233 38.5867 49.9553 36.6562 51.3233 34.9793C52.971 32.929 54.8077 31.069 56.8181 29.4132C55.2083 31.3931 53.7949 33.5209 52.646 35.7332ZM63.749 33.6336C64.5275 35.7825 64.1269 38.0794 62.7211 39.855C61.935 35.7544 60.6955 32.302 58.9647 29.3498C59.0629 29.3709 59.1612 29.3921 59.2594 29.4132C61.3531 30.0967 63.0083 31.6185 63.749 33.6336ZM65.8804 27.9477C68.1025 28.8707 69.6444 30.7026 70.0903 32.8727C66.4397 30.7026 62.9705 29.23 59.5693 28.4057C59.5466 28.3986 59.524 28.3916 59.5013 28.3845C60.2949 28.0323 61.1263 27.7222 61.9879 27.4263C63.2804 27.2643 64.6182 27.4263 65.8804 27.9477ZM61.7536 26.3765C60.9751 26.4752 60.2118 26.6795 59.4937 26.9824C59.6449 26.5527 59.7432 26.1088 59.8112 25.6649C60.7408 24.5517 62.0257 23.7062 63.5525 23.2975C64.2327 23.1144 64.9205 23.0298 65.6008 23.0298C67.256 23.0298 68.8659 23.5582 70.1735 24.5517C67.0519 24.9251 64.263 25.531 61.7536 26.3765Z" fill="black"/>
<path d="M39.3599 19.0127C42.761 19.0127 45.5349 16.4269 45.5349 13.2563C45.5349 10.0858 42.761 7.5 39.3599 7.5C35.9587 7.5 33.1924 10.0858 33.1924 13.2563C33.1924 16.434 35.9587 19.0127 39.3599 19.0127ZM39.3599 8.55686C42.1413 8.55686 44.4012 10.6635 44.4012 13.2563C44.4012 15.8492 42.1413 17.9558 39.3599 17.9558C36.586 17.9558 34.3261 15.8492 34.3261 13.2563C34.3261 10.6635 36.586 8.55686 39.3599 8.55686Z" fill="black"/>
</mask>
<g mask="url(#mask0_80_58)">
<rect x="11.5161" y="3.67261" width="65.0654" height="60.526" fill="#707070"/>
</g>
<path d="M14.964 64.8136C15.3187 64.8696 15.6407 65.0143 15.93 65.2476C16.2287 65.4809 16.462 65.7703 16.63 66.1156C16.8073 66.4609 16.896 66.8296 16.896 67.2216C16.896 67.7163 16.77 68.1643 16.518 68.5656C16.266 68.9576 15.8973 69.2703 15.412 69.5036C14.936 69.7276 14.3713 69.8396 13.718 69.8396H10.078V60.0816H13.578C14.2407 60.0816 14.8053 60.1936 15.272 60.4176C15.7387 60.6323 16.0887 60.9263 16.322 61.2996C16.5553 61.6729 16.672 62.0929 16.672 62.5596C16.672 63.1383 16.5133 63.6189 16.196 64.0016C15.888 64.3749 15.4773 64.6456 14.964 64.8136ZM11.352 64.2956H13.494C14.0913 64.2956 14.5533 64.1556 14.88 63.8756C15.2067 63.5956 15.37 63.2083 15.37 62.7136C15.37 62.2189 15.2067 61.8316 14.88 61.5516C14.5533 61.2716 14.082 61.1316 13.466 61.1316H11.352V64.2956ZM13.606 68.7896C14.2407 68.7896 14.7353 68.6403 15.09 68.3416C15.4447 68.0429 15.622 67.6276 15.622 67.0956C15.622 66.5543 15.4353 66.1296 15.062 65.8216C14.6887 65.5043 14.1893 65.3456 13.564 65.3456H11.352V68.7896H13.606ZM25.6639 65.7096C25.6639 65.9523 25.6499 66.2089 25.6219 66.4796H19.4899C19.5366 67.2356 19.7933 67.8283 20.2599 68.2576C20.7359 68.6776 21.3099 68.8876 21.9819 68.8876C22.5326 68.8876 22.9899 68.7616 23.3539 68.5096C23.7273 68.2483 23.9886 67.9029 24.1379 67.4736H25.5099C25.3046 68.2109 24.8939 68.8129 24.2779 69.2796C23.6619 69.7369 22.8966 69.9656 21.9819 69.9656C21.2539 69.9656 20.6006 69.8023 20.0219 69.4756C19.4526 69.1489 19.0046 68.6869 18.6779 68.0896C18.3513 67.4829 18.1879 66.7829 18.1879 65.9896C18.1879 65.1963 18.3466 64.5009 18.6639 63.9036C18.9813 63.3063 19.4246 62.8489 19.9939 62.5316C20.5726 62.2049 21.2353 62.0416 21.9819 62.0416C22.7099 62.0416 23.3539 62.2003 23.9139 62.5176C24.4739 62.8349 24.9033 63.2736 25.2019 63.8336C25.5099 64.3843 25.6639 65.0096 25.6639 65.7096ZM24.3479 65.4436C24.3479 64.9583 24.2406 64.5429 24.0259 64.1976C23.8113 63.8429 23.5173 63.5769 23.1439 63.3996C22.7799 63.2129 22.3739 63.1196 21.9259 63.1196C21.2819 63.1196 20.7313 63.3249 20.2739 63.7356C19.8259 64.1463 19.5693 64.7156 19.5039 65.4436H24.3479ZM26.8696 65.9756C26.8696 65.1916 27.0282 64.5056 27.3456 63.9176C27.6629 63.3203 28.0969 62.8583 28.6476 62.5316C29.2076 62.2049 29.8282 62.0416 30.5096 62.0416C31.1816 62.0416 31.7649 62.1863 32.2596 62.4756C32.7542 62.7649 33.1229 63.1289 33.3656 63.5676V62.1676H34.6536V69.8396H33.3656V68.4116C33.1136 68.8596 32.7356 69.2329 32.2316 69.5316C31.7369 69.8209 31.1582 69.9656 30.4956 69.9656C29.8142 69.9656 29.1982 69.7976 28.6476 69.4616C28.0969 69.1256 27.6629 68.6543 27.3456 68.0476C27.0282 67.4409 26.8696 66.7503 26.8696 65.9756ZM33.3656 65.9896C33.3656 65.4109 33.2489 64.9069 33.0156 64.4776C32.7822 64.0483 32.4649 63.7216 32.0636 63.4976C31.6716 63.2643 31.2376 63.1476 30.7616 63.1476C30.2856 63.1476 29.8516 63.2596 29.4596 63.4836C29.0676 63.7076 28.7549 64.0343 28.5216 64.4636C28.2882 64.8929 28.1716 65.3969 28.1716 65.9756C28.1716 66.5636 28.2882 67.0769 28.5216 67.5156C28.7549 67.9449 29.0676 68.2763 29.4596 68.5096C29.8516 68.7336 30.2856 68.8456 30.7616 68.8456C31.2376 68.8456 31.6716 68.7336 32.0636 68.5096C32.4649 68.2763 32.7822 67.9449 33.0156 67.5156C33.2489 67.0769 33.3656 66.5683 33.3656 65.9896ZM36.3305 65.9896C36.3305 65.1963 36.4892 64.5056 36.8065 63.9176C37.1238 63.3203 37.5625 62.8583 38.1225 62.5316C38.6918 62.2049 39.3405 62.0416 40.0685 62.0416C41.0112 62.0416 41.7858 62.2703 42.3925 62.7276C43.0085 63.1849 43.4145 63.8196 43.6105 64.6316H42.2385C42.1078 64.1649 41.8512 63.7963 41.4685 63.5256C41.0952 63.2549 40.6285 63.1196 40.0685 63.1196C39.3405 63.1196 38.7525 63.3716 38.3045 63.8756C37.8565 64.3703 37.6325 65.0749 37.6325 65.9896C37.6325 66.9136 37.8565 67.6276 38.3045 68.1316C38.7525 68.6356 39.3405 68.8876 40.0685 68.8876C40.6285 68.8876 41.0952 68.7569 41.4685 68.4956C41.8418 68.2343 42.0985 67.8609 42.2385 67.3756H43.6105C43.4052 68.1596 42.9945 68.7896 42.3785 69.2656C41.7625 69.7323 40.9925 69.9656 40.0685 69.9656C39.3405 69.9656 38.6918 69.8023 38.1225 69.4756C37.5625 69.1489 37.1238 68.6869 36.8065 68.0896C36.4892 67.4923 36.3305 66.7923 36.3305 65.9896ZM49.1184 62.0276C49.6971 62.0276 50.2198 62.1536 50.6864 62.4056C51.1531 62.6483 51.5171 63.0169 51.7784 63.5116C52.0491 64.0063 52.1844 64.6083 52.1844 65.3176V69.8396H50.9244V65.4996C50.9244 64.7343 50.7331 64.1509 50.3504 63.7496C49.9678 63.3389 49.4451 63.1336 48.7824 63.1336C48.1104 63.1336 47.5738 63.3436 47.1724 63.7636C46.7804 64.1836 46.5844 64.7949 46.5844 65.5976V69.8396H45.3104V59.4796H46.5844V63.2596C46.8364 62.8676 47.1818 62.5643 47.6204 62.3496C48.0684 62.1349 48.5678 62.0276 49.1184 62.0276ZM57.3875 63.2176H55.7775V69.8396H54.5035V63.2176H53.5095V62.1676H54.5035V61.6216C54.5035 60.7629 54.7228 60.1376 55.1615 59.7456C55.6095 59.3443 56.3235 59.1436 57.3035 59.1436V60.2076C56.7435 60.2076 56.3468 60.3196 56.1135 60.5436C55.8895 60.7583 55.7775 61.1176 55.7775 61.6216V62.1676H57.3875V63.2176ZM60.1469 63.4136C60.3709 62.9749 60.6883 62.6343 61.0989 62.3916C61.5189 62.1489 62.0276 62.0276 62.6249 62.0276V63.3436H62.2889C60.8609 63.3436 60.1469 64.1183 60.1469 65.6676V69.8396H58.8729V62.1676H60.1469V63.4136ZM67.4416 69.9656C66.7229 69.9656 66.0696 69.8023 65.4816 69.4756C64.9029 69.1489 64.4456 68.6869 64.1096 68.0896C63.7829 67.4829 63.6196 66.7829 63.6196 65.9896C63.6196 65.2056 63.7876 64.5149 64.1236 63.9176C64.4689 63.3109 64.9356 62.8489 65.5236 62.5316C66.1116 62.2049 66.7696 62.0416 67.4976 62.0416C68.2256 62.0416 68.8836 62.2049 69.4716 62.5316C70.0596 62.8489 70.5216 63.3063 70.8576 63.9036C71.2029 64.5009 71.3756 65.1963 71.3756 65.9896C71.3756 66.7829 71.1982 67.4829 70.8436 68.0896C70.4982 68.6869 70.0269 69.1489 69.4296 69.4756C68.8322 69.8023 68.1696 69.9656 67.4416 69.9656ZM67.4416 68.8456C67.8989 68.8456 68.3282 68.7383 68.7296 68.5236C69.1309 68.3089 69.4529 67.9869 69.6956 67.5576C69.9476 67.1283 70.0736 66.6056 70.0736 65.9896C70.0736 65.3736 69.9522 64.8509 69.7096 64.4216C69.4669 63.9923 69.1496 63.6749 68.7576 63.4696C68.3656 63.2549 67.9409 63.1476 67.4836 63.1476C67.0169 63.1476 66.5876 63.2549 66.1956 63.4696C65.8129 63.6749 65.5049 63.9923 65.2716 64.4216C65.0382 64.8509 64.9216 65.3736 64.9216 65.9896C64.9216 66.6149 65.0336 67.1423 65.2576 67.5716C65.4909 68.0009 65.7989 68.3229 66.1816 68.5376C66.5642 68.7429 66.9842 68.8456 67.4416 68.8456ZM76.7887 62.0276C77.722 62.0276 78.478 62.3123 79.0567 62.8816C79.6353 63.4416 79.9247 64.2536 79.9247 65.3176V69.8396H78.6647V65.4996C78.6647 64.7343 78.4733 64.1509 78.0907 63.7496C77.708 63.3389 77.1853 63.1336 76.5227 63.1336C75.8507 63.1336 75.314 63.3436 74.9127 63.7636C74.5207 64.1836 74.3247 64.7949 74.3247 65.5976V69.8396H73.0507V62.1676H74.3247V63.2596C74.5767 62.8676 74.9173 62.5643 75.3467 62.3496C75.7853 62.1349 76.266 62.0276 76.7887 62.0276ZM83.5597 63.2176V67.7396C83.5597 68.1129 83.6391 68.3789 83.7977 68.5376C83.9564 68.6869 84.2317 68.7616 84.6237 68.7616H85.5617V69.8396H84.4137C83.7044 69.8396 83.1724 69.6763 82.8177 69.3496C82.4631 69.0229 82.2857 68.4863 82.2857 67.7396V63.2176H81.2917V62.1676H82.2857V60.2356H83.5597V62.1676H85.5617V63.2176H83.5597Z" fill="#707070"/>
</svg>
