<svg width="417" height="332" viewBox="0 0 417 332" fill="none" xmlns="http://www.w3.org/2000/svg">
<g clip-path="url(#clip0_426_395)">
<g filter="url(#filter0_di_426_395)">
<path d="M391.316 3.01818H25.6851C15.672 3.01818 7.55469 11.1259 7.55469 21.1273V301.818C7.55469 311.82 15.672 319.927 25.6851 319.927H391.316C401.329 319.927 409.446 311.82 409.446 301.818V21.1273C409.446 11.1259 401.329 3.01818 391.316 3.01818Z" fill="white"/>
<path d="M391.315 3.39545H25.6844C15.8798 3.39545 7.93164 11.3343 7.93164 21.1273V301.818C7.93164 311.611 15.8798 319.55 25.6844 319.55H391.315C401.119 319.55 409.068 311.611 409.068 301.818V21.1273C409.068 11.3343 401.119 3.39545 391.315 3.39545Z" stroke="#EFEFEF"/>
<path d="M49.1027 119.595H30.2168C25.4188 119.595 21.5293 123.48 21.5293 128.273C21.5293 133.065 25.4188 136.95 30.2168 136.95H49.1027C53.9006 136.95 57.7902 133.065 57.7902 128.273C57.7902 123.48 53.9006 119.595 49.1027 119.595Z" fill="#E8FFF4"/>
<path d="M49.1027 119.595H30.2168C25.4188 119.595 21.5293 123.48 21.5293 128.273C21.5293 133.065 25.4188 136.95 30.2168 136.95H49.1027C53.9006 136.95 57.7902 133.065 57.7902 128.273C57.7902 123.48 53.9006 119.595 49.1027 119.595Z" stroke="#8FE7BE"/>
<path d="M30.7237 126.174V132.297H29.7164V126.174L27.015 128.873L26.3027 128.161L30.22 124.249L34.1373 128.161L33.425 128.873L30.7237 126.174Z" fill="#1DBF73"/>
<path d="M36.7363 125.443V124.345H38.9362V132.045H37.7199V125.443H36.7363ZM41.2587 130.408C41.9356 129.823 42.468 129.345 42.8557 128.971C43.2506 128.591 43.5785 128.197 43.8393 127.788C44.1002 127.38 44.2306 126.971 44.2306 126.563C44.2306 126.14 44.1284 125.809 43.9239 125.57C43.7265 125.331 43.4128 125.211 42.9826 125.211C42.5667 125.211 42.2423 125.344 42.0096 125.612C41.7841 125.873 41.6642 126.225 41.6501 126.669H40.4867C40.5078 125.866 40.7476 125.253 41.2059 124.83C41.6712 124.401 42.26 124.186 42.9721 124.186C43.7406 124.186 44.3399 124.397 44.77 124.82C45.2072 125.242 45.4257 125.806 45.4257 126.51C45.4257 127.017 45.2953 127.507 45.0344 127.978C44.7806 128.443 44.4739 128.862 44.1143 129.236C43.7618 129.601 43.3105 130.028 42.7605 130.514L42.2846 130.936H45.6372V131.94H40.4973V131.063L41.2587 130.408ZM46.5061 126.204C46.5061 125.69 46.6541 125.289 46.9503 125C47.2534 124.704 47.6413 124.556 48.1136 124.556C48.586 124.556 48.9703 124.704 49.2664 125C49.5696 125.289 49.7212 125.69 49.7212 126.204C49.7212 126.718 49.5696 127.123 49.2664 127.419C48.9703 127.714 48.586 127.862 48.1136 127.862C47.6413 127.862 47.2534 127.714 46.9503 127.419C46.6541 127.123 46.5061 126.718 46.5061 126.204ZM52.9575 124.693L48.7376 132.045H47.5531L51.773 124.693H52.9575ZM48.1136 125.285C47.6694 125.285 47.4473 125.591 47.4473 126.204C47.4473 126.823 47.6694 127.133 48.1136 127.133C48.3252 127.133 48.4873 127.059 48.6001 126.912C48.72 126.757 48.7799 126.521 48.7799 126.204C48.7799 125.591 48.5578 125.285 48.1136 125.285ZM50.8105 130.524C50.8105 130.01 50.9586 129.609 51.2547 129.32C51.5579 129.024 51.9457 128.876 52.4181 128.876C52.8834 128.876 53.2642 129.024 53.5603 129.32C53.8635 129.609 54.0151 130.01 54.0151 130.524C54.0151 131.038 53.8635 131.443 53.5603 131.739C53.2642 132.035 52.8834 132.183 52.4181 132.183C51.9457 132.183 51.5579 132.035 51.2547 131.739C50.9586 131.443 50.8105 131.038 50.8105 130.524ZM52.4075 129.605C51.9633 129.605 51.7412 129.912 51.7412 130.524C51.7412 131.137 51.9633 131.443 52.4075 131.443C52.8517 131.443 53.0738 131.137 53.0738 130.524C53.0738 129.912 52.8517 129.605 52.4075 129.605Z" fill="#1DBF73"/>
<path d="M29.5781 28.6727C30.0336 28.0772 30.5761 27.5572 31.2223 27.1636H35.2567C38.1372 28.9181 38.9569 33.1829 39.1902 35.468C39.2748 36.2972 38.6066 36.9727 37.7721 36.9727H34.7504" stroke="#5654D4" stroke-width="2" stroke-linecap="round" stroke-linejoin="round"/>
<path d="M36.682 23.6213L35.5056 23.7682L33.4876 23.4323C33.3232 23.4049 33.1553 23.4049 32.9909 23.4323L30.973 23.7682L29.7966 23.6213C29.1238 23.5373 28.6894 24.3126 29.113 24.8414L30.973 27.1636H35.5056L37.3656 24.8414C37.7892 24.3126 37.3548 23.5373 36.682 23.6213Z" stroke="#5654D4" stroke-width="2" stroke-linecap="round" stroke-linejoin="round"/>
<path d="M26.4414 35.4636C26.4414 34.8386 26.9488 34.3318 27.5746 34.3318H30.5963C31.2221 34.3318 31.7294 34.8386 31.7294 35.4636V35.8409C31.7294 36.466 31.2221 36.9727 30.5963 36.9727H27.5746C26.9488 36.9727 26.4414 36.466 26.4414 35.8409V35.4636Z" stroke="#5654D4" stroke-width="2" stroke-linecap="round" stroke-linejoin="round"/>
<path d="M26.4414 32.8227C26.4414 32.1977 26.9488 31.6909 27.5746 31.6909H30.5963C31.2221 31.6909 31.7294 32.1977 31.7294 32.8227V33.2C31.7294 33.8251 31.2221 34.3318 30.5963 34.3318H27.5746C26.9488 34.3318 26.4414 33.8251 26.4414 33.2V32.8227Z" stroke="#5654D4" stroke-width="2" stroke-linecap="round" stroke-linejoin="round"/>
<path d="M50.4172 35.4636V33.8791H53.3181C53.9124 33.8791 54.4059 33.7483 54.7987 33.4867C55.2016 33.2151 55.4988 32.8328 55.6901 32.3398C55.8916 31.8368 55.9923 31.2281 55.9923 30.5138C55.9923 29.9202 55.9319 29.4122 55.811 28.9896C55.6901 28.5571 55.5038 28.1999 55.252 27.9182C55.0002 27.6365 54.6829 27.4302 54.3001 27.2995C53.9275 27.1586 53.4843 27.0882 52.9706 27.0882H50.4172V25.5036H52.9101C54.0886 25.5036 55.0505 25.6998 55.7959 26.0922C56.5413 26.4845 57.0902 27.048 57.4428 27.7824C57.8054 28.5067 57.9867 29.382 57.9867 30.4082C57.9867 31.1325 57.9011 31.7764 57.7298 32.3398C57.5586 32.8931 57.3269 33.3711 57.0348 33.7735C56.7427 34.1658 56.4003 34.4878 56.0074 34.7393C55.6146 34.9908 55.1916 35.1769 54.7383 35.2976C54.2951 35.4083 53.8418 35.4636 53.3785 35.4636H50.4172ZM49.4805 35.4636V25.5036H51.3993V35.4636H49.4805ZM61.484 35.6598C61.0509 35.6598 60.6631 35.5793 60.3206 35.4184C59.9781 35.2473 59.7062 34.9958 59.5047 34.6638C59.3033 34.3318 59.2025 33.9193 59.2025 33.4264C59.2025 33.0139 59.2831 32.6618 59.4443 32.37C59.6055 32.0782 59.8422 31.8418 60.1544 31.6607C60.4667 31.4696 60.8494 31.3136 61.3026 31.1929C61.766 31.0621 62.2998 30.9565 62.9042 30.876C63.2567 30.8156 63.5438 30.7603 63.7654 30.71C63.987 30.6597 64.1481 30.5842 64.2488 30.4836C64.3597 30.3729 64.415 30.2171 64.415 30.0158C64.415 29.6939 64.2992 29.4222 64.0675 29.2009C63.846 28.9796 63.4985 28.8689 63.025 28.8689C62.733 28.8689 62.456 28.9192 62.1941 29.0198C61.9322 29.1204 61.7056 29.2814 61.5142 29.5027C61.3228 29.714 61.1919 29.9957 61.1213 30.3478L59.4141 29.8347C59.5148 29.4323 59.6709 29.0802 59.8824 28.7784C60.094 28.4665 60.3559 28.2049 60.6681 27.9936C60.9804 27.7824 61.3379 27.6264 61.7408 27.5258C62.1538 27.4252 62.597 27.3749 63.0704 27.3749C63.8057 27.3749 64.4101 27.4956 64.8834 27.7371C65.3568 27.9785 65.7094 28.3508 65.941 28.8538C66.1727 29.3468 66.2885 29.9806 66.2885 30.7553V32.2342C66.2885 32.5762 66.2936 32.9334 66.3036 33.3056C66.3238 33.6678 66.344 34.0351 66.3641 34.4073C66.3943 34.7695 66.4245 35.1216 66.4547 35.4636H64.7474C64.7172 35.1719 64.687 34.8651 64.6568 34.5431C64.6266 34.2111 64.6065 33.874 64.5963 33.532H64.3546C64.2237 33.9244 64.0273 34.2815 63.7654 34.6035C63.5035 34.9254 63.1812 35.182 62.7984 35.3731C62.4157 35.5642 61.9776 35.6598 61.484 35.6598ZM62.2243 34.2413C62.4257 34.2413 62.6322 34.206 62.8437 34.1356C63.0553 34.0652 63.2618 33.9596 63.4632 33.8187C63.6647 33.6779 63.851 33.5018 64.0222 33.2905C64.1935 33.0692 64.3345 32.8127 64.4453 32.5209L64.4301 31.2382L64.7928 31.2985C64.6216 31.4394 64.41 31.55 64.1582 31.6305C63.9164 31.7111 63.6546 31.7764 63.3725 31.8267C63.1006 31.8669 62.8236 31.9122 62.5416 31.9625C62.2696 32.0129 62.0229 32.0833 61.8012 32.1738C61.5797 32.2543 61.3984 32.3751 61.2573 32.536C61.1264 32.6869 61.0609 32.8982 61.0609 33.1698C61.0609 33.5119 61.1667 33.7785 61.3782 33.9696C61.5998 34.1507 61.8818 34.2413 62.2243 34.2413ZM71.2032 35.6598C70.6694 35.6598 70.1859 35.6045 69.7528 35.4938C69.3297 35.3932 68.9621 35.2423 68.6499 35.0411C68.3477 34.8399 68.1059 34.5984 67.9246 34.3167C67.7534 34.0351 67.6527 33.7131 67.6225 33.3509L69.1182 32.8378C69.1484 33.0994 69.2491 33.3409 69.4204 33.5622C69.6017 33.7735 69.8485 33.9395 70.1607 34.0602C70.4831 34.1709 70.8708 34.2262 71.3241 34.2262C71.8277 34.2262 72.2155 34.1507 72.4875 33.9998C72.7695 33.8389 72.9105 33.6125 72.9105 33.3207C72.9105 33.1095 72.8299 32.9435 72.6688 32.8227C72.5177 32.692 72.3011 32.5863 72.0191 32.5058C71.7371 32.4153 71.3946 32.3298 70.9917 32.2493C70.6089 32.1688 70.2262 32.0782 69.8434 31.9776C69.4708 31.8669 69.1233 31.7261 68.8009 31.5551C68.4887 31.374 68.2369 31.1426 68.0455 30.8609C67.8542 30.5691 67.7584 30.2069 67.7584 29.7744C67.7584 29.2915 67.8844 28.874 68.1362 28.5218C68.3981 28.1596 68.7758 27.878 69.2693 27.6767C69.7628 27.4755 70.3521 27.3749 71.037 27.3749C71.6918 27.3749 72.2558 27.4655 72.7292 27.6465C73.2127 27.8276 73.6004 28.0892 73.8926 28.4313C74.1947 28.7733 74.3861 29.1858 74.4667 29.6687L72.8803 30.1365C72.8601 29.8549 72.7695 29.6134 72.6083 29.4122C72.4472 29.2109 72.2306 29.06 71.9587 28.9595C71.6967 28.8589 71.3845 28.8085 71.0219 28.8085C70.5586 28.8085 70.196 28.8891 69.9341 29.05C69.6722 29.2109 69.5413 29.4273 69.5413 29.6989C69.5413 29.9202 69.6219 30.0963 69.783 30.2271C69.9543 30.3579 70.1859 30.4635 70.478 30.544C70.7701 30.6245 71.1126 30.71 71.5054 30.8005C71.8982 30.8709 72.281 30.9615 72.6537 31.0722C73.0364 31.1728 73.3789 31.3086 73.681 31.4796C73.9832 31.6507 74.225 31.8771 74.4063 32.1587C74.5876 32.4304 74.6782 32.7825 74.6782 33.2151C74.6782 33.7382 74.5372 34.186 74.2552 34.5582C73.9832 34.9204 73.5853 35.1971 73.0616 35.3882C72.5479 35.5693 71.9284 35.6598 71.2032 35.6598ZM76.0846 35.4636V30.6496V24.7793H78.0185V27.1938C78.0185 27.4051 78.0087 27.6264 77.9883 27.8578C77.9785 28.0892 77.9581 28.3256 77.9279 28.5671C77.8977 28.8085 77.8622 29.05 77.8221 29.2915C77.7919 29.5329 77.7564 29.7744 77.7164 30.0158H78.0034C78.1447 29.4524 78.326 28.9745 78.5473 28.5822C78.7687 28.1898 79.0557 27.8931 79.4085 27.6918C79.7613 27.4805 80.1942 27.3749 80.7079 27.3749C81.6144 27.3749 82.289 27.6969 82.7324 28.3407C83.1857 28.9745 83.4123 29.9353 83.4123 31.2231V35.4636H81.4935V31.4796C81.4935 30.6245 81.3674 29.9957 81.1158 29.5933C80.8643 29.1909 80.4865 28.9896 79.9827 28.9896C79.5596 28.9896 79.2068 29.1204 78.925 29.382C78.6433 29.6335 78.4265 29.9756 78.2754 30.4082C78.1243 30.8408 78.0336 31.3388 78.0034 31.9022V35.4636H76.0846ZM89.7467 35.6598C89.2534 35.6598 88.8205 35.5642 88.4473 35.3731C88.0847 35.1719 87.7878 34.8902 87.5559 34.528C87.3345 34.1558 87.1736 33.7181 87.0724 33.2151H86.8156L86.8307 35.4636H85.214V31.6305V24.7793H87.1329V27.2844C87.1329 27.5359 87.1177 27.8025 87.0875 28.0842C87.0573 28.3659 87.0173 28.6576 86.9667 28.9595C86.9168 29.2613 86.8609 29.5681 86.8005 29.88H87.1026C87.2341 29.3871 87.4048 28.9544 87.6163 28.5822C87.8384 28.21 88.1255 27.9182 88.4775 27.7069C88.8401 27.4956 89.2738 27.39 89.7769 27.39C90.4318 27.39 90.9961 27.5611 91.469 27.9031C91.9427 28.2451 92.3106 28.728 92.572 29.3518C92.8341 29.9655 92.9648 30.7 92.9648 31.5551C92.9648 32.38 92.8341 33.1044 92.572 33.7282C92.3204 34.3419 91.9525 34.8198 91.469 35.1618C90.9961 35.4938 90.422 35.6598 89.7467 35.6598ZM89.1423 34.0904C89.5155 34.0904 89.8373 33.9847 90.1093 33.7735C90.3918 33.5622 90.6078 33.2654 90.7589 32.8831C90.91 32.5008 90.9856 32.0531 90.9856 31.54C90.9856 31.0269 90.91 30.5792 90.7589 30.1969C90.6184 29.8146 90.4114 29.5128 90.1395 29.2915C89.8781 29.0701 89.5502 28.9595 89.1574 28.9595C88.896 28.9595 88.6543 29.0148 88.4322 29.1255C88.2207 29.226 88.0348 29.3669 87.8732 29.548C87.7123 29.7191 87.571 29.9102 87.4501 30.1215C87.3398 30.3327 87.259 30.554 87.2084 30.7855C87.1585 31.0068 87.1329 31.218 87.1329 31.4193V31.6607C87.1329 31.9223 87.1736 32.194 87.2537 32.4756C87.3345 32.7573 87.4607 33.0189 87.6314 33.2604C87.8029 33.5018 88.0144 33.7031 88.266 33.864C88.5183 34.0149 88.8099 34.0904 89.1423 34.0904ZM98.0119 35.6598C97.236 35.6598 96.5516 35.5039 95.9571 35.192C95.3626 34.87 94.8942 34.4022 94.552 33.7885C94.2196 33.1648 94.0534 32.4002 94.0534 31.4947C94.0534 30.5691 94.2249 29.8045 94.5671 29.2009C94.9199 28.5872 95.3928 28.1295 95.9873 27.8276C96.5818 27.5258 97.2511 27.3749 97.9968 27.3749C98.762 27.3749 99.4419 27.5309 100.036 27.8427C100.631 28.1546 101.099 28.6224 101.442 29.2462C101.784 29.8599 101.955 30.6245 101.955 31.54C101.955 32.4656 101.784 33.2352 101.442 33.8489C101.099 34.4626 100.626 34.9204 100.021 35.2222C99.4268 35.514 98.7575 35.6598 98.0119 35.6598ZM98.0723 34.2111C98.4953 34.2111 98.8527 34.1155 99.145 33.9244C99.4374 33.7231 99.6587 33.4264 99.8098 33.034C99.9609 32.6416 100.036 32.1738 100.036 31.6305C100.036 31.0571 99.9556 30.5691 99.7947 30.1667C99.6338 29.7542 99.3966 29.4373 99.0846 29.216C98.7824 28.9947 98.4047 28.884 97.9514 28.884C97.5382 28.884 97.1809 28.9846 96.8787 29.1858C96.5864 29.3769 96.3597 29.6687 96.1988 30.0611C96.0477 30.4434 95.9722 30.9112 95.9722 31.4645C95.9722 32.3499 96.1588 33.0289 96.5312 33.5018C96.9036 33.9747 97.4173 34.2111 98.0723 34.2111ZM105.287 35.6598C104.855 35.6598 104.466 35.5793 104.124 35.4184C103.782 35.2473 103.51 34.9958 103.308 34.6638C103.107 34.3318 103.006 33.9193 103.006 33.4264C103.006 33.0139 103.087 32.6618 103.248 32.37C103.409 32.0782 103.646 31.8418 103.958 31.6607C104.27 31.4696 104.653 31.3136 105.106 31.1929C105.569 31.0621 106.103 30.9565 106.708 30.876C107.06 30.8156 107.348 30.7603 107.569 30.71C107.79 30.6597 107.952 30.5842 108.052 30.4836C108.163 30.3729 108.219 30.2171 108.219 30.0158C108.219 29.6939 108.103 29.4222 107.871 29.2009C107.65 28.9796 107.302 28.8689 106.829 28.8689C106.536 28.8689 106.26 28.9192 105.998 29.0198C105.735 29.1204 105.509 29.2814 105.318 29.5027C105.127 29.714 104.995 29.9957 104.925 30.3478L103.218 29.8347C103.318 29.4323 103.474 29.0802 103.686 28.7784C103.897 28.4665 104.16 28.2049 104.472 27.9936C104.784 27.7824 105.142 27.6264 105.544 27.5258C105.958 27.4252 106.4 27.3749 106.874 27.3749C107.609 27.3749 108.213 27.4956 108.687 27.7371C109.161 27.9785 109.513 28.3508 109.745 28.8538C109.976 29.3468 110.092 29.9806 110.092 30.7553V32.2342C110.092 32.5762 110.097 32.9334 110.107 33.3056C110.128 33.6678 110.147 34.0351 110.168 34.4073C110.198 34.7695 110.228 35.1216 110.258 35.4636H108.551C108.521 35.1719 108.491 34.8651 108.46 34.5431C108.43 34.2111 108.41 33.874 108.4 33.532H108.158C108.027 33.9244 107.831 34.2815 107.569 34.6035C107.307 34.9254 106.985 35.182 106.602 35.3731C106.219 35.5642 105.781 35.6598 105.287 35.6598ZM106.028 34.2413C106.229 34.2413 106.436 34.206 106.647 34.1356C106.859 34.0652 107.065 33.9596 107.267 33.8187C107.468 33.6779 107.654 33.5018 107.826 33.2905C107.997 33.0692 108.138 32.8127 108.249 32.5209L108.234 31.2382L108.596 31.2985C108.425 31.4394 108.213 31.55 107.962 31.6305C107.72 31.7111 107.458 31.7764 107.176 31.8267C106.904 31.8669 106.627 31.9122 106.345 31.9625C106.073 32.0129 105.826 32.0833 105.605 32.1738C105.383 32.2543 105.202 32.3751 105.061 32.536C104.93 32.6869 104.864 32.8982 104.864 33.1698C104.864 33.5119 104.97 33.7785 105.182 33.9696C105.403 34.1507 105.686 34.2413 106.028 34.2413ZM111.924 35.4636V31.4947V27.5711H113.556L113.51 30.3327H113.782C113.863 29.6788 113.999 29.1355 114.19 28.7029C114.382 28.2703 114.644 27.9433 114.976 27.722C115.319 27.5007 115.737 27.39 116.23 27.39C116.331 27.39 116.441 27.4 116.562 27.4202C116.683 27.4302 116.819 27.4554 116.97 27.4956L116.88 29.5178C116.729 29.4474 116.568 29.3971 116.396 29.3669C116.225 29.3367 116.069 29.3216 115.928 29.3216C115.535 29.3216 115.198 29.4273 114.915 29.6385C114.634 29.8398 114.402 30.1315 114.22 30.5138C114.05 30.886 113.924 31.3287 113.843 31.8418V35.4636H111.924ZM120.869 35.6598C120.215 35.6598 119.641 35.4938 119.147 35.1618C118.663 34.8198 118.291 34.3369 118.029 33.7131C117.767 33.0893 117.636 32.3549 117.636 31.5098C117.636 30.7049 117.757 29.9957 117.998 29.382C118.24 28.7582 118.593 28.2703 119.056 27.9182C119.53 27.566 120.109 27.39 120.794 27.39C121.318 27.39 121.756 27.4956 122.108 27.7069C122.461 27.9081 122.748 28.1949 122.969 28.5671C123.201 28.9393 123.377 29.3769 123.498 29.88H123.8C123.74 29.5681 123.685 29.2562 123.634 28.9444C123.584 28.6224 123.543 28.3156 123.513 28.0238C123.483 27.732 123.468 27.4755 123.468 27.2542V24.7793H125.387V31.6456V35.4636H123.755L123.785 33.2151H123.513C123.392 33.7382 123.216 34.186 122.984 34.5582C122.763 34.9204 122.476 35.1971 122.123 35.3882C121.771 35.5693 121.353 35.6598 120.869 35.6598ZM121.458 34.0904C121.801 34.0904 122.098 34.0149 122.35 33.864C122.602 33.7031 122.808 33.5018 122.969 33.2604C123.141 33.0189 123.267 32.7573 123.347 32.4756C123.428 32.194 123.468 31.9223 123.468 31.6607V31.4193C123.468 31.218 123.438 31.0068 123.377 30.7855C123.327 30.5641 123.246 30.3478 123.135 30.1365C123.035 29.9152 122.904 29.7191 122.743 29.548C122.582 29.3669 122.391 29.226 122.168 29.1255C121.957 29.0148 121.72 28.9595 121.458 28.9595C121.065 28.9595 120.733 29.0701 120.461 29.2915C120.189 29.5128 119.983 29.8196 119.842 30.212C119.701 30.5943 119.63 31.0369 119.63 31.54C119.63 32.0531 119.701 32.5008 119.842 32.8831C119.993 33.2654 120.204 33.5622 120.476 33.7735C120.759 33.9847 121.086 34.0904 121.458 34.0904Z" fill="#080808"/>
<path fill-rule="evenodd" clip-rule="evenodd" d="M138.475 28.1009C138.57 27.9358 138.623 27.7443 138.623 27.5409C138.623 26.9161 138.115 26.4091 137.489 26.4091C136.864 26.4091 136.356 26.9161 136.356 27.5409C136.356 28.1657 136.864 28.6727 137.489 28.6727C137.912 28.6727 138.28 28.4428 138.475 28.1009ZM136.734 29.4273H137.112H137.867C138.285 29.4273 138.623 29.7648 138.623 30.1818V30.9364V33.9545C138.623 34.3716 138.285 34.7091 137.867 34.7091C137.449 34.7091 137.112 34.3716 137.112 33.9545V31.5023C137.112 31.1898 136.858 30.9364 136.545 30.9364C136.232 30.9364 135.979 30.6829 135.979 30.3705V30.1818C135.979 29.9165 136.116 29.6822 136.322 29.5481C136.44 29.4715 136.582 29.4273 136.734 29.4273Z" fill="white"/>
<path d="M50.4668 291.267C50.4668 289.874 50.7004 288.788 51.1678 288.007C51.6432 287.219 52.4571 286.824 53.6094 286.824C54.7617 286.824 55.5715 287.219 56.0389 288.007C56.5143 288.788 56.752 289.874 56.752 291.267C56.752 292.675 56.5143 293.778 56.0389 294.575C55.5715 295.363 54.7617 295.758 53.6094 295.758C52.4571 295.758 51.6432 295.363 51.1678 294.575C50.7004 293.778 50.4668 292.675 50.4668 291.267ZM55.3983 291.267C55.3983 290.615 55.3539 290.063 55.2653 289.613C55.1847 289.162 55.0155 288.796 54.7577 288.514C54.4998 288.224 54.1171 288.079 53.6094 288.079C53.1018 288.079 52.719 288.224 52.4611 288.514C52.2032 288.796 52.03 289.162 51.9414 289.613C51.8608 290.063 51.8205 290.615 51.8205 291.267C51.8205 291.943 51.8608 292.51 51.9414 292.969C52.0219 293.428 52.1912 293.798 52.4491 294.08C52.715 294.361 53.1018 294.502 53.6094 294.502C54.1171 294.502 54.4998 294.361 54.7577 294.08C55.0236 293.798 55.1968 293.428 55.2774 292.969C55.3579 292.51 55.3983 291.943 55.3983 291.267ZM58.1858 289.154C58.2342 288.405 58.5202 287.822 59.044 287.403C59.5758 286.985 60.2527 286.776 61.0746 286.776C61.6386 286.776 62.1262 286.876 62.5371 287.077C62.9481 287.279 63.2583 287.552 63.4678 287.898C63.6773 288.245 63.7821 288.635 63.7821 289.069C63.7821 289.568 63.6491 289.995 63.3832 290.349C63.1173 290.703 62.799 290.941 62.4284 291.061V291.11C62.9037 291.255 63.2744 291.52 63.5404 291.906C63.8063 292.285 63.9392 292.772 63.9392 293.367C63.9392 293.842 63.8304 294.264 63.6129 294.635C63.3953 295.005 63.073 295.299 62.6459 295.516C62.2188 295.725 61.7071 295.83 61.1109 295.83C60.2406 295.83 59.5234 295.609 58.9594 295.166C58.4034 294.716 58.1052 294.071 58.065 293.234H59.3945C59.4267 293.661 59.5919 294.011 59.8901 294.285C60.1882 294.55 60.5911 294.683 61.0988 294.683C61.5903 294.683 61.969 294.55 62.235 294.285C62.5009 294.011 62.6338 293.661 62.6338 293.234C62.6338 292.671 62.4525 292.272 62.0899 292.039C61.7353 291.798 61.1874 291.677 60.4461 291.677H60.1318V290.542H60.4582C61.1109 290.534 61.6064 290.425 61.9449 290.216C62.2913 290.007 62.4646 289.677 62.4646 289.226C62.4646 288.84 62.3397 288.534 62.0899 288.309C61.8401 288.076 61.4856 287.959 61.0263 287.959C60.575 287.959 60.2244 288.076 59.9747 288.309C59.7249 288.534 59.5758 288.816 59.5275 289.154H58.1858ZM70.6807 290.832V291.991H65.713V290.832H70.6807ZM72.457 291.267C72.457 289.874 72.6907 288.788 73.158 288.007C73.6335 287.219 74.4473 286.824 75.5995 286.824C76.7515 286.824 77.5614 287.219 78.029 288.007C78.5042 288.788 78.7421 289.874 78.7421 291.267C78.7421 292.675 78.5042 293.778 78.029 294.575C77.5614 295.363 76.7515 295.758 75.5995 295.758C74.4473 295.758 73.6335 295.363 73.158 294.575C72.6907 293.778 72.457 292.675 72.457 291.267ZM77.3884 291.267C77.3884 290.615 77.3438 290.063 77.2554 289.613C77.1746 289.162 77.0054 288.796 76.7478 288.514C76.4902 288.224 76.1072 288.079 75.5995 288.079C75.0919 288.079 74.7092 288.224 74.4513 288.514C74.1935 288.796 74.0203 289.162 73.9316 289.613C73.8511 290.063 73.8107 290.615 73.8107 291.267C73.8107 291.943 73.8511 292.51 73.9316 292.969C74.0122 293.428 74.1814 293.798 74.4392 294.08C74.7051 294.361 75.0919 294.502 75.5995 294.502C76.1072 294.502 76.4902 294.361 76.7478 294.08C77.0137 293.798 77.1867 293.428 77.2675 292.969C77.3483 292.51 77.3884 291.943 77.3884 291.267ZM85.7843 288.043L82.4241 295.782H81.0341L84.4305 288.188H79.9584V287.017H85.7843V288.043Z" fill="#333333"/>
<path d="M146.662 288.236V286.981H149.176V295.782H147.786V288.236H146.662ZM151.069 291.267C151.069 289.874 151.303 288.788 151.77 288.007C152.246 287.218 153.059 286.824 154.212 286.824C155.364 286.824 156.174 287.218 156.641 288.007C157.117 288.788 157.355 289.874 157.355 291.267C157.355 292.675 157.117 293.778 156.641 294.575C156.174 295.363 155.364 295.758 154.212 295.758C153.059 295.758 152.246 295.363 151.77 294.575C151.303 293.778 151.069 292.675 151.069 291.267ZM156.001 291.267C156.001 290.615 155.956 290.063 155.868 289.613C155.787 289.162 155.618 288.795 155.36 288.514C155.102 288.224 154.72 288.079 154.212 288.079C153.704 288.079 153.321 288.224 153.064 288.514C152.805 288.795 152.632 289.162 152.544 289.613C152.463 290.063 152.423 290.615 152.423 291.267C152.423 291.943 152.463 292.51 152.544 292.969C152.624 293.428 152.793 293.798 153.052 294.08C153.317 294.361 153.704 294.502 154.212 294.502C154.72 294.502 155.102 294.361 155.36 294.08C155.626 293.798 155.799 293.428 155.88 292.969C155.96 292.51 156.001 291.943 156.001 291.267ZM164.107 290.832V291.991H159.139V290.832H164.107ZM165.701 288.236V286.981H168.215V295.782H166.825V288.236H165.701ZM169.939 293.947V292.909L174.001 287.089H175.669V292.752H176.793V293.947H175.669V295.782H174.315V293.947H169.939ZM174.375 288.49L171.523 292.752H174.375V288.49Z" fill="#333333"/>
<path d="M241.25 288.236V286.981H243.764V295.782H242.374V288.236H241.25ZM251.241 288.043L247.881 295.782H246.491L249.888 288.188H245.415V287.017H251.241V288.043ZM257.715 290.832V291.991H252.747V290.832H257.715ZM260.252 293.911C261.026 293.243 261.634 292.695 262.077 292.269C262.528 291.834 262.903 291.384 263.201 290.917C263.5 290.449 263.649 289.983 263.649 289.516C263.649 289.033 263.532 288.655 263.298 288.381C263.072 288.107 262.714 287.971 262.222 287.971C261.747 287.971 261.376 288.124 261.11 288.43C260.853 288.728 260.715 289.13 260.699 289.637H259.37C259.394 288.719 259.668 288.019 260.192 287.536C260.724 287.045 261.397 286.8 262.21 286.8C263.089 286.8 263.773 287.041 264.265 287.524C264.764 288.007 265.014 288.651 265.014 289.456C265.014 290.035 264.866 290.594 264.567 291.134C264.277 291.665 263.927 292.144 263.516 292.57C263.113 292.989 262.597 293.476 261.969 294.031L261.425 294.514H265.256V295.661H259.382V294.659L260.252 293.911ZM266.285 288.236V286.981H268.799V295.782H267.409V288.236H266.285Z" fill="#333333"/>
<path d="M380.739 279.182H317.282C310.607 279.182 305.195 284.587 305.195 291.255C305.195 297.922 310.607 303.327 317.282 303.327H380.739C387.414 303.327 392.826 297.922 392.826 291.255C392.826 284.587 387.414 279.182 380.739 279.182Z" fill="white"/>
<path d="M332.22 293.911C332.994 293.243 333.602 292.695 334.045 292.269C334.496 291.834 334.871 291.384 335.169 290.917C335.467 290.449 335.617 289.983 335.617 289.516C335.617 289.033 335.5 288.655 335.266 288.381C335.04 288.107 334.681 287.971 334.19 287.971C333.714 287.971 333.344 288.124 333.078 288.43C332.82 288.728 332.683 289.13 332.667 289.637H331.338C331.362 288.719 331.636 288.019 332.16 287.536C332.692 287.045 333.364 286.8 334.178 286.8C335.056 286.8 335.741 287.041 336.233 287.524C336.732 288.007 336.982 288.651 336.982 289.456C336.982 290.035 336.833 290.594 336.535 291.134C336.245 291.665 335.895 292.144 335.484 292.57C335.08 292.989 334.565 293.476 333.937 294.031L333.393 294.514H337.224V295.661H331.35V294.659L332.22 293.911ZM338.265 293.947V292.908L342.326 287.089H343.994V292.752H345.119V293.947H343.994V295.782H342.641V293.947H338.265ZM342.701 288.49L339.849 292.752H342.701V288.49ZM351.554 290.832V291.991H346.586V290.832H351.554ZM354.092 293.911C354.866 293.243 355.474 292.695 355.917 292.269C356.368 291.834 356.743 291.384 357.042 290.917C357.339 290.449 357.489 289.983 357.489 289.516C357.489 289.033 357.372 288.655 357.138 288.381C356.912 288.107 356.554 287.971 356.063 287.971C355.587 287.971 355.216 288.124 354.951 288.43C354.692 288.728 354.555 289.13 354.54 289.637H353.21C353.234 288.719 353.508 288.019 354.032 287.536C354.564 287.045 355.236 286.8 356.05 286.8C356.928 286.8 357.613 287.041 358.105 287.524C358.605 288.007 358.855 288.651 358.855 289.456C358.855 290.035 358.705 290.594 358.407 291.134C358.117 291.665 357.767 292.144 357.356 292.57C356.952 292.989 356.437 293.476 355.809 294.031L355.265 294.514H359.096V295.661H353.222V294.659L354.092 293.911ZM361.793 291.182C360.955 290.763 360.536 290.104 360.536 289.202C360.536 288.768 360.645 288.369 360.863 288.007C361.08 287.645 361.406 287.359 361.842 287.15C362.277 286.933 362.809 286.824 363.437 286.824C364.058 286.824 364.585 286.933 365.02 287.15C365.464 287.359 365.794 287.645 366.012 288.007C366.229 288.369 366.338 288.768 366.338 289.202C366.338 289.653 366.222 290.051 365.987 290.397C365.762 290.735 365.46 290.997 365.081 291.182C365.54 291.351 365.903 291.629 366.169 292.015C366.435 292.393 366.568 292.84 366.568 293.355C366.568 293.878 366.435 294.341 366.169 294.744C365.903 295.146 365.533 295.456 365.057 295.673C364.582 295.89 364.041 295.999 363.437 295.999C362.833 295.999 362.293 295.89 361.817 295.673C361.351 295.456 360.983 295.146 360.717 294.744C360.452 294.341 360.319 293.878 360.319 293.355C360.319 292.832 360.452 292.381 360.717 292.003C360.983 291.625 361.342 291.351 361.793 291.182ZM365.02 289.371C365.02 288.921 364.88 288.574 364.597 288.333C364.316 288.091 363.929 287.971 363.437 287.971C362.954 287.971 362.571 288.091 362.289 288.333C362.007 288.574 361.866 288.924 361.866 289.383C361.866 289.785 362.011 290.116 362.301 290.373C362.599 290.623 362.978 290.747 363.437 290.747C363.896 290.747 364.276 290.618 364.573 290.361C364.872 290.104 365.02 289.773 365.02 289.371ZM363.437 291.786C362.905 291.786 362.47 291.919 362.132 292.184C361.802 292.441 361.636 292.816 361.636 293.307C361.636 293.766 361.798 294.14 362.12 294.43C362.442 294.711 362.881 294.852 363.437 294.852C363.986 294.852 364.416 294.707 364.73 294.418C365.053 294.128 365.214 293.757 365.214 293.307C365.214 292.824 365.049 292.45 364.718 292.184C364.396 291.919 363.969 291.786 363.437 291.786Z" fill="#333333"/>
<path d="M24.1738 272.768H392.826" stroke="#E9E9E9"/>
<path d="M255.714 268.618C255.714 268.41 255.545 268.241 255.337 268.241C255.128 268.241 254.959 268.41 254.959 268.618H255.714ZM254.959 268.618V273.145H255.714V268.618H254.959Z" fill="#080808"/>
</g>
<path d="M23.336 92V70.88H32.104C33.4053 70.88 34.568 70.9973 35.592 71.232C36.616 71.4453 37.4907 71.776 38.216 72.224C38.9627 72.672 39.528 73.2587 39.912 73.984C40.3173 74.688 40.52 75.5307 40.52 76.512C40.52 77.344 40.3387 78.0693 39.976 78.688C39.6347 79.3067 39.0907 79.808 38.344 80.192C37.6187 80.576 36.6587 80.8427 35.464 80.992V81.472C37.4907 81.6213 38.9733 82.1333 39.912 83.008C40.872 83.8613 41.352 85.0133 41.352 86.464C41.352 87.68 41.032 88.704 40.392 89.536C39.7733 90.3467 38.8347 90.9653 37.576 91.392C36.3173 91.7973 34.76 92 32.904 92H23.336ZM27.72 88.288H32.84C34.2053 88.288 35.2187 88.0853 35.88 87.68C36.5413 87.2533 36.872 86.6027 36.872 85.728C36.872 84.7253 36.456 83.9787 35.624 83.488C34.792 82.976 33.5333 82.72 31.848 82.72H27.72V88.288ZM27.72 79.84H31.176C32.84 79.84 34.056 79.616 34.824 79.168C35.6133 78.6987 36.008 78.016 36.008 77.12C36.008 76.224 35.656 75.5733 34.952 75.168C34.248 74.7413 33.1707 74.528 31.72 74.528H27.72V79.84ZM52.5718 92.448C50.8864 92.448 49.4038 92.1173 48.1238 91.456C46.8438 90.7733 45.8411 89.7813 45.1158 88.48C44.3904 87.1573 44.0278 85.5147 44.0278 83.552C44.0278 81.5893 44.3904 79.9573 45.1158 78.656C45.8624 77.3547 46.8758 76.384 48.1558 75.744C49.4571 75.0827 50.9291 74.752 52.5718 74.752C54.2571 74.752 55.7398 75.0827 57.0198 75.744C58.3211 76.4053 59.3344 77.3973 60.0598 78.72C60.8064 80.0213 61.1798 81.6533 61.1798 83.616C61.1798 85.6 60.7958 87.2533 60.0278 88.576C59.2811 89.8773 58.2571 90.848 56.9558 91.488C55.6758 92.128 54.2144 92.448 52.5718 92.448ZM52.7318 89.024C53.5638 89.024 54.2571 88.832 54.8118 88.448C55.3878 88.064 55.8144 87.488 56.0918 86.72C56.3904 85.9307 56.5398 84.9813 56.5398 83.872C56.5398 82.6987 56.3798 81.7067 56.0598 80.896C55.7611 80.064 55.3131 79.4347 54.7158 79.008C54.1184 78.56 53.3611 78.336 52.4438 78.336C51.6544 78.336 50.9718 78.528 50.3958 78.912C49.8198 79.2747 49.3824 79.8507 49.0838 80.64C48.7851 81.408 48.6358 82.3573 48.6358 83.488C48.6358 85.3013 48.9984 86.6773 49.7238 87.616C50.4491 88.5547 51.4518 89.024 52.7318 89.024ZM72.0718 92.448C70.3864 92.448 68.9038 92.1173 67.6238 91.456C66.3438 90.7733 65.3411 89.7813 64.6158 88.48C63.8904 87.1573 63.5278 85.5147 63.5278 83.552C63.5278 81.5893 63.8904 79.9573 64.6158 78.656C65.3624 77.3547 66.3758 76.384 67.6558 75.744C68.9571 75.0827 70.4291 74.752 72.0718 74.752C73.7571 74.752 75.2398 75.0827 76.5198 75.744C77.8211 76.4053 78.8344 77.3973 79.5598 78.72C80.3064 80.0213 80.6798 81.6533 80.6798 83.616C80.6798 85.6 80.2958 87.2533 79.5278 88.576C78.7811 89.8773 77.7571 90.848 76.4558 91.488C75.1758 92.128 73.7144 92.448 72.0718 92.448ZM72.2318 89.024C73.0638 89.024 73.7571 88.832 74.3118 88.448C74.8878 88.064 75.3144 87.488 75.5918 86.72C75.8904 85.9307 76.0398 84.9813 76.0398 83.872C76.0398 82.6987 75.8798 81.7067 75.5598 80.896C75.2611 80.064 74.8131 79.4347 74.2158 79.008C73.6184 78.56 72.8611 78.336 71.9438 78.336C71.1544 78.336 70.4718 78.528 69.8958 78.912C69.3198 79.2747 68.8824 79.8507 68.5838 80.64C68.2851 81.408 68.1358 82.3573 68.1358 83.488C68.1358 85.3013 68.4984 86.6773 69.2238 87.616C69.9491 88.5547 70.9518 89.024 72.2318 89.024ZM83.9557 92V69.12H88.4998V81.824C89.1611 81.376 89.7904 80.896 90.3878 80.384C91.0064 79.8507 91.5611 79.296 92.0518 78.72C92.5638 78.144 93.0118 77.5573 93.3958 76.96C93.8011 76.3627 94.1424 75.776 94.4198 75.2H99.6998C99.3798 76.0107 98.9531 76.832 98.4198 77.664C97.9078 78.4747 97.2891 79.232 96.5638 79.936C95.8598 80.6187 95.0384 81.2053 94.0998 81.696C93.1611 82.1867 92.1264 82.5173 90.9958 82.688V83.232C92.4251 82.976 93.6091 82.9973 94.5478 83.296C95.4864 83.5947 96.2544 84.0747 96.8518 84.736C97.4704 85.376 97.9611 86.1227 98.3238 86.976C98.6864 87.808 99.0171 88.6507 99.3158 89.504L100.052 92H95.0278L94.6118 90.432C94.3131 89.3867 93.9824 88.4693 93.6198 87.68C93.2571 86.8907 92.7771 86.2827 92.1798 85.856C91.6038 85.408 90.8038 85.184 89.7798 85.184H88.4998V92H83.9557ZM102.862 92V75.2H107.47V92H102.862ZM105.198 72.672C104.302 72.672 103.609 72.4907 103.118 72.128C102.649 71.744 102.414 71.1893 102.414 70.464C102.414 69.7173 102.649 69.152 103.118 68.768C103.609 68.384 104.302 68.192 105.198 68.192C106.115 68.192 106.809 68.384 107.278 68.768C107.769 69.152 108.014 69.7173 108.014 70.464C108.014 71.168 107.769 71.712 107.278 72.096C106.809 72.48 106.115 72.672 105.198 72.672ZM111.737 92V81.824V75.2H115.513L115.481 80.224H116.121C116.398 79.008 116.793 77.9947 117.305 77.184C117.817 76.3733 118.457 75.7653 119.225 75.36C120.014 74.9547 120.942 74.752 122.009 74.752C123.95 74.752 125.422 75.4347 126.425 76.8C127.449 78.1653 127.961 80.3093 127.961 83.232V92H123.321V83.744C123.321 81.952 123.054 80.6507 122.521 79.84C122.009 79.008 121.252 78.592 120.249 78.592C119.396 78.592 118.681 78.8587 118.105 79.392C117.529 79.9253 117.092 80.6293 116.793 81.504C116.516 82.3573 116.366 83.3173 116.345 84.384V92H111.737ZM138.581 97.856C136.746 97.856 135.231 97.7067 134.036 97.408C132.863 97.1307 131.999 96.7147 131.445 96.16C130.89 95.6053 130.613 94.912 130.613 94.08C130.613 93.0987 130.997 92.2987 131.765 91.68C132.554 91.0613 133.706 90.688 135.221 90.56V89.92C134.069 89.92 133.183 89.8027 132.565 89.568C131.946 89.312 131.637 88.8747 131.637 88.256C131.637 87.6587 131.935 87.1253 132.533 86.656C133.151 86.1867 134.165 85.8133 135.573 85.536V84.896C134.25 84.8107 133.215 84.384 132.469 83.616C131.722 82.848 131.349 81.856 131.349 80.64C131.349 79.5733 131.647 78.624 132.245 77.792C132.842 76.9387 133.727 76.2667 134.901 75.776C136.095 75.264 137.557 75.008 139.285 75.008H147.797V78.528L142.517 77.792V78.528C143.882 78.72 144.863 79.0613 145.461 79.552C146.079 80.0427 146.389 80.7253 146.389 81.6C146.389 82.4747 146.101 83.2427 145.525 83.904C144.949 84.5653 144.127 85.088 143.061 85.472C142.015 85.8347 140.757 86.016 139.285 86.016C139.007 86.016 138.709 86.0053 138.389 85.984C138.069 85.9627 137.535 85.9093 136.789 85.824C136.383 86.1227 136.063 86.3893 135.829 86.624C135.615 86.8373 135.509 87.04 135.509 87.232C135.509 87.3813 135.583 87.5093 135.733 87.616C135.903 87.7227 136.117 87.7973 136.373 87.84C136.65 87.8827 136.927 87.904 137.205 87.904H142.005C142.431 87.904 142.986 87.936 143.669 88C144.351 88.0427 145.034 88.2027 145.717 88.48C146.399 88.7573 146.975 89.2053 147.444 89.824C147.914 90.4213 148.149 91.2853 148.149 92.416C148.149 93.6533 147.797 94.6773 147.093 95.488C146.41 96.2987 145.354 96.896 143.925 97.28C142.517 97.664 140.735 97.856 138.581 97.856ZM139.093 94.176C140.394 94.176 141.407 94.1013 142.133 93.952C142.858 93.824 143.37 93.6 143.669 93.28C143.989 92.9813 144.149 92.5973 144.149 92.128C144.149 91.7013 144.053 91.3707 143.861 91.136C143.69 90.9013 143.455 90.7413 143.157 90.656C142.879 90.5493 142.591 90.4853 142.293 90.464C142.015 90.4213 141.77 90.4 141.557 90.4H137.525C136.629 90.4853 135.978 90.7307 135.573 91.136C135.189 91.52 134.997 91.968 134.997 92.48C134.997 92.9493 135.146 93.3013 135.445 93.536C135.743 93.7707 136.191 93.9307 136.789 94.016C137.407 94.1227 138.175 94.176 139.093 94.176ZM139.029 83.616C140.053 83.616 140.821 83.3707 141.333 82.88C141.845 82.368 142.101 81.7067 142.101 80.896C142.101 80.0427 141.834 79.3387 141.301 78.784C140.789 78.2293 140.031 77.952 139.029 77.952C138.047 77.952 137.279 78.2293 136.725 78.784C136.17 79.3173 135.893 80.0107 135.893 80.864C135.893 81.3973 136.01 81.8773 136.245 82.304C136.501 82.7093 136.863 83.0293 137.333 83.264C137.802 83.4987 138.367 83.616 139.029 83.616ZM157.863 92.448C156.733 92.448 155.709 92.3413 154.791 92.128C153.874 91.9147 153.085 91.6053 152.423 91.2C151.762 90.7947 151.229 90.3147 150.823 89.76C150.418 89.184 150.151 88.544 150.023 87.84L153.543 86.4C153.629 86.8693 153.863 87.3067 154.247 87.712C154.631 88.1173 155.143 88.448 155.783 88.704C156.445 88.9387 157.234 89.056 158.151 89.056C159.133 89.056 159.89 88.9173 160.423 88.64C160.957 88.3413 161.223 87.9253 161.223 87.392C161.223 86.9867 161.074 86.6667 160.775 86.432C160.477 86.1973 160.039 85.9947 159.463 85.824C158.887 85.6533 158.194 85.4933 157.383 85.344C156.594 85.152 155.783 84.9493 154.951 84.736C154.141 84.5227 153.383 84.224 152.679 83.84C151.997 83.456 151.431 82.9547 150.983 82.336C150.557 81.696 150.343 80.8853 150.343 79.904C150.343 78.88 150.621 77.984 151.175 77.216C151.73 76.448 152.541 75.8507 153.607 75.424C154.674 74.976 155.975 74.752 157.511 74.752C158.898 74.752 160.114 74.944 161.159 75.328C162.205 75.6907 163.058 76.224 163.719 76.928C164.402 77.6107 164.861 78.432 165.095 79.392L161.351 80.64C161.266 80.128 161.053 79.68 160.711 79.296C160.391 78.912 159.954 78.624 159.399 78.432C158.866 78.24 158.237 78.144 157.511 78.144C156.594 78.144 155.879 78.2933 155.367 78.592C154.877 78.8907 154.631 79.2853 154.631 79.776C154.631 80.1813 154.791 80.512 155.111 80.768C155.453 81.024 155.922 81.2373 156.519 81.408C157.117 81.5573 157.821 81.7173 158.631 81.888C159.485 82.0587 160.317 82.2613 161.127 82.496C161.938 82.7093 162.663 82.9973 163.303 83.36C163.965 83.7227 164.487 84.2027 164.871 84.8C165.255 85.3973 165.447 86.1653 165.447 87.104C165.447 88.2133 165.149 89.1733 164.551 89.984C163.954 90.7733 163.09 91.3813 161.959 91.808C160.829 92.2347 159.463 92.448 157.863 92.448Z" fill="black"/>
<path d="M65.448 132L63.228 125.808H64.44L66.132 131.076H66.3L67.98 125.808H69.168L66.96 132H65.448ZM72.6504 132.156C72.2184 132.156 71.8344 132.108 71.4984 132.012C71.1624 131.924 70.8824 131.796 70.6584 131.628C70.4344 131.452 70.2624 131.244 70.1424 131.004C70.0224 130.764 69.9584 130.5 69.9504 130.212L70.8744 129.972C70.8584 130.236 70.9224 130.468 71.0664 130.668C71.2184 130.86 71.4304 131.008 71.7024 131.112C71.9824 131.216 72.3184 131.268 72.7104 131.268C73.1824 131.268 73.5464 131.188 73.8024 131.028C74.0664 130.868 74.1984 130.648 74.1984 130.368C74.1984 130.144 74.1264 129.972 73.9824 129.852C73.8384 129.724 73.6384 129.624 73.3824 129.552C73.1344 129.472 72.8384 129.4 72.4944 129.336C72.2064 129.272 71.9184 129.2 71.6304 129.12C71.3424 129.04 71.0784 128.936 70.8384 128.808C70.6064 128.672 70.4184 128.496 70.2744 128.28C70.1304 128.064 70.0584 127.796 70.0584 127.476C70.0584 127.1 70.1584 126.776 70.3584 126.504C70.5584 126.232 70.8424 126.02 71.2104 125.868C71.5784 125.716 72.0184 125.64 72.5304 125.64C73.0424 125.64 73.4784 125.72 73.8384 125.88C74.1984 126.032 74.4824 126.248 74.6904 126.528C74.8984 126.808 75.0144 127.136 75.0384 127.512L74.0904 127.752C74.0824 127.488 74.0104 127.264 73.8744 127.08C73.7464 126.896 73.5624 126.76 73.3224 126.672C73.0824 126.576 72.8024 126.528 72.4824 126.528C72.0584 126.528 71.7224 126.608 71.4744 126.768C71.2264 126.928 71.1024 127.148 71.1024 127.428C71.1024 127.636 71.1744 127.804 71.3184 127.932C71.4704 128.06 71.6744 128.16 71.9304 128.232C72.1864 128.304 72.4704 128.376 72.7824 128.448C73.1024 128.512 73.4064 128.584 73.6944 128.664C73.9904 128.744 74.2544 128.848 74.4864 128.976C74.7184 129.104 74.9024 129.276 75.0384 129.492C75.1744 129.7 75.2424 129.968 75.2424 130.296C75.2424 130.704 75.1344 131.048 74.9184 131.328C74.7024 131.6 74.3984 131.808 74.0064 131.952C73.6224 132.088 73.1704 132.156 72.6504 132.156ZM79.7449 132V123.6H80.8369V132H79.7449ZM84.1494 132.156C83.8134 132.156 83.5094 132.092 83.2374 131.964C82.9654 131.828 82.7494 131.632 82.5894 131.376C82.4294 131.112 82.3494 130.78 82.3494 130.38C82.3494 130.084 82.4014 129.824 82.5054 129.6C82.6174 129.376 82.7854 129.184 83.0094 129.024C83.2414 128.864 83.5374 128.732 83.8974 128.628C84.2574 128.524 84.6974 128.436 85.2174 128.364C85.5134 128.324 85.7534 128.284 85.9374 128.244C86.1294 128.204 86.2694 128.14 86.3574 128.052C86.4454 127.956 86.4894 127.816 86.4894 127.632C86.4894 127.328 86.3854 127.072 86.1774 126.864C85.9694 126.656 85.6414 126.552 85.1934 126.552C84.9614 126.552 84.7254 126.592 84.4854 126.672C84.2454 126.752 84.0334 126.888 83.8494 127.08C83.6734 127.264 83.5614 127.524 83.5134 127.86L82.5054 127.524C82.5694 127.236 82.6734 126.976 82.8174 126.744C82.9694 126.512 83.1614 126.316 83.3934 126.156C83.6254 125.988 83.8934 125.86 84.1974 125.772C84.5094 125.684 84.8534 125.64 85.2294 125.64C85.7494 125.64 86.1814 125.728 86.5254 125.904C86.8774 126.08 87.1374 126.352 87.3054 126.72C87.4814 127.08 87.5694 127.544 87.5694 128.112V129.492C87.5694 129.74 87.5734 130.012 87.5814 130.308C87.5974 130.596 87.6174 130.888 87.6414 131.184C87.6654 131.472 87.6894 131.744 87.7134 132H86.7054C86.6814 131.744 86.6574 131.488 86.6334 131.232C86.6174 130.976 86.6054 130.72 86.5974 130.464H86.4414C86.3214 130.76 86.1614 131.036 85.9614 131.292C85.7614 131.548 85.5094 131.756 85.2054 131.916C84.9094 132.076 84.5574 132.156 84.1494 132.156ZM84.4734 131.268C84.6494 131.268 84.8254 131.24 85.0014 131.184C85.1854 131.128 85.3654 131.036 85.5414 130.908C85.7254 130.78 85.8974 130.616 86.0574 130.416C86.2254 130.216 86.3734 129.976 86.5014 129.696V128.496L86.8134 128.556C86.6854 128.684 86.5134 128.78 86.2974 128.844C86.0894 128.908 85.8574 128.96 85.6014 129C85.3454 129.04 85.0894 129.084 84.8334 129.132C84.5774 129.172 84.3414 129.236 84.1254 129.324C83.9174 129.404 83.7494 129.52 83.6214 129.672C83.4934 129.824 83.4294 130.032 83.4294 130.296C83.4294 130.616 83.5254 130.86 83.7174 131.028C83.9094 131.188 84.1614 131.268 84.4734 131.268ZM91.6934 132.156C91.2614 132.156 90.8774 132.108 90.5414 132.012C90.2054 131.924 89.9254 131.796 89.7014 131.628C89.4774 131.452 89.3054 131.244 89.1854 131.004C89.0654 130.764 89.0014 130.5 88.9934 130.212L89.9174 129.972C89.9014 130.236 89.9654 130.468 90.1094 130.668C90.2614 130.86 90.4734 131.008 90.7454 131.112C91.0254 131.216 91.3614 131.268 91.7534 131.268C92.2254 131.268 92.5894 131.188 92.8454 131.028C93.1094 130.868 93.2414 130.648 93.2414 130.368C93.2414 130.144 93.1694 129.972 93.0254 129.852C92.8814 129.724 92.6814 129.624 92.4254 129.552C92.1774 129.472 91.8814 129.4 91.5374 129.336C91.2494 129.272 90.9614 129.2 90.6734 129.12C90.3854 129.04 90.1214 128.936 89.8814 128.808C89.6494 128.672 89.4614 128.496 89.3174 128.28C89.1734 128.064 89.1014 127.796 89.1014 127.476C89.1014 127.1 89.2014 126.776 89.4014 126.504C89.6014 126.232 89.8854 126.02 90.2534 125.868C90.6214 125.716 91.0614 125.64 91.5734 125.64C92.0854 125.64 92.5214 125.72 92.8814 125.88C93.2414 126.032 93.5254 126.248 93.7334 126.528C93.9414 126.808 94.0574 127.136 94.0814 127.512L93.1334 127.752C93.1254 127.488 93.0534 127.264 92.9174 127.08C92.7894 126.896 92.6054 126.76 92.3654 126.672C92.1254 126.576 91.8454 126.528 91.5254 126.528C91.1014 126.528 90.7654 126.608 90.5174 126.768C90.2694 126.928 90.1454 127.148 90.1454 127.428C90.1454 127.636 90.2174 127.804 90.3614 127.932C90.5134 128.06 90.7174 128.16 90.9734 128.232C91.2294 128.304 91.5134 128.376 91.8254 128.448C92.1454 128.512 92.4494 128.584 92.7374 128.664C93.0334 128.744 93.2974 128.848 93.5294 128.976C93.7614 129.104 93.9454 129.276 94.0814 129.492C94.2174 129.7 94.2854 129.968 94.2854 130.296C94.2854 130.704 94.1774 131.048 93.9614 131.328C93.7454 131.6 93.4414 131.808 93.0494 131.952C92.6654 132.088 92.2134 132.156 91.6934 132.156ZM97.6847 132.12C97.1087 132.12 96.6807 131.964 96.4007 131.652C96.1207 131.34 95.9807 130.864 95.9807 130.224V126.708H95.0447L95.0567 125.796H95.6447C95.8447 125.796 95.9887 125.76 96.0767 125.688C96.1727 125.616 96.2287 125.496 96.2447 125.328L96.3647 124.392H97.0367V125.796H98.8247V126.72H97.0367V130.2C97.0367 130.52 97.1087 130.752 97.2527 130.896C97.4047 131.032 97.6207 131.1 97.9007 131.1C98.0527 131.1 98.2087 131.08 98.3687 131.04C98.5367 131 98.7007 130.92 98.8607 130.8V131.892C98.6287 131.98 98.4127 132.04 98.2127 132.072C98.0207 132.104 97.8447 132.12 97.6847 132.12ZM103.241 132V128.16V125.796H104.213L104.105 127.764H104.309C104.413 127.292 104.553 126.9 104.729 126.588C104.905 126.268 105.121 126.032 105.377 125.88C105.641 125.72 105.941 125.64 106.277 125.64C106.677 125.64 107.005 125.74 107.261 125.94C107.517 126.132 107.705 126.384 107.825 126.696C107.953 127.008 108.017 127.352 108.017 127.728H108.209C108.297 127.28 108.433 126.9 108.617 126.588C108.801 126.276 109.029 126.04 109.301 125.88C109.573 125.72 109.885 125.64 110.237 125.64C110.557 125.64 110.837 125.704 111.077 125.832C111.317 125.96 111.521 126.152 111.689 126.408C111.857 126.656 111.981 126.964 112.061 127.332C112.141 127.7 112.181 128.124 112.181 128.604V132H111.089V128.748C111.089 128.276 111.045 127.884 110.957 127.572C110.869 127.252 110.737 127.016 110.561 126.864C110.393 126.704 110.177 126.624 109.913 126.624C109.617 126.624 109.349 126.728 109.109 126.936C108.877 127.136 108.685 127.42 108.533 127.788C108.389 128.148 108.293 128.56 108.245 129.024V132H107.177V128.856C107.177 128.36 107.133 127.948 107.045 127.62C106.957 127.292 106.825 127.044 106.649 126.876C106.481 126.708 106.261 126.624 105.989 126.624C105.669 126.624 105.393 126.736 105.161 126.96C104.929 127.176 104.741 127.468 104.597 127.836C104.461 128.204 104.373 128.616 104.333 129.072V132H103.241ZM116.639 132.156C116.047 132.156 115.523 132.028 115.067 131.772C114.619 131.508 114.267 131.132 114.011 130.644C113.763 130.156 113.639 129.564 113.639 128.868C113.639 128.148 113.771 127.552 114.035 127.08C114.307 126.6 114.667 126.24 115.115 126C115.563 125.76 116.063 125.64 116.615 125.64C117.191 125.64 117.703 125.768 118.151 126.024C118.607 126.272 118.967 126.64 119.231 127.128C119.495 127.608 119.627 128.204 119.627 128.916C119.627 129.628 119.495 130.224 119.231 130.704C118.975 131.184 118.619 131.548 118.163 131.796C117.715 132.036 117.207 132.156 116.639 132.156ZM116.687 131.256C117.071 131.256 117.399 131.164 117.671 130.98C117.951 130.788 118.163 130.52 118.307 130.176C118.459 129.832 118.535 129.424 118.535 128.952C118.535 128.464 118.455 128.044 118.295 127.692C118.143 127.332 117.923 127.056 117.635 126.864C117.347 126.664 116.999 126.564 116.591 126.564C116.223 126.564 115.899 126.652 115.619 126.828C115.339 127.004 115.123 127.264 114.971 127.608C114.819 127.944 114.743 128.356 114.743 128.844C114.743 129.596 114.915 130.188 115.259 130.62C115.611 131.044 116.087 131.256 116.687 131.256ZM121.182 132V128.148V125.796H122.166L122.058 127.764H122.262C122.374 127.276 122.522 126.876 122.706 126.564C122.898 126.252 123.138 126.02 123.426 125.868C123.714 125.716 124.05 125.64 124.434 125.64C125.122 125.64 125.642 125.888 125.994 126.384C126.354 126.872 126.534 127.604 126.534 128.58V132H125.43V128.676C125.43 127.972 125.318 127.452 125.094 127.116C124.878 126.78 124.558 126.612 124.134 126.612C123.75 126.612 123.422 126.732 123.15 126.972C122.886 127.212 122.678 127.528 122.526 127.92C122.374 128.312 122.29 128.736 122.274 129.192V132H121.182ZM130.251 132.12C129.675 132.12 129.247 131.964 128.967 131.652C128.687 131.34 128.547 130.864 128.547 130.224V126.708H127.611L127.623 125.796H128.211C128.411 125.796 128.555 125.76 128.643 125.688C128.739 125.616 128.795 125.496 128.811 125.328L128.931 124.392H129.603V125.796H131.391V126.72H129.603V130.2C129.603 130.52 129.675 130.752 129.819 130.896C129.971 131.032 130.187 131.1 130.467 131.1C130.619 131.1 130.775 131.08 130.935 131.04C131.103 131 131.267 130.92 131.427 130.8V131.892C131.195 131.98 130.979 132.04 130.779 132.072C130.587 132.104 130.411 132.12 130.251 132.12ZM132.772 132V128.232V123.6H133.9V125.532C133.9 125.708 133.892 125.888 133.876 126.072C133.868 126.248 133.852 126.428 133.828 126.612C133.812 126.796 133.792 126.984 133.768 127.176C133.744 127.36 133.716 127.548 133.684 127.74H133.888C134.008 127.268 134.16 126.88 134.344 126.576C134.528 126.264 134.756 126.032 135.028 125.88C135.308 125.72 135.64 125.64 136.024 125.64C136.728 125.64 137.252 125.888 137.596 126.384C137.948 126.872 138.124 127.604 138.124 128.58V132H137.02V128.688C137.02 127.968 136.908 127.444 136.684 127.116C136.468 126.78 136.14 126.612 135.7 126.612C135.332 126.612 135.02 126.72 134.764 126.936C134.508 127.152 134.304 127.444 134.152 127.812C134.008 128.18 133.912 128.6 133.864 129.072V132H132.772Z" fill="#333333"/>
<path d="M59.5 228H24V243H392V174H256L206.5 207.5L160 188H109L59.5 228Z" fill="url(#paint0_linear_426_395)"/>
<path d="M25 228H60.5L110 188H161L207.5 207.5L257 174H393" stroke="#46921E" stroke-width="2"/>
</g>
<defs>
<filter id="filter0_di_426_395" x="-2.56836" y="-1.10455" width="422.137" height="337.155" filterUnits="userSpaceOnUse" color-interpolation-filters="sRGB">
<feFlood flood-opacity="0" result="BackgroundImageFix"/>
<feColorMatrix in="SourceAlpha" type="matrix" values="0 0 0 0 0 0 0 0 0 0 0 0 0 0 0 0 0 0 127 0" result="hardAlpha"/>
<feOffset dy="6"/>
<feGaussianBlur stdDeviation="5"/>
<feComposite in2="hardAlpha" operator="out"/>
<feColorMatrix type="matrix" values="0 0 0 0 0.695833 0 0 0 0 0.695833 0 0 0 0 0.695833 0 0 0 0.08 0"/>
<feBlend mode="normal" in2="BackgroundImageFix" result="effect1_dropShadow_426_395"/>
<feBlend mode="normal" in="SourceGraphic" in2="effect1_dropShadow_426_395" result="shape"/>
<feColorMatrix in="SourceAlpha" type="matrix" values="0 0 0 0 0 0 0 0 0 0 0 0 0 0 0 0 0 0 127 0" result="hardAlpha"/>
<feOffset dy="1"/>
<feGaussianBlur stdDeviation="1.5"/>
<feComposite in2="hardAlpha" operator="arithmetic" k2="-1" k3="1"/>
<feColorMatrix type="matrix" values="0 0 0 0 0 0 0 0 0 0 0 0 0 0 0 0 0 0 0.02 0"/>
<feBlend mode="normal" in2="shape" result="effect2_innerShadow_426_395"/>
</filter>
<linearGradient id="paint0_linear_426_395" x1="187" y1="174" x2="186.5" y2="245.5" gradientUnits="userSpaceOnUse">
<stop stop-color="#46921E" stop-opacity="0.48"/>
<stop offset="0.72146" stop-color="#46921E" stop-opacity="0.12"/>
<stop offset="1" stop-color="#46921E" stop-opacity="0"/>
</linearGradient>
<clipPath id="clip0_426_395">
<rect width="417" height="332" fill="white"/>
</clipPath>
</defs>
</svg>
