<svg width="96" height="84" viewBox="0 0 96 84" fill="none" xmlns="http://www.w3.org/2000/svg">
<rect x="0.5" y="0.5" width="95" height="83" rx="7.5" fill="#EBEBEB" fill-opacity="0.2"/>
<rect x="0.5" y="0.5" width="95" height="83" rx="7.5" stroke="#E9E9E9"/>
<g clip-path="url(#clip0_293_2802)">
<path d="M62.9203 28.5982C61.8061 28.5982 60.7383 28.8004 59.751 29.1693L59.3013 28.2078C63.0076 26.7972 67.2604 27.679 70.0893 30.5089L71.1284 29.4701C67.8637 26.2044 62.9439 25.2053 58.6776 26.8749L57.2724 23.8705L59.3187 19.4821H63.8065V18.7474C63.8065 17.743 63.3749 16.7855 62.6222 16.1203C61.8696 15.4551 60.8664 15.1449 59.8694 15.2678L55.2407 15.8411C54.3268 15.9543 53.6378 16.7339 53.6378 17.6547C53.6378 18.6623 54.4576 19.4822 55.4652 19.4822H57.6973L55.9934 23.1363H53.5121V21.619H42.939V23.1363H40.6718L41.9029 20.4963C42.1562 19.9527 42.115 19.3264 41.7929 18.8208C41.4705 18.3149 40.9197 18.0129 40.3195 18.0129H34.85C33.311 18.0129 32.0589 19.2646 32.0589 20.803C32.0589 21.5492 32.349 22.2503 32.8767 22.7779C33.4045 23.3043 34.1053 23.5942 34.8499 23.5942H37.5811V22.1246H34.8499C34.4969 22.1246 34.1646 21.9871 33.9149 21.738C33.6656 21.4887 33.5282 21.1565 33.5282 20.8028C33.5282 20.0746 34.1212 19.4822 34.85 19.4822H40.3195C40.4523 19.4822 40.5232 19.5625 40.5537 19.6103C40.5841 19.6581 40.6268 19.7559 40.571 19.8754L36.2389 29.1658C35.2546 28.7993 34.1903 28.5986 33.0798 28.5986C28.0732 28.5987 24 32.6718 24 37.6785C24 42.6852 28.0733 46.7584 33.0799 46.7584C38.0866 46.7584 42.1598 42.6851 42.1598 37.6785C42.1598 34.3039 40.3093 31.3538 37.5698 29.7887L38.1063 28.6382L47.0977 36.1836C46.8817 36.6194 46.7596 37.1095 46.7596 37.6279C46.7596 39.1748 47.8417 40.4728 49.2884 40.8071V42.0015H48.5058V43.4708H50.7578V40.807C51.9513 40.5313 52.8962 39.5996 53.1905 38.4131H53.8702C54.2455 43.0776 58.1609 46.7583 62.9202 46.7583C67.9269 46.7583 72.0001 42.685 72.0001 37.6784C72.0002 32.6714 67.9269 28.5982 62.9203 28.5982ZM55.4656 18.0125C55.2681 18.0125 55.1075 17.8519 55.1075 17.6545C55.1075 17.4741 55.2425 17.3213 55.4216 17.2992L60.0504 16.7259C60.1338 16.7155 60.2174 16.7105 60.3005 16.7105C60.7944 16.7105 61.2754 16.8903 61.6496 17.221C61.8964 17.4392 62.0839 17.7116 62.2003 18.0125H55.4656ZM38.4145 37.6781C38.4145 40.6195 36.0214 43.0127 33.08 43.0127C30.1386 43.0127 27.7455 40.6196 27.7455 37.6781C27.7455 34.7367 30.1386 32.3435 33.08 32.3435C33.6253 32.3435 34.1516 32.4261 34.6474 32.5788L33.3141 35.4382C33.237 35.4302 33.1589 35.426 33.0799 35.426C31.8382 35.426 30.8279 36.4363 30.8279 37.678C30.8279 38.9197 31.8382 39.93 33.0799 39.93C34.3216 39.93 35.3319 38.9197 35.3319 37.678C35.3319 37.0439 35.0681 36.4706 34.6449 36.0609L35.9777 33.2026C37.4427 34.1546 38.4145 35.8045 38.4145 37.6781ZM33.8624 37.6781C33.8624 38.1096 33.5113 38.4607 33.0798 38.4607C32.6483 38.4607 32.2972 38.1096 32.2972 37.6781C32.2972 37.2466 32.6483 36.8955 33.0798 36.8955C33.5113 36.8955 33.8624 37.2466 33.8624 37.6781ZM40.6904 37.6781C40.6904 41.8746 37.2763 45.2886 33.0799 45.2886C28.8835 45.2886 25.4694 41.8745 25.4694 37.6781C25.4694 33.4817 28.8835 30.0676 33.0799 30.0676C33.9686 30.0676 34.8215 30.2222 35.6151 30.5035L35.2723 31.2387C34.5838 31.0036 33.847 30.8742 33.0799 30.8742C29.3282 30.8742 26.2761 33.9264 26.2761 37.6782C26.2761 41.4299 29.3283 44.4821 33.0799 44.4821C36.8315 44.4821 39.8837 41.4299 39.8837 37.6782C39.8837 35.2156 38.5686 33.0543 36.6039 31.8599L36.9459 31.1265C39.185 32.4527 40.6904 34.8923 40.6904 37.6781ZM60.0172 33.2061L61.3533 36.0628C61.1027 36.3059 60.9086 36.6065 60.792 36.9433H57.6376C57.854 35.38 58.75 34.0317 60.0172 33.2061ZM62.9203 39.9301C64.162 39.9301 65.1723 38.9198 65.1723 37.6781C65.1723 36.4364 64.162 35.4261 62.9203 35.4261C62.8403 35.4261 62.7614 35.4304 62.6835 35.4387L61.3467 32.5807C61.8443 32.4268 62.3727 32.3436 62.9202 32.3436C65.8616 32.3436 68.2548 34.7367 68.2548 37.6782C68.2548 40.6196 65.8617 43.0128 62.9202 43.0128C60.228 43.0128 57.9967 41.0078 57.6375 38.4129H60.792V38.4128C61.0974 39.2948 61.9358 39.9301 62.9203 39.9301ZM62.1377 37.6781C62.1377 37.2466 62.4888 36.8955 62.9204 36.8955C63.3519 36.8955 63.703 37.2466 63.703 37.6781C63.703 38.1096 63.3519 38.4607 62.9204 38.4607C62.4888 38.4607 62.1377 38.1096 62.1377 37.6781ZM59.0465 31.131L59.3895 31.8641C57.6264 32.9388 56.3888 34.7926 56.1567 36.9434H55.3459C55.584 34.4702 57.0108 32.34 59.0465 31.131ZM44.4084 23.088H52.0429V24.6532H44.4084V23.088ZM38.7493 27.2591L39.9866 24.6054H42.939V26.1226H53.5122V24.6053H55.3085L50.7226 34.4402C50.4971 34.3907 50.2632 34.3639 50.0231 34.3639C49.9273 34.3639 49.8328 34.3689 49.7392 34.3771L49.3701 33.2411L50.1144 32.9995L49.6609 31.6018L47.5183 32.297L48.3418 34.8316C48.2332 34.8971 48.129 34.9693 48.0292 35.0467L38.7493 27.2591ZM50.7579 39.2626V37.678H49.2885V39.2626C48.6649 38.9812 48.229 38.3549 48.229 37.6275C48.229 36.6382 49.0339 35.8334 50.0231 35.8334C51.0124 35.8334 51.8172 36.6382 51.8172 37.6275C51.8173 38.3549 51.3815 38.9812 50.7579 39.2626ZM53.2141 36.9434C53.0529 36.191 52.6316 35.5345 52.0494 35.0719L56.4628 25.6071L58.4211 29.7936C55.8875 31.245 54.1166 33.8824 53.8704 36.9434H53.2141ZM62.9203 45.2886C58.9717 45.2886 55.7168 42.2658 55.346 38.4128H56.1567C56.5244 41.8202 59.4169 44.4821 62.9204 44.4821C66.6721 44.4821 69.7244 41.4299 69.7244 37.6781C69.7244 33.9265 66.6722 30.8742 62.9204 30.8742C62.1505 30.8742 61.411 31.0046 60.7204 31.2412L60.3766 30.5063C61.1726 30.2231 62.0285 30.0675 62.9205 30.0675C67.1169 30.0675 70.5309 33.4816 70.5309 37.678C70.5308 41.8746 67.1167 45.2886 62.9203 45.2886Z" fill="#707070"/>
</g>
<path d="M25.516 66.8119C25.516 65.9959 25.7 65.2639 26.068 64.6159C26.436 63.9599 26.936 63.4479 27.568 63.0799C28.208 62.7119 28.916 62.5279 29.692 62.5279C30.604 62.5279 31.4 62.7479 32.08 63.1879C32.76 63.6279 33.256 64.2519 33.568 65.0599H32.26C32.028 64.5559 31.692 64.1679 31.252 63.8959C30.82 63.6239 30.3 63.4879 29.692 63.4879C29.108 63.4879 28.584 63.6239 28.12 63.8959C27.656 64.1679 27.292 64.5559 27.028 65.0599C26.764 65.5559 26.632 66.1399 26.632 66.8119C26.632 67.4759 26.764 68.0599 27.028 68.5639C27.292 69.0599 27.656 69.4439 28.12 69.7159C28.584 69.9879 29.108 70.1239 29.692 70.1239C30.3 70.1239 30.82 69.9919 31.252 69.7279C31.692 69.4559 32.028 69.0679 32.26 68.5639H33.568C33.256 69.3639 32.76 69.9839 32.08 70.4239C31.4 70.8559 30.604 71.0719 29.692 71.0719C28.916 71.0719 28.208 70.8919 27.568 70.5319C26.936 70.1639 26.436 69.6559 26.068 69.0079C25.7 68.3599 25.516 67.6279 25.516 66.8119ZM40.8575 64.4239L36.8975 74.0959H35.7695L37.0655 70.9279L34.4135 64.4239H35.6255L37.6895 69.7519L39.7295 64.4239H40.8575ZM41.5473 67.6999C41.5473 67.0199 41.6833 66.4279 41.9553 65.9239C42.2273 65.4119 42.6033 65.0159 43.0833 64.7359C43.5713 64.4559 44.1273 64.3159 44.7513 64.3159C45.5593 64.3159 46.2233 64.5119 46.7433 64.9039C47.2713 65.2959 47.6193 65.8399 47.7873 66.5359H46.6113C46.4993 66.1359 46.2793 65.8199 45.9513 65.5879C45.6313 65.3559 45.2313 65.2399 44.7513 65.2399C44.1273 65.2399 43.6233 65.4559 43.2393 65.8879C42.8553 66.3119 42.6633 66.9159 42.6633 67.6999C42.6633 68.4919 42.8553 69.1039 43.2393 69.5359C43.6233 69.9679 44.1273 70.1839 44.7513 70.1839C45.2313 70.1839 45.6313 70.0719 45.9513 69.8479C46.2713 69.6239 46.4913 69.3039 46.6113 68.8879H47.7873C47.6113 69.5599 47.2593 70.0999 46.7313 70.5079C46.2033 70.9079 45.5433 71.1079 44.7513 71.1079C44.1273 71.1079 43.5713 70.9679 43.0833 70.6879C42.6033 70.4079 42.2273 70.0119 41.9553 69.4999C41.6833 68.9879 41.5473 68.3879 41.5473 67.6999ZM50.3363 62.1199V70.9999H49.2443V62.1199H50.3363ZM52.7614 63.3559C52.5534 63.3559 52.3774 63.2839 52.2334 63.1399C52.0894 62.9959 52.0174 62.8199 52.0174 62.6119C52.0174 62.4039 52.0894 62.2279 52.2334 62.0839C52.3774 61.9399 52.5534 61.8679 52.7614 61.8679C52.9614 61.8679 53.1294 61.9399 53.2654 62.0839C53.4094 62.2279 53.4814 62.4039 53.4814 62.6119C53.4814 62.8199 53.4094 62.9959 53.2654 63.1399C53.1294 63.2839 52.9614 63.3559 52.7614 63.3559ZM53.2894 64.4239V70.9999H52.1974V64.4239H53.2894ZM58.3546 64.3039C59.1546 64.3039 59.8026 64.5479 60.2986 65.0359C60.7946 65.5159 61.0426 66.2119 61.0426 67.1239V70.9999H59.9626V67.2799C59.9626 66.6239 59.7986 66.1239 59.4706 65.7799C59.1426 65.4279 58.6946 65.2519 58.1266 65.2519C57.5506 65.2519 57.0906 65.4319 56.7466 65.7919C56.4106 66.1519 56.2426 66.6759 56.2426 67.3639V70.9999H55.1506V64.4239H56.2426V65.3599C56.4586 65.0239 56.7506 64.7639 57.1186 64.5799C57.4946 64.3959 57.9066 64.3039 58.3546 64.3039ZM65.5383 64.3159C66.1063 64.3159 66.6023 64.4399 67.0263 64.6879C67.4583 64.9359 67.7783 65.2479 67.9863 65.6239V64.4239H69.0903V71.1439C69.0903 71.7439 68.9623 72.2759 68.7063 72.7399C68.4503 73.2119 68.0823 73.5799 67.6023 73.8439C67.1303 74.1079 66.5783 74.2399 65.9463 74.2399C65.0823 74.2399 64.3623 74.0359 63.7863 73.6279C63.2103 73.2199 62.8703 72.6639 62.7663 71.9599H63.8463C63.9663 72.3599 64.2143 72.6799 64.5903 72.9199C64.9663 73.1679 65.4183 73.2919 65.9463 73.2919C66.5463 73.2919 67.0343 73.1039 67.4103 72.7279C67.7943 72.3519 67.9863 71.8239 67.9863 71.1439V69.7639C67.7703 70.1479 67.4503 70.4679 67.0263 70.7239C66.6023 70.9799 66.1063 71.1079 65.5383 71.1079C64.9543 71.1079 64.4223 70.9639 63.9423 70.6759C63.4703 70.3879 63.0983 69.9839 62.8263 69.4639C62.5543 68.9439 62.4183 68.3519 62.4183 67.6879C62.4183 67.0159 62.5543 66.4279 62.8263 65.9239C63.0983 65.4119 63.4703 65.0159 63.9423 64.7359C64.4223 64.4559 64.9543 64.3159 65.5383 64.3159ZM67.9863 67.6999C67.9863 67.2039 67.8863 66.7719 67.6863 66.4039C67.4863 66.0359 67.2143 65.7559 66.8703 65.5639C66.5343 65.3639 66.1623 65.2639 65.7543 65.2639C65.3463 65.2639 64.9743 65.3599 64.6383 65.5519C64.3023 65.7439 64.0343 66.0239 63.8343 66.3919C63.6343 66.7599 63.5343 67.1919 63.5343 67.6879C63.5343 68.1919 63.6343 68.6319 63.8343 69.0079C64.0343 69.3759 64.3023 69.6599 64.6383 69.8599C64.9743 70.0519 65.3463 70.1479 65.7543 70.1479C66.1623 70.1479 66.5343 70.0519 66.8703 69.8599C67.2143 69.6599 67.4863 69.3759 67.6863 69.0079C67.8863 68.6319 67.9863 68.1959 67.9863 67.6999Z" fill="#707070"/>
<defs>
<clipPath id="clip0_293_2802">
<rect width="48" height="48" fill="white" transform="translate(24 6.99989)"/>
</clipPath>
</defs>
</svg>
