<svg width="96" height="84" viewBox="0 0 96 84" fill="none" xmlns="http://www.w3.org/2000/svg">
<rect x="0.5" y="0.5" width="95" height="83" rx="7.5" fill="#EBEBEB" fill-opacity="0.2"/>
<rect x="0.5" y="0.5" width="95" height="83" rx="7.5" stroke="#E9E9E9"/>
<mask id="mask0_80_72" style="mask-type:alpha" maskUnits="userSpaceOnUse" x="24" y="5" width="48" height="49">
<path d="M62.0472 9.31169C62.4708 9.31169 62.7531 9.02934 62.7531 8.60581V6.91169C62.7531 6.48816 62.4708 6.20581 62.0472 6.20581C61.6237 6.20581 61.3413 6.48816 61.3413 6.91169V8.60581C61.3413 8.95875 61.6943 9.31169 62.0472 9.31169ZM70.5884 14.747H68.8943C68.4708 14.747 68.1884 15.0293 68.1884 15.4529C68.1884 15.8764 68.4708 16.1588 68.8943 16.1588H70.5884C71.0119 16.1588 71.2943 15.8764 71.2943 15.4529C71.2943 15.0293 71.0119 14.747 70.5884 14.747ZM62.0472 20.2529C64.659 20.2529 66.8472 18.1352 66.8472 15.4529C66.8472 12.7705 64.7296 10.6529 62.0472 10.6529C59.4355 10.6529 57.2472 12.7705 57.2472 15.4529C57.2472 18.1352 59.4355 20.2529 62.0472 20.2529ZM62.0472 12.0646C63.8825 12.0646 65.4355 13.547 65.4355 15.4529C65.4355 17.3588 63.9531 18.8411 62.0472 18.8411C60.1413 18.8411 58.659 17.3588 58.659 15.4529C58.659 13.547 60.2119 12.0646 62.0472 12.0646ZM56.6825 11.0764C56.8237 11.2176 57.0355 11.2882 57.1766 11.2882C57.3178 11.2882 57.5296 11.2176 57.6708 11.0764C57.9531 10.794 57.9531 10.3705 57.6708 10.0882L56.4708 8.88816C56.1884 8.60581 55.7649 8.60581 55.4825 8.88816C55.2002 9.17052 55.2002 9.59405 55.4825 9.8764L56.6825 11.0764ZM53.5061 16.1588H55.2002C55.6237 16.1588 55.9061 15.8764 55.9061 15.4529C55.9061 15.0293 55.6237 14.747 55.2002 14.747H53.5061C53.0825 14.747 52.8002 15.0293 52.8002 15.4529C52.8002 15.8764 53.0825 16.1588 53.5061 16.1588ZM56.6825 19.8293L55.4825 21.0293C55.2002 21.3117 55.2002 21.7352 55.4825 22.0176C55.6237 22.1588 55.8355 22.2293 55.9766 22.2293C56.1178 22.2293 56.3296 22.1588 56.4708 22.0176L57.6708 20.8176C57.9531 20.5352 57.9531 20.1117 57.6708 19.8293C57.3884 19.547 56.9649 19.547 56.6825 19.8293ZM61.3413 22.2999V23.994C61.3413 24.4176 61.6237 24.6999 62.0472 24.6999C62.4708 24.6999 62.7531 24.4176 62.7531 23.994V22.2999C62.7531 21.8764 62.4708 21.594 62.0472 21.594C61.6237 21.594 61.3413 21.947 61.3413 22.2999ZM66.4237 19.8293C66.1413 20.1117 66.1413 20.5352 66.4237 20.8176L67.6237 22.0176C67.7649 22.1588 67.9766 22.2293 68.1178 22.2293C68.259 22.2293 68.4708 22.1588 68.6119 22.0176C68.8943 21.7352 68.8943 21.3117 68.6119 21.0293L67.4119 19.8293C67.1296 19.547 66.6355 19.547 66.4237 19.8293ZM66.9178 11.2882C67.1296 11.2882 67.2708 11.2176 67.4119 11.0764L68.6119 9.8764C68.8943 9.59405 68.8943 9.17052 68.6119 8.88816C68.3296 8.60581 67.9061 8.60581 67.6237 8.88816L66.4237 10.0882C66.1413 10.3705 66.1413 10.794 66.4237 11.0764C66.5649 11.2176 66.7766 11.2882 66.9178 11.2882ZM25.4119 51.3823C24.9884 51.3823 24.7061 51.6646 24.7061 52.0882C24.7061 52.5117 24.9884 52.794 25.4119 52.794H43.9766C44.4002 52.794 44.6825 52.5117 44.6825 52.0882C44.6825 51.6646 44.4002 51.3823 43.9766 51.3823H39.459V48.4176C39.459 47.8529 39.6708 47.7823 40.3061 47.4999C40.9413 47.2882 42.0002 46.8646 42.0002 45.3823C42.0002 44.9587 41.7178 44.6764 41.2943 44.6764C40.8708 44.6764 40.5884 44.9587 40.5884 45.3823C40.5884 45.8058 40.4472 45.8764 39.8119 46.1587C39.7413 46.2293 39.6002 46.2293 39.459 46.2999V44.0411C40.9413 43.6882 42.0002 42.4176 42.0002 40.8646C42.0002 39.3117 39.7413 36.1352 39.3178 35.4999C39.0355 35.147 38.4708 35.147 38.1884 35.4999C37.7649 36.1352 35.5061 39.3117 35.5061 40.8646C35.5061 42.4176 36.6355 43.6882 38.0472 44.0411V48.1352C37.9061 48.0646 37.8355 48.0646 37.6943 47.994C37.059 47.7823 36.9178 47.6411 36.9178 47.2176C36.9178 46.794 36.6355 46.5117 36.2119 46.5117C35.7884 46.5117 35.5061 46.794 35.5061 47.2176C35.5061 48.6999 36.5649 49.0529 37.2002 49.3352C37.8355 49.6176 38.0472 49.6882 38.0472 50.2529V51.3823H31.3413V48.4176C31.3413 47.8529 31.5531 47.7823 32.1884 47.4999C32.8237 47.2882 33.8825 46.8646 33.8825 45.3823C33.8825 44.9587 33.6002 44.6764 33.1766 44.6764C32.7531 44.6764 32.4708 44.9587 32.4708 45.3823C32.4708 45.8058 32.3296 45.8764 31.6943 46.1587C31.6237 46.2293 31.4825 46.2293 31.3413 46.2999V44.0411C32.8237 43.6882 33.8825 42.4176 33.8825 40.8646C33.8825 39.3117 31.6237 36.1352 31.2002 35.4999C30.9178 35.147 30.3531 35.147 30.0708 35.4999C29.6472 36.1352 27.3884 39.3117 27.3884 40.8646C27.3884 42.4176 28.5178 43.6882 29.9296 44.0411V48.1352C29.7884 48.0646 29.7178 48.0646 29.5766 47.994C28.9413 47.7823 28.8002 47.6411 28.8002 47.2176C28.8002 46.794 28.5178 46.5117 28.0943 46.5117C27.6708 46.5117 27.3884 46.794 27.3884 47.2176C27.3884 48.6999 28.4472 49.0529 29.0825 49.3352C29.7178 49.6176 29.9296 49.6882 29.9296 50.2529V51.3823H25.4119ZM36.9178 40.8646C36.9178 40.2293 37.8355 38.5352 38.7531 37.1235C39.6708 38.4646 40.5884 40.1587 40.5884 40.8646C40.5884 41.6411 40.0943 42.2764 39.459 42.5588V41.4293C39.459 41.0058 39.1766 40.7235 38.7531 40.7235C38.3296 40.7235 38.0472 41.0058 38.0472 41.4293V42.5588C37.4119 42.2764 36.9178 41.6411 36.9178 40.8646ZM28.8002 40.8646C28.8002 40.2293 29.7178 38.5352 30.6355 37.1235C31.5531 38.4646 32.4708 40.1587 32.4708 40.8646C32.4708 41.6411 31.9766 42.2764 31.3413 42.5588V41.4293C31.3413 41.0058 31.059 40.7235 30.6355 40.7235C30.2119 40.7235 29.9296 41.0058 29.9296 41.4293V42.5588C29.2943 42.2764 28.8002 41.6411 28.8002 40.8646ZM50.3296 43.8999C48.9884 43.8999 47.9296 44.9587 47.9296 46.2999C47.9296 47.6411 48.9884 48.6999 50.3296 48.6999C51.6708 48.6999 52.7296 47.6411 52.7296 46.2999C52.7296 44.9587 51.6708 43.8999 50.3296 43.8999ZM50.3296 47.2882C49.7649 47.2882 49.3413 46.8646 49.3413 46.2999C49.3413 45.7352 49.7649 45.3117 50.3296 45.3117C50.8943 45.3117 51.3178 45.7352 51.3178 46.2999C51.3178 46.8646 50.8943 47.2882 50.3296 47.2882Z" fill="#555555"/>
<path d="M70.1645 41.0764C70.1645 40.7235 69.8822 40.4411 69.5998 40.3705L63.1057 39.3823V36.7705L64.1645 36.1352C64.5175 35.9235 64.5881 35.5 64.4469 35.147C64.2351 34.7941 63.8116 34.7235 63.4587 34.8647L62.0469 35.7117C61.8351 35.8529 61.694 36.0647 61.694 36.347V39.1705L60.6351 39.0294V32.2529H66.8469C67.2704 32.2529 67.5528 31.9705 67.5528 31.547C67.5528 31.1235 67.2704 30.8411 66.8469 30.8411C60.7763 30.8411 55.8351 30.8411 50.3998 30.8411C49.9763 30.8411 49.694 31.1235 49.694 31.547V34.2999C48.4234 33.7352 47.2234 33.3117 45.9528 32.8882V21.1705H48.7057C48.9881 21.1705 49.2704 21.0294 49.341 20.747C49.4822 20.4647 49.4116 20.1823 49.1998 19.9705L38.3292 9.09995C38.0469 8.8176 37.6234 8.8176 37.341 9.09995L26.4704 19.9705C26.2587 20.1823 26.1881 20.4647 26.3292 20.747C26.4704 21.0294 26.6822 21.1705 26.9645 21.1705H29.7175V30.5588C27.1057 30.6294 25.4822 30.8411 25.2704 30.9117C24.9175 30.9823 24.6351 31.3352 24.7057 31.6882C24.7763 32.0411 25.1292 32.3235 25.4822 32.2529C25.6234 32.2529 37.9057 30.4176 49.6234 35.7823V37.6882H48.7763C48.3528 37.6882 48.0704 37.9705 48.0704 38.3941C48.0704 38.8176 48.3528 39.0999 48.7763 39.0999H49.6234V40.4411C46.7292 40.7941 44.4704 43.2647 44.4704 46.2999C44.4704 49.547 47.0822 52.1588 50.3292 52.1588C53.0116 52.1588 55.341 50.3235 55.9763 47.8529C56.0469 47.8529 62.7528 47.8529 62.6822 47.8529C62.6822 48.0647 62.6116 48.2764 62.6116 48.4882C62.6116 50.8882 64.5175 52.7941 66.9175 52.7941C69.3175 52.7941 71.2234 50.8882 71.2234 48.4882C71.2234 47.3588 70.7998 46.3705 70.094 45.5941V41.0764H70.1645ZM37.8351 10.5823L47.0116 19.7588H28.6587L37.8351 10.5823ZM39.5292 31.2647C38.3998 31.0529 37.2704 30.9117 36.2116 30.7705V26.9588H39.5292V31.2647ZM40.2351 25.6176H35.5057C35.0822 25.6176 34.7998 25.9 34.7998 26.3235V30.6999C33.4587 30.6294 32.2587 30.5588 31.1998 30.5588V21.1705H44.6116V32.4647C43.4116 32.1117 42.141 31.8294 41.0116 31.547V26.3235C40.941 25.9 40.5881 25.6176 40.2351 25.6176ZM59.2234 32.2529V41.0764H57.0351C55.6234 39.2411 53.4351 38.0411 51.0351 37.8294V32.2529H59.2234ZM50.3292 50.8176C47.8587 50.8176 45.8822 48.8411 45.8822 46.3705C45.8822 43.9 47.8587 41.9235 50.3292 41.9235C52.7998 41.9235 54.7763 43.9 54.7763 46.3705C54.8469 48.7705 52.7998 50.8176 50.3292 50.8176ZM51.0351 40.4411V39.1705C54.6351 39.5235 57.4587 42.5588 57.4587 46.2999V46.4411H56.1881C56.1881 46.3705 56.1881 46.3705 56.1881 46.2999C56.2587 43.2647 53.9998 40.7941 51.0351 40.4411ZM58.941 46.4411C58.941 46.3705 59.1528 44.6764 58.0234 42.4176H59.9998C60.4234 42.4176 60.7057 42.1352 60.7057 41.7117V40.4411L68.7528 41.7117V44.6058C68.1881 44.3941 67.6234 44.2529 66.9881 44.2529C65.3645 44.2529 63.9528 45.1705 63.1763 46.5117H58.941V46.4411ZM66.9881 51.3823C65.3645 51.3823 64.0939 50.1117 64.0939 48.4882C64.0939 46.9352 65.3645 45.5941 66.9881 45.5941C68.6116 45.5941 69.8822 46.8647 69.8822 48.4882C69.8822 50.1117 68.6116 51.3823 66.9881 51.3823Z" fill="#555555"/>
<path d="M66.494 47.9942C66.2116 48.2766 66.2116 48.7001 66.494 48.9825C66.7763 49.2648 67.1999 49.2648 67.4822 48.9825C67.7646 48.7001 67.7646 48.2766 67.4822 47.9942C67.1999 47.7119 66.7763 47.7119 66.494 47.9942Z" fill="#555555"/>
</mask>
<g mask="url(#mask0_80_72)">
<rect x="16.8008" y="-4.1001" width="75.2" height="74.4" fill="#707070"/>
</g>
<path d="M13.094 61.742V62.778H8.852V66.068H12.296V67.104H8.852V71.5H7.578V61.742H13.094ZM14.1567 67.636C14.1567 66.852 14.3154 66.166 14.6327 65.578C14.95 64.9807 15.384 64.5187 15.9347 64.192C16.4947 63.8653 17.1154 63.702 17.7967 63.702C18.4687 63.702 19.052 63.8467 19.5467 64.136C20.0414 64.4253 20.41 64.7893 20.6527 65.228V63.828H21.9407V71.5H20.6527V70.072C20.4007 70.52 20.0227 70.8933 19.5187 71.192C19.024 71.4813 18.4454 71.626 17.7827 71.626C17.1014 71.626 16.4854 71.458 15.9347 71.122C15.384 70.786 14.95 70.3147 14.6327 69.708C14.3154 69.1013 14.1567 68.4107 14.1567 67.636ZM20.6527 67.65C20.6527 67.0713 20.536 66.5673 20.3027 66.138C20.0694 65.7087 19.752 65.382 19.3507 65.158C18.9587 64.9247 18.5247 64.808 18.0487 64.808C17.5727 64.808 17.1387 64.92 16.7467 65.144C16.3547 65.368 16.042 65.6947 15.8087 66.124C15.5754 66.5533 15.4587 67.0573 15.4587 67.636C15.4587 68.224 15.5754 68.7373 15.8087 69.176C16.042 69.6053 16.3547 69.9367 16.7467 70.17C17.1387 70.394 17.5727 70.506 18.0487 70.506C18.5247 70.506 18.9587 70.394 19.3507 70.17C19.752 69.9367 20.0694 69.6053 20.3027 69.176C20.536 68.7373 20.6527 68.2287 20.6527 67.65ZM25.3676 65.074C25.5916 64.6353 25.909 64.2947 26.3196 64.052C26.7396 63.8093 27.2483 63.688 27.8456 63.688V65.004H27.5096C26.0816 65.004 25.3676 65.7787 25.3676 67.328V71.5H24.0936V63.828H25.3676V65.074ZM38.5423 63.688C39.1396 63.688 39.6716 63.814 40.1383 64.066C40.6049 64.3087 40.9736 64.6773 41.2443 65.172C41.5149 65.6667 41.6503 66.2687 41.6503 66.978V71.5H40.3903V67.16C40.3903 66.3947 40.1989 65.8113 39.8163 65.41C39.4429 64.9993 38.9343 64.794 38.2903 64.794C37.6276 64.794 37.1003 65.0087 36.7083 65.438C36.3163 65.858 36.1203 66.4693 36.1203 67.272V71.5H34.8603V67.16C34.8603 66.3947 34.6689 65.8113 34.2863 65.41C33.9129 64.9993 33.4043 64.794 32.7603 64.794C32.0976 64.794 31.5703 65.0087 31.1783 65.438C30.7863 65.858 30.5903 66.4693 30.5903 67.272V71.5H29.3163V63.828H30.5903V64.934C30.8423 64.5327 31.1783 64.2247 31.5983 64.01C32.0276 63.7953 32.4989 63.688 33.0123 63.688C33.6563 63.688 34.2256 63.8327 34.7203 64.122C35.2149 64.4113 35.5836 64.836 35.8263 65.396C36.0409 64.8547 36.3956 64.4347 36.8903 64.136C37.3849 63.8373 37.9356 63.688 38.5423 63.688ZM51.2805 63.688C51.8592 63.688 52.3819 63.814 52.8485 64.066C53.3152 64.3087 53.6792 64.6773 53.9405 65.172C54.2112 65.6667 54.3465 66.2687 54.3465 66.978V71.5H53.0865V67.16C53.0865 66.3947 52.8952 65.8113 52.5125 65.41C52.1299 64.9993 51.6072 64.794 50.9445 64.794C50.2725 64.794 49.7359 65.004 49.3345 65.424C48.9425 65.844 48.7465 66.4553 48.7465 67.258V71.5H47.4725V61.14H48.7465V64.92C48.9985 64.528 49.3439 64.2247 49.7825 64.01C50.2305 63.7953 50.7299 63.688 51.2805 63.688ZM59.7736 71.626C59.0549 71.626 58.4016 71.4627 57.8136 71.136C57.2349 70.8093 56.7776 70.3473 56.4416 69.75C56.1149 69.1433 55.9516 68.4433 55.9516 67.65C55.9516 66.866 56.1196 66.1753 56.4556 65.578C56.8009 64.9713 57.2676 64.5093 57.8556 64.192C58.4436 63.8653 59.1016 63.702 59.8296 63.702C60.5576 63.702 61.2156 63.8653 61.8036 64.192C62.3916 64.5093 62.8536 64.9667 63.1896 65.564C63.5349 66.1613 63.7076 66.8567 63.7076 67.65C63.7076 68.4433 63.5303 69.1433 63.1756 69.75C62.8303 70.3473 62.3589 70.8093 61.7616 71.136C61.1643 71.4627 60.5016 71.626 59.7736 71.626ZM59.7736 70.506C60.2309 70.506 60.6603 70.3987 61.0616 70.184C61.4629 69.9693 61.7849 69.6473 62.0276 69.218C62.2796 68.7887 62.4056 68.266 62.4056 67.65C62.4056 67.034 62.2843 66.5113 62.0416 66.082C61.7989 65.6527 61.4816 65.3353 61.0896 65.13C60.6976 64.9153 60.2729 64.808 59.8156 64.808C59.3489 64.808 58.9196 64.9153 58.5276 65.13C58.1449 65.3353 57.8369 65.6527 57.6036 66.082C57.3703 66.5113 57.2536 67.034 57.2536 67.65C57.2536 68.2753 57.3656 68.8027 57.5896 69.232C57.8229 69.6613 58.1309 69.9833 58.5136 70.198C58.8963 70.4033 59.3163 70.506 59.7736 70.506ZM72.1867 63.828V71.5H70.9127V70.366C70.67 70.758 70.3294 71.066 69.8907 71.29C69.4614 71.5047 68.9854 71.612 68.4627 71.612C67.8654 71.612 67.3287 71.4907 66.8527 71.248C66.3767 70.996 65.9987 70.6227 65.7187 70.128C65.448 69.6333 65.3127 69.0313 65.3127 68.322V63.828H66.5727V68.154C66.5727 68.91 66.764 69.4933 67.1467 69.904C67.5294 70.3053 68.052 70.506 68.7147 70.506C69.396 70.506 69.9327 70.296 70.3247 69.876C70.7167 69.456 70.9127 68.8447 70.9127 68.042V63.828H72.1867ZM77.0538 71.626C76.4658 71.626 75.9384 71.528 75.4718 71.332C75.0051 71.1267 74.6364 70.8467 74.3658 70.492C74.0951 70.128 73.9458 69.7127 73.9178 69.246H75.2338C75.2711 69.6287 75.4484 69.9413 75.7658 70.184C76.0924 70.4267 76.5171 70.548 77.0398 70.548C77.5251 70.548 77.9078 70.4407 78.1878 70.226C78.4678 70.0113 78.6078 69.7407 78.6078 69.414C78.6078 69.078 78.4584 68.8307 78.1598 68.672C77.8611 68.504 77.3991 68.3407 76.7738 68.182C76.2044 68.0327 75.7378 67.8833 75.3738 67.734C75.0191 67.5753 74.7111 67.3467 74.4498 67.048C74.1978 66.74 74.0718 66.3387 74.0718 65.844C74.0718 65.452 74.1884 65.0927 74.4218 64.766C74.6551 64.4393 74.9864 64.1827 75.4158 63.996C75.8451 63.8 76.3351 63.702 76.8858 63.702C77.7351 63.702 78.4211 63.9167 78.9438 64.346C79.4664 64.7753 79.7464 65.3633 79.7838 66.11H78.5098C78.4818 65.7087 78.3184 65.3867 78.0198 65.144C77.7304 64.9013 77.3384 64.78 76.8438 64.78C76.3864 64.78 76.0224 64.878 75.7518 65.074C75.4811 65.27 75.3458 65.5267 75.3458 65.844C75.3458 66.096 75.4251 66.306 75.5838 66.474C75.7518 66.6327 75.9571 66.7633 76.1998 66.866C76.4518 66.9593 76.7971 67.0667 77.2358 67.188C77.7864 67.3373 78.2344 67.4867 78.5798 67.636C78.9251 67.776 79.2191 67.9907 79.4618 68.28C79.7138 68.5693 79.8444 68.9473 79.8538 69.414C79.8538 69.834 79.7371 70.212 79.5038 70.548C79.2704 70.884 78.9391 71.15 78.5098 71.346C78.0898 71.5327 77.6044 71.626 77.0538 71.626ZM88.6522 67.37C88.6522 67.6127 88.6382 67.8693 88.6102 68.14H82.4782C82.5249 68.896 82.7816 69.4887 83.2482 69.918C83.7242 70.338 84.2982 70.548 84.9702 70.548C85.5209 70.548 85.9782 70.422 86.3422 70.17C86.7156 69.9087 86.9769 69.5633 87.1262 69.134H88.4982C88.2929 69.8713 87.8822 70.4733 87.2662 70.94C86.6502 71.3973 85.8849 71.626 84.9702 71.626C84.2422 71.626 83.5889 71.4627 83.0102 71.136C82.4409 70.8093 81.9929 70.3473 81.6662 69.75C81.3396 69.1433 81.1762 68.4433 81.1762 67.65C81.1762 66.8567 81.3349 66.1613 81.6522 65.564C81.9696 64.9667 82.4129 64.5093 82.9822 64.192C83.5609 63.8653 84.2236 63.702 84.9702 63.702C85.6982 63.702 86.3422 63.8607 86.9022 64.178C87.4622 64.4953 87.8916 64.934 88.1902 65.494C88.4982 66.0447 88.6522 66.67 88.6522 67.37ZM87.3362 67.104C87.3362 66.6187 87.2289 66.2033 87.0142 65.858C86.7996 65.5033 86.5056 65.2373 86.1322 65.06C85.7682 64.8733 85.3622 64.78 84.9142 64.78C84.2702 64.78 83.7196 64.9853 83.2622 65.396C82.8142 65.8067 82.5576 66.376 82.4922 67.104H87.3362Z" fill="#707070"/>
</svg>
