<svg width="417" height="332" viewBox="0 0 417 332" fill="none" xmlns="http://www.w3.org/2000/svg">
<g clip-path="url(#clip0_80_833)">
<g filter="url(#filter0_di_80_833)">
<path d="M391.315 3.01807H25.6846C15.6715 3.01807 7.5542 11.1258 7.5542 21.1272V301.818C7.5542 311.819 15.6715 319.927 25.6846 319.927H391.315C401.328 319.927 409.445 311.819 409.445 301.818V21.1272C409.445 11.1258 401.328 3.01807 391.315 3.01807Z" fill="white"/>
<path d="M391.315 3.39551H25.6848C15.8803 3.39551 7.93213 11.3343 7.93213 21.1273V301.818C7.93213 311.611 15.8803 319.55 25.6848 319.55H391.315C401.12 319.55 409.068 311.611 409.068 301.818V21.1273C409.068 11.3343 401.12 3.39551 391.315 3.39551Z" stroke="#EFEFEF"/>
<path d="M31.1149 104.539C29.74 104.539 28.5132 104.402 27.4345 104.127C26.3557 103.832 25.4461 103.398 24.7058 102.828C23.9655 102.258 23.3944 101.55 22.9925 100.705C22.6118 99.8596 22.4214 98.8878 22.4214 97.7892L26.0701 96.8384C26.049 97.8737 26.2605 98.7293 26.7047 99.4054C27.1489 100.06 27.7729 100.546 28.5767 100.863C29.3805 101.18 30.29 101.339 31.3053 101.339C32.2571 101.339 33.0715 101.222 33.7484 100.99C34.4464 100.736 34.9752 100.398 35.3348 99.9758C35.6944 99.5533 35.8742 99.0674 35.8742 98.518C35.8742 97.9054 35.6415 97.4089 35.1761 97.0286C34.732 96.6272 34.1291 96.3103 33.3676 96.0779C32.6273 95.8455 31.7812 95.6236 30.8294 95.4123C29.8564 95.1799 28.894 94.9264 27.9421 94.6518C26.9903 94.356 26.123 93.9863 25.3404 93.5426C24.5578 93.0778 23.9338 92.4862 23.4684 91.7679C23.0031 91.0284 22.7704 90.1094 22.7704 89.0108C22.7704 87.7431 23.0877 86.6445 23.7222 85.7149C24.3568 84.7853 25.2769 84.067 26.4826 83.5599C27.6883 83.0529 29.1161 82.7994 30.7659 82.7994C32.4158 82.7994 33.8541 83.0529 35.081 83.5599C36.3078 84.067 37.2596 84.8065 37.9365 85.7783C38.6345 86.7502 38.9835 87.9333 38.9835 89.3277L35.3031 90.1833C35.3242 89.4861 35.229 88.8735 35.0175 88.3453C34.806 87.8171 34.4993 87.384 34.0974 87.0459C33.6955 86.6868 33.1984 86.4227 32.6062 86.2537C32.035 86.0635 31.3899 85.9685 30.6707 85.9685C29.8246 85.9685 29.0949 86.0847 28.4815 86.3171C27.8892 86.5495 27.4239 86.8769 27.0854 87.2995C26.7682 87.7009 26.6095 88.1657 26.6095 88.6939C26.6095 89.3488 26.8422 89.877 27.3075 90.2784C27.794 90.6587 28.4392 90.9756 29.243 91.2291C30.0467 91.4615 30.9351 91.6939 31.9081 91.9263C32.8177 92.1376 33.7272 92.3806 34.6368 92.6552C35.5463 92.9299 36.3924 93.2996 37.175 93.7644C37.9577 94.2081 38.5816 94.8102 39.047 95.5708C39.5123 96.3103 39.745 97.2504 39.745 98.3913C39.745 99.6589 39.4066 100.758 38.7297 101.687C38.074 102.617 37.101 103.325 35.8107 103.81C34.5204 104.296 32.9552 104.539 31.1149 104.539ZM45.8701 104.539C44.9817 104.539 44.1673 104.381 43.427 104.064C42.7078 103.726 42.1367 103.219 41.7137 102.543C41.2906 101.846 41.0791 100.969 41.0791 99.9125C41.0791 99.004 41.2483 98.2434 41.5868 97.6307C41.9464 97.018 42.454 96.511 43.1097 96.1095C43.7654 95.7081 44.5481 95.3912 45.4576 95.1588C46.3883 94.9053 47.4353 94.694 48.5987 94.525C49.4448 94.3982 50.1111 94.282 50.5976 94.1764C51.1052 94.0496 51.4648 93.8806 51.6764 93.6693C51.8879 93.4581 51.9936 93.1517 51.9936 92.7503C51.9936 92.032 51.7398 91.451 51.2322 91.0073C50.7245 90.5425 49.9948 90.3101 49.0429 90.3101C48.4506 90.3101 47.8795 90.4157 47.3296 90.627C46.7796 90.8383 46.3037 91.1763 45.9018 91.6411C45.5211 92.1059 45.2778 92.7186 45.1721 93.4792L41.5868 92.6235C41.7348 91.6728 42.031 90.8488 42.4752 90.1516C42.9194 89.4544 43.4799 88.884 44.1568 88.4403C44.8336 87.9967 45.5951 87.6692 46.4412 87.4579C47.2873 87.2466 48.1862 87.141 49.1381 87.141C50.6399 87.141 51.8879 87.4051 52.882 87.9333C53.8973 88.4403 54.6588 89.2221 55.1665 90.2784C55.6741 91.3137 55.9279 92.6447 55.9279 94.2715V97.3455C55.9279 98.0638 55.9385 98.8138 55.9597 99.5955C55.9808 100.356 56.002 101.117 56.0231 101.877C56.0654 102.638 56.1183 103.388 56.1818 104.127H52.5965C52.5542 103.451 52.5119 102.744 52.4696 102.004C52.4484 101.265 52.4273 100.504 52.4061 99.7223H51.9936C51.761 100.61 51.3696 101.423 50.8197 102.163C50.2697 102.902 49.5823 103.483 48.7574 103.906C47.9324 104.328 46.97 104.539 45.8701 104.539ZM47.4248 101.56C47.869 101.56 48.3237 101.476 48.7891 101.307C49.2544 101.138 49.6986 100.884 50.1217 100.546C50.5659 100.208 50.9466 99.7857 51.2639 99.2786C51.6023 98.7716 51.8561 98.1694 52.0254 97.4722L51.9936 95.349L52.7868 95.3806C52.4907 95.6976 52.0888 95.9405 51.5812 96.1095C51.0735 96.2574 50.5236 96.3842 49.9313 96.4898C49.3602 96.5743 48.7785 96.6694 48.1862 96.775C47.6151 96.8807 47.0863 97.0286 46.5998 97.2187C46.1133 97.4089 45.722 97.673 45.4259 98.011C45.1509 98.3279 45.0134 98.7821 45.0134 99.3737C45.0134 100.05 45.2355 100.589 45.6797 100.99C46.1239 101.37 46.7056 101.56 47.4248 101.56ZM58.6444 104.127V81.8486H62.6104V104.127H58.6444ZM73.052 104.539C71.6771 104.539 70.4714 104.349 69.435 103.969C68.3985 103.567 67.5313 102.997 66.8333 102.258C66.1352 101.518 65.6064 100.631 65.2468 99.5955C64.8872 98.5603 64.7075 97.4089 64.7075 96.1412C64.7075 94.8736 64.8767 93.6905 65.2151 92.5919C65.5747 91.4932 66.0929 90.5425 66.7698 89.7397C67.4467 88.9157 68.2822 88.2819 69.2763 87.8382C70.2916 87.3734 71.455 87.141 72.7664 87.141C73.9933 87.141 75.0826 87.3523 76.0346 87.7748C77.0076 88.1763 77.8114 88.7784 78.4459 89.5812C79.0805 90.3841 79.5353 91.3665 79.8103 92.5285C80.0852 93.6693 80.1698 94.9792 80.0641 96.4581L67.2774 96.5849V94.2398L77.4941 94.113L76.3519 95.444C76.4576 94.3032 76.373 93.363 76.0981 92.6235C75.8231 91.863 75.3999 91.2925 74.8288 90.9122C74.2577 90.5319 73.5702 90.3418 72.7664 90.3418C71.8992 90.3418 71.1483 90.5742 70.5137 91.039C69.8792 91.4827 69.3927 92.1271 69.0542 92.9721C68.7369 93.8172 68.5783 94.8313 68.5783 96.0145C68.5783 97.8737 68.9696 99.2575 69.7523 100.166C70.5349 101.074 71.6454 101.529 73.0837 101.529C73.7183 101.529 74.2577 101.444 74.7019 101.275C75.1461 101.106 75.5056 100.874 75.7808 100.578C76.0557 100.282 76.2673 99.9547 76.4153 99.5955C76.5846 99.2364 76.7009 98.8667 76.7643 98.4864L80.3179 99.0568C80.2122 99.8385 79.9901 100.567 79.6516 101.243C79.3132 101.898 78.8478 102.479 78.2556 102.986C77.6633 103.472 76.9336 103.853 76.0663 104.127C75.2201 104.402 74.2154 104.539 73.052 104.539ZM89.0575 104.539C87.9365 104.539 86.9212 104.423 86.0116 104.191C85.1232 103.979 84.3512 103.663 83.6955 103.24C83.0397 102.796 82.5321 102.247 82.1725 101.592C81.8129 100.916 81.612 100.145 81.5697 99.2786L84.8694 98.423C84.8906 99.0779 85.0809 99.6378 85.4405 100.103C85.8001 100.567 86.2972 100.927 86.9317 101.18C87.5875 101.434 88.3701 101.56 89.2796 101.56C90.2949 101.56 91.0881 101.402 91.6593 101.085C92.2515 100.747 92.5476 100.272 92.5476 99.6589C92.5476 99.1941 92.389 98.835 92.0717 98.5814C91.7756 98.3279 91.3314 98.1166 90.7391 97.9476C90.168 97.7575 89.4489 97.5779 88.5816 97.4089C87.7355 97.2187 86.9106 97.0074 86.1068 96.775C85.3242 96.5426 84.605 96.2469 83.9493 95.8877C83.2936 95.5285 82.7753 95.0532 82.3946 94.4616C82.0139 93.8701 81.8235 93.1306 81.8235 92.2433C81.8235 91.208 82.0985 90.3101 82.6484 89.5495C83.1984 88.7889 83.9916 88.1974 85.028 87.7748C86.0645 87.3523 87.2913 87.141 88.7085 87.141C90.0411 87.141 91.2151 87.3417 92.2304 87.7431C93.2668 88.1234 94.0918 88.6939 94.7052 89.4545C95.3397 90.215 95.6993 91.1658 95.7839 92.3066L92.4207 93.1306C92.3996 92.4757 92.2198 91.9369 91.8813 91.5144C91.5641 91.0707 91.1304 90.7327 90.5805 90.5003C90.0305 90.2679 89.3748 90.1516 88.6133 90.1516C87.6615 90.1516 86.9106 90.3312 86.3606 90.6904C85.8318 91.0284 85.5674 91.4827 85.5674 92.0531C85.5674 92.4968 85.7366 92.8665 86.0751 93.1623C86.4135 93.4369 86.8894 93.6588 87.5029 93.8278C88.1163 93.9968 88.8354 94.1658 89.6604 94.3349C90.4641 94.5039 91.2574 94.694 92.04 94.9053C92.8226 95.1166 93.5312 95.4018 94.1658 95.7609C94.8215 96.1201 95.3397 96.5955 95.7205 97.187C96.1224 97.7786 96.3233 98.5392 96.3233 99.4688C96.3233 100.525 96.0272 101.444 95.4349 102.226C94.8638 102.986 94.0389 103.567 92.9601 103.969C91.8813 104.349 90.5805 104.539 89.0575 104.539Z" fill="#080808"/>
<path d="M49.1032 119.595H30.2173C25.4193 119.595 21.5298 123.48 21.5298 128.272C21.5298 133.065 25.4193 136.95 30.2173 136.95H49.1032C53.9011 136.95 57.7907 133.065 57.7907 128.272C57.7907 123.48 53.9011 119.595 49.1032 119.595Z" fill="#E8FFF4"/>
<path d="M49.1032 119.595H30.2173C25.4193 119.595 21.5298 123.48 21.5298 128.272C21.5298 133.065 25.4193 136.95 30.2173 136.95H49.1032C53.9011 136.95 57.7907 133.065 57.7907 128.272C57.7907 123.48 53.9011 119.595 49.1032 119.595Z" stroke="#8FE7BE"/>
<path d="M30.7222 126.174V132.297H29.7149V126.174L27.0135 128.872L26.3013 128.161L30.2186 124.249L34.1358 128.161L33.4236 128.872L30.7222 126.174Z" fill="#1DBF73"/>
<path d="M36.7368 125.443V124.344H38.9366V132.045H37.7204V125.443H36.7368ZM41.2592 130.408C41.9361 129.823 42.4684 129.345 42.8562 128.971C43.2511 128.591 43.5789 128.196 43.8398 127.788C44.1007 127.38 44.2311 126.971 44.2311 126.563C44.2311 126.14 44.1289 125.809 43.9244 125.57C43.727 125.331 43.4133 125.211 42.9831 125.211C42.5672 125.211 42.2428 125.344 42.0101 125.612C41.7846 125.872 41.6647 126.225 41.6505 126.668H40.4872C40.5083 125.866 40.7481 125.253 41.2063 124.83C41.6717 124.401 42.2605 124.186 42.9726 124.186C43.7411 124.186 44.3404 124.397 44.7705 124.82C45.2077 125.242 45.4262 125.806 45.4262 126.51C45.4262 127.017 45.2958 127.507 45.0349 127.978C44.7811 128.443 44.4744 128.862 44.1148 129.235C43.7623 129.601 43.311 130.028 42.761 130.514L42.2851 130.936H45.6377V131.94H40.4977V131.063L41.2592 130.408ZM46.5066 126.204C46.5066 125.69 46.6546 125.288 46.9507 124.999C47.2539 124.704 47.6417 124.556 48.1141 124.556C48.5865 124.556 48.9708 124.704 49.2669 124.999C49.5701 125.288 49.7217 125.69 49.7217 126.204C49.7217 126.718 49.5701 127.123 49.2669 127.419C48.9708 127.714 48.5865 127.862 48.1141 127.862C47.6417 127.862 47.2539 127.714 46.9507 127.419C46.6546 127.123 46.5066 126.718 46.5066 126.204ZM52.958 124.693L48.7381 132.045H47.5536L51.7734 124.693H52.958ZM48.1141 125.285C47.6699 125.285 47.4478 125.591 47.4478 126.204C47.4478 126.823 47.6699 127.133 48.1141 127.133C48.3256 127.133 48.4878 127.059 48.6006 126.911C48.7205 126.757 48.7804 126.521 48.7804 126.204C48.7804 125.591 48.5583 125.285 48.1141 125.285ZM50.811 130.524C50.811 130.01 50.9591 129.609 51.2552 129.32C51.5584 129.024 51.9462 128.876 52.4186 128.876C52.8839 128.876 53.2647 129.024 53.5608 129.32C53.864 129.609 54.0156 130.01 54.0156 130.524C54.0156 131.038 53.864 131.443 53.5608 131.739C53.2647 132.035 52.8839 132.183 52.4186 132.183C51.9462 132.183 51.5584 132.035 51.2552 131.739C50.9591 131.443 50.811 131.038 50.811 130.524ZM52.408 129.605C51.9638 129.605 51.7417 129.912 51.7417 130.524C51.7417 131.137 51.9638 131.443 52.408 131.443C52.8522 131.443 53.0743 131.137 53.0743 130.524C53.0743 129.912 52.8522 129.605 52.408 129.605Z" fill="#1DBF73"/>
<path d="M67.6927 131.569L69.5783 126.148H71.0408L68.5025 132.8H66.8587L64.3325 126.148H65.8071L67.6927 131.569ZM74.4998 132.909C73.9759 132.909 73.5046 132.816 73.0856 132.631C72.6746 132.438 72.3483 132.181 72.1065 131.858C71.8648 131.529 71.7359 131.162 71.7198 130.76H73.146C73.1702 131.041 73.3032 131.279 73.5449 131.472C73.7946 131.657 74.1049 131.75 74.4756 131.75C74.8624 131.75 75.1605 131.677 75.37 131.532C75.5877 131.379 75.6965 131.186 75.6965 130.953C75.6965 130.703 75.5757 130.518 75.3338 130.398C75.1 130.277 74.7253 130.144 74.2097 129.999C73.71 129.863 73.3032 129.73 72.9889 129.601C72.6746 129.472 72.4006 129.275 72.167 129.009C71.9413 128.744 71.8285 128.393 71.8285 127.959C71.8285 127.605 71.9333 127.283 72.1428 126.993C72.3523 126.695 72.6505 126.462 73.0372 126.293C73.432 126.124 73.8833 126.039 74.391 126.039C75.1484 126.039 75.757 126.232 76.2163 126.619C76.6831 126.997 76.9332 127.516 76.9657 128.176H75.5877C75.5636 127.878 75.4425 127.641 75.225 127.464C75.0074 127.287 74.7132 127.198 74.3426 127.198C73.98 127.198 73.702 127.267 73.5086 127.404C73.3152 127.54 73.2185 127.721 73.2185 127.947C73.2185 128.124 73.283 128.273 73.4119 128.393C73.5408 128.514 73.6979 128.611 73.8833 128.683C74.0686 128.747 74.3426 128.832 74.7052 128.937C75.1887 129.066 75.5832 129.199 75.8899 129.335C76.2042 129.464 76.4739 129.657 76.6997 129.915C76.9249 130.172 77.042 130.515 77.0503 130.941C77.0503 131.319 76.9453 131.657 76.736 131.955C76.526 132.253 76.2283 132.486 75.8416 132.655C75.4626 132.824 75.0154 132.909 74.4998 132.909ZM83.0567 123.866V132.8H81.6788V123.866H83.0567ZM84.4067 129.444C84.4067 128.776 84.5434 128.184 84.8176 127.669C85.0994 127.154 85.4779 126.755 85.9538 126.474C86.4373 126.184 86.9691 126.039 87.5493 126.039C88.0728 126.039 88.5283 126.144 88.9151 126.353C89.3095 126.555 89.6237 126.808 89.8579 127.114V126.148H91.2479V132.8H89.8579V131.81C89.6237 132.124 89.3057 132.386 88.903 132.595C88.4996 132.804 88.0403 132.909 87.5251 132.909C86.9525 132.909 86.429 132.764 85.9538 132.474C85.4779 132.176 85.0994 131.766 84.8176 131.243C84.5434 130.711 84.4067 130.112 84.4067 129.444ZM89.8579 129.468C89.8579 129.009 89.7612 128.611 89.5678 128.273C89.382 127.935 89.1365 127.677 88.8305 127.5C88.5238 127.323 88.1937 127.234 87.8394 127.234C87.4843 127.234 87.1542 127.323 86.8482 127.5C86.5415 127.669 86.2923 127.923 86.0989 128.261C85.913 128.59 85.8209 128.985 85.8209 129.444C85.8209 129.903 85.913 130.305 86.0989 130.651C86.2923 130.997 86.5415 131.263 86.8482 131.448C87.1625 131.625 87.4926 131.713 87.8394 131.713C88.1937 131.713 88.5238 131.625 88.8305 131.448C89.1365 131.271 89.382 131.013 89.5678 130.675C89.7612 130.329 89.8579 129.927 89.8579 129.468ZM95.4746 132.909C94.951 132.909 94.4797 132.816 94.0604 132.631C93.6494 132.438 93.3231 132.181 93.0813 131.858C92.8396 131.529 92.7112 131.162 92.6946 130.76H94.1208C94.145 131.041 94.278 131.279 94.5197 131.472C94.7697 131.657 95.0802 131.75 95.4504 131.75C95.8372 131.75 96.1356 131.677 96.3448 131.532C96.5624 131.379 96.6712 131.186 96.6712 130.953C96.6712 130.703 96.5503 130.518 96.3086 130.398C96.0751 130.277 95.7004 130.144 95.1845 129.999C94.6851 129.863 94.278 129.73 93.9637 129.601C93.6494 129.472 93.376 129.275 93.1418 129.009C92.9167 128.744 92.8033 128.393 92.8033 127.959C92.8033 127.605 92.9083 127.283 93.1176 126.993C93.3276 126.695 93.6253 126.462 94.012 126.293C94.4071 126.124 94.8581 126.039 95.3658 126.039C96.1235 126.039 96.7316 126.232 97.1909 126.619C97.6585 126.997 97.9086 127.516 97.9403 128.176H96.5624C96.5382 127.878 96.4173 127.641 96.1998 127.464C95.9822 127.287 95.6884 127.198 95.3174 127.198C94.9548 127.198 94.6768 127.267 94.4834 127.404C94.29 127.54 94.1933 127.721 94.1933 127.947C94.1933 128.124 94.2583 128.273 94.3867 128.393C94.5159 128.514 94.673 128.611 94.8581 128.683C95.044 128.747 95.3174 128.832 95.68 128.937C96.1635 129.066 96.5586 129.199 96.8646 129.335C97.1788 129.464 97.4493 129.657 97.6744 129.915C97.9003 130.172 98.0173 130.515 98.0249 130.941C98.0249 131.319 97.9207 131.657 97.7106 131.955C97.5014 132.253 97.203 132.486 96.8162 132.655C96.4377 132.824 95.9905 132.909 95.4746 132.909ZM101.121 127.271V130.953C101.121 131.203 101.178 131.384 101.291 131.496C101.412 131.601 101.613 131.653 101.895 131.653H102.741V132.8H101.653C101.033 132.8 100.558 132.655 100.227 132.365C99.8969 132.076 99.7314 131.605 99.7314 130.953V127.271H98.9458V126.148H99.7314V124.494H101.121V126.148H102.741V127.271H101.121ZM113.146 126.148L109.061 135.927H107.635L108.989 132.691L106.366 126.148H107.901L109.774 131.219L111.72 126.148H113.146ZM120.29 129.311C120.29 129.561 120.274 129.786 120.241 129.987H115.153C115.193 130.518 115.391 130.945 115.745 131.267C116.099 131.589 116.535 131.75 117.051 131.75C117.792 131.75 118.316 131.44 118.622 130.82H120.109C119.907 131.432 119.54 131.935 119.009 132.329C118.485 132.716 117.832 132.909 117.051 132.909C116.414 132.909 115.842 132.768 115.334 132.486C114.835 132.196 114.44 131.794 114.15 131.279C113.868 130.756 113.727 130.152 113.727 129.468C113.727 128.784 113.863 128.184 114.138 127.669C114.419 127.146 114.811 126.743 115.31 126.462C115.818 126.18 116.398 126.039 117.051 126.039C117.679 126.039 118.239 126.176 118.731 126.45C119.222 126.724 119.605 127.11 119.879 127.609C120.153 128.1 120.29 128.667 120.29 129.311ZM118.851 128.876C118.843 128.369 118.662 127.963 118.308 127.657C117.953 127.351 117.514 127.198 116.99 127.198C116.515 127.198 116.108 127.351 115.769 127.657C115.431 127.955 115.229 128.361 115.165 128.876H118.851ZM121.187 129.444C121.187 128.776 121.323 128.184 121.597 127.669C121.879 127.154 122.259 126.755 122.734 126.474C123.217 126.184 123.749 126.039 124.329 126.039C124.853 126.039 125.308 126.144 125.695 126.353C126.09 126.555 126.404 126.808 126.638 127.114V126.148H128.028V132.8H126.638V131.81C126.404 132.124 126.086 132.386 125.683 132.595C125.28 132.804 124.821 132.909 124.305 132.909C123.733 132.909 123.209 132.764 122.734 132.474C122.259 132.176 121.879 131.766 121.597 131.243C121.323 130.711 121.187 130.112 121.187 129.444ZM126.638 129.468C126.638 129.009 126.541 128.611 126.348 128.273C126.163 127.935 125.916 127.677 125.61 127.5C125.304 127.323 124.974 127.234 124.619 127.234C124.265 127.234 123.934 127.323 123.628 127.5C123.322 127.669 123.072 127.923 122.879 128.261C122.694 128.59 122.601 128.985 122.601 129.444C122.601 129.903 122.694 130.305 122.879 130.651C123.072 130.997 123.322 131.263 123.628 131.448C123.942 131.625 124.272 131.713 124.619 131.713C124.974 131.713 125.304 131.625 125.61 131.448C125.916 131.271 126.163 131.013 126.348 130.675C126.541 130.329 126.638 129.927 126.638 129.468ZM131.216 127.114C131.417 126.776 131.683 126.514 132.013 126.329C132.352 126.136 132.751 126.039 133.21 126.039V127.464H132.86C132.319 127.464 131.908 127.6 131.627 127.874C131.352 128.148 131.216 128.623 131.216 129.299V132.8H129.838V126.148H131.216V127.114ZM136.894 132.909C136.37 132.909 135.899 132.816 135.48 132.631C135.069 132.438 134.743 132.181 134.501 131.858C134.259 131.529 134.13 131.162 134.114 130.76H135.541C135.565 131.041 135.698 131.279 135.939 131.472C136.189 131.657 136.499 131.75 136.87 131.75C137.257 131.75 137.555 131.677 137.765 131.532C137.982 131.379 138.091 131.186 138.091 130.953C138.091 130.703 137.97 130.518 137.728 130.398C137.494 130.277 137.119 130.144 136.604 129.999C136.104 129.863 135.698 129.73 135.383 129.601C135.069 129.472 134.795 129.275 134.562 129.009C134.336 128.744 134.223 128.393 134.223 127.959C134.223 127.605 134.327 127.283 134.537 126.993C134.747 126.695 135.045 126.462 135.432 126.293C135.826 126.124 136.278 126.039 136.786 126.039C137.542 126.039 138.151 126.232 138.611 126.619C139.078 126.997 139.328 127.516 139.36 128.176H137.982C137.958 127.878 137.837 127.641 137.62 127.464C137.402 127.287 137.107 127.198 136.737 127.198C136.375 127.198 136.097 127.267 135.903 127.404C135.71 127.54 135.613 127.721 135.613 127.947C135.613 128.124 135.677 128.273 135.806 128.393C135.935 128.514 136.092 128.611 136.278 128.683C136.463 128.747 136.737 128.832 137.1 128.937C137.583 129.066 137.978 129.199 138.284 129.335C138.599 129.464 138.868 129.657 139.094 129.915C139.319 130.172 139.436 130.515 139.445 130.941C139.445 131.319 139.34 131.657 139.13 131.955C138.92 132.253 138.623 132.486 138.236 132.655C137.857 132.824 137.41 132.909 136.894 132.909Z" fill="#888888"/>
<path d="M29.5767 28.6727C30.0321 28.0771 30.5747 27.5571 31.2209 27.1636H35.2552C38.1357 28.918 38.9555 33.1828 39.1887 35.4679C39.2733 36.2971 38.6051 36.9727 37.7706 36.9727H34.7489" stroke="#5654D4" stroke-width="2" stroke-linecap="round" stroke-linejoin="round"/>
<path d="M36.6815 23.6212L35.5051 23.7681L33.4872 23.4322C33.3227 23.4048 33.1548 23.4048 32.9904 23.4322L30.9725 23.7681L29.7961 23.6212C29.1233 23.5372 28.6889 24.3125 29.1125 24.8413L30.9725 27.1635H35.5051L37.3651 24.8413C37.7887 24.3125 37.3543 23.5372 36.6815 23.6212Z" stroke="#5654D4" stroke-width="2" stroke-linecap="round" stroke-linejoin="round"/>
<path d="M26.4399 35.4634C26.4399 34.8383 26.9473 34.3315 27.5731 34.3315H30.5948C31.2206 34.3315 31.728 34.8383 31.728 35.4634V35.8406C31.728 36.4657 31.2206 36.9725 30.5948 36.9725H27.5731C26.9473 36.9725 26.4399 36.4657 26.4399 35.8406V35.4634Z" stroke="#5654D4" stroke-width="2" stroke-linecap="round" stroke-linejoin="round"/>
<path d="M26.4399 32.8227C26.4399 32.1977 26.9473 31.6909 27.5731 31.6909H30.5948C31.2206 31.6909 31.728 32.1977 31.728 32.8227V33.2C31.728 33.8251 31.2206 34.3318 30.5948 34.3318H27.5731C26.9473 34.3318 26.4399 33.8251 26.4399 33.2V32.8227Z" stroke="#5654D4" stroke-width="2" stroke-linecap="round" stroke-linejoin="round"/>
<path d="M50.4177 35.4637V33.8791H53.3186C53.9129 33.8791 54.4064 33.7484 54.7992 33.4868C55.2021 33.2151 55.4993 32.8328 55.6906 32.3398C55.8921 31.8368 55.9928 31.2282 55.9928 30.5138C55.9928 29.9202 55.9324 29.4122 55.8115 28.9897C55.6906 28.5571 55.5043 28.1999 55.2525 27.9182C55.0007 27.6365 54.6834 27.4302 54.3006 27.2995C53.928 27.1586 53.4848 27.0882 52.9711 27.0882H50.4177V25.5037H52.9106C54.0891 25.5037 55.051 25.6998 55.7964 26.0922C56.5418 26.4846 57.0907 27.048 57.4432 27.7824C57.8058 28.5068 57.9872 29.382 57.9872 30.4082C57.9872 31.1326 57.9016 31.7764 57.7303 32.3398C57.559 32.8932 57.3274 33.3711 57.0353 33.7735C56.7432 34.1658 56.4007 34.4878 56.0079 34.7393C55.6151 34.9908 55.192 35.1769 54.7388 35.2977C54.2956 35.4084 53.8423 35.4637 53.379 35.4637H50.4177ZM49.481 35.4637V25.5037H51.3998V35.4637H49.481ZM61.4844 35.6598C61.0513 35.6598 60.6636 35.5793 60.3211 35.4184C59.9786 35.2473 59.7067 34.9958 59.5052 34.6638C59.3038 34.3318 59.203 33.9193 59.203 33.4264C59.203 33.0139 59.2836 32.6618 59.4448 32.37C59.606 32.0782 59.8427 31.8418 60.1549 31.6608C60.4672 31.4696 60.8499 31.3137 61.3031 31.1929C61.7665 31.0622 62.3003 30.9565 62.9047 30.876C63.2572 30.8157 63.5443 30.7604 63.7659 30.71C63.9875 30.6597 64.1486 30.5842 64.2493 30.4837C64.3602 30.373 64.4155 30.2171 64.4155 30.0158C64.4155 29.6939 64.2997 29.4222 64.068 29.2009C63.8465 28.9796 63.499 28.8689 63.0255 28.8689C62.7335 28.8689 62.4565 28.9193 62.1945 29.0198C61.9327 29.1204 61.7061 29.2814 61.5147 29.5027C61.3233 29.714 61.1924 29.9957 61.1218 30.3478L59.4145 29.8348C59.5153 29.4324 59.6714 29.0802 59.8829 28.7784C60.0944 28.4665 60.3563 28.2049 60.6686 27.9937C60.9809 27.7824 61.3384 27.6264 61.7413 27.5258C62.1543 27.4253 62.5975 27.3749 63.0709 27.3749C63.8062 27.3749 64.4105 27.4957 64.8839 27.7371C65.3573 27.9786 65.7099 28.3508 65.9415 28.8538C66.1732 29.3468 66.289 29.9806 66.289 30.7553V32.2342C66.289 32.5762 66.2941 32.9334 66.3041 33.3057C66.3243 33.6678 66.3445 34.0351 66.3645 34.4073C66.3948 34.7695 66.425 35.1216 66.4552 35.4637H64.7479C64.7177 35.1719 64.6875 34.8651 64.6573 34.5431C64.627 34.2111 64.607 33.8741 64.5968 33.532H64.3551C64.2242 33.9244 64.0278 34.2815 63.7659 34.6035C63.504 34.9254 63.1817 35.182 62.7989 35.3731C62.4162 35.5642 61.978 35.6598 61.4844 35.6598ZM62.2248 34.2413C62.4262 34.2413 62.6327 34.2061 62.8442 34.1357C63.0557 34.0653 63.2623 33.9596 63.4637 33.8188C63.6651 33.6779 63.8515 33.5018 64.0227 33.2906C64.194 33.0693 64.335 32.8127 64.4457 32.5209L64.4306 31.2382L64.7932 31.2986C64.6221 31.4394 64.4105 31.5501 64.1587 31.6306C63.9169 31.7111 63.6551 31.7764 63.373 31.8268C63.1011 31.867 62.8241 31.9122 62.542 31.9626C62.2701 32.0129 62.0234 32.0833 61.8017 32.1738C61.5802 32.2544 61.3988 32.3751 61.2578 32.536C61.1269 32.6869 61.0614 32.8982 61.0614 33.1698C61.0614 33.5119 61.1672 33.7785 61.3787 33.9697C61.6003 34.1508 61.8823 34.2413 62.2248 34.2413ZM71.2037 35.6598C70.6698 35.6598 70.1864 35.6045 69.7533 35.4938C69.3302 35.3933 68.9626 35.2424 68.6503 35.0411C68.3482 34.8399 68.1064 34.5984 67.9251 34.3168C67.7539 34.0351 67.6532 33.7131 67.6229 33.3509L69.1187 32.8378C69.1489 33.0994 69.2496 33.3409 69.4209 33.5622C69.6022 33.7735 69.849 33.9395 70.1612 34.0602C70.4836 34.1709 70.8713 34.2262 71.3246 34.2262C71.8282 34.2262 72.216 34.1508 72.4879 33.9998C72.77 33.8389 72.911 33.6125 72.911 33.3208C72.911 33.1095 72.8304 32.9435 72.6693 32.8228C72.5182 32.692 72.3016 32.5864 72.0196 32.5058C71.7376 32.4153 71.3951 32.3298 70.9922 32.2493C70.6094 32.1688 70.2267 32.0782 69.8439 31.9777C69.4713 31.867 69.1238 31.7262 68.8014 31.5551C68.4892 31.374 68.2373 31.1426 68.046 30.8609C67.8546 30.5692 67.7589 30.207 67.7589 29.7744C67.7589 29.2915 67.8849 28.874 68.1366 28.5218C68.3986 28.1597 68.7763 27.878 69.2698 27.6768C69.7633 27.4755 70.3526 27.3749 71.0375 27.3749C71.6923 27.3749 72.2563 27.4655 72.7297 27.6466C73.2132 27.8277 73.6009 28.0893 73.8931 28.4313C74.1952 28.7733 74.3866 29.1858 74.4672 29.6688L72.8808 30.1366C72.8606 29.8549 72.77 29.6134 72.6088 29.4122C72.4477 29.211 72.2311 29.0601 71.9591 28.9595C71.6972 28.8589 71.385 28.8086 71.0224 28.8086C70.5591 28.8086 70.1965 28.8891 69.9346 29.05C69.6727 29.211 69.5418 29.4273 69.5418 29.6989C69.5418 29.9202 69.6224 30.0964 69.7835 30.2271C69.9547 30.3579 70.1864 30.4635 70.4785 30.544C70.7706 30.6245 71.1131 30.71 71.5059 30.8006C71.8987 30.871 72.2815 30.9615 72.6541 31.0722C73.0369 31.1728 73.3794 31.3086 73.6815 31.4797C73.9837 31.6507 74.2254 31.8771 74.4068 32.1588C74.5881 32.4304 74.6787 32.7825 74.6787 33.2151C74.6787 33.7382 74.5377 34.186 74.2557 34.5582C73.9837 34.9204 73.5858 35.1971 73.0621 35.3882C72.5484 35.5693 71.9289 35.6598 71.2037 35.6598ZM76.0851 35.4637V30.6497V24.7793H78.019V27.1938C78.019 27.4051 78.0092 27.6264 77.9888 27.8578C77.979 28.0893 77.9586 28.3257 77.9284 28.5671C77.8981 28.8086 77.8626 29.05 77.8226 29.2915C77.7924 29.5329 77.7569 29.7744 77.7168 30.0158H78.0039C78.1452 29.4524 78.3265 28.9746 78.5478 28.5822C78.7692 28.1898 79.0562 27.8931 79.409 27.6918C79.7618 27.4806 80.1947 27.3749 80.7084 27.3749C81.6149 27.3749 82.2895 27.6969 82.7329 28.3408C83.1862 28.9746 83.4128 29.9353 83.4128 31.2231V35.4637H81.494V31.4797C81.494 30.6245 81.3679 29.9957 81.1163 29.5933C80.8647 29.1909 80.487 28.9897 79.9831 28.9897C79.5601 28.9897 79.2073 29.1204 78.9255 29.382C78.6438 29.6335 78.4269 29.9756 78.2759 30.4082C78.1248 30.8408 78.0341 31.3388 78.0039 31.9022V35.4637H76.0851ZM89.7471 35.6598C89.2538 35.6598 88.821 35.5642 88.4478 35.3731C88.0852 35.1719 87.7883 34.8902 87.5564 34.528C87.335 34.1558 87.1741 33.7182 87.0729 33.2151H86.8161L86.8312 35.4637H85.2145V31.6306V24.7793H87.1333V27.2844C87.1333 27.5359 87.1182 27.8025 87.088 28.0842C87.0578 28.3659 87.0178 28.6577 86.9671 28.9595C86.9173 29.2613 86.8614 29.5682 86.8009 29.88H87.1031C87.2346 29.3871 87.4053 28.9544 87.6168 28.5822C87.8389 28.21 88.126 27.9182 88.478 27.7069C88.8406 27.4957 89.2742 27.39 89.7774 27.39C90.4323 27.39 90.9966 27.5611 91.4695 27.9031C91.9432 28.2452 92.3111 28.7281 92.5725 29.3518C92.8346 29.9655 92.9653 30.7 92.9653 31.5551C92.9653 32.3801 92.8346 33.1044 92.5725 33.7282C92.3209 34.3419 91.953 34.8198 91.4695 35.1618C90.9966 35.4938 90.4225 35.6598 89.7471 35.6598ZM89.1428 34.0904C89.516 34.0904 89.8378 33.9847 90.1097 33.7735C90.3923 33.5622 90.6083 33.2654 90.7594 32.8831C90.9105 32.5008 90.9861 32.0531 90.9861 31.54C90.9861 31.0269 90.9105 30.5793 90.7594 30.1969C90.6189 29.8146 90.4119 29.5128 90.14 29.2915C89.8786 29.0702 89.5507 28.9595 89.1579 28.9595C88.8965 28.9595 88.6548 29.0148 88.4327 29.1255C88.2212 29.2261 88.0353 29.3669 87.8737 29.548C87.7128 29.7191 87.5715 29.9102 87.4506 30.1215C87.3403 30.3327 87.2595 30.5541 87.2089 30.7855C87.159 31.0068 87.1333 31.2181 87.1333 31.4193V31.6608C87.1333 31.9224 87.1741 32.194 87.2542 32.4757C87.335 32.7573 87.4612 33.0189 87.6319 33.2604C87.8034 33.5018 88.0149 33.7031 88.2665 33.864C88.5188 34.0149 88.8104 34.0904 89.1428 34.0904ZM98.0123 35.6598C97.2365 35.6598 96.5521 35.5039 95.9576 35.192C95.363 34.8701 94.8947 34.4022 94.5525 33.7886C94.2201 33.1648 94.0539 32.4002 94.0539 31.4948C94.0539 30.5692 94.2254 29.8046 94.5676 29.2009C94.9204 28.5873 95.3933 28.1295 95.9878 27.8277C96.5823 27.5258 97.2516 27.3749 97.9972 27.3749C98.7625 27.3749 99.4424 27.5309 100.037 27.8428C100.631 28.1546 101.1 28.6224 101.442 29.2462C101.784 29.8599 101.956 30.6245 101.956 31.54C101.956 32.4656 101.784 33.2353 101.442 33.8489C101.1 34.4626 100.626 34.9204 100.022 35.2222C99.4273 35.514 98.758 35.6598 98.0123 35.6598ZM98.0728 34.2111C98.4958 34.2111 98.8531 34.1155 99.1455 33.9244C99.4379 33.7231 99.6592 33.4264 99.8103 33.034C99.9614 32.6417 100.037 32.1738 100.037 31.6306C100.037 31.0571 99.9561 30.5691 99.7952 30.1668C99.6343 29.7542 99.3971 29.4373 99.0851 29.216C98.7829 28.9947 98.4052 28.884 97.9519 28.884C97.5387 28.884 97.1814 28.9846 96.8792 29.1858C96.5868 29.377 96.3602 29.6688 96.1993 30.0611C96.0482 30.4434 95.9727 30.9113 95.9727 31.4646C95.9727 32.3499 96.1593 33.029 96.5317 33.5018C96.9041 33.9747 97.4178 34.2111 98.0728 34.2111ZM105.288 35.6598C104.855 35.6598 104.467 35.5793 104.125 35.4184C103.782 35.2473 103.51 34.9958 103.309 34.6638C103.107 34.3318 103.007 33.9193 103.007 33.4264C103.007 33.0139 103.087 32.6618 103.248 32.37C103.409 32.0782 103.646 31.8418 103.958 31.6608C104.27 31.4696 104.653 31.3137 105.107 31.1929C105.57 31.0622 106.104 30.9565 106.708 30.876C107.061 30.8157 107.348 30.7604 107.569 30.71C107.791 30.6597 107.952 30.5842 108.053 30.4837C108.164 30.373 108.219 30.2171 108.219 30.0158C108.219 29.6939 108.103 29.4222 107.872 29.2009C107.65 28.9796 107.303 28.8689 106.829 28.8689C106.537 28.8689 106.26 28.9193 105.998 29.0198C105.736 29.1204 105.509 29.2814 105.318 29.5027C105.127 29.714 104.996 29.9957 104.925 30.3478L103.218 29.8348C103.319 29.4324 103.475 29.0802 103.686 28.7784C103.898 28.4665 104.16 28.2049 104.472 27.9937C104.784 27.7824 105.142 27.6264 105.545 27.5258C105.958 27.4253 106.401 27.3749 106.874 27.3749C107.609 27.3749 108.214 27.4957 108.687 27.7371C109.161 27.9786 109.513 28.3508 109.745 28.8538C109.977 29.3468 110.093 29.9806 110.093 30.7553V32.2342C110.093 32.5762 110.098 32.9334 110.108 33.3057C110.128 33.6678 110.148 34.0351 110.168 34.4073C110.198 34.7695 110.228 35.1216 110.259 35.4637H108.551C108.521 35.1719 108.491 34.8651 108.461 34.5431C108.431 34.2111 108.41 33.8741 108.4 33.532H108.159C108.028 33.9244 107.831 34.2815 107.569 34.6035C107.307 34.9254 106.985 35.182 106.602 35.3731C106.219 35.5642 105.781 35.6598 105.288 35.6598ZM106.028 34.2413C106.23 34.2413 106.436 34.2061 106.648 34.1357C106.859 34.0653 107.065 33.9596 107.267 33.8188C107.469 33.6779 107.655 33.5018 107.826 33.2906C107.998 33.0693 108.138 32.8127 108.249 32.5209L108.234 31.2382L108.597 31.2986C108.425 31.4394 108.214 31.5501 107.962 31.6306C107.72 31.7111 107.458 31.7764 107.177 31.8268C106.905 31.867 106.627 31.9122 106.346 31.9626C106.074 32.0129 105.827 32.0833 105.605 32.1738C105.384 32.2544 105.203 32.3751 105.061 32.536C104.931 32.6869 104.865 32.8982 104.865 33.1698C104.865 33.5119 104.971 33.7785 105.182 33.9697C105.404 34.1508 105.686 34.2413 106.028 34.2413ZM111.924 35.4637V31.4948V27.5711H113.556L113.511 30.3328H113.783C113.864 29.6788 114 29.1355 114.191 28.7029C114.383 28.2704 114.644 27.9433 114.976 27.722C115.319 27.5007 115.737 27.39 116.23 27.39C116.332 27.39 116.442 27.4001 116.563 27.4202C116.684 27.4302 116.82 27.4554 116.971 27.4957L116.88 29.5178C116.729 29.4474 116.568 29.3971 116.397 29.3669C116.226 29.3368 116.07 29.3217 115.928 29.3217C115.535 29.3217 115.198 29.4273 114.916 29.6386C114.634 29.8398 114.402 30.1315 114.221 30.5138C114.05 30.8861 113.924 31.3288 113.843 31.8418V35.4637H111.924ZM120.87 35.6598C120.215 35.6598 119.641 35.4938 119.147 35.1618C118.664 34.8198 118.291 34.3369 118.029 33.7131C117.768 33.0893 117.636 32.3549 117.636 31.5098C117.636 30.705 117.757 29.9957 117.999 29.382C118.241 28.7582 118.593 28.2704 119.057 27.9182C119.53 27.5661 120.11 27.39 120.794 27.39C121.318 27.39 121.756 27.4957 122.108 27.7069C122.461 27.9082 122.748 28.1949 122.97 28.5671C123.202 28.9393 123.378 29.377 123.498 29.88H123.801C123.74 29.5682 123.685 29.2562 123.634 28.9444C123.585 28.6224 123.544 28.3156 123.514 28.0238C123.483 27.7321 123.468 27.4755 123.468 27.2542V24.7793H125.387V31.6457V35.4637H123.755L123.786 33.2151H123.514C123.393 33.7382 123.217 34.186 122.985 34.5582C122.763 34.9204 122.476 35.1971 122.124 35.3882C121.772 35.5693 121.353 35.6598 120.87 35.6598ZM121.459 34.0904C121.802 34.0904 122.099 34.0149 122.35 33.864C122.603 33.7031 122.809 33.5018 122.97 33.2604C123.141 33.0189 123.267 32.7573 123.347 32.4757C123.428 32.194 123.468 31.9224 123.468 31.6608V31.4193C123.468 31.2181 123.438 31.0068 123.378 30.7855C123.328 30.5642 123.247 30.3478 123.136 30.1366C123.035 29.9153 122.905 29.7191 122.743 29.548C122.582 29.3669 122.391 29.2261 122.169 29.1255C121.957 29.0148 121.721 28.9595 121.459 28.9595C121.066 28.9595 120.734 29.0702 120.462 29.2915C120.19 29.5128 119.983 29.8197 119.842 30.212C119.702 30.5944 119.631 31.037 119.631 31.54C119.631 32.0531 119.702 32.5008 119.842 32.8831C119.993 33.2654 120.205 33.5622 120.477 33.7735C120.759 33.9847 121.086 34.0904 121.459 34.0904Z" fill="#080808"/>
<path d="M137.489 36.2182C140.827 36.2182 143.532 33.5157 143.532 30.1819C143.532 26.8481 140.827 24.1455 137.489 24.1455C134.151 24.1455 131.445 26.8481 131.445 30.1819C131.445 33.5157 134.151 36.2182 137.489 36.2182Z" fill="#E0E0E0"/>
<path fill-rule="evenodd" clip-rule="evenodd" d="M138.475 28.101C138.569 27.9359 138.622 27.7443 138.622 27.541C138.622 26.9162 138.114 26.4092 137.489 26.4092C136.863 26.4092 136.356 26.9162 136.356 27.541C136.356 28.1658 136.863 28.6728 137.489 28.6728C137.911 28.6728 138.28 28.4429 138.475 28.101ZM136.733 29.4274H137.111H137.867C138.284 29.4274 138.622 29.7649 138.622 30.1819V30.9365V33.9546C138.622 34.3717 138.284 34.7092 137.867 34.7092C137.449 34.7092 137.111 34.3717 137.111 33.9546V31.5024C137.111 31.1899 136.857 30.9365 136.545 30.9365C136.232 30.9365 135.978 30.683 135.978 30.3705V30.1819C135.978 29.9166 136.116 29.6823 136.322 29.5482C136.44 29.4716 136.582 29.4274 136.733 29.4274Z" fill="white"/>
<g filter="url(#filter1_d_80_833)">
<path d="M383.761 16.6001H327.859C322.852 16.6001 318.793 20.654 318.793 25.6546V34.7092C318.793 39.7099 322.852 43.7637 327.859 43.7637H383.761C388.767 43.7637 392.826 39.7099 392.826 34.7092V25.6546C392.826 20.654 388.767 16.6001 383.761 16.6001Z" fill="white"/>
<path d="M383.761 16.9775H327.859C323.061 16.9775 319.171 20.8625 319.171 25.6548V34.7094C319.171 39.5017 323.061 43.3866 327.859 43.3866H383.761C388.559 43.3866 392.449 39.5017 392.449 34.7094V25.6548C392.449 20.8625 388.559 16.9775 383.761 16.9775Z" stroke="#E0E0E0"/>
<path d="M332.391 35.4635H328.614V31.6908M335.413 24.8999H339.19V28.6726" stroke="#888888" stroke-width="1.5" stroke-linecap="round" stroke-linejoin="round"/>
<path d="M358.658 25.0295C359.137 24.5532 359.911 24.5541 360.389 25.0314L361.724 26.3649C362.201 26.8422 362.203 27.6157 361.726 28.0941L354.052 35.7984H350.944V32.6979L358.658 25.0295Z" stroke="#888888" stroke-width="1.5" stroke-linecap="round" stroke-linejoin="round"/>
<path d="M357.683 26.0039L360.748 29.0646" stroke="#888888" stroke-width="1.5" stroke-linecap="round"/>
<path d="M373.298 30.1822C373.298 29.7974 373.434 29.4707 373.709 29.1959C373.984 28.9212 374.311 28.7857 374.695 28.7861C375.081 28.7861 375.408 28.9219 375.683 29.1967C375.958 29.4714 376.094 29.7978 376.093 30.1819C376.093 30.5666 375.957 30.8934 375.682 31.1682C375.407 31.443 375.08 31.5784 374.695 31.5779C374.31 31.5779 373.983 31.4422 373.708 31.1674C373.433 30.8927 373.297 30.5663 373.298 30.1822ZM379.228 28.7861C379.613 28.7861 379.94 28.9219 380.215 29.1967C380.49 29.4714 380.626 29.7978 380.626 30.1819C380.626 30.5666 380.49 30.8934 380.215 31.1682C379.94 31.443 379.613 31.5784 379.228 31.5779C378.843 31.5779 378.516 31.4422 378.241 31.1674C377.966 30.8927 377.83 30.5663 377.83 30.1822C377.83 29.7974 377.966 29.4707 378.241 29.1959C378.516 28.9212 378.844 28.7857 379.228 28.7861ZM383.761 28.7861C384.146 28.7861 384.473 28.9219 384.748 29.1967C385.023 29.4714 385.159 29.7978 385.158 30.1819C385.158 30.5666 385.022 30.8934 384.747 31.1682C384.472 31.443 384.145 31.5784 383.761 31.5779C383.375 31.5779 383.048 31.4422 382.773 31.1674C382.498 30.8927 382.362 30.5663 382.363 30.1822C382.363 29.7974 382.499 29.4707 382.774 29.1959C383.049 28.9212 383.376 28.7857 383.761 28.7861Z" fill="#888888" stroke="white" stroke-width="0.3"/>
</g>
<path d="M67.9888 168.264V273.145" stroke="#E9E9E9"/>
<path d="M161.663 168.264V273.145" stroke="#E9E9E9"/>
<path d="M255.337 168.264V273.145" stroke="#E9E9E9"/>
<path d="M349.011 168.264V273.145" stroke="#E9E9E9"/>
<path d="M50.4658 291.266C50.4658 289.874 50.6995 288.788 51.1669 288.007C51.6423 287.218 52.4561 286.824 53.6084 286.824C54.7607 286.824 55.5705 287.218 56.0379 288.007C56.5133 288.788 56.751 289.874 56.751 291.266C56.751 292.675 56.5133 293.778 56.0379 294.574C55.5705 295.363 54.7607 295.757 53.6084 295.757C52.4561 295.757 51.6423 295.363 51.1669 294.574C50.6995 293.778 50.4658 292.675 50.4658 291.266ZM55.3973 291.266C55.3973 290.615 55.353 290.063 55.2643 289.612C55.1837 289.162 55.0145 288.795 54.7567 288.514C54.4988 288.224 54.1161 288.079 53.6084 288.079C53.1008 288.079 52.718 288.224 52.4602 288.514C52.2023 288.795 52.029 289.162 51.9404 289.612C51.8598 290.063 51.8196 290.615 51.8196 291.266C51.8196 291.943 51.8598 292.51 51.9404 292.969C52.021 293.427 52.1902 293.798 52.4481 294.079C52.714 294.361 53.1008 294.502 53.6084 294.502C54.1161 294.502 54.4988 294.361 54.7567 294.079C55.0226 293.798 55.1958 293.427 55.2764 292.969C55.357 292.51 55.3973 291.943 55.3973 291.266ZM58.1848 289.154C58.2332 288.405 58.5192 287.822 59.043 287.403C59.5749 286.984 60.2517 286.775 61.0736 286.775C61.6376 286.775 62.1252 286.876 62.5362 287.077C62.9471 287.279 63.2573 287.552 63.4669 287.898C63.6763 288.244 63.7811 288.635 63.7811 289.069C63.7811 289.568 63.6482 289.995 63.3822 290.349C63.1163 290.703 62.798 290.94 62.4274 291.061V291.11C62.9028 291.254 63.2735 291.52 63.5394 291.906C63.8053 292.284 63.9382 292.772 63.9382 293.367C63.9382 293.842 63.8295 294.264 63.6119 294.635C63.3943 295.005 63.072 295.299 62.6449 295.516C62.2178 295.725 61.7062 295.83 61.1099 295.83C60.2396 295.83 59.5224 295.609 58.9584 295.166C58.4024 294.715 58.1042 294.071 58.064 293.234H59.3935C59.4257 293.661 59.5909 294.011 59.8891 294.285C60.1872 294.55 60.5902 294.683 61.0978 294.683C61.5893 294.683 61.9681 294.55 62.234 294.285C62.4999 294.011 62.6328 293.661 62.6328 293.234C62.6328 292.671 62.4515 292.272 62.0889 292.039C61.7343 291.798 61.1864 291.677 60.4451 291.677H60.1309V290.542H60.4572C61.1099 290.534 61.6055 290.425 61.9439 290.216C62.2903 290.007 62.4636 289.677 62.4636 289.226C62.4636 288.84 62.3387 288.534 62.0889 288.309C61.8391 288.075 61.4846 287.959 61.0253 287.959C60.574 287.959 60.2235 288.075 59.9737 288.309C59.7239 288.534 59.5749 288.816 59.5265 289.154H58.1848ZM70.6797 290.832V291.991H65.712V290.832H70.6797ZM72.456 291.266C72.456 289.874 72.6897 288.788 73.157 288.007C73.6325 287.218 74.4463 286.824 75.5985 286.824C76.7506 286.824 77.5604 287.218 78.028 288.007C78.5032 288.788 78.7411 289.874 78.7411 291.266C78.7411 292.675 78.5032 293.778 78.028 294.574C77.5604 295.363 76.7506 295.757 75.5985 295.757C74.4463 295.757 73.6325 295.363 73.157 294.574C72.6897 293.778 72.456 292.675 72.456 291.266ZM77.3874 291.266C77.3874 290.615 77.3428 290.063 77.2544 289.612C77.1736 289.162 77.0044 288.795 76.7468 288.514C76.4892 288.224 76.1062 288.079 75.5985 288.079C75.091 288.079 74.7083 288.224 74.4503 288.514C74.1925 288.795 74.0193 289.162 73.9306 289.612C73.8501 290.063 73.8097 290.615 73.8097 291.266C73.8097 291.943 73.8501 292.51 73.9306 292.969C74.0112 293.427 74.1804 293.798 74.4383 294.079C74.7042 294.361 75.091 294.502 75.5985 294.502C76.1062 294.502 76.4892 294.361 76.7468 294.079C77.0127 293.798 77.1857 293.427 77.2665 292.969C77.3474 292.51 77.3874 291.943 77.3874 291.266ZM85.7833 288.043L82.4231 295.782H81.0331L84.4296 288.188H79.9574V287.017H85.7833V288.043Z" fill="#888888"/>
<path d="M146.662 288.236V286.981H149.176V295.782H147.786V288.236H146.662ZM151.069 291.266C151.069 289.874 151.302 288.788 151.77 288.007C152.245 287.218 153.059 286.824 154.211 286.824C155.363 286.824 156.173 287.218 156.641 288.007C157.116 288.788 157.354 289.874 157.354 291.266C157.354 292.675 157.116 293.778 156.641 294.574C156.173 295.363 155.363 295.758 154.211 295.758C153.059 295.758 152.245 295.363 151.77 294.574C151.302 293.778 151.069 292.675 151.069 291.266ZM156 291.266C156 290.615 155.956 290.063 155.867 289.613C155.787 289.162 155.617 288.795 155.36 288.514C155.101 288.224 154.719 288.079 154.211 288.079C153.704 288.079 153.321 288.224 153.063 288.514C152.805 288.795 152.632 289.162 152.543 289.613C152.463 290.063 152.423 290.615 152.423 291.266C152.423 291.943 152.463 292.51 152.543 292.969C152.624 293.428 152.793 293.798 153.051 294.079C153.317 294.361 153.704 294.502 154.211 294.502C154.719 294.502 155.101 294.361 155.36 294.079C155.626 293.798 155.799 293.428 155.879 292.969C155.96 292.51 156 291.943 156 291.266ZM164.106 290.832V291.991H159.138V290.832H164.106ZM165.701 288.236V286.981H168.215V295.782H166.825V288.236H165.701ZM169.939 293.947V292.908L174 287.089H175.668V292.751H176.792V293.947H175.668V295.782H174.314V293.947H169.939ZM174.375 288.49L171.522 292.751H174.375V288.49Z" fill="#888888"/>
<path d="M241.25 288.236V286.981H243.764V295.782H242.374V288.236H241.25ZM251.241 288.043L247.881 295.782H246.491L249.888 288.188H245.415V287.017H251.241V288.043ZM257.715 290.832V291.991H252.747V290.832H257.715ZM260.252 293.911C261.026 293.243 261.634 292.695 262.077 292.269C262.528 291.834 262.903 291.384 263.201 290.917C263.5 290.45 263.649 289.983 263.649 289.516C263.649 289.033 263.532 288.655 263.298 288.381C263.072 288.107 262.714 287.971 262.222 287.971C261.747 287.971 261.376 288.124 261.11 288.43C260.853 288.728 260.715 289.13 260.699 289.637H259.37C259.394 288.719 259.668 288.019 260.192 287.536C260.724 287.045 261.397 286.8 262.21 286.8C263.089 286.8 263.773 287.041 264.265 287.524C264.764 288.007 265.014 288.651 265.014 289.456C265.014 290.035 264.866 290.594 264.567 291.134C264.277 291.665 263.927 292.144 263.516 292.571C263.113 292.989 262.597 293.476 261.969 294.031L261.425 294.514H265.256V295.661H259.382V294.659L260.252 293.911ZM266.285 288.236V286.981H268.799V295.782H267.409V288.236H266.285Z" fill="#888888"/>
<path d="M380.739 279.182H317.282C310.607 279.182 305.195 284.587 305.195 291.254C305.195 297.922 310.607 303.327 317.282 303.327H380.739C387.414 303.327 392.826 297.922 392.826 291.254C392.826 284.587 387.414 279.182 380.739 279.182Z" fill="white"/>
<path d="M332.22 293.911C332.993 293.243 333.601 292.695 334.045 292.269C334.496 291.834 334.871 291.384 335.169 290.917C335.467 290.45 335.616 289.983 335.616 289.516C335.616 289.033 335.499 288.655 335.266 288.381C335.04 288.107 334.681 287.971 334.19 287.971C333.714 287.971 333.344 288.124 333.078 288.43C332.82 288.728 332.683 289.13 332.667 289.637H331.337C331.362 288.719 331.635 288.019 332.159 287.536C332.691 287.045 333.363 286.8 334.178 286.8C335.056 286.8 335.741 287.041 336.233 287.524C336.732 288.007 336.982 288.651 336.982 289.456C336.982 290.035 336.832 290.594 336.535 291.134C336.245 291.665 335.894 292.144 335.483 292.571C335.08 292.989 334.565 293.476 333.936 294.031L333.392 294.514H337.224V295.661H331.349V294.659L332.22 293.911ZM338.265 293.947V292.909L342.326 287.09H343.994V292.752H345.118V293.947H343.994V295.782H342.64V293.947H338.265ZM342.701 288.49L339.848 292.752H342.701V288.49ZM351.554 290.832V291.991H346.586V290.832H351.554ZM354.092 293.911C354.865 293.243 355.474 292.695 355.917 292.269C356.368 291.834 356.743 291.384 357.041 290.917C357.339 290.45 357.488 289.983 357.488 289.516C357.488 289.033 357.371 288.655 357.138 288.381C356.912 288.107 356.553 287.971 356.062 287.971C355.586 287.971 355.216 288.124 354.95 288.43C354.692 288.728 354.555 289.13 354.539 289.637H353.21C353.234 288.719 353.507 288.019 354.031 287.536C354.563 287.045 355.236 286.8 356.05 286.8C356.928 286.8 357.613 287.041 358.105 287.524C358.604 288.007 358.854 288.651 358.854 289.456C358.854 290.035 358.705 290.594 358.407 291.134C358.117 291.665 357.766 292.144 357.355 292.571C356.952 292.989 356.437 293.476 355.808 294.031L355.264 294.514H359.096V295.661H353.222V294.659L354.092 293.911ZM361.793 291.182C360.955 290.763 360.536 290.104 360.536 289.202C360.536 288.768 360.644 288.369 360.862 288.007C361.08 287.645 361.406 287.359 361.841 287.15C362.276 286.933 362.808 286.824 363.437 286.824C364.058 286.824 364.585 286.933 365.02 287.15C365.463 287.359 365.794 287.645 366.011 288.007C366.229 288.369 366.337 288.768 366.337 289.202C366.337 289.653 366.221 290.051 365.987 290.397C365.762 290.736 365.46 290.997 365.08 291.182C365.54 291.351 365.902 291.629 366.168 292.015C366.434 292.393 366.567 292.84 366.567 293.355C366.567 293.878 366.434 294.341 366.168 294.744C365.902 295.146 365.532 295.456 365.056 295.673C364.581 295.891 364.041 295.999 363.437 295.999C362.832 295.999 362.293 295.891 361.817 295.673C361.35 295.456 360.983 295.146 360.717 294.744C360.451 294.341 360.318 293.878 360.318 293.355C360.318 292.832 360.451 292.381 360.717 292.003C360.983 291.625 361.342 291.351 361.793 291.182ZM365.02 289.371C365.02 288.921 364.879 288.574 364.597 288.333C364.315 288.092 363.928 287.971 363.437 287.971C362.953 287.971 362.571 288.092 362.288 288.333C362.007 288.574 361.865 288.925 361.865 289.383C361.865 289.786 362.01 290.116 362.3 290.373C362.599 290.623 362.977 290.748 363.437 290.748C363.896 290.748 364.275 290.619 364.573 290.361C364.871 290.104 365.02 289.773 365.02 289.371ZM363.437 291.786C362.905 291.786 362.47 291.919 362.131 292.184C361.801 292.442 361.636 292.816 361.636 293.307C361.636 293.766 361.797 294.14 362.119 294.43C362.442 294.711 362.881 294.852 363.437 294.852C363.985 294.852 364.416 294.707 364.73 294.418C365.052 294.128 365.213 293.757 365.213 293.307C365.213 292.824 365.049 292.45 364.718 292.184C364.396 291.919 363.968 291.786 363.437 291.786Z" fill="#888888"/>
<path d="M24.1738 272.768H392.826" stroke="#E9E9E9"/>
<path d="M68.3668 268.618C68.3668 268.41 68.1976 268.241 67.989 268.241C67.7805 268.241 67.6113 268.41 67.6113 268.618H68.3668ZM67.6113 268.618V273.145H68.3668V268.618H67.6113Z" fill="#080808"/>
<path d="M162.041 268.618C162.041 268.41 161.871 268.241 161.663 268.241C161.454 268.241 161.285 268.41 161.285 268.618H162.041ZM161.285 268.618V273.145H162.041V268.618H161.285Z" fill="#080808"/>
<path d="M255.714 268.618C255.714 268.41 255.545 268.241 255.337 268.241C255.128 268.241 254.959 268.41 254.959 268.618H255.714ZM254.959 268.618V273.145H255.714V268.618H254.959Z" fill="#080808"/>
<path d="M349.388 268.618C349.388 268.41 349.219 268.241 349.011 268.241C348.802 268.241 348.633 268.41 348.633 268.618H349.388ZM348.633 268.618V273.145H349.388V268.618H348.633Z" fill="#080808"/>
<path d="M380.361 175.809L349.011 184.864H255.164L161.576 213.159L67.9889 230.136L26.4399 248.245" stroke="#13D4FF" stroke-width="2"/>
<path d="M67.9892 235.418C70.9097 235.418 73.2773 233.053 73.2773 230.136C73.2773 227.219 70.9097 224.854 67.9892 224.854C65.0687 224.854 62.7012 227.219 62.7012 230.136C62.7012 233.053 65.0687 235.418 67.9892 235.418Z" fill="#13D4FF" stroke="white" stroke-width="2"/>
<path d="M161.663 218.064C164.584 218.064 166.951 215.699 166.951 212.782C166.951 209.865 164.584 207.5 161.663 207.5C158.743 207.5 156.375 209.865 156.375 212.782C156.375 215.699 158.743 218.064 161.663 218.064Z" fill="#13D4FF" stroke="white" stroke-width="2"/>
<path d="M255.337 190.145C258.257 190.145 260.625 187.78 260.625 184.863C260.625 181.946 258.257 179.582 255.337 179.582C252.416 179.582 250.049 181.946 250.049 184.863C250.049 187.78 252.416 190.145 255.337 190.145Z" fill="#13D4FF" stroke="white" stroke-width="2"/>
<path d="M349.011 188.636C351.931 188.636 354.299 186.272 354.299 183.355C354.299 180.438 351.931 178.073 349.011 178.073C346.09 178.073 343.723 180.438 343.723 183.355C343.723 186.272 346.09 188.636 349.011 188.636Z" fill="#13D4FF" stroke="white" stroke-width="2"/>
<path d="M372.807 223.345L349.011 227.118L255.424 211.272L161.836 238.436L67.989 258.432H24.9292" stroke="#46921E" stroke-width="2"/>
<path d="M67.9892 264.091C70.9097 264.091 73.2773 261.726 73.2773 258.809C73.2773 255.892 70.9097 253.527 67.9892 253.527C65.0687 253.527 62.7012 255.892 62.7012 258.809C62.7012 261.726 65.0687 264.091 67.9892 264.091Z" fill="#46921E" stroke="white" stroke-width="2"/>
<path d="M161.663 242.964C164.584 242.964 166.951 240.599 166.951 237.682C166.951 234.765 164.584 232.4 161.663 232.4C158.743 232.4 156.375 234.765 156.375 237.682C156.375 240.599 158.743 242.964 161.663 242.964Z" fill="#46921E" stroke="white" stroke-width="2"/>
<path d="M255.337 218.064C258.257 218.064 260.625 215.699 260.625 212.782C260.625 209.865 258.257 207.5 255.337 207.5C252.416 207.5 250.049 209.865 250.049 212.782C250.049 215.699 252.416 218.064 255.337 218.064Z" fill="#46921E" stroke="white" stroke-width="2"/>
<path d="M349.011 231.645C351.931 231.645 354.299 229.28 354.299 226.363C354.299 223.446 351.931 221.082 349.011 221.082C346.09 221.082 343.723 223.446 343.723 226.363C343.723 229.28 346.09 231.645 349.011 231.645Z" fill="#46921E" stroke="white" stroke-width="2"/>
<path d="M224.742 131.668C226.619 131.668 228.141 130.148 228.141 128.272C228.141 126.397 226.619 124.877 224.742 124.877C222.864 124.877 221.342 126.397 221.342 128.272C221.342 130.148 222.864 131.668 224.742 131.668Z" fill="#13D4FF"/>
<path d="M237.532 124.409V125.532H235.296V132.8H233.918V125.532H231.67V124.409H237.532ZM242.372 126.039C242.88 126.039 243.331 126.148 243.726 126.365C244.129 126.582 244.443 126.905 244.669 127.331C244.902 127.757 245.019 128.273 245.019 128.876V132.8H243.653V129.082C243.653 128.486 243.505 128.031 243.206 127.717C242.908 127.395 242.501 127.234 241.985 127.234C241.469 127.234 241.058 127.395 240.753 127.717C240.454 128.031 240.305 128.486 240.305 129.082V132.8H238.927V123.866H240.305V126.92C240.539 126.639 240.833 126.422 241.188 126.269C241.55 126.115 241.945 126.039 242.372 126.039ZM247.478 125.267C247.228 125.267 247.019 125.182 246.85 125.013C246.68 124.844 246.596 124.635 246.596 124.385C246.596 124.135 246.68 123.926 246.85 123.757C247.019 123.588 247.228 123.504 247.478 123.504C247.72 123.504 247.925 123.588 248.095 123.757C248.264 123.926 248.348 124.135 248.348 124.385C248.348 124.635 248.264 124.844 248.095 125.013C247.925 125.182 247.72 125.267 247.478 125.267ZM248.155 126.148V132.8H246.777V126.148H248.155ZM252.382 132.909C251.857 132.909 251.386 132.816 250.968 132.631C250.557 132.438 250.23 132.18 249.988 131.858C249.747 131.529 249.618 131.162 249.602 130.76H251.028C251.052 131.041 251.185 131.279 251.427 131.472C251.676 131.657 251.987 131.75 252.358 131.75C252.744 131.75 253.042 131.677 253.252 131.532C253.47 131.379 253.578 131.186 253.578 130.953C253.578 130.703 253.457 130.518 253.216 130.397C252.981 130.277 252.607 130.144 252.092 129.999C251.592 129.862 251.185 129.73 250.871 129.601C250.557 129.472 250.282 129.275 250.049 129.009C249.823 128.743 249.71 128.393 249.71 127.959C249.71 127.605 249.815 127.283 250.025 126.993C250.234 126.695 250.532 126.462 250.919 126.293C251.314 126.124 251.765 126.039 252.273 126.039C253.03 126.039 253.639 126.232 254.098 126.619C254.565 126.997 254.815 127.516 254.847 128.176H253.47C253.445 127.878 253.324 127.641 253.107 127.464C252.889 127.286 252.595 127.198 252.225 127.198C251.862 127.198 251.584 127.267 251.391 127.403C251.197 127.54 251.1 127.721 251.1 127.947C251.1 128.124 251.165 128.273 251.294 128.393C251.422 128.514 251.579 128.611 251.765 128.683C251.95 128.747 252.225 128.832 252.587 128.937C253.071 129.066 253.465 129.198 253.772 129.335C254.086 129.464 254.356 129.657 254.582 129.915C254.807 130.172 254.924 130.514 254.932 130.941C254.932 131.319 254.827 131.657 254.618 131.955C254.408 132.253 254.11 132.486 253.723 132.655C253.344 132.824 252.897 132.909 252.382 132.909ZM267.623 126.039C268.146 126.039 268.614 126.148 269.025 126.365C269.443 126.582 269.77 126.905 270.004 127.331C270.245 127.757 270.366 128.273 270.366 128.876V132.8H269V129.082C269 128.486 268.851 128.031 268.553 127.717C268.255 127.395 267.848 127.234 267.332 127.234C266.817 127.234 266.406 127.395 266.1 127.717C265.801 128.031 265.652 128.486 265.652 129.082V132.8H264.287V129.082C264.287 128.486 264.137 128.031 263.839 127.717C263.541 127.395 263.134 127.234 262.619 127.234C262.103 127.234 261.692 127.395 261.386 127.717C261.087 128.031 260.939 128.486 260.939 129.082V132.8H259.561V126.148H260.939V126.908C261.164 126.635 261.45 126.422 261.797 126.269C262.143 126.115 262.514 126.039 262.909 126.039C263.441 126.039 263.916 126.152 264.335 126.377C264.753 126.603 265.076 126.929 265.302 127.355C265.503 126.953 265.817 126.635 266.245 126.401C266.671 126.16 267.131 126.039 267.623 126.039ZM275.008 132.909C274.38 132.909 273.812 132.767 273.304 132.486C272.797 132.196 272.398 131.794 272.108 131.279C271.818 130.756 271.672 130.152 271.672 129.468C271.672 128.792 271.821 128.192 272.12 127.669C272.417 127.146 272.825 126.743 273.34 126.462C273.856 126.18 274.432 126.039 275.069 126.039C275.705 126.039 276.281 126.18 276.797 126.462C277.313 126.743 277.72 127.146 278.018 127.669C278.316 128.192 278.465 128.792 278.465 129.468C278.465 130.144 278.312 130.744 278.006 131.267C277.699 131.79 277.281 132.196 276.749 132.486C276.225 132.767 275.645 132.909 275.008 132.909ZM275.008 131.713C275.363 131.713 275.693 131.629 276 131.46C276.314 131.291 276.568 131.037 276.761 130.699C276.954 130.361 277.051 129.951 277.051 129.468C277.051 128.985 276.958 128.578 276.773 128.248C276.587 127.91 276.342 127.657 276.036 127.488C275.729 127.319 275.399 127.234 275.045 127.234C274.69 127.234 274.36 127.319 274.054 127.488C273.755 127.657 273.517 127.91 273.34 128.248C273.163 128.578 273.075 128.985 273.075 129.468C273.075 130.184 273.256 130.739 273.618 131.134C273.989 131.52 274.452 131.713 275.008 131.713ZM283.188 126.039C283.711 126.039 284.179 126.148 284.59 126.365C285.008 126.582 285.335 126.905 285.569 127.331C285.802 127.757 285.919 128.273 285.919 128.876V132.8H284.553V129.082C284.553 128.486 284.404 128.031 284.106 127.717C283.808 127.395 283.401 127.234 282.885 127.234C282.369 127.234 281.958 127.395 281.653 127.717C281.354 128.031 281.205 128.486 281.205 129.082V132.8H279.827V126.148H281.205V126.908C281.43 126.635 281.717 126.422 282.063 126.269C282.418 126.115 282.792 126.039 283.188 126.039ZM289.284 127.271V130.953C289.284 131.203 289.341 131.384 289.453 131.496C289.574 131.601 289.776 131.653 290.057 131.653H290.904V132.8H289.816C289.196 132.8 288.72 132.655 288.389 132.365C288.059 132.076 287.894 131.605 287.894 130.953V127.271H287.108V126.148H287.894V124.494H289.284V126.148H290.904V127.271H289.284ZM295.619 126.039C296.127 126.039 296.578 126.148 296.973 126.365C297.375 126.582 297.69 126.905 297.916 127.331C298.149 127.757 298.266 128.273 298.266 128.876V132.8H296.9V129.082C296.9 128.486 296.751 128.031 296.453 127.717C296.155 127.395 295.747 127.234 295.232 127.234C294.716 127.234 294.305 127.395 293.999 127.717C293.701 128.031 293.552 128.486 293.552 129.082V132.8H292.174V123.866H293.552V126.92C293.786 126.639 294.079 126.422 294.434 126.269C294.797 126.115 295.191 126.039 295.619 126.039Z" fill="#888888"/>
<path d="M317.66 131.668C319.538 131.668 321.06 130.148 321.06 128.272C321.06 126.397 319.538 124.877 317.66 124.877C315.783 124.877 314.261 126.397 314.261 128.272C314.261 130.148 315.783 131.668 317.66 131.668Z" fill="#E0E0E0"/>
<path d="M326.679 131.689H329.519V132.8H325.301V124.409H326.679V131.689ZM330.212 129.444C330.212 128.776 330.349 128.184 330.623 127.669C330.905 127.154 331.284 126.755 331.759 126.474C332.242 126.184 332.774 126.039 333.354 126.039C333.879 126.039 334.334 126.144 334.72 126.353C335.115 126.555 335.43 126.808 335.663 127.114V126.148H337.053V132.8H335.663V131.81C335.43 132.124 335.112 132.386 334.708 132.595C334.306 132.804 333.846 132.909 333.33 132.909C332.758 132.909 332.235 132.764 331.759 132.474C331.284 132.176 330.905 131.766 330.623 131.243C330.349 130.711 330.212 130.112 330.212 129.444ZM335.663 129.468C335.663 129.009 335.566 128.611 335.373 128.273C335.188 127.935 334.942 127.677 334.636 127.5C334.33 127.323 334 127.234 333.645 127.234C333.29 127.234 332.96 127.323 332.653 127.5C332.347 127.669 332.097 127.923 331.904 128.261C331.719 128.59 331.626 128.985 331.626 129.444C331.626 129.903 331.719 130.305 331.904 130.651C332.097 130.997 332.347 131.263 332.653 131.448C332.968 131.625 333.299 131.713 333.645 131.713C334 131.713 334.33 131.625 334.636 131.448C334.942 131.271 335.188 131.013 335.373 130.675C335.566 130.329 335.663 129.927 335.663 129.468ZM341.28 132.909C340.757 132.909 340.286 132.816 339.866 132.631C339.455 132.438 339.129 132.181 338.887 131.858C338.646 131.529 338.517 131.162 338.5 130.76H339.927C339.951 131.041 340.084 131.279 340.326 131.472C340.576 131.657 340.886 131.75 341.256 131.75C341.643 131.75 341.941 131.677 342.151 131.532C342.368 131.379 342.477 131.186 342.477 130.953C342.477 130.703 342.356 130.518 342.114 130.398C341.881 130.277 341.506 130.144 340.99 129.999C340.491 129.863 340.084 129.73 339.77 129.601C339.455 129.472 339.182 129.275 338.948 129.009C338.723 128.744 338.609 128.393 338.609 127.959C338.609 127.605 338.714 127.283 338.924 126.993C339.134 126.695 339.431 126.462 339.818 126.293C340.213 126.124 340.664 126.039 341.172 126.039C341.929 126.039 342.538 126.232 342.997 126.619C343.464 126.997 343.714 127.516 343.746 128.176H342.368C342.344 127.878 342.223 127.641 342.006 127.464C341.788 127.287 341.494 127.198 341.123 127.198C340.761 127.198 340.483 127.267 340.289 127.404C340.096 127.54 339.999 127.721 339.999 127.947C339.999 128.124 340.064 128.273 340.193 128.393C340.322 128.514 340.479 128.611 340.664 128.683C340.85 128.747 341.123 128.832 341.486 128.937C341.969 129.066 342.365 129.199 342.67 129.335C342.985 129.464 343.255 129.657 343.48 129.915C343.706 130.172 343.823 130.515 343.831 130.941C343.831 131.319 343.727 131.657 343.517 131.955C343.307 132.253 343.009 132.486 342.622 132.655C342.244 132.824 341.796 132.909 341.28 132.909ZM346.927 127.271V130.953C346.927 131.203 346.984 131.384 347.097 131.496C347.217 131.601 347.419 131.653 347.701 131.653H348.547V132.8H347.459C346.839 132.8 346.363 132.655 346.033 132.365C345.703 132.076 345.537 131.605 345.537 130.953V127.271H344.752V126.148H345.537V124.494H346.927V126.148H348.547V127.271H346.927ZM361.018 126.039C361.543 126.039 362.01 126.148 362.421 126.365C362.84 126.583 363.166 126.905 363.4 127.331C363.641 127.757 363.762 128.273 363.762 128.876V132.8H362.396V129.082C362.396 128.486 362.248 128.031 361.949 127.717C361.652 127.395 361.244 127.234 360.728 127.234C360.213 127.234 359.802 127.395 359.496 127.717C359.198 128.031 359.048 128.486 359.048 129.082V132.8H357.682V129.082C357.682 128.486 357.534 128.031 357.235 127.717C356.938 127.395 356.53 127.234 356.014 127.234C355.499 127.234 355.088 127.395 354.782 127.717C354.484 128.031 354.334 128.486 354.334 129.082V132.8H352.956V126.148H354.334V126.909C354.56 126.635 354.847 126.422 355.193 126.269C355.539 126.116 355.91 126.039 356.305 126.039C356.836 126.039 357.312 126.152 357.731 126.377C358.15 126.603 358.473 126.929 358.698 127.355C358.899 126.953 359.214 126.635 359.641 126.401C360.068 126.16 360.527 126.039 361.018 126.039ZM368.404 132.909C367.776 132.909 367.208 132.768 366.7 132.486C366.192 132.196 365.794 131.794 365.503 131.279C365.213 130.756 365.068 130.152 365.068 129.468C365.068 128.792 365.218 128.192 365.516 127.669C365.814 127.146 366.221 126.743 366.736 126.462C367.252 126.18 367.829 126.039 368.465 126.039C369.102 126.039 369.678 126.18 370.193 126.462C370.709 126.743 371.116 127.146 371.414 127.669C371.712 128.192 371.861 128.792 371.861 129.468C371.861 130.144 371.709 130.744 371.402 131.267C371.096 131.79 370.677 132.196 370.145 132.486C369.621 132.768 369.041 132.909 368.404 132.909ZM368.404 131.713C368.759 131.713 369.09 131.629 369.396 131.46C369.71 131.291 369.964 131.037 370.157 130.699C370.35 130.361 370.447 129.951 370.447 129.468C370.447 128.985 370.355 128.578 370.169 128.249C369.984 127.911 369.738 127.657 369.432 127.488C369.126 127.319 368.796 127.234 368.441 127.234C368.086 127.234 367.756 127.319 367.449 127.488C367.152 127.657 366.914 127.911 366.736 128.249C366.56 128.578 366.47 128.985 366.47 129.468C366.47 130.184 366.652 130.739 367.014 131.134C367.385 131.52 367.848 131.713 368.404 131.713ZM376.584 126.039C377.108 126.039 377.575 126.148 377.986 126.365C378.405 126.583 378.731 126.905 378.965 127.331C379.199 127.757 379.316 128.273 379.316 128.876V132.8H377.95V129.082C377.95 128.486 377.8 128.031 377.503 127.717C377.204 127.395 376.797 127.234 376.282 127.234C375.766 127.234 375.355 127.395 375.049 127.717C374.751 128.031 374.602 128.486 374.602 129.082V132.8H373.224V126.148H374.602V126.909C374.827 126.635 375.113 126.422 375.46 126.269C375.814 126.116 376.189 126.039 376.584 126.039ZM382.681 127.271V130.953C382.681 131.203 382.737 131.384 382.85 131.496C382.971 131.601 383.172 131.653 383.454 131.653H384.3V132.8H383.212C382.592 132.8 382.117 132.655 381.786 132.365C381.456 132.076 381.291 131.605 381.291 130.953V127.271H380.505V126.148H381.291V124.494H382.681V126.148H384.3V127.271H382.681ZM389.015 126.039C389.523 126.039 389.974 126.148 390.369 126.365C390.772 126.583 391.086 126.905 391.311 127.331C391.546 127.757 391.662 128.273 391.662 128.876V132.8H390.296V129.082C390.296 128.486 390.147 128.031 389.849 127.717C389.551 127.395 389.144 127.234 388.628 127.234C388.113 127.234 387.702 127.395 387.395 127.717C387.098 128.031 386.948 128.486 386.948 129.082V132.8H385.57V123.866H386.948V126.921C387.182 126.639 387.476 126.422 387.83 126.269C388.193 126.116 388.588 126.039 389.015 126.039Z" fill="#888888"/>
</g>
</g>
<defs>
<filter id="filter0_di_80_833" x="-2.56787" y="-1.10449" width="422.136" height="337.154" filterUnits="userSpaceOnUse" color-interpolation-filters="sRGB">
<feFlood flood-opacity="0" result="BackgroundImageFix"/>
<feColorMatrix in="SourceAlpha" type="matrix" values="0 0 0 0 0 0 0 0 0 0 0 0 0 0 0 0 0 0 127 0" result="hardAlpha"/>
<feOffset dy="6"/>
<feGaussianBlur stdDeviation="5"/>
<feComposite in2="hardAlpha" operator="out"/>
<feColorMatrix type="matrix" values="0 0 0 0 0.695833 0 0 0 0 0.695833 0 0 0 0 0.695833 0 0 0 0.08 0"/>
<feBlend mode="normal" in2="BackgroundImageFix" result="effect1_dropShadow_80_833"/>
<feBlend mode="normal" in="SourceGraphic" in2="effect1_dropShadow_80_833" result="shape"/>
<feColorMatrix in="SourceAlpha" type="matrix" values="0 0 0 0 0 0 0 0 0 0 0 0 0 0 0 0 0 0 127 0" result="hardAlpha"/>
<feOffset dy="1"/>
<feGaussianBlur stdDeviation="1.5"/>
<feComposite in2="hardAlpha" operator="arithmetic" k2="-1" k3="1"/>
<feColorMatrix type="matrix" values="0 0 0 0 0 0 0 0 0 0 0 0 0 0 0 0 0 0 0.02 0"/>
<feBlend mode="normal" in2="shape" result="effect2_innerShadow_80_833"/>
</filter>
<filter id="filter1_d_80_833" x="316.671" y="15.4775" width="78.2773" height="31.4092" filterUnits="userSpaceOnUse" color-interpolation-filters="sRGB">
<feFlood flood-opacity="0" result="BackgroundImageFix"/>
<feColorMatrix in="SourceAlpha" type="matrix" values="0 0 0 0 0 0 0 0 0 0 0 0 0 0 0 0 0 0 127 0" result="hardAlpha"/>
<feOffset dy="1"/>
<feGaussianBlur stdDeviation="1"/>
<feComposite in2="hardAlpha" operator="out"/>
<feColorMatrix type="matrix" values="0 0 0 0 0 0 0 0 0 0 0 0 0 0 0 0 0 0 0.05 0"/>
<feBlend mode="normal" in2="BackgroundImageFix" result="effect1_dropShadow_80_833"/>
<feBlend mode="normal" in="SourceGraphic" in2="effect1_dropShadow_80_833" result="shape"/>
</filter>
<clipPath id="clip0_80_833">
<rect width="417" height="332" fill="white"/>
</clipPath>
</defs>
</svg>
