<svg width="169" height="96" viewBox="0 0 169 96" fill="none" xmlns="http://www.w3.org/2000/svg">
<path d="M84.4098 26.9335L76.7959 35.0277L93.8226 52.3316H86.8147C83.1443 52.3316 79.6211 50.8884 77.0054 48.3137L63.507 35.0265L77.903 20.6525L70.0125 12.6978L54.7287 27.9965C52.1068 30.621 48.5474 32.0966 44.8358 32.0966H37.8965L70.0125 0L84.4085 14.0948L98.6675 0L130.229 32.0966H123.517C119.754 32.0966 116.149 30.5799 113.519 27.8893L98.6675 12.6991L90.6385 20.6537L111.818 42.0053H105.086C101.334 42.0053 97.7411 40.4986 95.1118 37.8242L84.4098 26.9335Z" fill="#36621F"/>
<path d="M0 80.7427V66.8077C0 66.7378 0.0561624 66.6816 0.126101 66.6816H4.55657C4.60956 66.6816 4.65618 66.7145 4.67526 66.7643L8.60133 77.3654H8.70835L12.5698 66.7643C12.5878 66.7145 12.6355 66.6816 12.6885 66.6816H16.9038C16.9738 66.6816 17.0299 66.7378 17.0299 66.8077V80.7427C17.0299 80.8126 16.9738 80.8687 16.9038 80.8687H15.7732C14.8682 80.8687 14.1381 80.1282 14.1519 79.2225L14.296 69.9477C14.297 69.8778 14.2398 69.8195 14.1699 69.8195C14.118 69.8195 14.0713 69.8513 14.0523 69.9L9.81465 80.7882C9.79557 80.8369 9.74895 80.8687 9.69702 80.8687H7.24707C7.19515 80.8687 7.14746 80.8369 7.12945 80.7882L2.95541 69.9011C2.93634 69.8523 2.88971 69.8206 2.83779 69.8206C2.76785 69.8206 2.71063 69.8778 2.71169 69.9487L2.85686 79.2542C2.87064 80.142 2.15431 80.8698 1.26524 80.8698H0.126101C0.0561624 80.8687 0 80.8126 0 80.7427Z" fill="#36621F"/>
<path d="M22.7097 81.1697C22.0644 81.1697 21.4985 81.0436 21.0111 80.7936C20.5236 80.5425 20.1443 80.1813 19.8719 79.7077C19.5996 79.2342 19.4629 78.6547 19.4629 77.9661C19.4629 77.3506 19.5816 76.8305 19.8179 76.4078C20.0542 75.9851 20.406 75.6451 20.8712 75.3866C21.3364 75.1291 21.8991 74.9141 22.5592 74.7414C23.2184 74.5698 23.993 74.4194 24.881 74.2901C25.325 74.2181 25.6948 74.1503 25.9883 74.0857C26.2819 74.021 26.5001 73.913 26.6443 73.7636C26.7873 73.6132 26.8594 73.395 26.8594 73.1079C26.8594 72.7064 26.7153 72.3631 26.4291 72.076C26.142 71.79 25.6842 71.6459 25.0526 71.6459C24.651 71.6459 24.2748 71.7137 23.9241 71.8493C23.5723 71.986 23.2713 72.201 23.0213 72.4945C23.0191 72.4977 23.016 72.5008 23.0138 72.503C22.5073 73.1036 21.7051 73.3653 20.9538 73.1343L19.7416 72.7625C19.9133 72.1746 20.157 71.6661 20.4728 71.236C20.7875 70.8059 21.1743 70.4446 21.6342 70.1501C22.093 69.8567 22.6239 69.6374 23.2258 69.4944C23.8277 69.3513 24.4656 69.2793 25.1395 69.2793C26.2289 69.2793 27.1211 69.4552 27.8163 69.8058C28.5114 70.1565 29.0306 70.702 29.375 71.4394C29.7194 72.1777 29.8911 73.1269 29.8911 74.288V76.2012C29.8911 76.7034 29.9017 77.215 29.9229 77.7384C29.9441 78.2617 29.9769 78.785 30.0193 79.3073C30.0628 79.8306 30.1126 80.3497 30.1698 80.8656H28.628C27.9233 80.8656 27.332 80.3338 27.2578 79.6336L27.2567 79.6198C27.2059 79.1473 27.1667 78.6812 27.1381 78.2225H26.7725C26.5574 78.7522 26.2638 79.2437 25.8908 79.695C25.5178 80.1463 25.0632 80.5044 24.5249 80.7703C23.9887 81.0372 23.3826 81.1697 22.7097 81.1697ZM24.0205 78.9344C24.278 78.9344 24.5504 78.8846 24.8375 78.784C25.1247 78.6833 25.397 78.5445 25.6545 78.3645C25.912 78.1854 26.1558 77.9598 26.3857 77.6875C26.6146 77.4153 26.7873 77.107 26.9018 76.7637V74.9798L27.3754 75.0656C27.1317 75.252 26.8339 75.3982 26.4832 75.5063C26.1314 75.6133 25.7732 75.697 25.4076 75.7531C25.042 75.8103 24.6796 75.8749 24.3215 75.947C23.9633 76.019 23.6412 76.108 23.354 76.2161C23.0668 76.3231 22.8454 76.4777 22.6875 76.6779C22.5296 76.8782 22.4512 77.1504 22.4512 77.4947C22.4512 77.9386 22.5942 78.2903 22.8814 78.5477C23.1675 78.8052 23.5479 78.9344 24.0205 78.9344Z" fill="#36621F"/>
<path d="M31.7368 85.2116C31.6361 85.2116 31.5471 85.2084 31.4676 85.201C31.3881 85.1936 31.2991 85.183 31.1985 85.1681L31.1593 84.7666C31.0618 83.757 31.5291 82.7962 32.3397 82.1871C32.3429 82.1849 32.345 82.1828 32.3482 82.1807C32.628 81.9657 32.7678 81.543 32.7678 80.9126V69.5837H35.8642V80.9974C35.8642 81.7284 35.7741 82.3629 35.595 82.9C35.4159 83.4371 35.1542 83.8746 34.8098 84.2115C34.4654 84.5484 34.0362 84.7995 33.5202 84.9637C33.0041 85.1279 32.4107 85.2116 31.7368 85.2116ZM34.2948 67.8856C33.6929 67.8856 33.2309 67.7563 32.9077 67.4989C32.5856 67.2415 32.4245 66.876 32.4245 66.4024C32.4245 65.9014 32.5824 65.5211 32.8971 65.2636C33.2118 65.0062 33.6781 64.877 34.2948 64.877C34.8967 64.877 35.363 65.0062 35.6925 65.2636C36.0221 65.5211 36.1874 65.9014 36.1874 66.4024C36.1874 66.8898 36.0263 67.2584 35.7042 67.5095C35.381 67.7606 34.9115 67.8856 34.2948 67.8856Z" fill="#36621F"/>
<path d="M43.9272 81.1703C43.0095 81.1703 42.1851 81.0411 41.4539 80.7836C40.7228 80.5262 40.106 80.1533 39.6048 79.666C39.1025 79.1787 38.72 78.5801 38.454 77.8714C38.1891 77.1617 38.0566 76.3491 38.0566 75.4317C38.0566 74.5291 38.1859 73.7007 38.4434 72.9485C38.7009 72.1964 39.0665 71.5481 39.5402 71.0035C40.0128 70.459 40.6083 70.0363 41.3247 69.7355C42.041 69.4346 42.8294 69.2842 43.6898 69.2842C44.5789 69.2842 45.3556 69.4272 46.0232 69.7143C46.6898 70.0014 47.245 70.4198 47.6901 70.9718C48.1341 71.5237 48.4636 72.2006 48.6788 73.0036C48.8939 73.8066 48.9723 74.7442 48.9151 75.8194L40.0562 75.8841V74.2071L47.1306 74.1213L46.055 74.9603C46.1408 74.2155 46.0836 73.599 45.8833 73.1117C45.682 72.6244 45.3885 72.2621 45.0017 72.0258C44.6149 71.7896 44.1921 71.6709 43.7333 71.6709C43.1886 71.6709 42.7149 71.8182 42.3144 72.1116C41.9128 72.4051 41.5938 72.8288 41.3575 73.3797C41.1212 73.9316 41.0025 74.5948 41.0025 75.3681C41.0025 76.6002 41.2674 77.4996 41.7983 78.0653C42.3282 78.631 43.0307 78.9138 43.9049 78.9138C44.3066 78.9138 44.6467 78.8598 44.9265 78.7528C45.2062 78.6458 45.4383 78.506 45.6248 78.3333C45.8113 78.1617 45.9586 77.9678 46.0656 77.7528C46.0667 77.7507 46.0677 77.7485 46.0688 77.7464C46.2521 77.3799 46.6537 77.1765 47.0543 77.2634L49.0221 77.6882C48.8928 78.2189 48.7031 78.6988 48.452 79.1289C48.2008 79.559 47.8681 79.9245 47.4517 80.2253C47.0363 80.5262 46.5382 80.7593 45.9575 80.9235C45.3789 81.0877 44.7018 81.1703 43.9272 81.1703Z" fill="#36621F"/>
<path d="M55.6875 81.1703C54.9277 81.1703 54.2432 81.0983 53.6339 80.9553C53.0246 80.8122 52.4979 80.6046 52.0539 80.3323C51.6099 80.0601 51.2507 79.7338 50.9784 79.3545C50.706 78.9753 50.5195 78.5558 50.4199 78.0971L51.5951 77.6013C52.1663 77.3608 52.8264 77.5091 53.2397 77.971L53.2471 77.9795C53.4983 78.2592 53.8458 78.4816 54.2898 78.6458C54.7338 78.8111 55.2711 78.8927 55.9026 78.8927C56.548 78.8927 57.0492 78.7963 57.4074 78.6024C57.7655 78.4085 57.9446 78.1331 57.9446 77.775C57.9446 77.5028 57.844 77.2877 57.6437 77.1299C57.4423 76.972 57.1531 76.8364 56.7726 76.721C56.3922 76.6065 55.9228 76.4921 55.3643 76.3767C54.8334 76.2771 54.2962 76.1478 53.7515 75.99C53.2068 75.8321 52.694 75.6245 52.2139 75.3671C51.7339 75.1097 51.3535 74.7685 51.0748 74.3458C50.795 73.9232 50.6552 73.3892 50.6552 72.7441C50.6552 72.0555 50.8374 71.458 51.203 70.9495C51.5686 70.441 52.1133 70.0363 52.837 69.7355C53.5608 69.4346 54.4318 69.2842 55.4491 69.2842C56.3806 69.2842 57.1944 69.4102 57.8895 69.6603C58.5847 69.9113 59.1611 70.2694 59.62 70.7355C60.0788 71.2016 60.3797 71.7567 60.5228 72.4008L59.2989 72.8119C58.6928 73.0153 58.0368 72.814 57.6161 72.333C57.614 72.3309 57.6119 72.3277 57.6098 72.3256C57.3872 72.0746 57.0937 71.8818 56.7281 71.7451C56.3625 71.6095 55.9355 71.5406 55.4491 71.5406C54.8472 71.5406 54.3746 71.6413 54.0302 71.8415C53.6858 72.0428 53.5142 72.314 53.5142 72.6583C53.5142 72.9305 53.6254 73.153 53.8469 73.3246C54.0694 73.4962 54.381 73.6329 54.7826 73.7335C55.1842 73.8342 55.6568 73.9486 56.2015 74.0778C56.7599 74.1922 57.312 74.3247 57.8567 74.4751C58.4013 74.6255 58.8962 74.8194 59.3402 75.0556C59.7842 75.2919 60.136 75.6118 60.3935 76.0122C60.651 76.4137 60.7803 76.9371 60.7803 77.5812C60.7803 78.327 60.5832 78.9721 60.189 79.5156C59.7948 80.0601 59.2173 80.4722 58.4586 80.7519C57.702 81.0305 56.7769 81.1703 55.6875 81.1703Z" fill="#36621F"/>
<path d="M67.0653 81.1281C65.818 81.1281 64.894 80.7955 64.291 80.1292C63.6881 79.4628 63.3882 78.3982 63.3882 76.9373V72.0366H61.7754L61.7987 70.7039C61.8093 70.0832 62.3158 69.5863 62.9368 69.5863C63.367 69.5863 63.6923 69.5217 63.9149 69.3924C64.1374 69.2632 64.2773 69.027 64.3345 68.6827L64.592 67.0703H66.3553V69.5853H69.2153V72.1002H66.3553V76.808C66.3553 77.3102 66.4771 77.6831 66.7209 77.9257C66.9646 78.1693 67.3302 78.2912 67.8176 78.2912C68.1048 78.2912 68.3697 78.2583 68.6134 78.1948C68.8571 78.1301 69.0786 78.0337 69.28 77.9045V79.68C69.28 80.3802 68.7607 80.9809 68.0656 81.0625C68.0613 81.0625 68.0582 81.0635 68.0539 81.0635C67.682 81.1059 67.3524 81.1281 67.0653 81.1281Z" fill="#36621F"/>
<path d="M72.9573 67.8856C72.3554 67.8856 71.8934 67.7563 71.5702 67.4989C71.2481 67.2415 71.0859 66.876 71.0859 66.4024C71.0859 65.9014 71.2438 65.5211 71.5596 65.2636C71.8743 65.0062 72.3406 64.877 72.9573 64.877C73.5592 64.877 74.0255 65.0062 74.355 65.2636C74.6846 65.5211 74.8499 65.9014 74.8499 66.4024C74.8499 66.8898 74.6888 67.2584 74.3656 67.5095C74.0435 67.7606 73.573 67.8856 72.9573 67.8856ZM71.4091 80.8692V69.5837H74.5055V78.5354C74.5055 79.8247 73.4607 80.8692 72.171 80.8692H71.4091Z" fill="#36621F"/>
<path d="M82.5702 81.1704C81.5953 81.1704 80.7454 81.0306 80.0228 80.7509C79.299 80.4712 78.6971 80.0739 78.2171 79.558C77.737 79.0421 77.3715 78.4298 77.1203 77.72C76.8692 77.0102 76.7441 76.2263 76.7441 75.3661C76.7441 74.4773 76.8692 73.6605 77.1203 72.9158C77.3715 72.171 77.7402 71.5291 78.2277 70.992C78.7151 70.4549 79.317 70.0354 80.0333 69.7345C80.7497 69.4336 81.5667 69.2832 82.4844 69.2832C83.402 69.2832 84.201 69.4336 84.8824 69.7345C85.5627 70.0354 86.119 70.4538 86.5482 70.992C86.9784 71.5291 87.2645 72.1562 87.4086 72.8723L85.9484 73.3554C85.2723 73.5789 84.5475 73.2813 84.1894 72.6668C84.1872 72.6637 84.1862 72.6605 84.1841 72.6573C83.9976 72.3427 83.7464 72.1022 83.4317 71.9369C83.1159 71.7727 82.7429 71.6901 82.3138 71.6901C81.927 71.6901 81.5826 71.7695 81.2816 71.9263C80.9807 72.0842 80.7221 72.3204 80.5081 72.6361C80.293 72.9518 80.1319 73.3279 80.0249 73.7643C79.9178 74.2008 79.8638 74.6998 79.8638 75.2581C79.8638 76.0314 79.9677 76.684 80.1753 77.2147C80.383 77.7454 80.6914 78.1533 81.1004 78.4404C81.5095 78.7275 82.0139 78.8705 82.6158 78.8705C83.189 78.8705 83.6447 78.7561 83.9806 78.5273C84.3176 78.2984 84.5719 78.0114 84.7436 77.6671C84.7457 77.6639 84.7468 77.6607 84.7489 77.6565C85.0477 77.0526 85.7057 76.7179 86.3638 76.863L87.7541 77.1713C87.682 77.7306 87.5316 78.2539 87.3027 78.7402C87.0727 79.2275 86.7463 79.6534 86.3246 80.0189C85.9018 80.3843 85.3815 80.6672 84.7658 80.8674C84.147 81.0697 83.4158 81.1704 82.5702 81.1704Z" fill="#36621F"/>
<path d="M94.6523 80.8687V66.6816H97.7487V80.8687H94.6523ZM96.7812 69.1754V66.6816H105.532V67.7103C105.532 68.5196 104.876 69.1754 104.066 69.1754H96.7812ZM96.7812 74.8504V72.5505H104.522V74.8504H96.7812ZM96.7812 80.8687V78.3538H103.638C104.72 78.3538 105.597 79.2309 105.597 80.3115V80.8687H96.7812Z" fill="#36621F"/>
<path d="M112.112 81.1704C111.353 81.1704 110.668 81.0984 110.059 80.9553C109.449 80.8123 108.923 80.6047 108.479 80.3324C108.035 80.0602 107.676 79.7339 107.403 79.3546C107.131 78.9754 106.944 78.5559 106.844 78.0972L108.018 77.6014C108.589 77.3609 109.25 77.5082 109.664 77.97L109.671 77.9785C109.921 78.2582 110.27 78.4807 110.714 78.6449C111.158 78.8101 111.695 78.8917 112.326 78.8917C112.972 78.8917 113.473 78.7953 113.831 78.6014C114.189 78.4076 114.368 78.1321 114.368 77.7741C114.368 77.5018 114.268 77.2867 114.068 77.1289C113.866 76.971 113.577 76.8355 113.196 76.72C112.816 76.6056 112.347 76.4912 111.788 76.3757C111.257 76.2761 110.72 76.1469 110.175 75.989C109.631 75.8312 109.118 75.6235 108.638 75.3661C108.158 75.1087 107.777 74.7676 107.499 74.3449C107.219 73.9222 107.079 73.3883 107.079 72.7431C107.079 72.0545 107.262 71.457 107.628 70.9485C107.993 70.44 108.538 70.0354 109.262 69.7345C109.986 69.4336 110.857 69.2832 111.874 69.2832C112.805 69.2832 113.619 69.4093 114.314 69.6593C115.01 69.9103 115.586 70.2684 116.046 70.7345C116.505 71.2007 116.806 71.7558 116.949 72.3999L115.725 72.8109C115.119 73.0143 114.463 72.813 114.042 72.3321C114.04 72.3299 114.038 72.3268 114.036 72.3247C113.813 72.0736 113.52 71.8808 113.154 71.7441C112.788 71.6085 112.361 71.5397 111.875 71.5397C111.273 71.5397 110.799 71.6403 110.456 71.8405C110.112 72.0418 109.94 72.313 109.94 72.6573C109.94 72.9296 110.05 73.152 110.273 73.3236C110.495 73.4953 110.807 73.6319 111.209 73.7326C111.61 73.8332 112.083 73.9476 112.627 74.0769C113.187 74.1913 113.738 74.3237 114.283 74.4741C114.827 74.6245 115.322 74.8184 115.766 75.0546C116.21 75.2909 116.562 75.6108 116.819 76.0113C117.077 76.4128 117.206 76.9361 117.206 77.5802C117.206 78.326 117.009 78.9711 116.615 79.5146C116.221 80.0591 115.643 80.4712 114.883 80.7509C114.126 81.0306 113.201 81.1704 112.112 81.1704Z" fill="#36621F"/>
<path d="M124.494 81.1704C123.519 81.1704 122.669 81.0306 121.947 80.7509C121.223 80.4712 120.621 80.0739 120.141 79.558C119.661 79.0421 119.295 78.4298 119.044 77.72C118.793 77.0102 118.668 76.2263 118.668 75.3661C118.668 74.4773 118.794 73.6605 119.044 72.9158C119.294 72.171 119.664 71.5291 120.152 70.992C120.639 70.4549 121.241 70.0354 121.957 69.7345C122.674 69.4336 123.491 69.2832 124.408 69.2832C125.326 69.2832 126.125 69.4336 126.806 69.7345C127.487 70.0354 128.043 70.4538 128.472 70.992C128.902 71.5291 129.188 72.1562 129.332 72.8723L127.872 73.3554C127.196 73.5789 126.471 73.2813 126.113 72.6668C126.111 72.6637 126.109 72.6605 126.108 72.6573C125.921 72.3427 125.67 72.1022 125.356 71.9369C125.04 71.7727 124.667 71.6901 124.238 71.6901C123.851 71.6901 123.506 71.7695 123.205 71.9263C122.905 72.0842 122.646 72.3204 122.432 72.6361C122.217 72.9518 122.056 73.3279 121.949 73.7643C121.842 74.2008 121.788 74.6998 121.788 75.2581C121.788 76.0314 121.891 76.684 122.099 77.2147C122.307 77.7454 122.615 78.1533 123.024 78.4404C123.433 78.7275 123.938 78.8705 124.54 78.8705C125.113 78.8705 125.569 78.7561 125.904 78.5273C126.241 78.2984 126.496 78.0114 126.667 77.6671C126.67 77.6639 126.671 77.6607 126.673 77.6565C126.972 77.0526 127.63 76.7179 128.288 76.863L129.678 77.1713C129.606 77.7306 129.455 78.2539 129.227 78.7402C128.997 79.2275 128.67 79.6534 128.248 80.0189C127.826 80.3843 127.305 80.6672 126.69 80.8674C126.071 81.0697 125.34 81.1704 124.494 81.1704Z" fill="#36621F"/>
<path d="M134.149 81.1697C133.504 81.1697 132.938 81.0436 132.451 80.7936C131.963 80.5425 131.584 80.1813 131.311 79.7077C131.039 79.2342 130.902 78.6547 130.902 77.9661C130.902 77.3506 131.021 76.8305 131.257 76.4078C131.494 75.9851 131.845 75.6451 132.311 75.3866C132.777 75.1291 133.34 74.9141 133.999 74.7414C134.658 74.5698 135.432 74.4194 136.32 74.2901C136.764 74.2181 137.133 74.1503 137.428 74.0857C137.721 74.021 137.941 73.913 138.084 73.7636C138.227 73.6132 138.299 73.395 138.299 73.1079C138.299 72.7064 138.156 72.3631 137.869 72.076C137.581 71.79 137.123 71.6459 136.492 71.6459C136.09 71.6459 135.714 71.7137 135.364 71.8493C135.012 71.986 134.711 72.201 134.461 72.4945C134.459 72.4977 134.455 72.5008 134.453 72.503C133.946 73.1036 133.145 73.3653 132.393 73.1343L131.182 72.7625C131.354 72.1746 131.597 71.6661 131.913 71.236C132.228 70.8059 132.616 70.4446 133.075 70.1501C133.533 69.8567 134.063 69.6374 134.666 69.4944C135.268 69.3513 135.906 69.2793 136.58 69.2793C137.669 69.2793 138.562 69.4552 139.257 69.8058C139.952 70.1565 140.471 70.702 140.816 71.4394C141.16 72.1777 141.332 73.1269 141.332 74.288V76.2012C141.332 76.7034 141.342 77.215 141.364 77.7384C141.386 78.2617 141.418 78.785 141.461 79.3073C141.504 79.8306 141.554 80.3497 141.611 80.8656H140.072C139.366 80.8656 138.775 80.3338 138.699 79.6336C138.699 79.6293 138.698 79.624 138.698 79.6198C138.647 79.1473 138.608 78.6812 138.58 78.2225H138.214C137.999 78.7522 137.705 79.2437 137.332 79.695C136.959 80.1463 136.505 80.5044 135.967 80.7703C135.428 81.0372 134.823 81.1697 134.149 81.1697ZM135.46 78.9344C135.719 78.9344 135.99 78.8846 136.277 78.784C136.563 78.6833 136.836 78.5445 137.094 78.3645C137.351 78.1854 137.595 77.9598 137.825 77.6875C138.054 77.4153 138.227 77.107 138.341 76.7637V74.9798L138.814 75.0656C138.57 75.252 138.273 75.3982 137.922 75.5063C137.571 75.6133 137.212 75.697 136.846 75.7531C136.48 75.8103 136.119 75.8749 135.76 75.947C135.402 76.019 135.079 76.108 134.792 76.2161C134.505 76.3231 134.283 76.4777 134.126 76.6779C133.968 76.8782 133.89 77.1504 133.89 77.4947C133.89 77.9386 134.033 78.2903 134.32 78.5477C134.607 78.8052 134.987 78.9344 135.46 78.9344Z" fill="#36621F"/>
<path d="M144.062 84.4598V75.3238V69.5842H146.643V72.722L147.008 72.7432C147.151 71.9836 147.385 71.3459 147.708 70.83C148.03 70.3141 148.45 69.9274 148.966 69.6689C149.482 69.4115 150.076 69.2822 150.75 69.2822C151.754 69.2822 152.613 69.5291 153.33 70.0238C154.047 70.5185 154.596 71.2135 154.975 72.1086C155.354 73.0049 155.545 74.0621 155.545 75.2793C155.545 76.397 155.372 77.397 155.029 78.2784C154.685 79.1598 154.176 79.8622 153.502 80.3855C152.828 80.9077 151.975 81.1705 150.944 81.1705C150.227 81.1705 149.622 81.0338 149.127 80.7616C148.632 80.4893 148.224 80.1058 147.902 79.6111C147.578 79.1164 147.31 78.5189 147.095 77.8165H146.686C146.772 78.2032 146.847 78.6015 146.912 79.0094C146.977 79.4183 147.034 79.8124 147.084 80.1916C147.133 80.5719 147.159 80.9406 147.159 81.2987V82.4746C147.159 83.5699 146.271 84.4577 145.175 84.4577H144.062V84.4598ZM149.868 78.699C150.384 78.699 150.821 78.5591 151.18 78.2795C151.538 77.9998 151.818 77.5993 152.018 77.076C152.219 76.5527 152.319 75.9616 152.319 75.3026C152.319 74.5865 152.216 73.9699 152.008 73.454C151.8 72.9381 151.51 72.5408 151.137 72.2612C150.764 71.9815 150.327 71.8417 149.825 71.8417C149.352 71.8417 148.947 71.9423 148.61 72.1425C148.273 72.3438 147.997 72.6086 147.782 72.9381C147.567 73.2686 147.409 73.6225 147.309 74.0028C147.209 74.3831 147.159 74.7443 147.159 75.0886V75.4975C147.159 75.7698 147.195 76.0527 147.266 76.3461C147.338 76.6395 147.449 76.9266 147.6 77.2063C147.75 77.486 147.932 77.7371 148.148 77.9585C148.363 78.1809 148.617 78.36 148.91 78.4956C149.205 78.6301 149.524 78.699 149.868 78.699Z" fill="#36621F"/>
<path d="M163.024 81.1703C162.106 81.1703 161.282 81.0411 160.551 80.7836C159.819 80.5262 159.203 80.1533 158.701 79.666C158.199 79.1787 157.817 78.5801 157.552 77.8714C157.286 77.1617 157.154 76.3491 157.154 75.4317C157.154 74.5291 157.284 73.7007 157.541 72.9485C157.8 72.1964 158.164 71.5481 158.638 71.0035C159.11 70.459 159.706 70.0363 160.422 69.7355C161.139 69.4346 161.927 69.2842 162.787 69.2842C163.677 69.2842 164.454 69.4272 165.121 69.7143C165.787 70.0014 166.343 70.4198 166.787 70.9718C167.231 71.5237 167.561 72.2006 167.775 73.0036C167.99 73.8066 168.069 74.7442 168.012 75.8194L159.153 75.8841V74.2071L166.227 74.1213L165.152 74.9603C165.237 74.2155 165.18 73.599 164.98 73.1117C164.779 72.6244 164.485 72.2621 164.098 72.0258C163.712 71.7896 163.289 71.6709 162.83 71.6709C162.285 71.6709 161.812 71.8182 161.411 72.1116C161.009 72.4051 160.69 72.8288 160.454 73.3797C160.218 73.9316 160.099 74.5948 160.099 75.3681C160.099 76.6002 160.364 77.4996 160.895 78.0653C161.425 78.631 162.127 78.9138 163.003 78.9138C163.404 78.9138 163.744 78.8598 164.024 78.7528C164.304 78.6458 164.537 78.506 164.724 78.3333C164.91 78.1617 165.056 77.9678 165.164 77.7528C165.165 77.7507 165.166 77.7485 165.168 77.7464C165.351 77.3799 165.752 77.1765 166.154 77.2634L168.122 77.6882C167.993 78.2189 167.803 78.6988 167.552 79.1289C167.301 79.559 166.968 79.9245 166.551 80.2253C166.136 80.5262 165.638 80.7593 165.057 80.9235C164.474 81.0877 163.797 81.1703 163.024 81.1703Z" fill="#36621F"/>
<path d="M0.946002 91.9398V93.1053H2.53362V93.8452H0.946002V95.0775H2.7357V95.8364H0V91.1797H2.7357V91.9385H0.946002V91.9398Z" fill="#333333"/>
<path d="M8.73229 91.1855V95.8347H7.78629V92.8106L6.52327 95.8347H5.80713L4.5378 92.8106V95.8347H3.5918V91.1855H4.66536L6.16457 94.6427L7.66377 91.1855H8.73229Z" fill="#333333"/>
<path d="M12.9966 93.8432C13.1671 94.0566 13.253 94.3002 13.253 94.5755C13.253 94.8243 13.1911 95.0427 13.0673 95.2321C12.9436 95.4202 12.7642 95.568 12.5305 95.6753C12.2969 95.7814 12.019 95.8357 11.6995 95.8357H9.66602V91.1865H11.6111C11.9306 91.1865 12.2059 91.237 12.4383 91.3393C12.6707 91.4416 12.8463 91.583 12.965 91.7661C13.0837 91.9479 13.1444 92.155 13.1444 92.3861C13.1444 92.6575 13.0711 92.8835 12.9246 93.0654C12.7781 93.2472 12.5836 93.376 12.3398 93.4517C12.6076 93.4997 12.8261 93.631 12.9966 93.8432ZM10.612 93.1045H11.4772C11.702 93.1045 11.8763 93.054 11.9975 92.9543C12.1188 92.8545 12.1794 92.7106 12.1794 92.5249C12.1794 92.3393 12.1188 92.1941 11.9975 92.0919C11.8763 91.9896 11.702 91.9391 11.4772 91.9391H10.612V93.1045ZM12.1011 94.9164C12.2299 94.8104 12.2931 94.6589 12.2931 94.4631C12.2931 94.2636 12.2262 94.1071 12.091 93.9934C11.9559 93.8798 11.774 93.8242 11.5441 93.8242H10.612V95.0768H11.5643C11.7942 95.0755 11.9736 95.0225 12.1011 94.9164Z" fill="#333333"/>
<path d="M16.4423 95.8357L15.4016 94.0237H14.9558V95.8357H14.0098V91.1865H15.7793C16.1443 91.1865 16.455 91.2497 16.7114 91.3759C16.9678 91.5022 17.161 91.6739 17.2886 91.8886C17.4174 92.1045 17.4805 92.3444 17.4805 92.6108C17.4805 92.9176 17.3909 93.1942 17.2103 93.4404C17.0296 93.6866 16.7619 93.8571 16.407 93.9505L17.5349 95.8357H16.4423ZM14.957 93.3242H15.7477C16.0041 93.3242 16.1961 93.2636 16.3224 93.1411C16.4487 93.0186 16.5118 92.8495 16.5118 92.631C16.5118 92.4176 16.4487 92.2522 16.3224 92.1348C16.1961 92.0174 16.0053 91.958 15.7477 91.958H14.957V93.3242Z" fill="#333333"/>
<path d="M21.2304 94.95H19.3523L19.0416 95.8364H18.0488L19.7438 91.1797H20.8452L22.5401 95.8364H21.5411L21.2304 94.95ZM20.974 94.2038L20.292 92.2593L19.6099 94.2038H20.974Z" fill="#333333"/>
<path d="M23.2618 92.275C23.4714 91.9126 23.7569 91.631 24.1193 91.429C24.4818 91.227 24.8885 91.126 25.3382 91.126C25.8648 91.126 26.3271 91.2586 26.7224 91.5262C27.119 91.7927 27.3956 92.1614 27.5535 92.6323H26.466C26.3574 92.4101 26.2059 92.2434 26.0101 92.1323C25.8143 92.0212 25.5882 91.9656 25.3318 91.9656C25.0565 91.9656 24.8127 92.0288 24.5993 92.155C24.3858 92.2813 24.2191 92.4606 24.0991 92.6917C23.9792 92.9227 23.9198 93.1942 23.9198 93.5048C23.9198 93.8117 23.9792 94.0806 24.0991 94.3142C24.2179 94.5478 24.3846 94.7271 24.5993 94.8534C24.8127 94.9796 25.0578 95.0428 25.3318 95.0428C25.5882 95.0428 25.8143 94.9859 26.0101 94.8736C26.2059 94.7599 26.3574 94.5932 26.466 94.371H27.5535C27.3956 94.8458 27.1203 95.2157 26.7262 95.4796C26.3322 95.7435 25.8699 95.8761 25.3382 95.8761C24.8873 95.8761 24.4818 95.7751 24.1193 95.5731C23.7569 95.371 23.4714 95.0907 23.2618 94.7309C23.0521 94.371 22.9473 93.9632 22.9473 93.5048C22.9473 93.0465 23.0521 92.6374 23.2618 92.275Z" fill="#333333"/>
<path d="M29.3093 91.9398V93.1053H30.8969V93.8452H29.3093V95.0775H31.099V95.8364H28.3633V91.1797H31.099V91.9385H29.3093V91.9398Z" fill="#333333"/>
<path d="M38.703 91.1855V95.8347H37.757V92.8106L36.494 95.8347H35.7778L34.5085 92.8106V95.8347H33.5625V91.1855H34.6361L36.1353 94.6427L37.6345 91.1855H38.703Z" fill="#333333"/>
<path d="M43.3824 91.1855L41.7884 94.2159V95.8347H40.8424V94.2159L39.2422 91.1855H40.3094L41.3224 93.3106L42.329 91.1855H43.3824Z" fill="#333333"/>
<path d="M44.6739 95.7162C44.4099 95.6051 44.2015 95.446 44.0487 95.2364C43.8959 95.0281 43.8163 94.7818 43.8125 94.4965H44.8254C44.8393 94.6871 44.9075 94.8387 45.0313 94.9498C45.1551 95.0609 45.3256 95.1165 45.5416 95.1165C45.7626 95.1165 45.9356 95.0647 46.0619 94.9599C46.1882 94.8551 46.2514 94.7187 46.2514 94.5508C46.2514 94.4132 46.2084 94.2995 46.1226 94.2111C46.0367 94.1227 45.9306 94.052 45.8018 94.0015C45.6729 93.951 45.4961 93.8942 45.2713 93.8311C44.9644 93.7427 44.7168 93.6543 44.5248 93.5684C44.3329 93.4813 44.1687 93.3512 44.0323 93.1757C43.8946 93.0002 43.8264 92.7666 43.8264 92.4724C43.8264 92.1972 43.8959 91.9573 44.0361 91.7527C44.175 91.5482 44.372 91.3916 44.6234 91.283C44.876 91.1744 45.1639 91.1201 45.4885 91.1201C45.9748 91.1201 46.3701 91.2363 46.6745 91.4699C46.9789 91.7035 47.1456 92.028 47.1772 92.4459H46.1365C46.1276 92.2856 46.0581 92.1542 45.9306 92.0494C45.8018 91.9446 45.6325 91.8929 45.4203 91.8929C45.2359 91.8929 45.0881 91.9396 44.9783 92.033C44.8684 92.1265 44.8128 92.2616 44.8128 92.4396C44.8128 92.5646 44.8545 92.6669 44.9379 92.749C45.0212 92.831 45.1248 92.898 45.2486 92.9485C45.3723 92.999 45.5466 93.0583 45.7714 93.1252C46.0771 93.2136 46.3272 93.3033 46.5217 93.3917C46.7149 93.48 46.8816 93.6139 47.0218 93.7919C47.1608 93.97 47.2315 94.2023 47.2315 94.4914C47.2315 94.7402 47.1658 94.9712 47.0357 95.1846C46.9056 95.398 46.7137 95.5672 46.4611 95.6948C46.2084 95.821 45.9091 95.8842 45.563 95.8842C45.2334 95.8829 44.9379 95.8273 44.6739 95.7162Z" fill="#333333"/>
<path d="M51.2524 91.1855V91.9381H49.9957V95.8347H49.0497V91.9381H47.793V91.1855H51.2524Z" fill="#333333"/>
<path d="M52.8874 91.1855V95.8347H51.9414V91.1855H52.8874Z" fill="#333333"/>
<path d="M53.9004 92.275C54.1101 91.9126 54.3955 91.631 54.758 91.429C55.1205 91.227 55.5272 91.126 55.9768 91.126C56.5035 91.126 56.9658 91.2586 57.3611 91.5262C57.7577 91.7927 58.0343 92.1614 58.1922 92.6323H57.1047C56.9961 92.4101 56.8445 92.2434 56.6488 92.1323C56.453 92.0212 56.2269 91.9656 55.9705 91.9656C55.6952 91.9656 55.4514 92.0288 55.238 92.155C55.0245 92.2813 54.8578 92.4606 54.7378 92.6917C54.6178 92.9227 54.5585 93.1942 54.5585 93.5048C54.5585 93.8117 54.6178 94.0806 54.7378 94.3142C54.8565 94.5478 55.0233 94.7271 55.238 94.8534C55.4514 94.9796 55.6964 95.0428 55.9705 95.0428C56.2269 95.0428 56.453 94.9859 56.6488 94.8736C56.8445 94.7599 56.9961 94.5932 57.1047 94.371H58.1922C58.0343 94.8458 57.759 95.2157 57.3649 95.4796C56.9708 95.7435 56.5086 95.8761 55.9768 95.8761C55.5259 95.8761 55.1205 95.7751 54.758 95.5731C54.3955 95.371 54.1101 95.0907 53.9004 94.7309C53.6908 94.371 53.5859 93.9632 53.5859 93.5048C53.5859 93.0465 53.6908 92.6374 53.9004 92.275Z" fill="#333333"/>
<path d="M61.8983 94.95H60.0202L59.7095 95.8364H58.7168L60.4118 91.1797H61.5131L63.2081 95.8364H62.209L61.8983 94.95ZM61.642 94.2038L60.9599 92.2593L60.2779 94.2038H61.642Z" fill="#333333"/>
<path d="M64.7858 95.0957H66.3394V95.8357H63.8398V91.1865H64.7858V95.0957Z" fill="#333333"/>
<path d="M71.8794 93.8432C72.0499 94.0566 72.1358 94.3002 72.1358 94.5755C72.1358 94.8243 72.0739 95.0427 71.9501 95.2321C71.8264 95.4202 71.647 95.568 71.4134 95.6753C71.1797 95.7814 70.9018 95.8357 70.5823 95.8357H68.5488V91.1865H70.4939C70.8134 91.1865 71.0888 91.237 71.3211 91.3393C71.5535 91.4416 71.7291 91.583 71.8478 91.7661C71.9666 91.9479 72.0272 92.155 72.0272 92.3861C72.0272 92.6575 71.9539 92.8835 71.8074 93.0654C71.6609 93.2472 71.4664 93.376 71.2226 93.4517C71.4904 93.4997 71.7089 93.631 71.8794 93.8432ZM69.4948 93.1045H70.36C70.5848 93.1045 70.7591 93.054 70.8804 92.9543C71.0016 92.8545 71.0622 92.7106 71.0622 92.5249C71.0622 92.3393 71.0016 92.1941 70.8804 92.0919C70.7591 91.9896 70.5848 91.9391 70.36 91.9391H69.4948V93.1045ZM70.9852 94.9164C71.114 94.8104 71.1772 94.6589 71.1772 94.4631C71.1772 94.2636 71.1102 94.1071 70.9751 93.9934C70.8399 93.8798 70.6581 93.8242 70.4282 93.8242H69.4961V95.0768H70.4484C70.677 95.0755 70.8564 95.0225 70.9852 94.9164Z" fill="#333333"/>
<path d="M73.8386 91.9398V93.1053H75.4262V93.8452H73.8386V95.0775H75.6283V95.8364H72.8926V91.1797H75.6283V91.9385H73.8386V91.9398Z" fill="#333333"/>
<path d="M79.3749 94.95H77.4968L77.1861 95.8364H76.1934L77.8883 91.1797H78.9897L80.6847 95.8364H79.6856L79.3749 94.95ZM79.1185 94.2038L78.4365 92.2593L77.7544 94.2038H79.1185Z" fill="#333333"/>
<path d="M82.2572 91.1855V94.0632C82.2572 94.3788 82.3406 94.62 82.5073 94.7854C82.674 94.9521 82.9077 95.0354 83.2096 95.0354C83.5152 95.0354 83.7527 94.9521 83.9194 94.7854C84.0861 94.6187 84.1694 94.3776 84.1694 94.0632V91.1855H85.1218V94.0568C85.1218 94.4521 85.0346 94.7867 84.8616 95.0594C84.6886 95.3321 84.4562 95.5379 84.1657 95.6756C83.8752 95.8132 83.5518 95.8827 83.1969 95.8827C82.8458 95.8827 82.5275 95.8132 82.2408 95.6756C81.9554 95.5379 81.728 95.3321 81.5626 95.0594C81.3959 94.7867 81.3125 94.4521 81.3125 94.0568V91.1855H82.2572Z" fill="#333333"/>
<path d="M89.2387 91.1855V91.9381H87.982V95.8347H87.036V91.9381H85.7793V91.1855H89.2387Z" fill="#333333"/>
<path d="M90.8737 91.1855V95.8347H89.9277V91.1855H90.8737Z" fill="#333333"/>
<path d="M92.7507 91.9398V93.1053H94.3383V93.8452H92.7507V95.0775H94.5404V95.8364H91.8047V91.1797H94.5404V91.9385H92.7507V91.9398Z" fill="#333333"/>
<path d="M96.1387 95.7162C95.8748 95.6051 95.6664 95.446 95.5135 95.2364C95.3607 95.0281 95.2811 94.7818 95.2773 94.4965H96.2903C96.3042 94.6871 96.3724 94.8387 96.4962 94.9498C96.6199 95.0609 96.7904 95.1165 97.0064 95.1165C97.2274 95.1165 97.4005 95.0647 97.5268 94.9599C97.6531 94.8551 97.7162 94.7187 97.7162 94.5508C97.7162 94.4132 97.6733 94.2995 97.5874 94.2111C97.5015 94.1227 97.3954 94.052 97.2666 94.0015C97.1378 93.951 96.9609 93.8942 96.7361 93.8311C96.4305 93.7427 96.1817 93.6543 95.9897 93.5684C95.7977 93.4813 95.6335 93.3512 95.4971 93.1757C95.3594 93.0002 95.2912 92.7666 95.2912 92.4724C95.2912 92.1972 95.3607 91.9573 95.5009 91.7527C95.6398 91.5482 95.8369 91.3916 96.0882 91.283C96.3408 91.1744 96.6288 91.1201 96.9534 91.1201C97.4396 91.1201 97.835 91.2363 98.1393 91.4699C98.4437 91.7035 98.6104 92.028 98.642 92.4459H97.6013C97.5925 92.2856 97.5243 92.1542 97.3954 92.0494C97.2666 91.9446 97.0974 91.8929 96.8852 91.8929C96.7008 91.8929 96.553 91.9396 96.4431 92.033C96.3332 92.1265 96.2777 92.2616 96.2777 92.4396C96.2777 92.5646 96.3193 92.6669 96.4027 92.749C96.4861 92.831 96.5896 92.898 96.7134 92.9485C96.8372 92.999 97.0115 93.0583 97.2363 93.1252C97.5419 93.2136 97.792 93.3033 97.9865 93.3917C98.1798 93.48 98.3465 93.6139 98.4867 93.7919C98.6256 93.97 98.6963 94.2023 98.6963 94.4914C98.6963 94.7402 98.6307 94.9712 98.5006 95.1846C98.3705 95.398 98.1785 95.5672 97.9259 95.6948C97.6733 95.821 97.374 95.8842 97.0279 95.8842C96.6982 95.8829 96.4014 95.8273 96.1387 95.7162Z" fill="#333333"/>
<path d="M102.091 95.5763C101.722 95.3718 101.429 95.0889 101.213 94.7266C100.997 94.3642 100.889 93.9551 100.889 93.498C100.889 93.0447 100.997 92.6381 101.213 92.2757C101.429 91.9134 101.722 91.6305 102.091 91.426C102.46 91.2214 102.865 91.1191 103.307 91.1191C103.753 91.1191 104.16 91.2214 104.526 91.426C104.894 91.6305 105.184 91.9134 105.398 92.2757C105.611 92.6381 105.718 93.0447 105.718 93.498C105.718 93.9551 105.611 94.3654 105.398 94.7266C105.184 95.0889 104.892 95.3718 104.522 95.5763C104.154 95.7809 103.748 95.8832 103.306 95.8832C102.865 95.8832 102.46 95.7809 102.091 95.5763ZM104.056 94.8604C104.272 94.7341 104.442 94.5536 104.563 94.3175C104.684 94.0826 104.745 93.8086 104.745 93.498C104.745 93.1874 104.684 92.9146 104.563 92.6823C104.442 92.4487 104.272 92.2707 104.056 92.1457C103.84 92.0219 103.59 91.9588 103.306 91.9588C103.022 91.9588 102.772 92.0207 102.553 92.1457C102.335 92.2707 102.164 92.4487 102.043 92.6823C101.922 92.9159 101.861 93.1874 101.861 93.498C101.861 93.8086 101.922 94.0813 102.043 94.3175C102.164 94.5523 102.335 94.7341 102.553 94.8604C102.772 94.9867 103.023 95.0498 103.306 95.0498C103.59 95.0498 103.84 94.9867 104.056 94.8604Z" fill="#333333"/>
<path d="M109.333 91.1858V91.9384H107.368V93.1303H108.875V93.869H107.368V95.8337H106.422V91.1846H109.333V91.1858Z" fill="#333333"/>
<path d="M115.517 91.1855V95.8347H114.571V93.8561H112.551V95.8347H111.605V91.1855H112.551V93.0972H114.571V91.1855H115.517Z" fill="#333333"/>
<path d="M117.421 95.5763C117.052 95.3718 116.759 95.0889 116.543 94.7266C116.327 94.3642 116.219 93.9551 116.219 93.498C116.219 93.0447 116.327 92.6381 116.543 92.2757C116.759 91.9134 117.052 91.6305 117.421 91.426C117.79 91.2214 118.195 91.1191 118.637 91.1191C119.083 91.1191 119.49 91.2214 119.856 91.426C120.224 91.6305 120.514 91.9134 120.728 92.2757C120.941 92.6381 121.049 93.0447 121.049 93.498C121.049 93.9551 120.941 94.3654 120.728 94.7266C120.514 95.0889 120.223 95.3718 119.852 95.5763C119.484 95.7809 119.078 95.8832 118.636 95.8832C118.197 95.8832 117.791 95.7809 117.421 95.5763ZM119.388 94.8604C119.604 94.7341 119.773 94.5536 119.894 94.3175C120.015 94.0826 120.076 93.8086 120.076 93.498C120.076 93.1874 120.015 92.9146 119.894 92.6823C119.773 92.45 119.604 92.2707 119.388 92.1457C119.172 92.0219 118.922 91.9588 118.637 91.9588C118.353 91.9588 118.103 92.0207 117.885 92.1457C117.666 92.2707 117.496 92.4487 117.374 92.6823C117.253 92.9159 117.193 93.1874 117.193 93.498C117.193 93.8086 117.253 94.0813 117.374 94.3175C117.496 94.5523 117.666 94.7341 117.885 94.8604C118.103 94.9867 118.355 95.0498 118.637 95.0498C118.922 95.0498 119.172 94.9867 119.388 94.8604Z" fill="#333333"/>
<path d="M126.894 91.1855V95.8347H125.948V92.8106L124.685 95.8347H123.969L122.7 92.8106V95.8347H121.754V91.1855H122.827L124.327 94.6427L125.826 91.1855H126.894Z" fill="#333333"/>
<path d="M128.772 91.9398V93.1053H130.36V93.8452H128.772V95.0775H130.562V95.8364H127.826V91.1797H130.562V91.9385H128.772V91.9398Z" fill="#333333"/>
<path d="M132.162 95.7162C131.898 95.6051 131.69 95.446 131.537 95.2364C131.384 95.0281 131.305 94.7818 131.301 94.4965H132.314C132.328 94.6871 132.396 94.8387 132.52 94.9498C132.643 95.0609 132.814 95.1165 133.03 95.1165C133.251 95.1165 133.424 95.0647 133.55 94.9599C133.677 94.8551 133.74 94.7187 133.74 94.5508C133.74 94.4132 133.697 94.2995 133.611 94.2111C133.525 94.1227 133.419 94.052 133.29 94.0015C133.161 93.951 132.984 93.8942 132.76 93.8311C132.454 93.7427 132.205 93.6543 132.013 93.5684C131.821 93.4813 131.657 93.3512 131.521 93.1757C131.383 93.0002 131.315 92.7666 131.315 92.4724C131.315 92.1972 131.384 91.9573 131.524 91.7527C131.663 91.5482 131.86 91.3916 132.112 91.283C132.364 91.1744 132.652 91.1201 132.977 91.1201C133.463 91.1201 133.858 91.2363 134.163 91.4699C134.467 91.7035 134.634 92.028 134.665 92.4459H133.625C133.616 92.2856 133.548 92.1542 133.419 92.0494C133.29 91.9446 133.121 91.8929 132.909 91.8929C132.724 91.8929 132.576 91.9396 132.467 92.033C132.357 92.1265 132.301 92.2616 132.301 92.4396C132.301 92.5646 132.343 92.6669 132.426 92.749C132.509 92.831 132.613 92.898 132.737 92.9485C132.861 92.999 133.035 93.0583 133.26 93.1252C133.565 93.2136 133.815 93.3033 134.01 93.3917C134.203 93.48 134.37 93.6139 134.51 93.7919C134.649 93.97 134.72 94.2023 134.72 94.4914C134.72 94.7402 134.654 94.9712 134.524 95.1846C134.394 95.398 134.202 95.5672 133.949 95.6948C133.697 95.821 133.397 95.8842 133.051 95.8842C132.722 95.8829 132.425 95.8273 132.162 95.7162Z" fill="#333333"/>
<path d="M140.766 95.8361L140.253 95.3361C139.816 95.7224 139.283 95.9156 138.653 95.9156C138.306 95.9156 138.001 95.8563 137.737 95.7389C137.473 95.6214 137.27 95.4547 137.126 95.2388C136.982 95.0229 136.91 94.7742 136.91 94.4901C136.91 94.1832 136.999 93.908 137.174 93.6643C137.35 93.4206 137.609 93.2224 137.951 93.0708C137.83 92.9244 137.741 92.783 137.687 92.6479C137.633 92.5127 137.606 92.3675 137.606 92.211C137.606 91.9976 137.663 91.8057 137.775 91.6352C137.888 91.4647 138.049 91.3296 138.258 91.2324C138.467 91.1352 138.711 91.0859 138.99 91.0859C139.275 91.0859 139.517 91.139 139.72 91.2463C139.922 91.3524 140.074 91.495 140.173 91.6731C140.271 91.8511 140.314 92.0481 140.301 92.2665H139.383C139.387 92.1201 139.352 92.0077 139.275 91.9307C139.197 91.8536 139.094 91.8145 138.964 91.8145C138.838 91.8145 138.733 91.8511 138.649 91.9243C138.566 91.9976 138.524 92.0923 138.524 92.2072C138.524 92.3183 138.558 92.4281 138.625 92.5367C138.694 92.6453 138.803 92.7804 138.956 92.9395L140.145 94.0987C140.154 94.0898 140.16 94.081 140.165 94.0721C140.17 94.0633 140.174 94.0545 140.179 94.0456L140.564 93.413H141.55L141.078 94.2325C140.988 94.4055 140.891 94.5696 140.788 94.7249L141.929 95.8373H140.766V95.8361ZM139.658 94.7565L138.497 93.6239C138.06 93.8146 137.841 94.086 137.841 94.437C137.841 94.6365 137.918 94.8045 138.071 94.9396C138.224 95.0747 138.427 95.1429 138.678 95.1429C139.048 95.1429 139.376 95.0141 139.658 94.7565Z" fill="#333333"/>
<path d="M147.264 93.3242C147.144 93.5414 146.957 93.7169 146.703 93.8507C146.449 93.9846 146.128 94.0502 145.741 94.0502H144.95V95.8357H144.004V91.1865H145.739C146.104 91.1865 146.415 91.2484 146.671 91.3734C146.928 91.4984 147.121 91.6689 147.249 91.886C147.377 92.1032 147.441 92.3494 147.441 92.626C147.443 92.8734 147.384 93.107 147.264 93.3242ZM146.281 93.1209C146.407 93.0035 146.471 92.8381 146.471 92.6247C146.471 92.1714 146.214 91.9454 145.7 91.9454H144.95V93.2977H145.7C145.962 93.2977 146.155 93.2384 146.281 93.1209Z" fill="#333333"/>
<path d="M149.055 95.0957H150.609V95.8357H148.109V91.1865H149.055V95.0957Z" fill="#333333"/>
<path d="M154.101 94.95H152.223L151.913 95.8364H150.92L152.615 91.1797H153.716L155.411 95.8364H154.412L154.101 94.95ZM153.845 94.2038L153.163 92.2593L152.481 94.2038H153.845Z" fill="#333333"/>
<path d="M156.133 92.275C156.343 91.9126 156.628 91.631 156.99 91.429C157.353 91.227 157.76 91.126 158.209 91.126C158.736 91.126 159.198 91.2586 159.594 91.5262C159.99 91.7927 160.267 92.1614 160.425 92.6323H159.337C159.229 92.4101 159.077 92.2434 158.881 92.1323C158.685 92.0212 158.459 91.9656 158.203 91.9656C157.928 91.9656 157.684 92.0288 157.47 92.155C157.257 92.2813 157.09 92.4606 156.97 92.6917C156.85 92.9227 156.791 93.1942 156.791 93.5048C156.791 93.8117 156.85 94.0806 156.97 94.3142C157.089 94.5478 157.256 94.7271 157.47 94.8534C157.684 94.9796 157.929 95.0428 158.203 95.0428C158.459 95.0428 158.685 94.9859 158.881 94.8736C159.077 94.7599 159.229 94.5932 159.337 94.371H160.425C160.267 94.8458 159.991 95.2157 159.597 95.4796C159.203 95.7435 158.741 95.8761 158.209 95.8761C157.758 95.8761 157.353 95.7751 156.99 95.5731C156.628 95.371 156.343 95.0907 156.133 94.7309C155.923 94.371 155.818 93.9632 155.818 93.5048C155.818 93.0465 155.923 92.6374 156.133 92.275Z" fill="#333333"/>
<path d="M162.178 91.9398V93.1053H163.766V93.8452H162.178V95.0775H163.968V95.8364H161.232V91.1797H163.968V91.9385H162.178V91.9398Z" fill="#333333"/>
<path d="M165.568 95.7162C165.304 95.6051 165.096 95.446 164.943 95.2364C164.79 95.0281 164.711 94.7818 164.707 94.4965H165.72C165.734 94.6871 165.802 94.8387 165.926 94.9498C166.05 95.0609 166.22 95.1165 166.436 95.1165C166.657 95.1165 166.83 95.0647 166.956 94.9599C167.083 94.8551 167.146 94.7187 167.146 94.5508C167.146 94.4132 167.103 94.2995 167.017 94.2111C166.931 94.1227 166.825 94.052 166.696 94.0015C166.567 93.951 166.391 93.8942 166.166 93.8311C165.86 93.7427 165.611 93.6543 165.419 93.5684C165.227 93.4813 165.063 93.3512 164.927 93.1757C164.789 93.0002 164.721 92.7666 164.721 92.4724C164.721 92.1972 164.79 91.9573 164.931 91.7527C165.07 91.5482 165.267 91.3916 165.518 91.283C165.77 91.1744 166.058 91.1201 166.383 91.1201C166.869 91.1201 167.265 91.2363 167.569 91.4699C167.873 91.7035 168.04 92.028 168.072 92.4459H167.031C167.022 92.2856 166.954 92.1542 166.825 92.0494C166.696 91.9446 166.527 91.8929 166.315 91.8929C166.13 91.8929 165.983 91.9396 165.873 92.033C165.763 92.1265 165.707 92.2616 165.707 92.4396C165.707 92.5646 165.749 92.6669 165.832 92.749C165.916 92.831 166.019 92.898 166.143 92.9485C166.267 92.999 166.441 93.0583 166.666 93.1252C166.972 93.2136 167.222 93.3033 167.416 93.3917C167.609 93.48 167.776 93.6139 167.916 93.7919C168.055 93.97 168.126 94.2023 168.126 94.4914C168.126 94.7402 168.06 94.9712 167.93 95.1846C167.8 95.398 167.608 95.5672 167.356 95.6948C167.103 95.821 166.804 95.8842 166.458 95.8842C166.128 95.8829 165.832 95.8273 165.568 95.7162Z" fill="#333333"/>
</svg>
