<svg width="96" height="84" viewBox="0 0 96 84" fill="none" xmlns="http://www.w3.org/2000/svg">
<rect x="0.5" y="0.5" width="95" height="83" rx="7.5" fill="#EBEBEB" fill-opacity="0.2"/>
<rect x="0.5" y="0.5" width="95" height="83" rx="7.5" stroke="#E9E9E9"/>
<path d="M62.988 29.7394L57.824 26.4108C57.4611 26.1723 56.9737 26.276 56.7456 26.639C56.5071 27.0019 56.6108 27.4893 56.9737 27.7174L62.1377 31.046C62.2725 31.1289 62.4177 31.1704 62.5628 31.1704C62.8221 31.1704 63.071 31.046 63.2161 30.8178C63.4546 30.4549 63.3509 29.9676 62.988 29.7394Z" fill="#888888"/>
<path d="M71.7408 33.2754L67.8833 29.698C64.4925 26.3383 60.6662 23.466 56.9747 20.687C55.4712 19.5671 52.6196 17.5969 52.4433 17.4828C51.1056 16.5081 49.5502 16 47.9326 16C46.315 16 44.7492 16.5185 43.4219 17.4828C43.2145 17.628 40.4148 19.5671 39.0045 20.6973C35.313 23.4763 31.4867 26.3487 27.9819 29.698L24.2385 33.2753C24.083 33.4206 24 33.628 24 33.8354V38.9475C24 39.2067 24.1348 39.4556 24.3526 39.6008C24.5703 39.746 24.8503 39.7667 25.0888 39.663L35.4064 35.1523L42.4264 40.5237C42.5612 40.6273 42.7272 40.6792 42.9034 40.6792H47.2275V44.9514H48.7829V40.6792H53.221C53.3973 40.6792 53.5632 40.617 53.698 40.5133L60.5936 35.1419L70.9112 39.6526C71.0149 39.6941 71.1186 39.7148 71.2223 39.7148C71.3675 39.7148 71.523 39.6734 71.6474 39.5904C71.8652 39.4452 72 39.2067 72 38.9371V33.825C71.9896 33.628 71.8963 33.4206 71.7408 33.2754ZM42.2087 38.429L37.0032 34.4472L42.6131 31.9896C42.6131 31.9896 42.6235 31.9896 42.6235 31.9793C42.9345 31.8341 43.2456 31.7097 43.5567 31.5956L42.2087 38.429ZM43.6604 39.1445L45.2573 31.1186C47.0097 30.7246 48.8244 30.7246 50.5872 31.0875L52.3085 39.1445H43.6604ZM53.7602 38.5016L52.2774 31.5645C52.6403 31.6889 52.9929 31.8341 53.3351 32C53.3351 32 53.3454 32 53.3454 32.0104L58.9553 34.4576L53.7602 38.5016ZM53.978 30.5794C50.162 28.827 45.7965 28.827 41.9806 30.5794L25.5243 37.7758V34.1776L29.0292 30.8283C32.4822 27.5308 36.267 24.6896 39.9274 21.9313C39.9378 21.9209 39.9378 21.9209 39.9482 21.9106C41.3273 20.7907 44.2618 18.7686 44.2826 18.7479C44.2929 18.7479 44.2929 18.7375 44.3033 18.7375C46.4913 17.1406 49.3221 17.1406 51.5204 18.7375C51.5308 18.7375 51.5308 18.7479 51.5412 18.7479C51.5723 18.7686 54.5172 20.801 56.0311 21.9313C59.6915 24.6792 63.4763 27.5308 66.7946 30.8179C66.8049 30.8283 66.8049 30.8283 66.8153 30.8386L70.4342 34.1879V37.7758L53.978 30.5794Z" fill="#888888"/>
<path d="M64.9418 32.7359C65.3713 32.7359 65.7195 32.3877 65.7195 31.9582C65.7195 31.5287 65.3713 31.1805 64.9418 31.1805C64.5123 31.1805 64.1641 31.5287 64.1641 31.9582C64.1641 32.3877 64.5123 32.7359 64.9418 32.7359Z" fill="#888888"/>
<path d="M20.516 61.5596C20.516 62.2556 20.276 62.8356 19.796 63.2996C19.324 63.7556 18.6 63.9836 17.624 63.9836H16.016V67.4756H14.924V59.1116H17.624C18.568 59.1116 19.284 59.3396 19.772 59.7956C20.268 60.2516 20.516 60.8396 20.516 61.5596ZM17.624 63.0836C18.232 63.0836 18.68 62.9516 18.968 62.6876C19.256 62.4236 19.4 62.0476 19.4 61.5596C19.4 60.5276 18.808 60.0116 17.624 60.0116H16.016V63.0836H17.624ZM21.4652 64.1636C21.4652 63.4916 21.6012 62.9036 21.8732 62.3996C22.1452 61.8876 22.5172 61.4916 22.9892 61.2116C23.4692 60.9316 24.0012 60.7916 24.5852 60.7916C25.1612 60.7916 25.6612 60.9156 26.0852 61.1636C26.5092 61.4116 26.8252 61.7236 27.0332 62.0996V60.8996H28.1372V67.4756H27.0332V66.2516C26.8172 66.6356 26.4932 66.9556 26.0612 67.2116C25.6372 67.4596 25.1412 67.5836 24.5732 67.5836C23.9892 67.5836 23.4612 67.4396 22.9892 67.1516C22.5172 66.8636 22.1452 66.4596 21.8732 65.9396C21.6012 65.4196 21.4652 64.8276 21.4652 64.1636ZM27.0332 64.1756C27.0332 63.6796 26.9332 63.2476 26.7332 62.8796C26.5332 62.5116 26.2612 62.2316 25.9172 62.0396C25.5812 61.8396 25.2092 61.7396 24.8012 61.7396C24.3932 61.7396 24.0212 61.8356 23.6852 62.0276C23.3492 62.2196 23.0812 62.4996 22.8812 62.8676C22.6812 63.2356 22.5812 63.6676 22.5812 64.1636C22.5812 64.6676 22.6812 65.1076 22.8812 65.4836C23.0812 65.8516 23.3492 66.1356 23.6852 66.3356C24.0212 66.5276 24.3932 66.6236 24.8012 66.6236C25.2092 66.6236 25.5812 66.5276 25.9172 66.3356C26.2612 66.1356 26.5332 65.8516 26.7332 65.4836C26.9332 65.1076 27.0332 64.6716 27.0332 64.1756ZM31.0746 61.9676C31.2666 61.5916 31.5386 61.2996 31.8906 61.0916C32.2506 60.8836 32.6866 60.7796 33.1986 60.7796V61.9076H32.9106C31.6866 61.9076 31.0746 62.5716 31.0746 63.8996V67.4756H29.9826V60.8996H31.0746V61.9676ZM34.0512 64.1636C34.0512 63.4916 34.1872 62.9036 34.4592 62.3996C34.7312 61.8876 35.1032 61.4916 35.5752 61.2116C36.0552 60.9316 36.5872 60.7916 37.1712 60.7916C37.7472 60.7916 38.2472 60.9156 38.6712 61.1636C39.0952 61.4116 39.4112 61.7236 39.6192 62.0996V60.8996H40.7232V67.4756H39.6192V66.2516C39.4032 66.6356 39.0792 66.9556 38.6472 67.2116C38.2232 67.4596 37.7272 67.5836 37.1592 67.5836C36.5752 67.5836 36.0472 67.4396 35.5752 67.1516C35.1032 66.8636 34.7312 66.4596 34.4592 65.9396C34.1872 65.4196 34.0512 64.8276 34.0512 64.1636ZM39.6192 64.1756C39.6192 63.6796 39.5192 63.2476 39.3192 62.8796C39.1192 62.5116 38.8472 62.2316 38.5032 62.0396C38.1672 61.8396 37.7952 61.7396 37.3872 61.7396C36.9792 61.7396 36.6072 61.8356 36.2712 62.0276C35.9352 62.2196 35.6672 62.4996 35.4672 62.8676C35.2672 63.2356 35.1672 63.6676 35.1672 64.1636C35.1672 64.6676 35.2672 65.1076 35.4672 65.4836C35.6672 65.8516 35.9352 66.1356 36.2712 66.3356C36.6072 66.5276 36.9792 66.6236 37.3872 66.6236C37.7952 66.6236 38.1672 66.5276 38.5032 66.3356C38.8472 66.1356 39.1192 65.8516 39.3192 65.4836C39.5192 65.1076 39.6192 64.6716 39.6192 64.1756ZM44.8965 67.5836C44.3925 67.5836 43.9405 67.4996 43.5405 67.3316C43.1405 67.1556 42.8245 66.9156 42.5925 66.6116C42.3605 66.2996 42.2325 65.9436 42.2085 65.5436H43.3365C43.3685 65.8716 43.5205 66.1396 43.7925 66.3476C44.0725 66.5556 44.4365 66.6596 44.8845 66.6596C45.3005 66.6596 45.6285 66.5676 45.8685 66.3836C46.1085 66.1996 46.2285 65.9676 46.2285 65.6876C46.2285 65.3996 46.1005 65.1876 45.8445 65.0516C45.5885 64.9076 45.1925 64.7676 44.6565 64.6316C44.1685 64.5036 43.7685 64.3756 43.4565 64.2476C43.1525 64.1116 42.8885 63.9156 42.6645 63.6596C42.4485 63.3956 42.3405 63.0516 42.3405 62.6276C42.3405 62.2916 42.4405 61.9836 42.6405 61.7036C42.8405 61.4236 43.1245 61.2036 43.4925 61.0436C43.8605 60.8756 44.2805 60.7916 44.7525 60.7916C45.4805 60.7916 46.0685 60.9756 46.5165 61.3436C46.9645 61.7116 47.2045 62.2156 47.2365 62.8556H46.1445C46.1205 62.5116 45.9805 62.2356 45.7245 62.0276C45.4765 61.8196 45.1405 61.7156 44.7165 61.7156C44.3245 61.7156 44.0125 61.7996 43.7805 61.9676C43.5485 62.1356 43.4325 62.3556 43.4325 62.6276C43.4325 62.8436 43.5005 63.0236 43.6365 63.1676C43.7805 63.3036 43.9565 63.4156 44.1645 63.5036C44.3805 63.5836 44.6765 63.6756 45.0525 63.7796C45.5245 63.9076 45.9085 64.0356 46.2045 64.1636C46.5005 64.2836 46.7525 64.4676 46.9605 64.7156C47.1765 64.9636 47.2885 65.2876 47.2965 65.6876C47.2965 66.0476 47.1965 66.3716 46.9965 66.6596C46.7965 66.9476 46.5125 67.1756 46.1445 67.3436C45.7845 67.5036 45.3685 67.5836 44.8965 67.5836ZM48.4301 64.1636C48.4301 63.4916 48.5661 62.9036 48.8381 62.3996C49.1101 61.8876 49.4821 61.4916 49.9541 61.2116C50.4341 60.9316 50.9661 60.7916 51.5501 60.7916C52.1261 60.7916 52.6261 60.9156 53.0501 61.1636C53.4741 61.4116 53.7901 61.7236 53.9981 62.0996V60.8996H55.1021V67.4756H53.9981V66.2516C53.7821 66.6356 53.4581 66.9556 53.0261 67.2116C52.6021 67.4596 52.1061 67.5836 51.5381 67.5836C50.9541 67.5836 50.4261 67.4396 49.9541 67.1516C49.4821 66.8636 49.1101 66.4596 48.8381 65.9396C48.5661 65.4196 48.4301 64.8276 48.4301 64.1636ZM53.9981 64.1756C53.9981 63.6796 53.8981 63.2476 53.6981 62.8796C53.4981 62.5116 53.2261 62.2316 52.8821 62.0396C52.5461 61.8396 52.1741 61.7396 51.7661 61.7396C51.3581 61.7396 50.9861 61.8356 50.6501 62.0276C50.3141 62.2196 50.0461 62.4996 49.8461 62.8676C49.6461 63.2356 49.5461 63.6676 49.5461 64.1636C49.5461 64.6676 49.6461 65.1076 49.8461 65.4836C50.0461 65.8516 50.3141 66.1356 50.6501 66.3356C50.9861 66.5276 51.3581 66.6236 51.7661 66.6236C52.1741 66.6236 52.5461 66.5276 52.8821 66.3356C53.2261 66.1356 53.4981 65.8516 53.6981 65.4836C53.8981 65.1076 53.9981 64.6716 53.9981 64.1756ZM57.5114 59.8316C57.3034 59.8316 57.1274 59.7596 56.9834 59.6156C56.8394 59.4716 56.7674 59.2956 56.7674 59.0876C56.7674 58.8796 56.8394 58.7036 56.9834 58.5596C57.1274 58.4156 57.3034 58.3436 57.5114 58.3436C57.7114 58.3436 57.8794 58.4156 58.0154 58.5596C58.1594 58.7036 58.2314 58.8796 58.2314 59.0876C58.2314 59.2956 58.1594 59.4716 58.0154 59.6156C57.8794 59.7596 57.7114 59.8316 57.5114 59.8316ZM58.0394 60.8996V67.4756H56.9474V60.8996H58.0394ZM60.9926 58.5956V67.4756H59.9006V58.5956H60.9926ZM63.4177 59.8316C63.2097 59.8316 63.0337 59.7596 62.8897 59.6156C62.7457 59.4716 62.6737 59.2956 62.6737 59.0876C62.6737 58.8796 62.7457 58.7036 62.8897 58.5596C63.0337 58.4156 63.2097 58.3436 63.4177 58.3436C63.6177 58.3436 63.7857 58.4156 63.9217 58.5596C64.0657 58.7036 64.1377 58.8796 64.1377 59.0876C64.1377 59.2956 64.0657 59.4716 63.9217 59.6156C63.7857 59.7596 63.6177 59.8316 63.4177 59.8316ZM63.9457 60.8996V67.4756H62.8537V60.8996H63.9457ZM69.0108 60.7796C69.8108 60.7796 70.4588 61.0236 70.9548 61.5116C71.4508 61.9916 71.6988 62.6876 71.6988 63.5996V67.4756H70.6188V63.7556C70.6188 63.0996 70.4548 62.5996 70.1268 62.2556C69.7988 61.9036 69.3508 61.7276 68.7828 61.7276C68.2068 61.7276 67.7468 61.9076 67.4028 62.2676C67.0668 62.6276 66.8988 63.1516 66.8988 63.8396V67.4756H65.8068V60.8996H66.8988V61.8356C67.1148 61.4996 67.4068 61.2396 67.7748 61.0556C68.1508 60.8716 68.5628 60.7796 69.0108 60.7796ZM76.1946 60.7916C76.7626 60.7916 77.2586 60.9156 77.6826 61.1636C78.1146 61.4116 78.4346 61.7236 78.6426 62.0996V60.8996H79.7466V67.6196C79.7466 68.2196 79.6186 68.7516 79.3626 69.2156C79.1066 69.6876 78.7386 70.0556 78.2586 70.3196C77.7866 70.5836 77.2346 70.7156 76.6026 70.7156C75.7386 70.7156 75.0186 70.5116 74.4426 70.1036C73.8666 69.6956 73.5266 69.1396 73.4226 68.4356H74.5026C74.6226 68.8356 74.8706 69.1556 75.2466 69.3956C75.6226 69.6436 76.0746 69.7676 76.6026 69.7676C77.2026 69.7676 77.6906 69.5796 78.0666 69.2036C78.4506 68.8276 78.6426 68.2996 78.6426 67.6196V66.2396C78.4266 66.6236 78.1066 66.9436 77.6826 67.1996C77.2586 67.4556 76.7626 67.5836 76.1946 67.5836C75.6106 67.5836 75.0786 67.4396 74.5986 67.1516C74.1266 66.8636 73.7546 66.4596 73.4826 65.9396C73.2106 65.4196 73.0746 64.8276 73.0746 64.1636C73.0746 63.4916 73.2106 62.9036 73.4826 62.3996C73.7546 61.8876 74.1266 61.4916 74.5986 61.2116C75.0786 60.9316 75.6106 60.7916 76.1946 60.7916ZM78.6426 64.1756C78.6426 63.6796 78.5426 63.2476 78.3426 62.8796C78.1426 62.5116 77.8706 62.2316 77.5266 62.0396C77.1906 61.8396 76.8186 61.7396 76.4106 61.7396C76.0026 61.7396 75.6306 61.8356 75.2946 62.0276C74.9586 62.2196 74.6906 62.4996 74.4906 62.8676C74.2906 63.2356 74.1906 63.6676 74.1906 64.1636C74.1906 64.6676 74.2906 65.1076 74.4906 65.4836C74.6906 65.8516 74.9586 66.1356 75.2946 66.3356C75.6306 66.5276 76.0026 66.6236 76.4106 66.6236C76.8186 66.6236 77.1906 66.5276 77.5266 66.3356C77.8706 66.1356 78.1426 65.8516 78.3426 65.4836C78.5426 65.1076 78.6426 64.6716 78.6426 64.1756Z" fill="#707070"/>
</svg>
