<svg width="96" height="84" viewBox="0 0 96 84" fill="none" xmlns="http://www.w3.org/2000/svg">
<rect x="0.5" y="0.5" width="95" height="83" rx="7.5" fill="#EBEBEB" fill-opacity="0.2"/>
<rect x="0.5" y="0.5" width="95" height="83" rx="7.5" stroke="#E9E9E9"/>
<g clip-path="url(#clip0_293_2778)">
<path d="M71.86 41.0771C71.8117 41.011 66.9726 34.3934 61.7055 27.8615C58.6053 24.0169 55.9631 20.9505 53.8523 18.7481C50.1615 14.8966 48.7861 14.4027 48.0001 14.4027C47.2228 14.4027 45.9366 14.9191 42.2905 18.7499C40.1952 20.9512 37.5488 24.0161 34.4248 27.8592C29.1162 34.3899 24.1926 41.0062 24.1436 41.0721C23.956 41.3246 23.9518 41.6689 24.1334 41.9258C24.315 42.1827 24.641 42.2934 24.9415 42.201L32.4362 39.8901C32.4369 39.8899 32.4377 39.8896 32.4384 39.8895L40.8945 37.2823C40.8956 37.2819 40.8968 37.2816 40.898 37.2812L43.8621 36.3673L39.0431 46.559C38.9365 46.7843 38.9528 47.0485 39.0861 47.259C39.2195 47.4696 39.4513 47.5972 39.7006 47.5972H56.2994C56.5486 47.5972 56.7804 47.4696 56.9138 47.259C57.0471 47.0485 57.0635 46.7843 56.9569 46.559L52.1377 36.3672L55.0447 37.2634C55.0834 37.2788 55.1233 37.2917 55.1651 37.3005L63.5617 39.8895C63.5625 39.8896 63.5632 39.8899 63.564 39.8901L71.0585 42.2009C71.1292 42.2227 71.2015 42.2333 71.2728 42.2333C71.5035 42.2332 71.7259 42.123 71.8649 41.9282C72.0469 41.6731 72.0449 41.3301 71.86 41.0771ZM35.5535 28.7766C38.6536 24.9628 41.2746 21.9267 43.344 19.7526C46.873 16.0451 47.8416 15.8573 48 15.8573C48.2504 15.8573 49.3363 16.1382 52.8007 19.7532C54.8825 21.9254 57.4965 24.9594 60.5702 28.771C60.8276 29.0902 61.0838 29.4095 61.3386 29.7284C59.4107 27.969 57.6718 26.4314 56.1359 25.1285C50.5334 20.3759 48.845 19.7664 48 19.7664C47.3715 19.7664 46.2085 20.16 42.9097 22.7494C42.9059 22.7525 42.9019 22.7554 42.8981 22.7585C42.031 23.4395 41.0171 24.2715 39.8264 25.2879C38.3159 26.5774 36.6083 28.089 34.7168 29.8106C34.9943 29.4662 35.2732 29.1213 35.5535 28.7766ZM31.5895 38.6291L26.6567 40.1501C27.2413 39.3775 27.9934 38.3891 28.8641 37.2567C30.4135 35.7832 31.8828 34.4024 33.269 33.1169C32.1929 35.6139 31.7465 37.7211 31.5895 38.6291ZM39.906 36.0648L33.1703 38.1417C33.5302 36.4983 34.436 33.3108 36.4913 30.1648C38.0567 28.7504 39.4857 27.4912 40.7706 26.3943C41.0096 26.1903 41.2401 25.995 41.464 25.8066C39.7952 30.3586 39.8237 34.5391 39.906 36.0648ZM55.1511 46.1425H40.8489L41.6099 44.5333H54.3902L55.1511 46.1425ZM53.7024 43.0788H42.2975L45.7457 35.7865L48 35.0914L50.2542 35.7865L53.7024 43.0788ZM46.5883 34.0045L48 31.0188L49.4117 34.0044L48.2143 33.6352C48.1445 33.6136 48.0723 33.6029 48 33.6029C47.9277 33.6029 47.8555 33.6137 47.7857 33.6352L46.5883 34.0045ZM54.642 35.6171L51.2952 34.5851L48.6575 29.0066C48.5372 28.7523 48.2812 28.5902 48 28.5902C47.7187 28.5902 47.4627 28.7523 47.3425 29.0066L44.7048 34.5852L41.3466 35.6206C41.2872 33.6307 41.4326 28.6177 43.9352 23.793C46.9359 21.4463 47.7871 21.2208 48 21.2208C48.2913 21.2208 49.2096 21.505 51.9659 23.6175C51.9721 23.6313 51.9778 23.6451 51.985 23.6586C54.5472 28.5094 54.6998 33.6033 54.642 35.6171ZM56.0839 36.0616C56.1672 34.5124 56.1938 30.2399 54.4555 25.6183C55.8028 26.7419 57.4245 28.1495 59.3746 29.9104C59.3944 29.9724 59.4221 30.0327 59.4596 30.0896C61.5437 33.2506 62.4633 36.4815 62.828 38.1411L56.0839 36.0616ZM64.4105 38.6291C64.249 37.6955 63.7818 35.4945 62.6389 32.9056C63.9388 34.1154 65.3508 35.4474 66.8886 36.9186C66.9232 36.9518 66.9605 36.9806 66.9994 37.0055C67.943 38.2482 68.7532 39.3287 69.3715 40.1588L64.4105 38.6291Z" fill="#888888"/>
</g>
<path d="M20.016 65.0839C20.016 65.7799 19.776 66.3599 19.296 66.8239C18.824 67.2799 18.1 67.5079 17.124 67.5079H15.516V70.9999H14.424V62.6359H17.124C18.068 62.6359 18.784 62.8639 19.272 63.3199C19.768 63.7759 20.016 64.3639 20.016 65.0839ZM17.124 66.6079C17.732 66.6079 18.18 66.4759 18.468 66.2119C18.756 65.9479 18.9 65.5719 18.9 65.0839C18.9 64.0519 18.308 63.5359 17.124 63.5359H15.516V66.6079H17.124ZM20.9652 67.6879C20.9652 67.0159 21.1012 66.4279 21.3732 65.9239C21.6452 65.4119 22.0172 65.0159 22.4892 64.7359C22.9692 64.4559 23.5012 64.3159 24.0852 64.3159C24.6612 64.3159 25.1612 64.4399 25.5852 64.6879C26.0092 64.9359 26.3252 65.2479 26.5332 65.6239V64.4239H27.6372V70.9999H26.5332V69.7759C26.3172 70.1599 25.9932 70.4799 25.5612 70.7359C25.1372 70.9839 24.6412 71.1079 24.0732 71.1079C23.4892 71.1079 22.9612 70.9639 22.4892 70.6759C22.0172 70.3879 21.6452 69.9839 21.3732 69.4639C21.1012 68.9439 20.9652 68.3519 20.9652 67.6879ZM26.5332 67.6999C26.5332 67.2039 26.4332 66.7719 26.2332 66.4039C26.0332 66.0359 25.7612 65.7559 25.4172 65.5639C25.0812 65.3639 24.7092 65.2639 24.3012 65.2639C23.8932 65.2639 23.5212 65.3599 23.1852 65.5519C22.8492 65.7439 22.5812 66.0239 22.3812 66.3919C22.1812 66.7599 22.0812 67.1919 22.0812 67.6879C22.0812 68.1919 22.1812 68.6319 22.3812 69.0079C22.5812 69.3759 22.8492 69.6599 23.1852 69.8599C23.5212 70.0519 23.8932 70.1479 24.3012 70.1479C24.7092 70.1479 25.0812 70.0519 25.4172 69.8599C25.7612 69.6599 26.0332 69.3759 26.2332 69.0079C26.4332 68.6319 26.5332 68.1959 26.5332 67.6999ZM30.5746 65.4919C30.7666 65.1159 31.0386 64.8239 31.3906 64.6159C31.7506 64.4079 32.1866 64.3039 32.6986 64.3039V65.4319H32.4106C31.1866 65.4319 30.5746 66.0959 30.5746 67.4239V70.9999H29.4826V64.4239H30.5746V65.4919ZM33.5512 67.6879C33.5512 67.0159 33.6872 66.4279 33.9592 65.9239C34.2312 65.4119 34.6032 65.0159 35.0752 64.7359C35.5552 64.4559 36.0872 64.3159 36.6712 64.3159C37.2472 64.3159 37.7472 64.4399 38.1712 64.6879C38.5952 64.9359 38.9112 65.2479 39.1192 65.6239V64.4239H40.2232V70.9999H39.1192V69.7759C38.9032 70.1599 38.5792 70.4799 38.1472 70.7359C37.7232 70.9839 37.2272 71.1079 36.6592 71.1079C36.0752 71.1079 35.5472 70.9639 35.0752 70.6759C34.6032 70.3879 34.2312 69.9839 33.9592 69.4639C33.6872 68.9439 33.5512 68.3519 33.5512 67.6879ZM39.1192 67.6999C39.1192 67.2039 39.0192 66.7719 38.8192 66.4039C38.6192 66.0359 38.3472 65.7559 38.0032 65.5639C37.6672 65.3639 37.2952 65.2639 36.8872 65.2639C36.4792 65.2639 36.1072 65.3599 35.7712 65.5519C35.4352 65.7439 35.1672 66.0239 34.9672 66.3919C34.7672 66.7599 34.6672 67.1919 34.6672 67.6879C34.6672 68.1919 34.7672 68.6319 34.9672 69.0079C35.1672 69.3759 35.4352 69.6599 35.7712 69.8599C36.1072 70.0519 36.4792 70.1479 36.8872 70.1479C37.2952 70.1479 37.6672 70.0519 38.0032 69.8599C38.3472 69.6599 38.6192 69.3759 38.8192 69.0079C39.0192 68.6319 39.1192 68.1959 39.1192 67.6999ZM44.7805 64.3159C45.3485 64.3159 45.8445 64.4399 46.2685 64.6879C46.7005 64.9359 47.0205 65.2479 47.2285 65.6239V64.4239H48.3325V71.1439C48.3325 71.7439 48.2045 72.2759 47.9485 72.7399C47.6925 73.2119 47.3245 73.5799 46.8445 73.8439C46.3725 74.1079 45.8205 74.2399 45.1885 74.2399C44.3245 74.2399 43.6045 74.0359 43.0285 73.6279C42.4525 73.2199 42.1125 72.6639 42.0085 71.9599H43.0885C43.2085 72.3599 43.4565 72.6799 43.8325 72.9199C44.2085 73.1679 44.6605 73.2919 45.1885 73.2919C45.7885 73.2919 46.2765 73.1039 46.6525 72.7279C47.0365 72.3519 47.2285 71.8239 47.2285 71.1439V69.7639C47.0125 70.1479 46.6925 70.4679 46.2685 70.7239C45.8445 70.9799 45.3485 71.1079 44.7805 71.1079C44.1965 71.1079 43.6645 70.9639 43.1845 70.6759C42.7125 70.3879 42.3405 69.9839 42.0685 69.4639C41.7965 68.9439 41.6605 68.3519 41.6605 67.6879C41.6605 67.0159 41.7965 66.4279 42.0685 65.9239C42.3405 65.4119 42.7125 65.0159 43.1845 64.7359C43.6645 64.4559 44.1965 64.3159 44.7805 64.3159ZM47.2285 67.6999C47.2285 67.2039 47.1285 66.7719 46.9285 66.4039C46.7285 66.0359 46.4565 65.7559 46.1125 65.5639C45.7765 65.3639 45.4045 65.2639 44.9965 65.2639C44.5885 65.2639 44.2165 65.3599 43.8805 65.5519C43.5445 65.7439 43.2765 66.0239 43.0765 66.3919C42.8765 66.7599 42.7765 67.1919 42.7765 67.6879C42.7765 68.1919 42.8765 68.6319 43.0765 69.0079C43.2765 69.3759 43.5445 69.6599 43.8805 69.8599C44.2165 70.0519 44.5885 70.1479 44.9965 70.1479C45.4045 70.1479 45.7765 70.0519 46.1125 69.8599C46.4565 69.6599 46.7285 69.3759 46.9285 69.0079C47.1285 68.6319 47.2285 68.1959 47.2285 67.6999ZM51.2699 62.1199V70.9999H50.1779V62.1199H51.2699ZM53.695 63.3559C53.487 63.3559 53.311 63.2839 53.167 63.1399C53.023 62.9959 52.951 62.8199 52.951 62.6119C52.951 62.4039 53.023 62.2279 53.167 62.0839C53.311 61.9399 53.487 61.8679 53.695 61.8679C53.895 61.8679 54.063 61.9399 54.199 62.0839C54.343 62.2279 54.415 62.4039 54.415 62.6119C54.415 62.8199 54.343 62.9959 54.199 63.1399C54.063 63.2839 53.895 63.3559 53.695 63.3559ZM54.223 64.4239V70.9999H53.131V64.4239H54.223ZM55.6762 67.6879C55.6762 67.0159 55.8122 66.4279 56.0842 65.9239C56.3562 65.4119 56.7282 65.0159 57.2002 64.7359C57.6802 64.4559 58.2162 64.3159 58.8082 64.3159C59.3202 64.3159 59.7962 64.4359 60.2362 64.6759C60.6762 64.9079 61.0122 65.2159 61.2442 65.5999V62.1199H62.3482V70.9999H61.2442V69.7639C61.0282 70.1559 60.7082 70.4799 60.2842 70.7359C59.8602 70.9839 59.3642 71.1079 58.7962 71.1079C58.2122 71.1079 57.6802 70.9639 57.2002 70.6759C56.7282 70.3879 56.3562 69.9839 56.0842 69.4639C55.8122 68.9439 55.6762 68.3519 55.6762 67.6879ZM61.2442 67.6999C61.2442 67.2039 61.1442 66.7719 60.9442 66.4039C60.7442 66.0359 60.4722 65.7559 60.1282 65.5639C59.7922 65.3639 59.4202 65.2639 59.0122 65.2639C58.6042 65.2639 58.2322 65.3599 57.8962 65.5519C57.5602 65.7439 57.2922 66.0239 57.0922 66.3919C56.8922 66.7599 56.7922 67.1919 56.7922 67.6879C56.7922 68.1919 56.8922 68.6319 57.0922 69.0079C57.2922 69.3759 57.5602 69.6599 57.8962 69.8599C58.2322 70.0519 58.6042 70.1479 59.0122 70.1479C59.4202 70.1479 59.7922 70.0519 60.1282 69.8599C60.4722 69.6599 60.7442 69.3759 60.9442 69.0079C61.1442 68.6319 61.2442 68.1959 61.2442 67.6999ZM64.7575 63.3559C64.5495 63.3559 64.3735 63.2839 64.2295 63.1399C64.0855 62.9959 64.0135 62.8199 64.0135 62.6119C64.0135 62.4039 64.0855 62.2279 64.2295 62.0839C64.3735 61.9399 64.5495 61.8679 64.7575 61.8679C64.9575 61.8679 65.1255 61.9399 65.2615 62.0839C65.4055 62.2279 65.4775 62.4039 65.4775 62.6119C65.4775 62.8199 65.4055 62.9959 65.2615 63.1399C65.1255 63.2839 64.9575 63.3559 64.7575 63.3559ZM65.2855 64.4239V70.9999H64.1935V64.4239H65.2855ZM70.3507 64.3039C71.1507 64.3039 71.7987 64.5479 72.2947 65.0359C72.7907 65.5159 73.0387 66.2119 73.0387 67.1239V70.9999H71.9587V67.2799C71.9587 66.6239 71.7947 66.1239 71.4667 65.7799C71.1387 65.4279 70.6907 65.2519 70.1227 65.2519C69.5467 65.2519 69.0867 65.4319 68.7427 65.7919C68.4067 66.1519 68.2387 66.6759 68.2387 67.3639V70.9999H67.1467V64.4239H68.2387V65.3599C68.4547 65.0239 68.7467 64.7639 69.1147 64.5799C69.4907 64.3959 69.9027 64.3039 70.3507 64.3039ZM77.5344 64.3159C78.1024 64.3159 78.5984 64.4399 79.0224 64.6879C79.4544 64.9359 79.7744 65.2479 79.9824 65.6239V64.4239H81.0864V71.1439C81.0864 71.7439 80.9584 72.2759 80.7024 72.7399C80.4464 73.2119 80.0784 73.5799 79.5984 73.8439C79.1264 74.1079 78.5744 74.2399 77.9424 74.2399C77.0784 74.2399 76.3584 74.0359 75.7824 73.6279C75.2064 73.2199 74.8664 72.6639 74.7624 71.9599H75.8424C75.9624 72.3599 76.2104 72.6799 76.5864 72.9199C76.9624 73.1679 77.4144 73.2919 77.9424 73.2919C78.5424 73.2919 79.0304 73.1039 79.4064 72.7279C79.7904 72.3519 79.9824 71.8239 79.9824 71.1439V69.7639C79.7664 70.1479 79.4464 70.4679 79.0224 70.7239C78.5984 70.9799 78.1024 71.1079 77.5344 71.1079C76.9504 71.1079 76.4184 70.9639 75.9384 70.6759C75.4664 70.3879 75.0944 69.9839 74.8224 69.4639C74.5504 68.9439 74.4144 68.3519 74.4144 67.6879C74.4144 67.0159 74.5504 66.4279 74.8224 65.9239C75.0944 65.4119 75.4664 65.0159 75.9384 64.7359C76.4184 64.4559 76.9504 64.3159 77.5344 64.3159ZM79.9824 67.6999C79.9824 67.2039 79.8824 66.7719 79.6824 66.4039C79.4824 66.0359 79.2104 65.7559 78.8664 65.5639C78.5304 65.3639 78.1584 65.2639 77.7504 65.2639C77.3424 65.2639 76.9704 65.3599 76.6344 65.5519C76.2984 65.7439 76.0304 66.0239 75.8304 66.3919C75.6304 66.7599 75.5304 67.1919 75.5304 67.6879C75.5304 68.1919 75.6304 68.6319 75.8304 69.0079C76.0304 69.3759 76.2984 69.6599 76.6344 69.8599C76.9704 70.0519 77.3424 70.1479 77.7504 70.1479C78.1584 70.1479 78.5304 70.0519 78.8664 69.8599C79.2104 69.6599 79.4824 69.3759 79.6824 69.0079C79.8824 68.6319 79.9824 68.1959 79.9824 67.6999Z" fill="#707070"/>
<defs>
<clipPath id="clip0_293_2778">
<rect width="48" height="48" fill="white" transform="translate(24 6.99989)"/>
</clipPath>
</defs>
</svg>
