<svg width="96" height="84" viewBox="0 0 96 84" fill="none" xmlns="http://www.w3.org/2000/svg">
<rect x="0.5" y="0.5" width="95" height="83" rx="7.5" fill="#EBEBEB" fill-opacity="0.2"/>
<rect x="0.5" y="0.5" width="95" height="83" rx="7.5" stroke="#E9E9E9"/>
<g clip-path="url(#clip0_80_113)">
<path d="M32.631 27.1463L24.1147 40.7125C24.009 40.8809 23.9745 41.0845 24.0189 41.2784C24.0633 41.4723 24.1828 41.6406 24.3513 41.7463C24.5197 41.852 24.7233 41.8865 24.9172 41.8422C25.1111 41.7978 25.2794 41.6782 25.3851 41.5098L33.9047 27.9381C34.1071 27.612 34.389 27.3425 34.724 27.1551C35.059 26.9677 35.4361 26.8684 35.8199 26.8666H41.9999V25.3672H35.8199C35.1813 25.3697 34.5537 25.5342 33.9959 25.8453C33.4382 26.1565 32.9685 26.6041 32.631 27.1463ZM55.2181 26.8666H60.1799C60.5648 26.8687 60.9428 26.9686 61.2785 27.157C61.6141 27.3454 61.8963 27.6161 62.0985 27.9436L70.6148 41.5098C70.7205 41.6782 70.8888 41.7978 71.0827 41.8422C71.2766 41.8865 71.4801 41.852 71.6486 41.7463C71.8171 41.6406 71.9366 41.4723 71.981 41.2784C72.0254 41.0845 71.9909 40.8809 71.8851 40.7125L63.3722 27.1518C63.0348 26.6083 62.5649 26.1594 62.0065 25.8472C61.4482 25.5351 60.8196 25.3699 60.1799 25.3672H56.2139C56.16 25.6722 56.0438 25.9628 55.8724 26.2208C55.7011 26.4788 55.4783 26.6986 55.2181 26.8666Z" fill="#707070"/>
<path d="M71.8889 46.716L60.8174 28.7229C60.7503 28.6138 60.6563 28.5237 60.5444 28.4612C60.4326 28.3987 60.3066 28.3659 60.1785 28.366H53.25V29.8654H59.7594L69.9082 46.3591H26.0918L36.2406 29.8654H42V28.366H35.8215C35.6934 28.366 35.5674 28.3987 35.4556 28.4612C35.3437 28.5237 35.2498 28.6138 35.1826 28.7229L24.1111 46.716C24.0404 46.8349 24.0021 46.9704 24 47.1088V52.7503C24 52.9491 24.0791 53.1398 24.2197 53.2804C24.3604 53.421 24.5511 53.5 24.75 53.5H71.25C71.4489 53.5 71.6396 53.421 71.7803 53.2804C71.9209 53.1398 72 52.9491 72 52.7503C72 52.7503 72 47.1088 71.9999 47.0996C71.9969 46.9642 71.9586 46.832 71.8889 46.716ZM70.5 52.0006H25.5V47.8585H70.5V52.0006Z" fill="#707070"/>
<path d="M59.9999 33.9887C59.2241 33.9724 58.4533 34.1162 57.7356 34.4112C56.6183 34.8475 55.3778 34.8475 54.2605 34.4112C52.8039 33.8479 51.1897 33.8479 49.7332 34.4112C48.6167 34.8475 47.3768 34.8475 46.2602 34.4112C45.5428 34.1162 44.7723 33.9724 43.9969 33.9887C43.2216 33.9724 42.4512 34.1162 41.734 34.4112C41.1852 34.6426 40.5933 34.7542 39.9978 34.7384C39.4027 34.7541 38.811 34.6427 38.2624 34.4115C37.5454 34.1163 36.7751 33.9723 35.9999 33.9887C35.9013 33.9885 35.8036 34.0077 35.7125 34.0453C35.6213 34.0829 35.5385 34.1381 35.4687 34.2077C35.3989 34.2774 35.3435 34.3601 35.3058 34.4511C35.268 34.5422 35.2485 34.6398 35.2485 34.7384C35.2485 34.837 35.268 34.9347 35.3058 35.0257C35.3435 35.1168 35.3989 35.1995 35.4687 35.2692C35.5385 35.3388 35.6213 35.394 35.7125 35.4316C35.8036 35.4691 35.9013 35.4884 35.9999 35.4881C36.5951 35.4724 37.1867 35.5839 37.7354 35.815C38.4524 36.1103 39.2226 36.2543 39.9978 36.2378C40.7732 36.2541 41.5436 36.1103 42.2608 35.8154C42.8096 35.5839 43.4015 35.4723 43.9969 35.4881C44.5925 35.4723 45.1846 35.5839 45.7336 35.8154C47.1899 36.3787 48.8039 36.3787 50.2602 35.8154C51.377 35.3791 52.6171 35.3791 53.7339 35.8154C55.1908 36.3787 56.8053 36.3787 58.2622 35.8154C58.8116 35.5839 59.404 35.4723 59.9999 35.4881C60.0985 35.4884 60.1962 35.4691 60.2873 35.4316C60.3785 35.394 60.4613 35.3388 60.5311 35.2692C60.6009 35.1995 60.6563 35.1168 60.6941 35.0257C60.7319 34.9347 60.7513 34.837 60.7513 34.7384C60.7513 34.6398 60.7319 34.5422 60.6941 34.4511C60.6563 34.3601 60.6009 34.2774 60.5311 34.2077C60.4613 34.1381 60.3785 34.0829 60.2873 34.0453C60.1962 34.0077 60.0985 33.9885 59.9999 33.9887ZM61.8749 36.9876C61.0088 36.9707 60.1468 37.1101 59.3301 37.399C57.9786 37.85 56.5171 37.85 55.1656 37.399C53.5138 36.8504 51.729 36.8504 50.0772 37.399C49.4109 37.6402 48.7053 37.7549 47.9968 37.7373C47.288 37.7549 46.582 37.6402 45.9153 37.399C45.0989 37.1101 44.2372 36.9707 43.3714 36.9876C42.5058 36.9707 41.6442 37.1101 40.828 37.399C40.1616 37.6402 39.4561 37.7549 38.7476 37.7373C38.0393 37.755 37.3339 37.6402 36.6677 37.399C35.8517 37.1101 34.9904 36.9707 34.1249 36.9876C34.0263 36.9873 33.9287 37.0066 33.8375 37.0441C33.7463 37.0817 33.6635 37.1369 33.5937 37.2065C33.5239 37.2762 33.4685 37.3589 33.4308 37.45C33.393 37.541 33.3735 37.6387 33.3735 37.7373C33.3735 37.8359 33.393 37.9335 33.4308 38.0246C33.4685 38.1156 33.5239 38.1983 33.5937 38.268C33.6635 38.3376 33.7463 38.3928 33.8375 38.4304C33.9287 38.468 34.0263 38.4872 34.1249 38.487C34.8332 38.4693 35.5386 38.584 36.2048 38.8252C37.0208 39.1141 37.8822 39.2535 38.7476 39.2367C39.6132 39.2535 40.4748 39.1141 41.2909 38.8252C41.9573 38.584 42.6629 38.4693 43.3714 38.487C44.0801 38.4693 44.7859 38.584 45.4526 38.8252C46.269 39.1141 47.1309 39.2535 47.9968 39.2367C48.8624 39.2535 49.724 39.1141 50.5401 38.8252C51.8911 38.3742 53.352 38.3742 54.703 38.8252C56.3552 39.3739 58.1405 39.3739 59.7926 38.8252C60.4597 38.584 61.1658 38.4693 61.8749 38.487C61.9735 38.4872 62.0712 38.468 62.1623 38.4304C62.2535 38.3928 62.3363 38.3376 62.4061 38.268C62.4759 38.1984 62.5313 38.1156 62.5691 38.0246C62.6069 37.9335 62.6263 37.8359 62.6263 37.7373C62.6263 37.6387 62.6069 37.541 62.5691 37.45C62.5313 37.3589 62.4759 37.2762 62.4061 37.2065C62.3363 37.1369 62.2535 37.0817 62.1623 37.0441C62.0712 37.0066 61.9735 36.9873 61.8749 36.9876ZM63.3749 39.9864C62.4343 39.9694 61.4972 40.1062 60.6007 40.3913C59.0656 40.8511 57.4295 40.8511 55.8945 40.3913C54.998 40.1062 54.0609 39.9694 53.1203 39.9864C52.1801 39.9693 51.2435 40.1062 50.3475 40.3916C49.5885 40.6368 48.7939 40.7533 47.9965 40.7361C47.1986 40.7534 46.4036 40.6368 45.6443 40.3913C44.7481 40.1062 43.8113 39.9694 42.871 39.9864C41.9309 39.9693 40.9943 40.1062 40.0984 40.3916C39.3394 40.6368 38.5447 40.7533 37.7473 40.7361C36.9501 40.7533 36.1556 40.6368 35.3968 40.3916C34.5011 40.1062 33.5648 39.9693 32.6249 39.9864C32.5263 39.9862 32.4287 40.0054 32.3375 40.043C32.2463 40.0806 32.1635 40.1358 32.0937 40.2054C32.0239 40.275 31.9685 40.3578 31.9308 40.4488C31.893 40.5399 31.8735 40.6375 31.8735 40.7361C31.8735 40.8347 31.893 40.9323 31.9308 41.0234C31.9685 41.1145 32.0239 41.1972 32.0937 41.2668C32.1635 41.3365 32.2463 41.3917 32.3375 41.4293C32.4287 41.4668 32.5263 41.4861 32.6249 41.4858C33.4221 41.4687 34.2165 41.5851 34.9753 41.8303C35.871 42.1158 36.8074 42.2527 37.7473 42.2355C38.6874 42.2527 39.624 42.1158 40.5199 41.8303C41.2789 41.5851 42.0735 41.4687 42.8709 41.4858C43.6688 41.4686 44.4638 41.5852 45.2231 41.8307C46.1193 42.1158 47.0561 42.2525 47.9964 42.2355C48.9365 42.2525 49.8731 42.1158 50.769 41.8307C51.528 41.5851 52.3228 41.4686 53.1203 41.4858C53.9184 41.4686 54.7137 41.5851 55.4734 41.8307C57.2834 42.3705 59.2117 42.3705 61.0218 41.8307C61.7814 41.5851 62.5768 41.4686 63.3749 41.4858C63.4735 41.4861 63.5712 41.4668 63.6623 41.4293C63.7535 41.3917 63.8363 41.3365 63.9061 41.2668C63.9759 41.1972 64.0313 41.1145 64.0691 41.0234C64.1069 40.9323 64.1263 40.8347 64.1263 40.7361C64.1263 40.6375 64.1069 40.5399 64.0691 40.4488C64.0313 40.3578 63.9759 40.275 63.9061 40.2054C63.8363 40.1358 63.7535 40.0806 63.6623 40.043C63.5712 40.0054 63.4735 39.9862 63.3749 39.9864ZM59.2488 43.735C58.3628 43.7529 57.4793 43.635 56.6289 43.3854C55.6529 43.1011 54.6394 42.9662 53.6229 42.9853C52.6065 42.9662 51.5931 43.1011 50.617 43.3854C49.7668 43.635 48.8834 43.7529 47.9975 43.735C47.1117 43.7529 46.2283 43.635 45.3782 43.3854C44.4023 43.1011 43.3889 42.9662 42.3725 42.9853C41.3564 42.9662 40.3433 43.1011 39.3676 43.3854C38.5179 43.635 37.635 43.7529 36.7496 43.735C35.8638 43.7529 34.9805 43.635 34.1304 43.3854C33.1545 43.1011 32.1412 42.9662 31.1249 42.9853C31.0263 42.985 30.9287 43.0043 30.8375 43.0419C30.7464 43.0794 30.6635 43.1346 30.5937 43.2043C30.5239 43.2739 30.4685 43.3566 30.4308 43.4477C30.393 43.5388 30.3735 43.6364 30.3735 43.735C30.3735 43.8336 30.393 43.9312 30.4308 44.0223C30.4685 44.1133 30.5239 44.196 30.5937 44.2657C30.6635 44.3353 30.7464 44.3905 30.8375 44.4281C30.9287 44.4657 31.0263 44.4849 31.1249 44.4847C32.0107 44.4668 32.894 44.5847 33.7441 44.8343C34.72 45.1186 35.7333 45.2535 36.7496 45.2344C37.7656 45.2534 38.7787 45.1185 39.7543 44.8343C40.6041 44.5847 41.4871 44.4668 42.3725 44.4847C43.2584 44.4668 44.1417 44.5847 44.9919 44.8343C45.9678 45.1186 46.9812 45.2535 47.9975 45.2344C49.0139 45.2535 50.0274 45.1186 51.0034 44.8343C51.8536 44.5847 52.737 44.4668 53.6229 44.4847C54.5089 44.4668 55.3923 44.5847 56.2426 44.8343C57.2187 45.1186 58.2323 45.2535 59.2488 45.2344C60.2653 45.2535 61.2789 45.1186 62.255 44.8343C63.1054 44.5847 63.9889 44.4668 64.8749 44.4847C64.9735 44.4849 65.0712 44.4657 65.1623 44.4281C65.2535 44.3905 65.3363 44.3353 65.4061 44.2657C65.4759 44.196 65.5313 44.1133 65.5691 44.0223C65.6068 43.9312 65.6263 43.8336 65.6263 43.735C65.6263 43.6364 65.6068 43.5388 65.5691 43.4477C65.5313 43.3566 65.4759 43.2739 65.4061 43.2043C65.3363 43.1346 65.2535 43.0794 65.1623 43.0419C65.0712 43.0043 64.9735 42.985 64.8749 42.9853C63.8584 42.9662 62.8448 43.1011 61.8687 43.3854C61.0184 43.635 60.1348 43.7529 59.2488 43.735ZM48.9863 22.3682C49.0329 22.4483 49.0842 22.5254 49.1249 22.6091C49.1656 22.5254 49.2169 22.4483 49.2635 22.3682H48.9863ZM55.7425 22.3682C56.0107 22.8273 56.1773 23.3386 56.2309 23.8676H69.3749C69.4735 23.8678 69.5712 23.8486 69.6623 23.811C69.7535 23.7734 69.8363 23.7183 69.9061 23.6486C69.9759 23.579 70.0313 23.4963 70.0691 23.4052C70.1069 23.3141 70.1263 23.2165 70.1263 23.1179C70.1263 23.0193 70.1069 22.9217 70.0691 22.8306C70.0313 22.7395 69.9759 22.6568 69.9061 22.5872C69.8363 22.5175 69.7535 22.4624 69.6623 22.4248C69.5712 22.3872 69.4735 22.368 69.3749 22.3682H68.6249V20.1191H69.3749C69.4735 20.1193 69.5712 20.1 69.6623 20.0625C69.7535 20.0249 69.8363 19.9697 69.9061 19.9001C69.9759 19.8304 70.0313 19.7477 70.0691 19.6566C70.1069 19.5656 70.1263 19.4679 70.1263 19.3693C70.1263 19.2707 70.1069 19.1731 70.0691 19.0821C70.0313 18.991 69.9759 18.9083 69.9061 18.8386C69.8363 18.769 69.7535 18.7138 69.6623 18.6762C69.5712 18.6386 69.4735 18.6194 69.3749 18.6196H57.3749C57.2763 18.6194 57.1786 18.6386 57.0875 18.6762C56.9963 18.7138 56.9135 18.769 56.8437 18.8386C56.7739 18.9083 56.7185 18.991 56.6808 19.0821C56.643 19.1731 56.6235 19.2707 56.6235 19.3693C56.6235 19.4679 56.643 19.5656 56.6808 19.6566C56.7185 19.7477 56.7739 19.8304 56.8437 19.9001C56.9135 19.9697 56.9963 20.0249 57.0875 20.0625C57.1786 20.1 57.2763 20.1193 57.3749 20.1191H58.1249V22.3682H55.7425ZM59.6249 20.1191H67.1249V22.3682H59.6249V20.1191Z" fill="#707070"/>
<path d="M47.25 25.7281C47.4489 25.7282 47.6396 25.6492 47.7803 25.5086C47.9209 25.368 48 25.1773 48 24.9784V24.2426C48 23.6459 47.7629 23.0736 47.341 22.6516C46.919 22.2297 46.3467 21.9926 45.75 21.9926C45.1533 21.9926 44.581 22.2297 44.159 22.6516C43.7371 23.0736 43.5 23.6459 43.5 24.2426V31.0793C43.1388 31.1546 42.7872 31.2708 42.4523 31.4256C42.0003 31.6468 41.5012 31.7546 40.9982 31.7397C40.4954 31.7545 39.9964 31.6467 39.5446 31.4256C38.9062 31.1234 38.2061 30.9743 37.5 30.99C37.4014 30.9898 37.3037 31.009 37.2126 31.0466C37.1214 31.0842 37.0386 31.1394 36.9688 31.209C36.899 31.2786 36.8436 31.3614 36.8058 31.4524C36.7681 31.5435 36.7486 31.6411 36.7486 31.7397C36.7486 31.8383 36.7681 31.9359 36.8058 32.027C36.8436 32.1181 36.899 32.2008 36.9688 32.2704C37.0386 32.3401 37.1214 32.3953 37.2126 32.4328C37.3037 32.4704 37.4014 32.4897 37.5 32.4894C38.0028 32.4746 38.5017 32.5824 38.9535 32.8035C39.5919 33.1057 40.2921 33.2549 40.9982 33.2391C41.7045 33.2549 42.4048 33.1057 43.0433 32.8035C43.5003 32.5965 43.9961 32.4894 44.4978 32.4894C44.9994 32.4894 45.4952 32.5965 45.9522 32.8035C46.5958 33.0907 47.2927 33.2391 47.9974 33.2391C48.7022 33.2391 49.3991 33.0907 50.0427 32.8035C50.4998 32.5965 50.9958 32.4894 51.4975 32.4894C51.9993 32.4895 52.4953 32.5967 52.9523 32.8039C53.5963 33.0909 54.2934 33.2391 54.9984 33.2392C55.7034 33.2391 56.4005 33.0909 57.0445 32.8039C57.4969 32.5824 57.9965 32.4745 58.5 32.4894C58.5986 32.4897 58.6963 32.4704 58.7874 32.4328C58.8786 32.3953 58.9614 32.3401 59.0312 32.2704C59.101 32.2008 59.1564 32.1181 59.1942 32.027C59.2319 31.9359 59.2514 31.8383 59.2514 31.7397C59.2514 31.6411 59.2319 31.5435 59.1942 31.4524C59.1564 31.3614 59.101 31.2786 59.0312 31.209C58.9614 31.1394 58.8786 31.0842 58.7874 31.0466C58.6963 31.009 58.5986 30.9898 58.5 30.99C57.7933 30.9742 57.0927 31.1234 56.4538 31.4256C55.9965 31.6327 55.5003 31.7398 54.9983 31.7397C54.4964 31.7397 54.0002 31.6325 53.543 31.4253C52.981 31.1611 52.3707 31.0154 51.75 30.9972V24.2426C51.75 24.0437 51.829 23.8529 51.9697 23.7123C52.1103 23.5716 52.3011 23.4926 52.5 23.4926C52.6989 23.4926 52.8897 23.5716 53.0303 23.7123C53.171 23.8529 53.25 24.0437 53.25 24.2426V24.9784C53.25 25.1773 53.329 25.3681 53.4697 25.5087C53.6103 25.6494 53.8011 25.7284 54 25.7284C54.1989 25.7284 54.3897 25.6494 54.5303 25.5087C54.671 25.3681 54.75 25.1773 54.75 24.9784V24.2426C54.75 23.6459 54.5129 23.0736 54.091 22.6516C53.669 22.2297 53.0967 21.9926 52.5 21.9926C51.9033 21.9926 51.331 22.2297 50.909 22.6516C50.4871 23.0736 50.25 23.6459 50.25 24.2426V27.2415H45V24.2426C45 24.0437 45.079 23.8529 45.2197 23.7123C45.3603 23.5716 45.5511 23.4926 45.75 23.4926C45.9489 23.4926 46.1397 23.5716 46.2803 23.7123C46.421 23.8529 46.5 24.0437 46.5 24.2426V24.9784C46.5 25.1773 46.5791 25.368 46.7197 25.5086C46.8604 25.6492 47.0511 25.7282 47.25 25.7281ZM50.25 28.7409V31.1362C49.9768 31.2118 49.7098 31.3085 49.4517 31.4256C48.9947 31.6327 48.4989 31.7397 47.9972 31.7397C47.4956 31.7397 46.9998 31.6327 46.5428 31.4256C46.0571 31.1977 45.5347 31.0579 45 31.0128V28.7409H50.25ZM71.25 12.2472H41.1978C41.2324 12.5692 41.2498 12.8928 41.25 13.2166C41.2494 13.3952 41.2277 13.5731 41.1854 13.7466H71.25C71.3486 13.7469 71.4463 13.7276 71.5374 13.6901C71.6286 13.6525 71.7114 13.5973 71.7812 13.5277C71.851 13.458 71.9064 13.3753 71.9442 13.2842C71.9819 13.1932 72.0014 13.0955 72.0014 12.9969C72.0014 12.8983 71.9819 12.8007 71.9442 12.7096C71.9064 12.6186 71.851 12.5358 71.7812 12.4662C71.7114 12.3966 71.6286 12.3414 71.5374 12.3038C71.4463 12.2662 71.3486 12.247 71.25 12.2472ZM24.3878 13.8729C24.5053 13.9377 24.6379 13.9698 24.772 13.9658C24.9061 13.9619 25.0366 13.9221 25.1501 13.8506C25.6552 13.5517 26.2464 13.4322 26.8279 13.5112C27.4095 13.5903 27.9473 13.8634 28.3542 14.2862C28.4823 14.4097 28.65 14.4836 28.8275 14.4948C29.0049 14.5061 29.1806 14.454 29.3232 14.3477C29.8678 13.9898 30.4818 13.7508 31.125 13.6464V22.3683H26.625C26.5264 22.3681 26.4287 22.3873 26.3376 22.4249C26.2464 22.4625 26.1636 22.5177 26.0938 22.5873C26.024 22.657 25.9686 22.7397 25.9308 22.8308C25.8931 22.9218 25.8736 23.0194 25.8736 23.118C25.8736 23.2166 25.8931 23.3143 25.9308 23.4053C25.9686 23.4964 26.024 23.5791 26.0938 23.6488C26.1636 23.7184 26.2464 23.7736 26.3376 23.8112C26.4287 23.8487 26.5264 23.868 26.625 23.8678H42.019C42.0726 23.3388 42.2392 22.8274 42.5074 22.3683H32.625V13.6477C33.2832 13.7627 33.9109 14.011 34.4696 14.3774C34.6089 14.4657 34.7732 14.5061 34.9375 14.4923C35.1018 14.4786 35.2572 14.4115 35.3798 14.3013C35.829 13.9206 36.3794 13.679 36.9636 13.6059C37.5479 13.5328 38.1407 13.6315 38.6699 13.8898C38.7842 13.9458 38.9109 13.9719 39.0381 13.9654C39.1652 13.9589 39.2887 13.9202 39.3967 13.8529C39.5048 13.7855 39.5939 13.6918 39.6557 13.5804C39.7175 13.4691 39.75 13.3439 39.75 13.2166C39.7265 11.1505 38.8848 9.17804 37.4094 7.73156C35.934 6.28507 33.9452 5.4826 31.8791 5.50003H31.8709C29.8048 5.4826 27.816 6.28508 26.3406 7.73156C24.8652 9.17804 24.0235 11.1505 24 13.2166C24 13.3507 24.036 13.4823 24.1042 13.5978C24.1724 13.7132 24.2704 13.8083 24.3878 13.8729ZM38.155 12.1433C37.3459 11.9893 36.5098 12.0697 35.7449 12.375C35.8252 10.9452 35.6117 9.10926 34.6711 7.63239C35.5675 8.05469 36.3508 8.68386 36.9565 9.4681C37.5622 10.2523 37.9729 11.1692 38.155 12.1433ZM31.875 7.06806C34.3007 8.24193 34.3419 11.2151 34.2252 12.5583C33.4869 12.2387 32.6914 12.0722 31.8869 12.0689C31.0753 12.073 30.2725 12.2369 29.5243 12.5514C29.4082 11.2042 29.4536 8.23984 31.875 7.06806ZM29.0785 7.6331C28.1574 9.07985 27.9336 10.8713 28.0002 12.2879C27.2395 11.9837 26.4049 11.915 25.6047 12.0909C25.7935 11.1275 26.2063 10.222 26.8098 9.44758C27.4132 8.67318 28.1904 8.05161 29.0785 7.6331Z" fill="#707070"/>
</g>
<path d="M40.602 64.598C40.602 65.41 40.322 66.0867 39.762 66.628C39.2113 67.16 38.3667 67.426 37.228 67.426H35.352V71.5H34.078V61.742H37.228C38.3293 61.742 39.1647 62.008 39.734 62.54C40.3127 63.072 40.602 63.758 40.602 64.598ZM37.228 66.376C37.9373 66.376 38.46 66.222 38.796 65.914C39.132 65.606 39.3 65.1673 39.3 64.598C39.3 63.394 38.6093 62.792 37.228 62.792H35.352V66.376H37.228ZM45.5314 71.626C44.8128 71.626 44.1594 71.4627 43.5714 71.136C42.9928 70.8093 42.5354 70.3473 42.1994 69.75C41.8728 69.1433 41.7094 68.4433 41.7094 67.65C41.7094 66.866 41.8774 66.1753 42.2134 65.578C42.5588 64.9713 43.0254 64.5093 43.6134 64.192C44.2014 63.8653 44.8594 63.702 45.5874 63.702C46.3154 63.702 46.9734 63.8653 47.5614 64.192C48.1494 64.5093 48.6114 64.9667 48.9474 65.564C49.2928 66.1613 49.4654 66.8567 49.4654 67.65C49.4654 68.4433 49.2881 69.1433 48.9334 69.75C48.5881 70.3473 48.1168 70.8093 47.5194 71.136C46.9221 71.4627 46.2594 71.626 45.5314 71.626ZM45.5314 70.506C45.9888 70.506 46.4181 70.3987 46.8194 70.184C47.2208 69.9693 47.5428 69.6473 47.7854 69.218C48.0374 68.7887 48.1634 68.266 48.1634 67.65C48.1634 67.034 48.0421 66.5113 47.7994 66.082C47.5568 65.6527 47.2394 65.3353 46.8474 65.13C46.4554 64.9153 46.0308 64.808 45.5734 64.808C45.1068 64.808 44.6774 64.9153 44.2854 65.13C43.9028 65.3353 43.5948 65.6527 43.3614 66.082C43.1281 66.5113 43.0114 67.034 43.0114 67.65C43.0114 68.2753 43.1234 68.8027 43.3474 69.232C43.5808 69.6613 43.8888 69.9833 44.2714 70.198C44.6541 70.4033 45.0741 70.506 45.5314 70.506ZM54.4865 71.626C53.7678 71.626 53.1145 71.4627 52.5265 71.136C51.9478 70.8093 51.4905 70.3473 51.1545 69.75C50.8278 69.1433 50.6645 68.4433 50.6645 67.65C50.6645 66.866 50.8325 66.1753 51.1685 65.578C51.5138 64.9713 51.9805 64.5093 52.5685 64.192C53.1565 63.8653 53.8145 63.702 54.5425 63.702C55.2705 63.702 55.9285 63.8653 56.5165 64.192C57.1045 64.5093 57.5665 64.9667 57.9025 65.564C58.2478 66.1613 58.4205 66.8567 58.4205 67.65C58.4205 68.4433 58.2432 69.1433 57.8885 69.75C57.5432 70.3473 57.0718 70.8093 56.4745 71.136C55.8772 71.4627 55.2145 71.626 54.4865 71.626ZM54.4865 70.506C54.9438 70.506 55.3732 70.3987 55.7745 70.184C56.1758 69.9693 56.4978 69.6473 56.7405 69.218C56.9925 68.7887 57.1185 68.266 57.1185 67.65C57.1185 67.034 56.9972 66.5113 56.7545 66.082C56.5118 65.6527 56.1945 65.3353 55.8025 65.13C55.4105 64.9153 54.9858 64.808 54.5285 64.808C54.0618 64.808 53.6325 64.9153 53.2405 65.13C52.8578 65.3353 52.5498 65.6527 52.3165 66.082C52.0832 66.5113 51.9665 67.034 51.9665 67.65C51.9665 68.2753 52.0785 68.8027 52.3025 69.232C52.5358 69.6613 52.8438 69.9833 53.2265 70.198C53.6092 70.4033 54.0292 70.506 54.4865 70.506ZM61.3696 61.14V71.5H60.0956V61.14H61.3696Z" fill="#707070"/>
<defs>
<clipPath id="clip0_80_113">
<rect width="48" height="48" fill="white" transform="translate(24 5.5)"/>
</clipPath>
</defs>
</svg>
