<svg width="32" height="21" viewBox="0 0 32 21" fill="none" xmlns="http://www.w3.org/2000/svg">
<path d="M29.2979 1.00195H2.70286C1.75916 1.00195 0.994141 1.76697 0.994141 2.71067V18.6232C0.994141 19.5669 1.75916 20.332 2.70286 20.332H29.2979C30.2416 20.332 31.0066 19.5669 31.0066 18.6232V2.71067C31.0066 1.76697 30.2416 1.00195 29.2979 1.00195Z" fill="#F9F9F9" stroke="black" stroke-width="0.8" stroke-linecap="round" stroke-linejoin="round"/>
<path d="M6.89545 13.1691L6.6272 11.8526C6.61099 11.7679 6.59103 11.6839 6.56738 11.6009C6.5506 11.5395 6.52603 11.4805 6.49426 11.4253C6.47003 11.3829 6.43518 11.3475 6.39314 11.3227C6.34714 11.299 6.29578 11.2875 6.24406 11.2895H6.05415L5.4151 13.1696H3.80371L5.62115 7.82031H7.76239C8.51063 7.82031 9.02197 7.9428 9.29591 8.18778C9.56938 8.43277 9.62256 8.80025 9.45639 9.28974C9.39212 9.48321 9.29983 9.6662 9.18244 9.83288C8.95889 10.1488 8.6588 10.4029 8.31028 10.5712C8.13556 10.6566 7.95372 10.7259 7.76429 10.7782L7.75289 10.8114C7.88412 10.8742 7.99743 10.9691 8.08239 11.0872C8.12559 11.1475 8.16405 11.2173 8.19823 11.2966C8.23194 11.3764 8.2628 11.4694 8.29129 11.5767L8.71241 13.1691H6.89545ZM7.66696 9.51763C7.72773 9.33864 7.72108 9.19668 7.64749 9.09223C7.57343 8.98778 7.4196 8.93556 7.18601 8.93556H6.85367L6.43776 10.1591H6.7288C6.85319 10.1591 6.96714 10.1401 7.07111 10.1011C7.17556 10.0627 7.26672 10.0128 7.34553 9.95205C7.42482 9.89128 7.49176 9.82291 7.54589 9.74694C7.60049 9.67098 7.64084 9.59501 7.66696 9.51763ZM11.4315 13.1691L11.6318 12.5799H11.6171C11.5478 12.6445 11.4666 12.7167 11.374 12.7964C11.276 12.8795 11.1708 12.9537 11.0597 13.0182C10.937 13.0893 10.8071 13.1473 10.6723 13.1914C10.5308 13.2389 10.3756 13.2627 10.2061 13.2627C9.97247 13.2627 9.78825 13.2223 9.65247 13.1411C9.52178 13.0658 9.42165 12.947 9.3695 12.8055C9.31585 12.663 9.29971 12.4931 9.3206 12.2965C9.34646 12.0778 9.39646 11.8627 9.46968 11.6551L10.2531 9.34957H11.8421L11.0991 11.5354C11.0331 11.7296 11.0217 11.872 11.064 11.9627C11.1067 12.0529 11.195 12.0985 11.3294 12.0985C11.4837 12.0985 11.6171 12.0477 11.7301 11.9456C11.8426 11.844 11.9309 11.6997 11.9945 11.5131L12.7295 9.34957H14.3186L13.0205 13.1691H11.4315ZM19.5245 9.58458C19.4321 9.85636 19.2935 10.1101 19.1147 10.3347C18.9317 10.5653 18.7127 10.7649 18.4662 10.9258C18.2146 11.091 17.9335 11.2197 17.6225 11.3118C17.2976 11.4057 16.9608 11.452 16.6226 11.4495H16.1303L15.5463 13.1691H13.9345L15.7524 7.82031H17.9458C18.2962 7.82031 18.5963 7.85117 18.8446 7.91336C19.0934 7.97556 19.2861 8.07717 19.4238 8.21722C19.5615 8.35823 19.6398 8.54008 19.6598 8.76417C19.6792 8.98779 19.6341 9.26126 19.5245 9.58458ZM17.801 9.64059C17.8438 9.51383 17.8599 9.40795 17.8485 9.32344C17.8414 9.24722 17.8088 9.17563 17.7559 9.12025C17.6998 9.06638 17.6303 9.02836 17.5546 9.01009C17.4639 8.98689 17.3705 8.97573 17.2769 8.97687H16.9707L16.522 10.2967H16.8838C17.0134 10.2967 17.1273 10.2811 17.2266 10.2488C17.4126 10.1909 17.5718 10.0685 17.6757 9.90363C17.727 9.82292 17.7688 9.73507 17.801 9.64059ZM20.9213 13.1691L21.1188 12.5875H21.104C20.9127 12.7988 20.7005 12.964 20.4674 13.0837C20.2332 13.2033 19.9736 13.2646 19.7106 13.2627C19.5169 13.2627 19.3578 13.2323 19.2344 13.171C19.119 13.1177 19.0231 13.0297 18.96 12.9194C18.8986 12.8042 18.8687 12.6748 18.8731 12.5443C18.874 12.4019 18.903 12.2481 18.9585 12.0838C19.006 11.9447 19.072 11.8051 19.1565 11.666C19.2478 11.5192 19.3622 11.3882 19.4955 11.2781C19.6544 11.1482 19.8321 11.0432 20.0225 10.9666C20.2333 10.8783 20.4878 10.8157 20.7859 10.7782L21.7754 10.6547C21.7967 10.599 21.8013 10.5383 21.7887 10.48C21.7754 10.4278 21.7464 10.3809 21.7056 10.3456C21.6571 10.3051 21.6002 10.2759 21.5389 10.2602C21.4613 10.239 21.3811 10.2288 21.3006 10.2298C21.1738 10.2298 21.0442 10.2407 20.9113 10.2616C20.7784 10.283 20.6483 10.3105 20.521 10.3456C20.3967 10.3794 20.274 10.4185 20.1531 10.4629C20.0349 10.5066 19.9252 10.5507 19.8226 10.5959L20.174 9.56227C20.2794 9.52239 20.4019 9.48392 20.5429 9.44641C20.6839 9.40938 20.8301 9.3771 20.9825 9.34957C21.1349 9.32203 21.2864 9.29971 21.4364 9.28261C21.5743 9.26595 21.713 9.25724 21.8518 9.25651C22.1998 9.25651 22.479 9.29448 22.6898 9.37045C22.9001 9.44594 23.0521 9.55894 23.1451 9.70945C23.2382 9.85995 23.2776 10.048 23.2633 10.273C23.2491 10.498 23.1907 10.7611 23.0881 11.0616L22.3722 13.1696L20.9213 13.1691ZM20.9531 11.4946C20.8249 11.5145 20.7133 11.5549 20.6193 11.6157C20.5548 11.6571 20.5011 11.7135 20.4629 11.78C20.4246 11.8465 20.4029 11.9212 20.3995 11.9979C20.399 12.0406 20.4076 12.0786 20.4256 12.1137C20.4436 12.1484 20.4731 12.1764 20.5144 12.1977C20.5666 12.221 20.6235 12.2317 20.6805 12.2291C20.7603 12.2291 20.8396 12.2139 20.9189 12.1825C20.9977 12.1517 21.0718 12.1066 21.142 12.0482C21.2916 11.9193 21.4038 11.7525 21.4668 11.5653L21.5157 11.4201L20.9531 11.4946ZM25.7222 13.2774C25.5707 13.4962 25.4088 13.707 25.2351 13.9098C25.0658 14.1085 24.8763 14.2891 24.6696 14.4487C24.4655 14.6053 24.2442 14.7302 24.0049 14.8237C23.7533 14.9191 23.4859 14.9665 23.2168 14.9633C23.0768 14.9615 22.9371 14.9509 22.7985 14.9315C22.7168 14.9201 22.6356 14.9046 22.5554 14.885C22.478 14.8664 22.4023 14.8415 22.329 14.8104L22.7359 13.613C22.769 13.6453 22.8074 13.6718 22.8493 13.6914C22.8954 13.7137 22.9438 13.7341 22.9951 13.7512C23.0927 13.7845 23.1949 13.8021 23.298 13.8034C23.4338 13.8049 23.5682 13.7757 23.6911 13.718C23.8162 13.6564 23.9243 13.5653 24.0064 13.4526L24.2309 13.1544L23.9275 9.34957H25.6842L25.5209 11.1922C25.5161 11.2491 25.5114 11.3109 25.5052 11.375C25.4938 11.4978 25.4789 11.6204 25.4606 11.7424C25.4516 11.7984 25.4416 11.8464 25.4307 11.8863H25.4454C25.4877 11.7989 25.5422 11.6964 25.6097 11.5782C25.6771 11.4604 25.7512 11.3341 25.8314 11.1998L26.9191 9.34957H28.4635L25.7222 13.2774Z" fill="#004A8C"/>
</svg>
