<svg width="417" height="332" viewBox="0 0 417 332" fill="none" xmlns="http://www.w3.org/2000/svg">
<g clip-path="url(#clip0_426_350)">
<g filter="url(#filter0_di_426_350)">
<path d="M391.316 3.01818H25.6851C15.672 3.01818 7.55469 11.1259 7.55469 21.1273V301.818C7.55469 311.82 15.672 319.927 25.6851 319.927H391.316C401.329 319.927 409.446 311.82 409.446 301.818V21.1273C409.446 11.1259 401.329 3.01818 391.316 3.01818Z" fill="white"/>
<path d="M391.315 3.39545H25.6844C15.8798 3.39545 7.93164 11.3343 7.93164 21.1273V301.818C7.93164 311.611 15.8798 319.55 25.6844 319.55H391.315C401.119 319.55 409.068 311.611 409.068 301.818V21.1273C409.068 11.3343 401.119 3.39545 391.315 3.39545Z" stroke="#EFEFEF"/>
<path d="M49.1027 119.595H30.2168C25.4188 119.595 21.5293 123.48 21.5293 128.273C21.5293 133.065 25.4188 136.95 30.2168 136.95H49.1027C53.9006 136.95 57.7902 133.065 57.7902 128.273C57.7902 123.48 53.9006 119.595 49.1027 119.595Z" fill="#E8FFF4"/>
<path d="M49.1027 119.595H30.2168C25.4188 119.595 21.5293 123.48 21.5293 128.273C21.5293 133.065 25.4188 136.95 30.2168 136.95H49.1027C53.9006 136.95 57.7902 133.065 57.7902 128.273C57.7902 123.48 53.9006 119.595 49.1027 119.595Z" stroke="#8FE7BE"/>
<path d="M30.7237 126.174V132.297H29.7164V126.174L27.015 128.873L26.3027 128.161L30.22 124.249L34.1373 128.161L33.425 128.873L30.7237 126.174Z" fill="#1DBF73"/>
<path d="M36.7363 125.443V124.345H38.9362V132.045H37.7199V125.443H36.7363ZM41.2587 130.408C41.9356 129.823 42.468 129.345 42.8557 128.971C43.2506 128.591 43.5785 128.197 43.8393 127.788C44.1002 127.38 44.2306 126.971 44.2306 126.563C44.2306 126.14 44.1284 125.809 43.9239 125.57C43.7265 125.331 43.4128 125.211 42.9826 125.211C42.5667 125.211 42.2423 125.344 42.0096 125.612C41.7841 125.873 41.6642 126.225 41.6501 126.669H40.4867C40.5078 125.866 40.7476 125.253 41.2059 124.83C41.6712 124.401 42.26 124.186 42.9721 124.186C43.7406 124.186 44.3399 124.397 44.77 124.82C45.2072 125.242 45.4257 125.806 45.4257 126.51C45.4257 127.017 45.2953 127.507 45.0344 127.978C44.7806 128.443 44.4739 128.862 44.1143 129.236C43.7618 129.601 43.3105 130.028 42.7605 130.514L42.2846 130.936H45.6372V131.94H40.4973V131.063L41.2587 130.408ZM46.5061 126.204C46.5061 125.69 46.6541 125.289 46.9503 125C47.2534 124.704 47.6413 124.556 48.1136 124.556C48.586 124.556 48.9703 124.704 49.2664 125C49.5696 125.289 49.7212 125.69 49.7212 126.204C49.7212 126.718 49.5696 127.123 49.2664 127.419C48.9703 127.714 48.586 127.862 48.1136 127.862C47.6413 127.862 47.2534 127.714 46.9503 127.419C46.6541 127.123 46.5061 126.718 46.5061 126.204ZM52.9575 124.693L48.7376 132.045H47.5531L51.773 124.693H52.9575ZM48.1136 125.285C47.6694 125.285 47.4473 125.591 47.4473 126.204C47.4473 126.823 47.6694 127.133 48.1136 127.133C48.3252 127.133 48.4873 127.059 48.6001 126.912C48.72 126.757 48.7799 126.521 48.7799 126.204C48.7799 125.591 48.5578 125.285 48.1136 125.285ZM50.8105 130.524C50.8105 130.01 50.9586 129.609 51.2547 129.32C51.5579 129.024 51.9457 128.876 52.4181 128.876C52.8834 128.876 53.2642 129.024 53.5603 129.32C53.8635 129.609 54.0151 130.01 54.0151 130.524C54.0151 131.038 53.8635 131.443 53.5603 131.739C53.2642 132.035 52.8834 132.183 52.4181 132.183C51.9457 132.183 51.5579 132.035 51.2547 131.739C50.9586 131.443 50.8105 131.038 50.8105 130.524ZM52.4075 129.605C51.9633 129.605 51.7412 129.912 51.7412 130.524C51.7412 131.137 51.9633 131.443 52.4075 131.443C52.8517 131.443 53.0738 131.137 53.0738 130.524C53.0738 129.912 52.8517 129.605 52.4075 129.605Z" fill="#1DBF73"/>
<path d="M29.5781 28.6727C30.0336 28.0772 30.5761 27.5572 31.2223 27.1636H35.2567C38.1372 28.9181 38.9569 33.1829 39.1902 35.468C39.2748 36.2972 38.6066 36.9727 37.7721 36.9727H34.7504" stroke="#5654D4" stroke-width="2" stroke-linecap="round" stroke-linejoin="round"/>
<path d="M36.682 23.6213L35.5056 23.7682L33.4876 23.4323C33.3232 23.4049 33.1553 23.4049 32.9909 23.4323L30.973 23.7682L29.7966 23.6213C29.1238 23.5373 28.6894 24.3126 29.113 24.8414L30.973 27.1636H35.5056L37.3656 24.8414C37.7892 24.3126 37.3548 23.5373 36.682 23.6213Z" stroke="#5654D4" stroke-width="2" stroke-linecap="round" stroke-linejoin="round"/>
<path d="M26.4414 35.4636C26.4414 34.8386 26.9488 34.3318 27.5746 34.3318H30.5963C31.2221 34.3318 31.7294 34.8386 31.7294 35.4636V35.8409C31.7294 36.466 31.2221 36.9727 30.5963 36.9727H27.5746C26.9488 36.9727 26.4414 36.466 26.4414 35.8409V35.4636Z" stroke="#5654D4" stroke-width="2" stroke-linecap="round" stroke-linejoin="round"/>
<path d="M26.4414 32.8227C26.4414 32.1977 26.9488 31.6909 27.5746 31.6909H30.5963C31.2221 31.6909 31.7294 32.1977 31.7294 32.8227V33.2C31.7294 33.8251 31.2221 34.3318 30.5963 34.3318H27.5746C26.9488 34.3318 26.4414 33.8251 26.4414 33.2V32.8227Z" stroke="#5654D4" stroke-width="2" stroke-linecap="round" stroke-linejoin="round"/>
<path d="M50.4172 35.4636V33.8791H53.3181C53.9124 33.8791 54.4059 33.7483 54.7987 33.4867C55.2016 33.2151 55.4988 32.8328 55.6901 32.3398C55.8916 31.8368 55.9923 31.2281 55.9923 30.5138C55.9923 29.9202 55.9319 29.4122 55.811 28.9896C55.6901 28.5571 55.5038 28.1999 55.252 27.9182C55.0002 27.6365 54.6829 27.4302 54.3001 27.2995C53.9275 27.1586 53.4843 27.0882 52.9706 27.0882H50.4172V25.5036H52.9101C54.0886 25.5036 55.0505 25.6998 55.7959 26.0922C56.5413 26.4845 57.0902 27.048 57.4428 27.7824C57.8054 28.5067 57.9867 29.382 57.9867 30.4082C57.9867 31.1325 57.9011 31.7764 57.7298 32.3398C57.5586 32.8931 57.3269 33.3711 57.0348 33.7735C56.7427 34.1658 56.4003 34.4878 56.0074 34.7393C55.6146 34.9908 55.1916 35.1769 54.7383 35.2976C54.2951 35.4083 53.8418 35.4636 53.3785 35.4636H50.4172ZM49.4805 35.4636V25.5036H51.3993V35.4636H49.4805ZM61.484 35.6598C61.0509 35.6598 60.6631 35.5793 60.3206 35.4184C59.9781 35.2473 59.7062 34.9958 59.5047 34.6638C59.3033 34.3318 59.2025 33.9193 59.2025 33.4264C59.2025 33.0139 59.2831 32.6618 59.4443 32.37C59.6055 32.0782 59.8422 31.8418 60.1544 31.6607C60.4667 31.4696 60.8494 31.3136 61.3026 31.1929C61.766 31.0621 62.2998 30.9565 62.9042 30.876C63.2567 30.8156 63.5438 30.7603 63.7654 30.71C63.987 30.6597 64.1481 30.5842 64.2488 30.4836C64.3597 30.3729 64.415 30.2171 64.415 30.0158C64.415 29.6939 64.2992 29.4222 64.0675 29.2009C63.846 28.9796 63.4985 28.8689 63.025 28.8689C62.733 28.8689 62.456 28.9192 62.1941 29.0198C61.9322 29.1204 61.7056 29.2814 61.5142 29.5027C61.3228 29.714 61.1919 29.9957 61.1213 30.3478L59.4141 29.8347C59.5148 29.4323 59.6709 29.0802 59.8824 28.7784C60.094 28.4665 60.3559 28.2049 60.6681 27.9936C60.9804 27.7824 61.3379 27.6264 61.7408 27.5258C62.1538 27.4252 62.597 27.3749 63.0704 27.3749C63.8057 27.3749 64.4101 27.4956 64.8834 27.7371C65.3568 27.9785 65.7094 28.3508 65.941 28.8538C66.1727 29.3468 66.2885 29.9806 66.2885 30.7553V32.2342C66.2885 32.5762 66.2936 32.9334 66.3036 33.3056C66.3238 33.6678 66.344 34.0351 66.3641 34.4073C66.3943 34.7695 66.4245 35.1216 66.4547 35.4636H64.7474C64.7172 35.1719 64.687 34.8651 64.6568 34.5431C64.6266 34.2111 64.6065 33.874 64.5963 33.532H64.3546C64.2237 33.9244 64.0273 34.2815 63.7654 34.6035C63.5035 34.9254 63.1812 35.182 62.7984 35.3731C62.4157 35.5642 61.9776 35.6598 61.484 35.6598ZM62.2243 34.2413C62.4257 34.2413 62.6322 34.206 62.8437 34.1356C63.0553 34.0652 63.2618 33.9596 63.4632 33.8187C63.6647 33.6779 63.851 33.5018 64.0222 33.2905C64.1935 33.0692 64.3345 32.8127 64.4453 32.5209L64.4301 31.2382L64.7928 31.2985C64.6216 31.4394 64.41 31.55 64.1582 31.6305C63.9164 31.7111 63.6546 31.7764 63.3725 31.8267C63.1006 31.8669 62.8236 31.9122 62.5416 31.9625C62.2696 32.0129 62.0229 32.0833 61.8012 32.1738C61.5797 32.2543 61.3984 32.3751 61.2573 32.536C61.1264 32.6869 61.0609 32.8982 61.0609 33.1698C61.0609 33.5119 61.1667 33.7785 61.3782 33.9696C61.5998 34.1507 61.8818 34.2413 62.2243 34.2413ZM71.2032 35.6598C70.6694 35.6598 70.1859 35.6045 69.7528 35.4938C69.3297 35.3932 68.9621 35.2423 68.6499 35.0411C68.3477 34.8399 68.1059 34.5984 67.9246 34.3167C67.7534 34.0351 67.6527 33.7131 67.6225 33.3509L69.1182 32.8378C69.1484 33.0994 69.2491 33.3409 69.4204 33.5622C69.6017 33.7735 69.8485 33.9395 70.1607 34.0602C70.4831 34.1709 70.8708 34.2262 71.3241 34.2262C71.8277 34.2262 72.2155 34.1507 72.4875 33.9998C72.7695 33.8389 72.9105 33.6125 72.9105 33.3207C72.9105 33.1095 72.8299 32.9435 72.6688 32.8227C72.5177 32.692 72.3011 32.5863 72.0191 32.5058C71.7371 32.4153 71.3946 32.3298 70.9917 32.2493C70.6089 32.1688 70.2262 32.0782 69.8434 31.9776C69.4708 31.8669 69.1233 31.7261 68.8009 31.5551C68.4887 31.374 68.2369 31.1426 68.0455 30.8609C67.8542 30.5691 67.7584 30.2069 67.7584 29.7744C67.7584 29.2915 67.8844 28.874 68.1362 28.5218C68.3981 28.1596 68.7758 27.878 69.2693 27.6767C69.7628 27.4755 70.3521 27.3749 71.037 27.3749C71.6918 27.3749 72.2558 27.4655 72.7292 27.6465C73.2127 27.8276 73.6004 28.0892 73.8926 28.4313C74.1947 28.7733 74.3861 29.1858 74.4667 29.6687L72.8803 30.1365C72.8601 29.8549 72.7695 29.6134 72.6083 29.4122C72.4472 29.2109 72.2306 29.06 71.9587 28.9595C71.6967 28.8589 71.3845 28.8085 71.0219 28.8085C70.5586 28.8085 70.196 28.8891 69.9341 29.05C69.6722 29.2109 69.5413 29.4273 69.5413 29.6989C69.5413 29.9202 69.6219 30.0963 69.783 30.2271C69.9543 30.3579 70.1859 30.4635 70.478 30.544C70.7701 30.6245 71.1126 30.71 71.5054 30.8005C71.8982 30.8709 72.281 30.9615 72.6537 31.0722C73.0364 31.1728 73.3789 31.3086 73.681 31.4796C73.9832 31.6507 74.225 31.8771 74.4063 32.1587C74.5876 32.4304 74.6782 32.7825 74.6782 33.2151C74.6782 33.7382 74.5372 34.186 74.2552 34.5582C73.9832 34.9204 73.5853 35.1971 73.0616 35.3882C72.5479 35.5693 71.9284 35.6598 71.2032 35.6598ZM76.0846 35.4636V30.6496V24.7793H78.0185V27.1938C78.0185 27.4051 78.0087 27.6264 77.9883 27.8578C77.9785 28.0892 77.9581 28.3256 77.9279 28.5671C77.8977 28.8085 77.8622 29.05 77.8221 29.2915C77.7919 29.5329 77.7564 29.7744 77.7164 30.0158H78.0034C78.1447 29.4524 78.326 28.9745 78.5473 28.5822C78.7687 28.1898 79.0557 27.8931 79.4085 27.6918C79.7613 27.4805 80.1942 27.3749 80.7079 27.3749C81.6144 27.3749 82.289 27.6969 82.7324 28.3407C83.1857 28.9745 83.4123 29.9353 83.4123 31.2231V35.4636H81.4935V31.4796C81.4935 30.6245 81.3674 29.9957 81.1158 29.5933C80.8643 29.1909 80.4865 28.9896 79.9827 28.9896C79.5596 28.9896 79.2068 29.1204 78.925 29.382C78.6433 29.6335 78.4265 29.9756 78.2754 30.4082C78.1243 30.8408 78.0336 31.3388 78.0034 31.9022V35.4636H76.0846ZM89.7467 35.6598C89.2534 35.6598 88.8205 35.5642 88.4473 35.3731C88.0847 35.1719 87.7878 34.8902 87.5559 34.528C87.3345 34.1558 87.1736 33.7181 87.0724 33.2151H86.8156L86.8307 35.4636H85.214V31.6305V24.7793H87.1329V27.2844C87.1329 27.5359 87.1177 27.8025 87.0875 28.0842C87.0573 28.3659 87.0173 28.6576 86.9667 28.9595C86.9168 29.2613 86.8609 29.5681 86.8005 29.88H87.1026C87.2341 29.3871 87.4048 28.9544 87.6163 28.5822C87.8384 28.21 88.1255 27.9182 88.4775 27.7069C88.8401 27.4956 89.2738 27.39 89.7769 27.39C90.4318 27.39 90.9961 27.5611 91.469 27.9031C91.9427 28.2451 92.3106 28.728 92.572 29.3518C92.8341 29.9655 92.9648 30.7 92.9648 31.5551C92.9648 32.38 92.8341 33.1044 92.572 33.7282C92.3204 34.3419 91.9525 34.8198 91.469 35.1618C90.9961 35.4938 90.422 35.6598 89.7467 35.6598ZM89.1423 34.0904C89.5155 34.0904 89.8373 33.9847 90.1093 33.7735C90.3918 33.5622 90.6078 33.2654 90.7589 32.8831C90.91 32.5008 90.9856 32.0531 90.9856 31.54C90.9856 31.0269 90.91 30.5792 90.7589 30.1969C90.6184 29.8146 90.4114 29.5128 90.1395 29.2915C89.8781 29.0701 89.5502 28.9595 89.1574 28.9595C88.896 28.9595 88.6543 29.0148 88.4322 29.1255C88.2207 29.226 88.0348 29.3669 87.8732 29.548C87.7123 29.7191 87.571 29.9102 87.4501 30.1215C87.3398 30.3327 87.259 30.554 87.2084 30.7855C87.1585 31.0068 87.1329 31.218 87.1329 31.4193V31.6607C87.1329 31.9223 87.1736 32.194 87.2537 32.4756C87.3345 32.7573 87.4607 33.0189 87.6314 33.2604C87.8029 33.5018 88.0144 33.7031 88.266 33.864C88.5183 34.0149 88.8099 34.0904 89.1423 34.0904ZM98.0119 35.6598C97.236 35.6598 96.5516 35.5039 95.9571 35.192C95.3626 34.87 94.8942 34.4022 94.552 33.7885C94.2196 33.1648 94.0534 32.4002 94.0534 31.4947C94.0534 30.5691 94.2249 29.8045 94.5671 29.2009C94.9199 28.5872 95.3928 28.1295 95.9873 27.8276C96.5818 27.5258 97.2511 27.3749 97.9968 27.3749C98.762 27.3749 99.4419 27.5309 100.036 27.8427C100.631 28.1546 101.099 28.6224 101.442 29.2462C101.784 29.8599 101.955 30.6245 101.955 31.54C101.955 32.4656 101.784 33.2352 101.442 33.8489C101.099 34.4626 100.626 34.9204 100.021 35.2222C99.4268 35.514 98.7575 35.6598 98.0119 35.6598ZM98.0723 34.2111C98.4953 34.2111 98.8527 34.1155 99.145 33.9244C99.4374 33.7231 99.6587 33.4264 99.8098 33.034C99.9609 32.6416 100.036 32.1738 100.036 31.6305C100.036 31.0571 99.9556 30.5691 99.7947 30.1667C99.6338 29.7542 99.3966 29.4373 99.0846 29.216C98.7824 28.9947 98.4047 28.884 97.9514 28.884C97.5382 28.884 97.1809 28.9846 96.8787 29.1858C96.5864 29.3769 96.3597 29.6687 96.1988 30.0611C96.0477 30.4434 95.9722 30.9112 95.9722 31.4645C95.9722 32.3499 96.1588 33.0289 96.5312 33.5018C96.9036 33.9747 97.4173 34.2111 98.0723 34.2111ZM105.287 35.6598C104.855 35.6598 104.466 35.5793 104.124 35.4184C103.782 35.2473 103.51 34.9958 103.308 34.6638C103.107 34.3318 103.006 33.9193 103.006 33.4264C103.006 33.0139 103.087 32.6618 103.248 32.37C103.409 32.0782 103.646 31.8418 103.958 31.6607C104.27 31.4696 104.653 31.3136 105.106 31.1929C105.569 31.0621 106.103 30.9565 106.708 30.876C107.06 30.8156 107.348 30.7603 107.569 30.71C107.79 30.6597 107.952 30.5842 108.052 30.4836C108.163 30.3729 108.219 30.2171 108.219 30.0158C108.219 29.6939 108.103 29.4222 107.871 29.2009C107.65 28.9796 107.302 28.8689 106.829 28.8689C106.536 28.8689 106.26 28.9192 105.998 29.0198C105.735 29.1204 105.509 29.2814 105.318 29.5027C105.127 29.714 104.995 29.9957 104.925 30.3478L103.218 29.8347C103.318 29.4323 103.474 29.0802 103.686 28.7784C103.897 28.4665 104.16 28.2049 104.472 27.9936C104.784 27.7824 105.142 27.6264 105.544 27.5258C105.958 27.4252 106.4 27.3749 106.874 27.3749C107.609 27.3749 108.213 27.4956 108.687 27.7371C109.161 27.9785 109.513 28.3508 109.745 28.8538C109.976 29.3468 110.092 29.9806 110.092 30.7553V32.2342C110.092 32.5762 110.097 32.9334 110.107 33.3056C110.128 33.6678 110.147 34.0351 110.168 34.4073C110.198 34.7695 110.228 35.1216 110.258 35.4636H108.551C108.521 35.1719 108.491 34.8651 108.46 34.5431C108.43 34.2111 108.41 33.874 108.4 33.532H108.158C108.027 33.9244 107.831 34.2815 107.569 34.6035C107.307 34.9254 106.985 35.182 106.602 35.3731C106.219 35.5642 105.781 35.6598 105.287 35.6598ZM106.028 34.2413C106.229 34.2413 106.436 34.206 106.647 34.1356C106.859 34.0652 107.065 33.9596 107.267 33.8187C107.468 33.6779 107.654 33.5018 107.826 33.2905C107.997 33.0692 108.138 32.8127 108.249 32.5209L108.234 31.2382L108.596 31.2985C108.425 31.4394 108.213 31.55 107.962 31.6305C107.72 31.7111 107.458 31.7764 107.176 31.8267C106.904 31.8669 106.627 31.9122 106.345 31.9625C106.073 32.0129 105.826 32.0833 105.605 32.1738C105.383 32.2543 105.202 32.3751 105.061 32.536C104.93 32.6869 104.864 32.8982 104.864 33.1698C104.864 33.5119 104.97 33.7785 105.182 33.9696C105.403 34.1507 105.686 34.2413 106.028 34.2413ZM111.924 35.4636V31.4947V27.5711H113.556L113.51 30.3327H113.782C113.863 29.6788 113.999 29.1355 114.19 28.7029C114.382 28.2703 114.644 27.9433 114.976 27.722C115.319 27.5007 115.737 27.39 116.23 27.39C116.331 27.39 116.441 27.4 116.562 27.4202C116.683 27.4302 116.819 27.4554 116.97 27.4956L116.88 29.5178C116.729 29.4474 116.568 29.3971 116.396 29.3669C116.225 29.3367 116.069 29.3216 115.928 29.3216C115.535 29.3216 115.198 29.4273 114.915 29.6385C114.634 29.8398 114.402 30.1315 114.22 30.5138C114.05 30.886 113.924 31.3287 113.843 31.8418V35.4636H111.924ZM120.869 35.6598C120.215 35.6598 119.641 35.4938 119.147 35.1618C118.663 34.8198 118.291 34.3369 118.029 33.7131C117.767 33.0893 117.636 32.3549 117.636 31.5098C117.636 30.7049 117.757 29.9957 117.998 29.382C118.24 28.7582 118.593 28.2703 119.056 27.9182C119.53 27.566 120.109 27.39 120.794 27.39C121.318 27.39 121.756 27.4956 122.108 27.7069C122.461 27.9081 122.748 28.1949 122.969 28.5671C123.201 28.9393 123.377 29.3769 123.498 29.88H123.8C123.74 29.5681 123.685 29.2562 123.634 28.9444C123.584 28.6224 123.543 28.3156 123.513 28.0238C123.483 27.732 123.468 27.4755 123.468 27.2542V24.7793H125.387V31.6456V35.4636H123.755L123.785 33.2151H123.513C123.392 33.7382 123.216 34.186 122.984 34.5582C122.763 34.9204 122.476 35.1971 122.123 35.3882C121.771 35.5693 121.353 35.6598 120.869 35.6598ZM121.458 34.0904C121.801 34.0904 122.098 34.0149 122.35 33.864C122.602 33.7031 122.808 33.5018 122.969 33.2604C123.141 33.0189 123.267 32.7573 123.347 32.4756C123.428 32.194 123.468 31.9223 123.468 31.6607V31.4193C123.468 31.218 123.438 31.0068 123.377 30.7855C123.327 30.5641 123.246 30.3478 123.135 30.1365C123.035 29.9152 122.904 29.7191 122.743 29.548C122.582 29.3669 122.391 29.226 122.168 29.1255C121.957 29.0148 121.72 28.9595 121.458 28.9595C121.065 28.9595 120.733 29.0701 120.461 29.2915C120.189 29.5128 119.983 29.8196 119.842 30.212C119.701 30.5943 119.63 31.0369 119.63 31.54C119.63 32.0531 119.701 32.5008 119.842 32.8831C119.993 33.2654 120.204 33.5622 120.476 33.7735C120.759 33.9847 121.086 34.0904 121.458 34.0904Z" fill="#080808"/>
<path fill-rule="evenodd" clip-rule="evenodd" d="M138.475 28.1009C138.57 27.9358 138.623 27.7443 138.623 27.5409C138.623 26.9161 138.115 26.4091 137.489 26.4091C136.864 26.4091 136.356 26.9161 136.356 27.5409C136.356 28.1657 136.864 28.6727 137.489 28.6727C137.912 28.6727 138.28 28.4428 138.475 28.1009ZM136.734 29.4273H137.112H137.867C138.285 29.4273 138.623 29.7648 138.623 30.1818V30.9364V33.9545C138.623 34.3716 138.285 34.7091 137.867 34.7091C137.449 34.7091 137.112 34.3716 137.112 33.9545V31.5023C137.112 31.1898 136.858 30.9364 136.545 30.9364C136.232 30.9364 135.979 30.6829 135.979 30.3705V30.1818C135.979 29.9165 136.116 29.6822 136.322 29.5481C136.44 29.4715 136.582 29.4273 136.734 29.4273Z" fill="white"/>
<path d="M67.9902 168.264V273.145" stroke="#E9E9E9"/>
<path d="M161.664 168.264V273.145" stroke="#E9E9E9"/>
<path d="M255.338 168.264V273.145" stroke="#E9E9E9"/>
<path d="M349.012 168.264V273.145" stroke="#E9E9E9"/>
<path d="M50.4668 291.267C50.4668 289.874 50.7004 288.788 51.1678 288.007C51.6432 287.219 52.4571 286.824 53.6094 286.824C54.7617 286.824 55.5715 287.219 56.0389 288.007C56.5143 288.788 56.752 289.874 56.752 291.267C56.752 292.675 56.5143 293.778 56.0389 294.575C55.5715 295.363 54.7617 295.758 53.6094 295.758C52.4571 295.758 51.6432 295.363 51.1678 294.575C50.7004 293.778 50.4668 292.675 50.4668 291.267ZM55.3983 291.267C55.3983 290.615 55.3539 290.063 55.2653 289.613C55.1847 289.162 55.0155 288.796 54.7577 288.514C54.4998 288.224 54.1171 288.079 53.6094 288.079C53.1018 288.079 52.719 288.224 52.4611 288.514C52.2032 288.796 52.03 289.162 51.9414 289.613C51.8608 290.063 51.8205 290.615 51.8205 291.267C51.8205 291.943 51.8608 292.51 51.9414 292.969C52.0219 293.428 52.1912 293.798 52.4491 294.08C52.715 294.361 53.1018 294.502 53.6094 294.502C54.1171 294.502 54.4998 294.361 54.7577 294.08C55.0236 293.798 55.1968 293.428 55.2774 292.969C55.3579 292.51 55.3983 291.943 55.3983 291.267ZM58.1858 289.154C58.2342 288.405 58.5202 287.822 59.044 287.403C59.5758 286.985 60.2527 286.776 61.0746 286.776C61.6386 286.776 62.1262 286.876 62.5371 287.077C62.9481 287.279 63.2583 287.552 63.4678 287.898C63.6773 288.245 63.7821 288.635 63.7821 289.069C63.7821 289.568 63.6491 289.995 63.3832 290.349C63.1173 290.703 62.799 290.941 62.4284 291.061V291.11C62.9037 291.255 63.2744 291.52 63.5404 291.906C63.8063 292.285 63.9392 292.772 63.9392 293.367C63.9392 293.842 63.8304 294.264 63.6129 294.635C63.3953 295.005 63.073 295.299 62.6459 295.516C62.2188 295.725 61.7071 295.83 61.1109 295.83C60.2406 295.83 59.5234 295.609 58.9594 295.166C58.4034 294.716 58.1052 294.071 58.065 293.234H59.3945C59.4267 293.661 59.5919 294.011 59.8901 294.285C60.1882 294.55 60.5911 294.683 61.0988 294.683C61.5903 294.683 61.969 294.55 62.235 294.285C62.5009 294.011 62.6338 293.661 62.6338 293.234C62.6338 292.671 62.4525 292.272 62.0899 292.039C61.7353 291.798 61.1874 291.677 60.4461 291.677H60.1318V290.542H60.4582C61.1109 290.534 61.6064 290.425 61.9449 290.216C62.2913 290.007 62.4646 289.677 62.4646 289.226C62.4646 288.84 62.3397 288.534 62.0899 288.309C61.8401 288.076 61.4856 287.959 61.0263 287.959C60.575 287.959 60.2244 288.076 59.9747 288.309C59.7249 288.534 59.5758 288.816 59.5275 289.154H58.1858ZM70.6807 290.832V291.991H65.713V290.832H70.6807ZM72.457 291.267C72.457 289.874 72.6907 288.788 73.158 288.007C73.6335 287.219 74.4473 286.824 75.5995 286.824C76.7515 286.824 77.5614 287.219 78.029 288.007C78.5042 288.788 78.7421 289.874 78.7421 291.267C78.7421 292.675 78.5042 293.778 78.029 294.575C77.5614 295.363 76.7515 295.758 75.5995 295.758C74.4473 295.758 73.6335 295.363 73.158 294.575C72.6907 293.778 72.457 292.675 72.457 291.267ZM77.3884 291.267C77.3884 290.615 77.3438 290.063 77.2554 289.613C77.1746 289.162 77.0054 288.796 76.7478 288.514C76.4902 288.224 76.1072 288.079 75.5995 288.079C75.0919 288.079 74.7092 288.224 74.4513 288.514C74.1935 288.796 74.0203 289.162 73.9316 289.613C73.8511 290.063 73.8107 290.615 73.8107 291.267C73.8107 291.943 73.8511 292.51 73.9316 292.969C74.0122 293.428 74.1814 293.798 74.4392 294.08C74.7051 294.361 75.0919 294.502 75.5995 294.502C76.1072 294.502 76.4902 294.361 76.7478 294.08C77.0137 293.798 77.1867 293.428 77.2675 292.969C77.3483 292.51 77.3884 291.943 77.3884 291.267ZM85.7843 288.043L82.4241 295.782H81.0341L84.4305 288.188H79.9584V287.017H85.7843V288.043Z" fill="#333333"/>
<path d="M146.662 288.236V286.981H149.176V295.782H147.786V288.236H146.662ZM151.069 291.267C151.069 289.874 151.303 288.788 151.77 288.007C152.246 287.218 153.059 286.824 154.212 286.824C155.364 286.824 156.174 287.218 156.641 288.007C157.117 288.788 157.355 289.874 157.355 291.267C157.355 292.675 157.117 293.778 156.641 294.575C156.174 295.363 155.364 295.758 154.212 295.758C153.059 295.758 152.246 295.363 151.77 294.575C151.303 293.778 151.069 292.675 151.069 291.267ZM156.001 291.267C156.001 290.615 155.956 290.063 155.868 289.613C155.787 289.162 155.618 288.795 155.36 288.514C155.102 288.224 154.72 288.079 154.212 288.079C153.704 288.079 153.321 288.224 153.064 288.514C152.805 288.795 152.632 289.162 152.544 289.613C152.463 290.063 152.423 290.615 152.423 291.267C152.423 291.943 152.463 292.51 152.544 292.969C152.624 293.428 152.793 293.798 153.052 294.08C153.317 294.361 153.704 294.502 154.212 294.502C154.72 294.502 155.102 294.361 155.36 294.08C155.626 293.798 155.799 293.428 155.88 292.969C155.96 292.51 156.001 291.943 156.001 291.267ZM164.107 290.832V291.991H159.139V290.832H164.107ZM165.701 288.236V286.981H168.215V295.782H166.825V288.236H165.701ZM169.939 293.947V292.909L174.001 287.089H175.669V292.752H176.793V293.947H175.669V295.782H174.315V293.947H169.939ZM174.375 288.49L171.523 292.752H174.375V288.49Z" fill="#333333"/>
<path d="M241.25 288.236V286.981H243.764V295.782H242.374V288.236H241.25ZM251.241 288.043L247.881 295.782H246.491L249.888 288.188H245.415V287.017H251.241V288.043ZM257.715 290.832V291.991H252.747V290.832H257.715ZM260.252 293.911C261.026 293.243 261.634 292.695 262.077 292.269C262.528 291.834 262.903 291.384 263.201 290.917C263.5 290.449 263.649 289.983 263.649 289.516C263.649 289.033 263.532 288.655 263.298 288.381C263.072 288.107 262.714 287.971 262.222 287.971C261.747 287.971 261.376 288.124 261.11 288.43C260.853 288.728 260.715 289.13 260.699 289.637H259.37C259.394 288.719 259.668 288.019 260.192 287.536C260.724 287.045 261.397 286.8 262.21 286.8C263.089 286.8 263.773 287.041 264.265 287.524C264.764 288.007 265.014 288.651 265.014 289.456C265.014 290.035 264.866 290.594 264.567 291.134C264.277 291.665 263.927 292.144 263.516 292.57C263.113 292.989 262.597 293.476 261.969 294.031L261.425 294.514H265.256V295.661H259.382V294.659L260.252 293.911ZM266.285 288.236V286.981H268.799V295.782H267.409V288.236H266.285Z" fill="#333333"/>
<path d="M380.739 279.182H317.282C310.607 279.182 305.195 284.587 305.195 291.255C305.195 297.922 310.607 303.327 317.282 303.327H380.739C387.414 303.327 392.826 297.922 392.826 291.255C392.826 284.587 387.414 279.182 380.739 279.182Z" fill="white"/>
<path d="M332.22 293.911C332.994 293.243 333.602 292.695 334.045 292.269C334.496 291.834 334.871 291.384 335.169 290.917C335.467 290.449 335.617 289.983 335.617 289.516C335.617 289.033 335.5 288.655 335.266 288.381C335.04 288.107 334.681 287.971 334.19 287.971C333.714 287.971 333.344 288.124 333.078 288.43C332.82 288.728 332.683 289.13 332.667 289.637H331.338C331.362 288.719 331.636 288.019 332.16 287.536C332.692 287.045 333.364 286.8 334.178 286.8C335.056 286.8 335.741 287.041 336.233 287.524C336.732 288.007 336.982 288.651 336.982 289.456C336.982 290.035 336.833 290.594 336.535 291.134C336.245 291.665 335.895 292.144 335.484 292.57C335.08 292.989 334.565 293.476 333.937 294.031L333.393 294.514H337.224V295.661H331.35V294.659L332.22 293.911ZM338.265 293.947V292.908L342.326 287.089H343.994V292.752H345.119V293.947H343.994V295.782H342.641V293.947H338.265ZM342.701 288.49L339.849 292.752H342.701V288.49ZM351.554 290.832V291.991H346.586V290.832H351.554ZM354.092 293.911C354.866 293.243 355.474 292.695 355.917 292.269C356.368 291.834 356.743 291.384 357.042 290.917C357.339 290.449 357.489 289.983 357.489 289.516C357.489 289.033 357.372 288.655 357.138 288.381C356.912 288.107 356.554 287.971 356.063 287.971C355.587 287.971 355.216 288.124 354.951 288.43C354.692 288.728 354.555 289.13 354.54 289.637H353.21C353.234 288.719 353.508 288.019 354.032 287.536C354.564 287.045 355.236 286.8 356.05 286.8C356.928 286.8 357.613 287.041 358.105 287.524C358.605 288.007 358.855 288.651 358.855 289.456C358.855 290.035 358.705 290.594 358.407 291.134C358.117 291.665 357.767 292.144 357.356 292.57C356.952 292.989 356.437 293.476 355.809 294.031L355.265 294.514H359.096V295.661H353.222V294.659L354.092 293.911ZM361.793 291.182C360.955 290.763 360.536 290.104 360.536 289.202C360.536 288.768 360.645 288.369 360.863 288.007C361.08 287.645 361.406 287.359 361.842 287.15C362.277 286.933 362.809 286.824 363.437 286.824C364.058 286.824 364.585 286.933 365.02 287.15C365.464 287.359 365.794 287.645 366.012 288.007C366.229 288.369 366.338 288.768 366.338 289.202C366.338 289.653 366.222 290.051 365.987 290.397C365.762 290.735 365.46 290.997 365.081 291.182C365.54 291.351 365.903 291.629 366.169 292.015C366.435 292.393 366.568 292.84 366.568 293.355C366.568 293.878 366.435 294.341 366.169 294.744C365.903 295.146 365.533 295.456 365.057 295.673C364.582 295.89 364.041 295.999 363.437 295.999C362.833 295.999 362.293 295.89 361.817 295.673C361.351 295.456 360.983 295.146 360.717 294.744C360.452 294.341 360.319 293.878 360.319 293.355C360.319 292.832 360.452 292.381 360.717 292.003C360.983 291.625 361.342 291.351 361.793 291.182ZM365.02 289.371C365.02 288.921 364.88 288.574 364.597 288.333C364.316 288.091 363.929 287.971 363.437 287.971C362.954 287.971 362.571 288.091 362.289 288.333C362.007 288.574 361.866 288.924 361.866 289.383C361.866 289.785 362.011 290.116 362.301 290.373C362.599 290.623 362.978 290.747 363.437 290.747C363.896 290.747 364.276 290.618 364.573 290.361C364.872 290.104 365.02 289.773 365.02 289.371ZM363.437 291.786C362.905 291.786 362.47 291.919 362.132 292.184C361.802 292.441 361.636 292.816 361.636 293.307C361.636 293.766 361.798 294.14 362.12 294.43C362.442 294.711 362.881 294.852 363.437 294.852C363.986 294.852 364.416 294.707 364.73 294.418C365.053 294.128 365.214 293.757 365.214 293.307C365.214 292.824 365.049 292.45 364.718 292.184C364.396 291.919 363.969 291.786 363.437 291.786Z" fill="#333333"/>
<path d="M24.1738 272.768H392.826" stroke="#E9E9E9"/>
<path d="M68.3668 268.618C68.3668 268.41 68.1976 268.241 67.989 268.241C67.7805 268.241 67.6113 268.41 67.6113 268.618H68.3668ZM67.6113 268.618V273.145H68.3668V268.618H67.6113Z" fill="#080808"/>
<path d="M162.041 268.618C162.041 268.41 161.871 268.241 161.663 268.241C161.454 268.241 161.285 268.41 161.285 268.618H162.041ZM161.285 268.618V273.145H162.041V268.618H161.285Z" fill="#080808"/>
<path d="M255.714 268.618C255.714 268.41 255.545 268.241 255.337 268.241C255.128 268.241 254.959 268.41 254.959 268.618H255.714ZM254.959 268.618V273.145H255.714V268.618H254.959Z" fill="#080808"/>
<path d="M349.388 268.618C349.388 268.41 349.219 268.241 349.011 268.241C348.802 268.241 348.633 268.41 348.633 268.618H349.388ZM348.633 268.618V273.145H349.388V268.618H348.633Z" fill="#080808"/>
<path d="M380.363 175.809L349.012 184.864H255.165L161.577 213.159L67.9903 230.136L26.4414 248.245" stroke="#13D4FF" stroke-width="2"/>
<path d="M67.9892 235.418C70.9097 235.418 73.2773 233.053 73.2773 230.136C73.2773 227.219 70.9097 224.855 67.9892 224.855C65.0687 224.855 62.7012 227.219 62.7012 230.136C62.7012 233.053 65.0687 235.418 67.9892 235.418Z" fill="#13D4FF" stroke="white" stroke-width="2"/>
<path d="M161.663 218.064C164.584 218.064 166.951 215.699 166.951 212.782C166.951 209.865 164.584 207.5 161.663 207.5C158.743 207.5 156.375 209.865 156.375 212.782C156.375 215.699 158.743 218.064 161.663 218.064Z" fill="#13D4FF" stroke="white" stroke-width="2"/>
<path d="M255.337 190.145C258.257 190.145 260.625 187.781 260.625 184.864C260.625 181.947 258.257 179.582 255.337 179.582C252.416 179.582 250.049 181.947 250.049 184.864C250.049 187.781 252.416 190.145 255.337 190.145Z" fill="#13D4FF" stroke="white" stroke-width="2"/>
<path d="M349.011 188.636C351.931 188.636 354.299 186.272 354.299 183.355C354.299 180.437 351.931 178.073 349.011 178.073C346.09 178.073 343.723 180.437 343.723 183.355C343.723 186.272 346.09 188.636 349.011 188.636Z" fill="#13D4FF" stroke="white" stroke-width="2"/>
<path d="M372.807 223.345L349.011 227.118L255.424 211.273L161.836 238.436L67.9895 258.432H24.9297" stroke="#46921E" stroke-width="2"/>
<path d="M67.9892 264.091C70.9097 264.091 73.2773 261.726 73.2773 258.809C73.2773 255.892 70.9097 253.527 67.9892 253.527C65.0687 253.527 62.7012 255.892 62.7012 258.809C62.7012 261.726 65.0687 264.091 67.9892 264.091Z" fill="#46921E" stroke="white" stroke-width="2"/>
<path d="M161.663 242.964C164.584 242.964 166.951 240.599 166.951 237.682C166.951 234.765 164.584 232.4 161.663 232.4C158.743 232.4 156.375 234.765 156.375 237.682C156.375 240.599 158.743 242.964 161.663 242.964Z" fill="#46921E" stroke="white" stroke-width="2"/>
<path d="M255.337 218.064C258.257 218.064 260.625 215.699 260.625 212.782C260.625 209.865 258.257 207.5 255.337 207.5C252.416 207.5 250.049 209.865 250.049 212.782C250.049 215.699 252.416 218.064 255.337 218.064Z" fill="#46921E" stroke="white" stroke-width="2"/>
<path d="M349.011 231.645C351.931 231.645 354.299 229.281 354.299 226.364C354.299 223.447 351.931 221.082 349.011 221.082C346.09 221.082 343.723 223.447 343.723 226.364C343.723 229.281 346.09 231.645 349.011 231.645Z" fill="#46921E" stroke="white" stroke-width="2"/>
<path d="M224.741 131.668C226.619 131.668 228.141 130.148 228.141 128.273C228.141 126.397 226.619 124.877 224.741 124.877C222.864 124.877 221.342 126.397 221.342 128.273C221.342 130.148 222.864 131.668 224.741 131.668Z" fill="#13D4FF"/>
<path d="M317.661 131.668C319.539 131.668 321.061 130.148 321.061 128.273C321.061 126.397 319.539 124.877 317.661 124.877C315.784 124.877 314.262 126.397 314.262 128.273C314.262 130.148 315.784 131.668 317.661 131.668Z" fill="#46921E"/>
</g>
<path d="M31.496 92.448C30.1093 92.448 28.8613 92.3093 27.752 92.032C26.664 91.776 25.7253 91.3813 24.936 90.848C24.168 90.2933 23.56 89.6107 23.112 88.8C22.6853 87.968 22.44 87.0187 22.376 85.952L26.408 84.64C26.4507 85.6 26.6853 86.4 27.112 87.04C27.56 87.68 28.1893 88.1493 29 88.448C29.8107 88.7467 30.7173 88.896 31.72 88.896C32.68 88.896 33.4907 88.7787 34.152 88.544C34.8133 88.3093 35.3147 88 35.656 87.616C35.9973 87.2107 36.168 86.7733 36.168 86.304C36.168 85.7493 35.9547 85.3013 35.528 84.96C35.1013 84.6187 34.5147 84.3307 33.768 84.096C33.0427 83.8613 32.2107 83.6373 31.272 83.424C30.2267 83.1893 29.192 82.9227 28.168 82.624C27.1653 82.3253 26.248 81.9413 25.416 81.472C24.6053 81.0027 23.9547 80.3947 23.464 79.648C22.9947 78.9013 22.76 77.9627 22.76 76.832C22.76 75.5307 23.08 74.4107 23.72 73.472C24.3813 72.512 25.3413 71.7653 26.6 71.232C27.8587 70.6987 29.3733 70.432 31.144 70.432C32.936 70.432 34.4613 70.6987 35.72 71.232C37 71.744 37.992 72.48 38.696 73.44C39.4 74.3787 39.784 75.4987 39.848 76.8L35.688 77.952C35.688 77.2907 35.5813 76.7147 35.368 76.224C35.1547 75.7333 34.856 75.328 34.472 75.008C34.088 74.6667 33.608 74.4107 33.032 74.24C32.4773 74.0693 31.8373 73.984 31.112 73.984C30.28 73.984 29.5547 74.0907 28.936 74.304C28.3387 74.5173 27.88 74.8053 27.56 75.168C27.2613 75.5307 27.112 75.9573 27.112 76.448C27.112 77.024 27.3467 77.504 27.816 77.888C28.3067 78.2507 28.9467 78.5493 29.736 78.784C30.5467 79.0187 31.432 79.2427 32.392 79.456C33.3093 79.648 34.2373 79.8933 35.176 80.192C36.136 80.4693 37.0213 80.8427 37.832 81.312C38.664 81.76 39.3253 82.3787 39.816 83.168C40.328 83.936 40.584 84.9067 40.584 86.08C40.584 87.36 40.2427 88.48 39.56 89.44C38.8773 90.4 37.8533 91.1467 36.488 91.68C35.144 92.192 33.48 92.448 31.496 92.448ZM47.923 92.448C46.9843 92.448 46.1523 92.2667 45.427 91.904C44.7017 91.52 44.1363 90.976 43.731 90.272C43.3257 89.568 43.123 88.6933 43.123 87.648C43.123 86.7307 43.2937 85.9627 43.635 85.344C43.9977 84.7253 44.5203 84.224 45.203 83.84C45.8857 83.456 46.7283 83.136 47.731 82.88C48.7337 82.624 49.875 82.4 51.155 82.208C51.8377 82.1013 52.3923 82.0053 52.819 81.92C53.267 81.8133 53.5977 81.6533 53.811 81.44C54.0243 81.2053 54.131 80.8747 54.131 80.448C54.131 79.8507 53.9177 79.3387 53.491 78.912C53.0643 78.4853 52.3923 78.272 51.475 78.272C50.8563 78.272 50.2803 78.3787 49.747 78.592C49.235 78.8053 48.787 79.1253 48.403 79.552C48.0403 79.9787 47.7737 80.5227 47.603 81.184L43.539 79.936C43.795 79.0613 44.1577 78.304 44.627 77.664C45.1177 77.024 45.7043 76.4907 46.387 76.064C47.0697 75.616 47.8483 75.2853 48.723 75.072C49.5977 74.8587 50.547 74.752 51.571 74.752C53.2137 74.752 54.547 75.0187 55.571 75.552C56.6163 76.064 57.395 76.8747 57.907 77.984C58.419 79.072 58.675 80.48 58.675 82.208V85.088C58.675 85.8347 58.6857 86.592 58.707 87.36C58.7497 88.128 58.7923 88.9067 58.835 89.696C58.899 90.464 58.963 91.232 59.027 92H54.963C54.8777 91.4667 54.7923 90.8587 54.707 90.176C54.643 89.472 54.5897 88.768 54.547 88.064H53.971C53.6723 88.8747 53.2457 89.6107 52.691 90.272C52.1363 90.9333 51.4537 91.4667 50.643 91.872C49.8537 92.256 48.947 92.448 47.923 92.448ZM49.875 89.12C50.2803 89.12 50.6857 89.0453 51.091 88.896C51.5177 88.7467 51.923 88.544 52.307 88.288C52.7123 88.0107 53.075 87.6693 53.395 87.264C53.7363 86.8587 54.0137 86.4 54.227 85.888L54.163 83.2L54.899 83.36C54.515 83.6373 54.067 83.8613 53.555 84.032C53.043 84.1813 52.5097 84.2987 51.955 84.384C51.4217 84.4693 50.8883 84.5653 50.355 84.672C49.8217 84.7787 49.3417 84.9173 48.915 85.088C48.5097 85.2587 48.179 85.4933 47.923 85.792C47.6883 86.0693 47.571 86.464 47.571 86.976C47.571 87.6373 47.7843 88.16 48.211 88.544C48.6377 88.928 49.1923 89.12 49.875 89.12ZM62.7057 92V69.12H67.2498V92H62.7057ZM79.295 92.448C77.9083 92.448 76.671 92.256 75.583 91.872C74.5163 91.488 73.6097 90.9333 72.863 90.208C72.1163 89.4827 71.5403 88.5867 71.135 87.52C70.751 86.4533 70.559 85.248 70.559 83.904C70.559 82.5813 70.7403 81.3653 71.103 80.256C71.487 79.1253 72.0417 78.1547 72.767 77.344C73.4923 76.512 74.3777 75.872 75.423 75.424C76.4683 74.976 77.6523 74.752 78.975 74.752C80.255 74.752 81.3963 74.9653 82.399 75.392C83.4017 75.7973 84.2337 76.416 84.895 77.248C85.5777 78.08 86.0683 79.104 86.367 80.32C86.687 81.5147 86.8043 82.8907 86.719 84.448L73.535 84.576V82.048L84.063 81.952L82.431 83.232C82.5803 82.1013 82.5057 81.1733 82.207 80.448C81.9083 79.7227 81.471 79.1893 80.895 78.848C80.3403 78.5067 79.7217 78.336 79.039 78.336C78.2283 78.336 77.5137 78.5493 76.895 78.976C76.2763 79.4027 75.7963 80.032 75.455 80.864C75.1137 81.6747 74.943 82.656 74.943 83.808C74.943 85.6213 75.3377 86.9547 76.127 87.808C76.9377 88.6613 77.9937 89.088 79.295 89.088C79.8923 89.088 80.3937 89.0133 80.799 88.864C81.2257 88.6933 81.567 88.48 81.823 88.224C82.1003 87.968 82.3137 87.68 82.463 87.36C82.6337 87.04 82.7723 86.72 82.879 86.4L86.879 87.264C86.687 88.0533 86.399 88.768 86.015 89.408C85.6523 90.0267 85.1617 90.5707 84.543 91.04C83.9243 91.488 83.1777 91.8293 82.303 92.064C81.4497 92.32 80.447 92.448 79.295 92.448ZM96.9883 92.448C95.8576 92.448 94.8336 92.3413 93.9163 92.128C92.9989 91.9147 92.2096 91.6053 91.5483 91.2C90.8869 90.7947 90.3536 90.3147 89.9483 89.76C89.5429 89.184 89.2763 88.544 89.1483 87.84L92.6683 86.4C92.7536 86.8693 92.9883 87.3067 93.3723 87.712C93.7563 88.1173 94.2683 88.448 94.9083 88.704C95.5696 88.9387 96.3589 89.056 97.2763 89.056C98.2576 89.056 99.0149 88.9173 99.5483 88.64C100.082 88.3413 100.348 87.9253 100.348 87.392C100.348 86.9867 100.199 86.6667 99.9003 86.432C99.6016 86.1973 99.1643 85.9947 98.5883 85.824C98.0123 85.6533 97.3189 85.4933 96.5083 85.344C95.7189 85.152 94.9083 84.9493 94.0763 84.736C93.2656 84.5227 92.5083 84.224 91.8043 83.84C91.1216 83.456 90.5563 82.9547 90.1083 82.336C89.6816 81.696 89.4683 80.8853 89.4683 79.904C89.4683 78.88 89.7456 77.984 90.3003 77.216C90.8549 76.448 91.6656 75.8507 92.7323 75.424C93.7989 74.976 95.1003 74.752 96.6363 74.752C98.0229 74.752 99.2389 74.944 100.284 75.328C101.33 75.6907 102.183 76.224 102.844 76.928C103.527 77.6107 103.986 78.432 104.22 79.392L100.476 80.64C100.391 80.128 100.178 79.68 99.8363 79.296C99.5163 78.912 99.0789 78.624 98.5243 78.432C97.9909 78.24 97.3616 78.144 96.6363 78.144C95.7189 78.144 95.0043 78.2933 94.4923 78.592C94.0016 78.8907 93.7563 79.2853 93.7563 79.776C93.7563 80.1813 93.9163 80.512 94.2363 80.768C94.5776 81.024 95.0469 81.2373 95.6443 81.408C96.2416 81.5573 96.9456 81.7173 97.7563 81.888C98.6096 82.0587 99.4416 82.2613 100.252 82.496C101.063 82.7093 101.788 82.9973 102.428 83.36C103.09 83.7227 103.612 84.2027 103.996 84.8C104.38 85.3973 104.572 86.1653 104.572 87.104C104.572 88.2133 104.274 89.1733 103.676 89.984C103.079 90.7733 102.215 91.3813 101.084 91.808C99.9536 92.2347 98.5883 92.448 96.9883 92.448Z" fill="black"/>
<path d="M65.448 132L63.228 125.808H64.44L66.132 131.076H66.3L67.98 125.808H69.168L66.96 132H65.448ZM72.6504 132.156C72.2184 132.156 71.8344 132.108 71.4984 132.012C71.1624 131.924 70.8824 131.796 70.6584 131.628C70.4344 131.452 70.2624 131.244 70.1424 131.004C70.0224 130.764 69.9584 130.5 69.9504 130.212L70.8744 129.972C70.8584 130.236 70.9224 130.468 71.0664 130.668C71.2184 130.86 71.4304 131.008 71.7024 131.112C71.9824 131.216 72.3184 131.268 72.7104 131.268C73.1824 131.268 73.5464 131.188 73.8024 131.028C74.0664 130.868 74.1984 130.648 74.1984 130.368C74.1984 130.144 74.1264 129.972 73.9824 129.852C73.8384 129.724 73.6384 129.624 73.3824 129.552C73.1344 129.472 72.8384 129.4 72.4944 129.336C72.2064 129.272 71.9184 129.2 71.6304 129.12C71.3424 129.04 71.0784 128.936 70.8384 128.808C70.6064 128.672 70.4184 128.496 70.2744 128.28C70.1304 128.064 70.0584 127.796 70.0584 127.476C70.0584 127.1 70.1584 126.776 70.3584 126.504C70.5584 126.232 70.8424 126.02 71.2104 125.868C71.5784 125.716 72.0184 125.64 72.5304 125.64C73.0424 125.64 73.4784 125.72 73.8384 125.88C74.1984 126.032 74.4824 126.248 74.6904 126.528C74.8984 126.808 75.0144 127.136 75.0384 127.512L74.0904 127.752C74.0824 127.488 74.0104 127.264 73.8744 127.08C73.7464 126.896 73.5624 126.76 73.3224 126.672C73.0824 126.576 72.8024 126.528 72.4824 126.528C72.0584 126.528 71.7224 126.608 71.4744 126.768C71.2264 126.928 71.1024 127.148 71.1024 127.428C71.1024 127.636 71.1744 127.804 71.3184 127.932C71.4704 128.06 71.6744 128.16 71.9304 128.232C72.1864 128.304 72.4704 128.376 72.7824 128.448C73.1024 128.512 73.4064 128.584 73.6944 128.664C73.9904 128.744 74.2544 128.848 74.4864 128.976C74.7184 129.104 74.9024 129.276 75.0384 129.492C75.1744 129.7 75.2424 129.968 75.2424 130.296C75.2424 130.704 75.1344 131.048 74.9184 131.328C74.7024 131.6 74.3984 131.808 74.0064 131.952C73.6224 132.088 73.1704 132.156 72.6504 132.156ZM79.7449 132V123.6H80.8369V132H79.7449ZM84.1494 132.156C83.8134 132.156 83.5094 132.092 83.2374 131.964C82.9654 131.828 82.7494 131.632 82.5894 131.376C82.4294 131.112 82.3494 130.78 82.3494 130.38C82.3494 130.084 82.4014 129.824 82.5054 129.6C82.6174 129.376 82.7854 129.184 83.0094 129.024C83.2414 128.864 83.5374 128.732 83.8974 128.628C84.2574 128.524 84.6974 128.436 85.2174 128.364C85.5134 128.324 85.7534 128.284 85.9374 128.244C86.1294 128.204 86.2694 128.14 86.3574 128.052C86.4454 127.956 86.4894 127.816 86.4894 127.632C86.4894 127.328 86.3854 127.072 86.1774 126.864C85.9694 126.656 85.6414 126.552 85.1934 126.552C84.9614 126.552 84.7254 126.592 84.4854 126.672C84.2454 126.752 84.0334 126.888 83.8494 127.08C83.6734 127.264 83.5614 127.524 83.5134 127.86L82.5054 127.524C82.5694 127.236 82.6734 126.976 82.8174 126.744C82.9694 126.512 83.1614 126.316 83.3934 126.156C83.6254 125.988 83.8934 125.86 84.1974 125.772C84.5094 125.684 84.8534 125.64 85.2294 125.64C85.7494 125.64 86.1814 125.728 86.5254 125.904C86.8774 126.08 87.1374 126.352 87.3054 126.72C87.4814 127.08 87.5694 127.544 87.5694 128.112V129.492C87.5694 129.74 87.5734 130.012 87.5814 130.308C87.5974 130.596 87.6174 130.888 87.6414 131.184C87.6654 131.472 87.6894 131.744 87.7134 132H86.7054C86.6814 131.744 86.6574 131.488 86.6334 131.232C86.6174 130.976 86.6054 130.72 86.5974 130.464H86.4414C86.3214 130.76 86.1614 131.036 85.9614 131.292C85.7614 131.548 85.5094 131.756 85.2054 131.916C84.9094 132.076 84.5574 132.156 84.1494 132.156ZM84.4734 131.268C84.6494 131.268 84.8254 131.24 85.0014 131.184C85.1854 131.128 85.3654 131.036 85.5414 130.908C85.7254 130.78 85.8974 130.616 86.0574 130.416C86.2254 130.216 86.3734 129.976 86.5014 129.696V128.496L86.8134 128.556C86.6854 128.684 86.5134 128.78 86.2974 128.844C86.0894 128.908 85.8574 128.96 85.6014 129C85.3454 129.04 85.0894 129.084 84.8334 129.132C84.5774 129.172 84.3414 129.236 84.1254 129.324C83.9174 129.404 83.7494 129.52 83.6214 129.672C83.4934 129.824 83.4294 130.032 83.4294 130.296C83.4294 130.616 83.5254 130.86 83.7174 131.028C83.9094 131.188 84.1614 131.268 84.4734 131.268ZM91.6934 132.156C91.2614 132.156 90.8774 132.108 90.5414 132.012C90.2054 131.924 89.9254 131.796 89.7014 131.628C89.4774 131.452 89.3054 131.244 89.1854 131.004C89.0654 130.764 89.0014 130.5 88.9934 130.212L89.9174 129.972C89.9014 130.236 89.9654 130.468 90.1094 130.668C90.2614 130.86 90.4734 131.008 90.7454 131.112C91.0254 131.216 91.3614 131.268 91.7534 131.268C92.2254 131.268 92.5894 131.188 92.8454 131.028C93.1094 130.868 93.2414 130.648 93.2414 130.368C93.2414 130.144 93.1694 129.972 93.0254 129.852C92.8814 129.724 92.6814 129.624 92.4254 129.552C92.1774 129.472 91.8814 129.4 91.5374 129.336C91.2494 129.272 90.9614 129.2 90.6734 129.12C90.3854 129.04 90.1214 128.936 89.8814 128.808C89.6494 128.672 89.4614 128.496 89.3174 128.28C89.1734 128.064 89.1014 127.796 89.1014 127.476C89.1014 127.1 89.2014 126.776 89.4014 126.504C89.6014 126.232 89.8854 126.02 90.2534 125.868C90.6214 125.716 91.0614 125.64 91.5734 125.64C92.0854 125.64 92.5214 125.72 92.8814 125.88C93.2414 126.032 93.5254 126.248 93.7334 126.528C93.9414 126.808 94.0574 127.136 94.0814 127.512L93.1334 127.752C93.1254 127.488 93.0534 127.264 92.9174 127.08C92.7894 126.896 92.6054 126.76 92.3654 126.672C92.1254 126.576 91.8454 126.528 91.5254 126.528C91.1014 126.528 90.7654 126.608 90.5174 126.768C90.2694 126.928 90.1454 127.148 90.1454 127.428C90.1454 127.636 90.2174 127.804 90.3614 127.932C90.5134 128.06 90.7174 128.16 90.9734 128.232C91.2294 128.304 91.5134 128.376 91.8254 128.448C92.1454 128.512 92.4494 128.584 92.7374 128.664C93.0334 128.744 93.2974 128.848 93.5294 128.976C93.7614 129.104 93.9454 129.276 94.0814 129.492C94.2174 129.7 94.2854 129.968 94.2854 130.296C94.2854 130.704 94.1774 131.048 93.9614 131.328C93.7454 131.6 93.4414 131.808 93.0494 131.952C92.6654 132.088 92.2134 132.156 91.6934 132.156ZM97.6847 132.12C97.1087 132.12 96.6807 131.964 96.4007 131.652C96.1207 131.34 95.9807 130.864 95.9807 130.224V126.708H95.0447L95.0567 125.796H95.6447C95.8447 125.796 95.9887 125.76 96.0767 125.688C96.1727 125.616 96.2287 125.496 96.2447 125.328L96.3647 124.392H97.0367V125.796H98.8247V126.72H97.0367V130.2C97.0367 130.52 97.1087 130.752 97.2527 130.896C97.4047 131.032 97.6207 131.1 97.9007 131.1C98.0527 131.1 98.2087 131.08 98.3687 131.04C98.5367 131 98.7007 130.92 98.8607 130.8V131.892C98.6287 131.98 98.4127 132.04 98.2127 132.072C98.0207 132.104 97.8447 132.12 97.6847 132.12ZM103.241 132V128.16V125.796H104.213L104.105 127.764H104.309C104.413 127.292 104.553 126.9 104.729 126.588C104.905 126.268 105.121 126.032 105.377 125.88C105.641 125.72 105.941 125.64 106.277 125.64C106.677 125.64 107.005 125.74 107.261 125.94C107.517 126.132 107.705 126.384 107.825 126.696C107.953 127.008 108.017 127.352 108.017 127.728H108.209C108.297 127.28 108.433 126.9 108.617 126.588C108.801 126.276 109.029 126.04 109.301 125.88C109.573 125.72 109.885 125.64 110.237 125.64C110.557 125.64 110.837 125.704 111.077 125.832C111.317 125.96 111.521 126.152 111.689 126.408C111.857 126.656 111.981 126.964 112.061 127.332C112.141 127.7 112.181 128.124 112.181 128.604V132H111.089V128.748C111.089 128.276 111.045 127.884 110.957 127.572C110.869 127.252 110.737 127.016 110.561 126.864C110.393 126.704 110.177 126.624 109.913 126.624C109.617 126.624 109.349 126.728 109.109 126.936C108.877 127.136 108.685 127.42 108.533 127.788C108.389 128.148 108.293 128.56 108.245 129.024V132H107.177V128.856C107.177 128.36 107.133 127.948 107.045 127.62C106.957 127.292 106.825 127.044 106.649 126.876C106.481 126.708 106.261 126.624 105.989 126.624C105.669 126.624 105.393 126.736 105.161 126.96C104.929 127.176 104.741 127.468 104.597 127.836C104.461 128.204 104.373 128.616 104.333 129.072V132H103.241ZM116.639 132.156C116.047 132.156 115.523 132.028 115.067 131.772C114.619 131.508 114.267 131.132 114.011 130.644C113.763 130.156 113.639 129.564 113.639 128.868C113.639 128.148 113.771 127.552 114.035 127.08C114.307 126.6 114.667 126.24 115.115 126C115.563 125.76 116.063 125.64 116.615 125.64C117.191 125.64 117.703 125.768 118.151 126.024C118.607 126.272 118.967 126.64 119.231 127.128C119.495 127.608 119.627 128.204 119.627 128.916C119.627 129.628 119.495 130.224 119.231 130.704C118.975 131.184 118.619 131.548 118.163 131.796C117.715 132.036 117.207 132.156 116.639 132.156ZM116.687 131.256C117.071 131.256 117.399 131.164 117.671 130.98C117.951 130.788 118.163 130.52 118.307 130.176C118.459 129.832 118.535 129.424 118.535 128.952C118.535 128.464 118.455 128.044 118.295 127.692C118.143 127.332 117.923 127.056 117.635 126.864C117.347 126.664 116.999 126.564 116.591 126.564C116.223 126.564 115.899 126.652 115.619 126.828C115.339 127.004 115.123 127.264 114.971 127.608C114.819 127.944 114.743 128.356 114.743 128.844C114.743 129.596 114.915 130.188 115.259 130.62C115.611 131.044 116.087 131.256 116.687 131.256ZM121.182 132V128.148V125.796H122.166L122.058 127.764H122.262C122.374 127.276 122.522 126.876 122.706 126.564C122.898 126.252 123.138 126.02 123.426 125.868C123.714 125.716 124.05 125.64 124.434 125.64C125.122 125.64 125.642 125.888 125.994 126.384C126.354 126.872 126.534 127.604 126.534 128.58V132H125.43V128.676C125.43 127.972 125.318 127.452 125.094 127.116C124.878 126.78 124.558 126.612 124.134 126.612C123.75 126.612 123.422 126.732 123.15 126.972C122.886 127.212 122.678 127.528 122.526 127.92C122.374 128.312 122.29 128.736 122.274 129.192V132H121.182ZM130.251 132.12C129.675 132.12 129.247 131.964 128.967 131.652C128.687 131.34 128.547 130.864 128.547 130.224V126.708H127.611L127.623 125.796H128.211C128.411 125.796 128.555 125.76 128.643 125.688C128.739 125.616 128.795 125.496 128.811 125.328L128.931 124.392H129.603V125.796H131.391V126.72H129.603V130.2C129.603 130.52 129.675 130.752 129.819 130.896C129.971 131.032 130.187 131.1 130.467 131.1C130.619 131.1 130.775 131.08 130.935 131.04C131.103 131 131.267 130.92 131.427 130.8V131.892C131.195 131.98 130.979 132.04 130.779 132.072C130.587 132.104 130.411 132.12 130.251 132.12ZM132.772 132V128.232V123.6H133.9V125.532C133.9 125.708 133.892 125.888 133.876 126.072C133.868 126.248 133.852 126.428 133.828 126.612C133.812 126.796 133.792 126.984 133.768 127.176C133.744 127.36 133.716 127.548 133.684 127.74H133.888C134.008 127.268 134.16 126.88 134.344 126.576C134.528 126.264 134.756 126.032 135.028 125.88C135.308 125.72 135.64 125.64 136.024 125.64C136.728 125.64 137.252 125.888 137.596 126.384C137.948 126.872 138.124 127.604 138.124 128.58V132H137.02V128.688C137.02 127.968 136.908 127.444 136.684 127.116C136.468 126.78 136.14 126.612 135.7 126.612C135.332 126.612 135.02 126.72 134.764 126.936C134.508 127.152 134.304 127.444 134.152 127.812C134.008 128.18 133.912 128.6 133.864 129.072V132H132.772Z" fill="#333333"/>
<path d="M237.712 133V125.08H238.816V133H237.712ZM235.3 126.04V125.08H241.228V126.04H235.3ZM242.464 133V129.232V124.6H243.592V126.532C243.592 126.708 243.584 126.888 243.568 127.072C243.56 127.248 243.544 127.428 243.52 127.612C243.504 127.796 243.484 127.984 243.46 128.176C243.436 128.36 243.408 128.548 243.376 128.74H243.58C243.7 128.268 243.852 127.88 244.036 127.576C244.22 127.264 244.448 127.032 244.72 126.88C245 126.72 245.332 126.64 245.716 126.64C246.42 126.64 246.944 126.888 247.288 127.384C247.64 127.872 247.816 128.604 247.816 129.58V133H246.712V129.688C246.712 128.968 246.6 128.444 246.376 128.116C246.16 127.78 245.832 127.612 245.392 127.612C245.024 127.612 244.712 127.72 244.456 127.936C244.2 128.152 243.996 128.444 243.844 128.812C243.7 129.18 243.604 129.6 243.556 130.072V133H242.464ZM249.624 133V126.796H250.716V133H249.624ZM250.176 125.716C249.92 125.716 249.728 125.664 249.6 125.56C249.472 125.456 249.408 125.3 249.408 125.092C249.408 124.884 249.472 124.728 249.6 124.624C249.728 124.52 249.916 124.468 250.164 124.468C250.42 124.468 250.612 124.52 250.74 124.624C250.868 124.728 250.932 124.884 250.932 125.092C250.932 125.292 250.868 125.448 250.74 125.56C250.612 125.664 250.424 125.716 250.176 125.716ZM254.916 133.156C254.484 133.156 254.1 133.108 253.764 133.012C253.428 132.924 253.148 132.796 252.924 132.628C252.7 132.452 252.528 132.244 252.408 132.004C252.288 131.764 252.224 131.5 252.216 131.212L253.14 130.972C253.124 131.236 253.188 131.468 253.332 131.668C253.484 131.86 253.696 132.008 253.968 132.112C254.248 132.216 254.584 132.268 254.976 132.268C255.448 132.268 255.812 132.188 256.068 132.028C256.332 131.868 256.464 131.648 256.464 131.368C256.464 131.144 256.392 130.972 256.248 130.852C256.104 130.724 255.904 130.624 255.648 130.552C255.4 130.472 255.104 130.4 254.76 130.336C254.472 130.272 254.184 130.2 253.896 130.12C253.608 130.04 253.344 129.936 253.104 129.808C252.872 129.672 252.684 129.496 252.54 129.28C252.396 129.064 252.324 128.796 252.324 128.476C252.324 128.1 252.424 127.776 252.624 127.504C252.824 127.232 253.108 127.02 253.476 126.868C253.844 126.716 254.284 126.64 254.796 126.64C255.308 126.64 255.744 126.72 256.104 126.88C256.464 127.032 256.748 127.248 256.956 127.528C257.164 127.808 257.28 128.136 257.304 128.512L256.356 128.752C256.348 128.488 256.276 128.264 256.14 128.08C256.012 127.896 255.828 127.76 255.588 127.672C255.348 127.576 255.068 127.528 254.748 127.528C254.324 127.528 253.988 127.608 253.74 127.768C253.492 127.928 253.368 128.148 253.368 128.428C253.368 128.636 253.44 128.804 253.584 128.932C253.736 129.06 253.94 129.16 254.196 129.232C254.452 129.304 254.736 129.376 255.048 129.448C255.368 129.512 255.672 129.584 255.96 129.664C256.256 129.744 256.52 129.848 256.752 129.976C256.984 130.104 257.168 130.276 257.304 130.492C257.44 130.7 257.508 130.968 257.508 131.296C257.508 131.704 257.4 132.048 257.184 132.328C256.968 132.6 256.664 132.808 256.272 132.952C255.888 133.088 255.436 133.156 254.916 133.156ZM262.011 133V129.16V126.796H262.983L262.875 128.764H263.079C263.183 128.292 263.323 127.9 263.499 127.588C263.675 127.268 263.891 127.032 264.146 126.88C264.411 126.72 264.711 126.64 265.047 126.64C265.447 126.64 265.775 126.74 266.031 126.94C266.287 127.132 266.475 127.384 266.595 127.696C266.723 128.008 266.787 128.352 266.787 128.728H266.979C267.067 128.28 267.203 127.9 267.387 127.588C267.571 127.276 267.799 127.04 268.071 126.88C268.343 126.72 268.655 126.64 269.007 126.64C269.327 126.64 269.607 126.704 269.847 126.832C270.087 126.96 270.291 127.152 270.459 127.408C270.627 127.656 270.751 127.964 270.831 128.332C270.911 128.7 270.951 129.124 270.951 129.604V133H269.859V129.748C269.859 129.276 269.815 128.884 269.727 128.572C269.639 128.252 269.507 128.016 269.331 127.864C269.163 127.704 268.947 127.624 268.683 127.624C268.387 127.624 268.119 127.728 267.879 127.936C267.647 128.136 267.455 128.42 267.303 128.788C267.159 129.148 267.063 129.56 267.015 130.024V133H265.947V129.856C265.947 129.36 265.903 128.948 265.815 128.62C265.727 128.292 265.595 128.044 265.419 127.876C265.251 127.708 265.031 127.624 264.759 127.624C264.439 127.624 264.163 127.736 263.931 127.96C263.699 128.176 263.511 128.468 263.367 128.836C263.231 129.204 263.143 129.616 263.103 130.072V133H262.011ZM275.409 133.156C274.817 133.156 274.293 133.028 273.837 132.772C273.389 132.508 273.037 132.132 272.781 131.644C272.533 131.156 272.409 130.564 272.409 129.868C272.409 129.148 272.541 128.552 272.805 128.08C273.077 127.6 273.437 127.24 273.885 127C274.333 126.76 274.833 126.64 275.385 126.64C275.961 126.64 276.473 126.768 276.921 127.024C277.377 127.272 277.737 127.64 278.001 128.128C278.265 128.608 278.397 129.204 278.397 129.916C278.397 130.628 278.265 131.224 278.001 131.704C277.745 132.184 277.389 132.548 276.933 132.796C276.485 133.036 275.977 133.156 275.409 133.156ZM275.457 132.256C275.841 132.256 276.169 132.164 276.441 131.98C276.721 131.788 276.933 131.52 277.077 131.176C277.229 130.832 277.305 130.424 277.305 129.952C277.305 129.464 277.225 129.044 277.065 128.692C276.913 128.332 276.693 128.056 276.405 127.864C276.117 127.664 275.769 127.564 275.361 127.564C274.993 127.564 274.669 127.652 274.389 127.828C274.109 128.004 273.893 128.264 273.741 128.608C273.589 128.944 273.513 129.356 273.513 129.844C273.513 130.596 273.685 131.188 274.029 131.62C274.381 132.044 274.857 132.256 275.457 132.256ZM279.952 133V129.148V126.796H280.936L280.828 128.764H281.032C281.144 128.276 281.292 127.876 281.476 127.564C281.668 127.252 281.908 127.02 282.196 126.868C282.484 126.716 282.82 126.64 283.204 126.64C283.892 126.64 284.412 126.888 284.764 127.384C285.124 127.872 285.304 128.604 285.304 129.58V133H284.2V129.676C284.2 128.972 284.088 128.452 283.864 128.116C283.648 127.78 283.328 127.612 282.904 127.612C282.52 127.612 282.192 127.732 281.92 127.972C281.656 128.212 281.448 128.528 281.296 128.92C281.144 129.312 281.06 129.736 281.044 130.192V133H279.952ZM289.021 133.12C288.445 133.12 288.017 132.964 287.737 132.652C287.457 132.34 287.317 131.864 287.317 131.224V127.708H286.381L286.393 126.796H286.981C287.181 126.796 287.325 126.76 287.413 126.688C287.509 126.616 287.565 126.496 287.581 126.328L287.701 125.392H288.373V126.796H290.161V127.72H288.373V131.2C288.373 131.52 288.445 131.752 288.589 131.896C288.741 132.032 288.957 132.1 289.237 132.1C289.389 132.1 289.545 132.08 289.705 132.04C289.873 132 290.037 131.92 290.197 131.8V132.892C289.965 132.98 289.749 133.04 289.549 133.072C289.357 133.104 289.181 133.12 289.021 133.12ZM291.542 133V129.232V124.6H292.67V126.532C292.67 126.708 292.662 126.888 292.646 127.072C292.638 127.248 292.622 127.428 292.598 127.612C292.582 127.796 292.562 127.984 292.538 128.176C292.514 128.36 292.486 128.548 292.454 128.74H292.658C292.778 128.268 292.93 127.88 293.114 127.576C293.298 127.264 293.526 127.032 293.798 126.88C294.078 126.72 294.41 126.64 294.794 126.64C295.498 126.64 296.022 126.888 296.366 127.384C296.718 127.872 296.894 128.604 296.894 129.58V133H295.79V129.688C295.79 128.968 295.678 128.444 295.454 128.116C295.238 127.78 294.91 127.612 294.47 127.612C294.102 127.612 293.79 127.72 293.534 127.936C293.278 128.152 293.074 128.444 292.922 128.812C292.778 129.18 292.682 129.6 292.634 130.072V133H291.542Z" fill="#707070"/>
<path d="M328.032 133V125.08H329.136V133H328.032ZM328.392 133V132.04H332.832V133H328.392ZM335.47 133.156C335.134 133.156 334.83 133.092 334.558 132.964C334.286 132.828 334.07 132.632 333.91 132.376C333.75 132.112 333.67 131.78 333.67 131.38C333.67 131.084 333.722 130.824 333.826 130.6C333.938 130.376 334.106 130.184 334.33 130.024C334.562 129.864 334.858 129.732 335.218 129.628C335.578 129.524 336.018 129.436 336.538 129.364C336.834 129.324 337.074 129.284 337.258 129.244C337.45 129.204 337.59 129.14 337.678 129.052C337.766 128.956 337.81 128.816 337.81 128.632C337.81 128.328 337.706 128.072 337.498 127.864C337.29 127.656 336.962 127.552 336.514 127.552C336.282 127.552 336.046 127.592 335.806 127.672C335.566 127.752 335.354 127.888 335.17 128.08C334.994 128.264 334.882 128.524 334.834 128.86L333.826 128.524C333.89 128.236 333.994 127.976 334.138 127.744C334.29 127.512 334.482 127.316 334.714 127.156C334.946 126.988 335.214 126.86 335.518 126.772C335.83 126.684 336.174 126.64 336.55 126.64C337.07 126.64 337.502 126.728 337.846 126.904C338.198 127.08 338.458 127.352 338.626 127.72C338.802 128.08 338.89 128.544 338.89 129.112V130.492C338.89 130.74 338.894 131.012 338.902 131.308C338.918 131.596 338.938 131.888 338.962 132.184C338.986 132.472 339.01 132.744 339.034 133H338.026C338.002 132.744 337.978 132.488 337.954 132.232C337.938 131.976 337.926 131.72 337.918 131.464H337.762C337.642 131.76 337.482 132.036 337.282 132.292C337.082 132.548 336.83 132.756 336.526 132.916C336.23 133.076 335.878 133.156 335.47 133.156ZM335.794 132.268C335.97 132.268 336.146 132.24 336.322 132.184C336.506 132.128 336.686 132.036 336.862 131.908C337.046 131.78 337.218 131.616 337.378 131.416C337.546 131.216 337.694 130.976 337.822 130.696V129.496L338.134 129.556C338.006 129.684 337.834 129.78 337.618 129.844C337.41 129.908 337.178 129.96 336.922 130C336.666 130.04 336.41 130.084 336.154 130.132C335.898 130.172 335.662 130.236 335.446 130.324C335.238 130.404 335.07 130.52 334.942 130.672C334.814 130.824 334.75 131.032 334.75 131.296C334.75 131.616 334.846 131.86 335.038 132.028C335.23 132.188 335.482 132.268 335.794 132.268ZM343.014 133.156C342.582 133.156 342.198 133.108 341.862 133.012C341.526 132.924 341.246 132.796 341.022 132.628C340.798 132.452 340.626 132.244 340.506 132.004C340.386 131.764 340.322 131.5 340.314 131.212L341.238 130.972C341.222 131.236 341.286 131.468 341.43 131.668C341.582 131.86 341.794 132.008 342.066 132.112C342.346 132.216 342.682 132.268 343.074 132.268C343.546 132.268 343.91 132.188 344.166 132.028C344.43 131.868 344.562 131.648 344.562 131.368C344.562 131.144 344.49 130.972 344.346 130.852C344.202 130.724 344.002 130.624 343.746 130.552C343.498 130.472 343.202 130.4 342.858 130.336C342.57 130.272 342.282 130.2 341.994 130.12C341.706 130.04 341.442 129.936 341.202 129.808C340.97 129.672 340.782 129.496 340.638 129.28C340.494 129.064 340.422 128.796 340.422 128.476C340.422 128.1 340.522 127.776 340.722 127.504C340.922 127.232 341.206 127.02 341.574 126.868C341.942 126.716 342.382 126.64 342.894 126.64C343.406 126.64 343.842 126.72 344.202 126.88C344.562 127.032 344.846 127.248 345.054 127.528C345.262 127.808 345.378 128.136 345.402 128.512L344.454 128.752C344.446 128.488 344.374 128.264 344.238 128.08C344.11 127.896 343.926 127.76 343.686 127.672C343.446 127.576 343.166 127.528 342.846 127.528C342.422 127.528 342.086 127.608 341.838 127.768C341.59 127.928 341.466 128.148 341.466 128.428C341.466 128.636 341.538 128.804 341.682 128.932C341.834 129.06 342.038 129.16 342.294 129.232C342.55 129.304 342.834 129.376 343.146 129.448C343.466 129.512 343.77 129.584 344.058 129.664C344.354 129.744 344.618 129.848 344.85 129.976C345.082 130.104 345.266 130.276 345.402 130.492C345.538 130.7 345.606 130.968 345.606 131.296C345.606 131.704 345.498 132.048 345.282 132.328C345.066 132.6 344.762 132.808 344.37 132.952C343.986 133.088 343.534 133.156 343.014 133.156ZM349.005 133.12C348.429 133.12 348.001 132.964 347.721 132.652C347.441 132.34 347.301 131.864 347.301 131.224V127.708H346.365L346.377 126.796H346.965C347.165 126.796 347.309 126.76 347.397 126.688C347.493 126.616 347.549 126.496 347.565 126.328L347.685 125.392H348.357V126.796H350.145V127.72H348.357V131.2C348.357 131.52 348.429 131.752 348.573 131.896C348.725 132.032 348.941 132.1 349.221 132.1C349.373 132.1 349.529 132.08 349.689 132.04C349.857 132 350.021 131.92 350.181 131.8V132.892C349.949 132.98 349.733 133.04 349.533 133.072C349.341 133.104 349.165 133.12 349.005 133.12ZM354.561 133V129.16V126.796H355.533L355.425 128.764H355.629C355.733 128.292 355.873 127.9 356.049 127.588C356.225 127.268 356.441 127.032 356.697 126.88C356.961 126.72 357.261 126.64 357.597 126.64C357.997 126.64 358.325 126.74 358.581 126.94C358.837 127.132 359.025 127.384 359.145 127.696C359.273 128.008 359.337 128.352 359.337 128.728H359.529C359.617 128.28 359.753 127.9 359.937 127.588C360.121 127.276 360.349 127.04 360.621 126.88C360.893 126.72 361.205 126.64 361.557 126.64C361.877 126.64 362.157 126.704 362.397 126.832C362.637 126.96 362.841 127.152 363.009 127.408C363.177 127.656 363.301 127.964 363.381 128.332C363.461 128.7 363.501 129.124 363.501 129.604V133H362.409V129.748C362.409 129.276 362.365 128.884 362.277 128.572C362.189 128.252 362.057 128.016 361.881 127.864C361.713 127.704 361.497 127.624 361.233 127.624C360.937 127.624 360.669 127.728 360.429 127.936C360.197 128.136 360.005 128.42 359.853 128.788C359.709 129.148 359.613 129.56 359.565 130.024V133H358.497V129.856C358.497 129.36 358.453 128.948 358.365 128.62C358.277 128.292 358.145 128.044 357.969 127.876C357.801 127.708 357.581 127.624 357.309 127.624C356.989 127.624 356.713 127.736 356.481 127.96C356.249 128.176 356.061 128.468 355.917 128.836C355.781 129.204 355.693 129.616 355.653 130.072V133H354.561ZM367.96 133.156C367.368 133.156 366.844 133.028 366.388 132.772C365.94 132.508 365.588 132.132 365.332 131.644C365.084 131.156 364.96 130.564 364.96 129.868C364.96 129.148 365.092 128.552 365.356 128.08C365.628 127.6 365.988 127.24 366.436 127C366.884 126.76 367.384 126.64 367.936 126.64C368.512 126.64 369.024 126.768 369.472 127.024C369.928 127.272 370.288 127.64 370.552 128.128C370.816 128.608 370.948 129.204 370.948 129.916C370.948 130.628 370.816 131.224 370.552 131.704C370.296 132.184 369.94 132.548 369.484 132.796C369.036 133.036 368.528 133.156 367.96 133.156ZM368.008 132.256C368.392 132.256 368.72 132.164 368.992 131.98C369.272 131.788 369.484 131.52 369.628 131.176C369.78 130.832 369.856 130.424 369.856 129.952C369.856 129.464 369.776 129.044 369.616 128.692C369.464 128.332 369.244 128.056 368.956 127.864C368.668 127.664 368.32 127.564 367.912 127.564C367.544 127.564 367.22 127.652 366.94 127.828C366.66 128.004 366.444 128.264 366.292 128.608C366.14 128.944 366.064 129.356 366.064 129.844C366.064 130.596 366.236 131.188 366.58 131.62C366.932 132.044 367.408 132.256 368.008 132.256ZM372.503 133V129.148V126.796H373.487L373.379 128.764H373.583C373.695 128.276 373.843 127.876 374.027 127.564C374.219 127.252 374.459 127.02 374.747 126.868C375.035 126.716 375.371 126.64 375.755 126.64C376.443 126.64 376.963 126.888 377.315 127.384C377.675 127.872 377.855 128.604 377.855 129.58V133H376.751V129.676C376.751 128.972 376.639 128.452 376.415 128.116C376.199 127.78 375.879 127.612 375.455 127.612C375.071 127.612 374.743 127.732 374.471 127.972C374.207 128.212 373.999 128.528 373.847 128.92C373.695 129.312 373.611 129.736 373.595 130.192V133H372.503ZM381.571 133.12C380.995 133.12 380.567 132.964 380.287 132.652C380.007 132.34 379.867 131.864 379.867 131.224V127.708H378.931L378.943 126.796H379.531C379.731 126.796 379.875 126.76 379.963 126.688C380.059 126.616 380.115 126.496 380.131 126.328L380.251 125.392H380.923V126.796H382.711V127.72H380.923V131.2C380.923 131.52 380.995 131.752 381.139 131.896C381.291 132.032 381.507 132.1 381.787 132.1C381.939 132.1 382.095 132.08 382.255 132.04C382.423 132 382.587 131.92 382.747 131.8V132.892C382.515 132.98 382.299 133.04 382.099 133.072C381.907 133.104 381.731 133.12 381.571 133.12ZM384.093 133V129.232V124.6H385.221V126.532C385.221 126.708 385.213 126.888 385.197 127.072C385.189 127.248 385.173 127.428 385.149 127.612C385.133 127.796 385.113 127.984 385.089 128.176C385.065 128.36 385.037 128.548 385.005 128.74H385.209C385.329 128.268 385.481 127.88 385.665 127.576C385.849 127.264 386.077 127.032 386.349 126.88C386.629 126.72 386.961 126.64 387.345 126.64C388.049 126.64 388.573 126.888 388.917 127.384C389.269 127.872 389.445 128.604 389.445 129.58V133H388.341V129.688C388.341 128.968 388.229 128.444 388.005 128.116C387.789 127.78 387.461 127.612 387.021 127.612C386.653 127.612 386.341 127.72 386.085 127.936C385.829 128.152 385.625 128.444 385.473 128.812C385.329 129.18 385.233 129.6 385.185 130.072V133H384.093Z" fill="#707070"/>
</g>
<defs>
<filter id="filter0_di_426_350" x="-2.56836" y="-1.10455" width="422.137" height="337.155" filterUnits="userSpaceOnUse" color-interpolation-filters="sRGB">
<feFlood flood-opacity="0" result="BackgroundImageFix"/>
<feColorMatrix in="SourceAlpha" type="matrix" values="0 0 0 0 0 0 0 0 0 0 0 0 0 0 0 0 0 0 127 0" result="hardAlpha"/>
<feOffset dy="6"/>
<feGaussianBlur stdDeviation="5"/>
<feComposite in2="hardAlpha" operator="out"/>
<feColorMatrix type="matrix" values="0 0 0 0 0.695833 0 0 0 0 0.695833 0 0 0 0 0.695833 0 0 0 0.08 0"/>
<feBlend mode="normal" in2="BackgroundImageFix" result="effect1_dropShadow_426_350"/>
<feBlend mode="normal" in="SourceGraphic" in2="effect1_dropShadow_426_350" result="shape"/>
<feColorMatrix in="SourceAlpha" type="matrix" values="0 0 0 0 0 0 0 0 0 0 0 0 0 0 0 0 0 0 127 0" result="hardAlpha"/>
<feOffset dy="1"/>
<feGaussianBlur stdDeviation="1.5"/>
<feComposite in2="hardAlpha" operator="arithmetic" k2="-1" k3="1"/>
<feColorMatrix type="matrix" values="0 0 0 0 0 0 0 0 0 0 0 0 0 0 0 0 0 0 0.02 0"/>
<feBlend mode="normal" in2="shape" result="effect2_innerShadow_426_350"/>
</filter>
<clipPath id="clip0_426_350">
<rect width="417" height="332" fill="white"/>
</clipPath>
</defs>
</svg>
