<svg width="78" height="70" viewBox="0 0 78 70" fill="none" xmlns="http://www.w3.org/2000/svg">
<path d="M61.9566 3.30022H57.7826C57.2063 3.30022 56.7392 3.76737 56.7392 4.34366V10.6046V15.8219H54.651C54.6244 12.3652 51.8051 9.56103 48.3422 9.56103H21.31C17.8307 9.56112 15 12.3917 15 15.8712V23.0159C15 26.4952 17.8307 29.3259 21.31 29.3259H30.4067C32.2005 29.3259 33.6599 27.8665 33.6599 26.0728C33.6599 25.4296 34.1831 24.9065 34.8261 24.9065C35.469 24.9065 35.9922 25.4297 35.9922 26.0728C35.9922 27.8665 37.4516 29.3259 39.2454 29.3259H48.3421C51.8214 29.3259 54.6521 26.4952 54.6521 23.0159V22.0828H56.7391V35.5959C56.7391 36.2001 56.2477 36.6915 55.6434 36.6915H52.6348C52.0585 36.6915 51.5914 37.1587 51.5914 37.735C51.5914 38.3112 52.0585 38.7784 52.6348 38.7784H55.6434C57.3983 38.7784 58.8261 37.3507 58.8261 35.5958V21.0392V16.8653V11.6479H60.913V37.7349C60.913 39.461 59.5088 40.8653 57.7826 40.8653H39.9385C39.9903 40.6114 40.0236 40.3509 40.0368 40.0852C40.0413 39.9975 40.0434 39.9098 40.0434 39.8218C40.0434 39.7339 40.0413 39.6461 40.0368 39.5585C40.0236 39.2928 39.9903 39.0323 39.9385 38.7784H46.3392C46.9155 38.7784 47.3827 38.3112 47.3827 37.735C47.3827 37.1587 46.9155 36.6915 46.3392 36.6915H38.9972C38.0444 35.4252 36.5294 34.6046 34.8261 34.6046C31.9492 34.6046 29.6087 36.9451 29.6087 39.8219C29.6087 42.6988 31.9492 45.0393 34.8261 45.0393C36.5293 45.0393 38.0443 44.2187 38.9972 42.9523H57.7826C60.6595 42.9523 63 40.6118 63 37.735V10.6046V4.34375C63 3.76737 62.5328 3.30022 61.9566 3.30022ZM52.5653 16.8655V21.0394V23.0158C52.5653 25.3444 50.6708 27.2388 48.3422 27.2388H39.2455C38.6024 27.2388 38.0792 26.7156 38.0792 26.0727C38.0792 24.2788 36.6198 22.8194 34.8261 22.8194C33.0323 22.8194 31.5729 24.2788 31.5729 26.0727C31.5729 26.7158 31.0497 27.2388 30.4067 27.2388H21.31C18.9815 27.2388 17.087 25.3444 17.087 23.0158V15.8711C17.087 13.5425 18.9814 11.6481 21.31 11.6481H48.3423C50.6708 11.6481 52.5653 13.5425 52.5653 15.8712V16.8655ZM56.7391 19.9959H54.6521V17.9089H56.7391V19.9959ZM37.9504 40.0108C37.9494 40.0269 37.9479 40.0428 37.9467 40.0587C37.943 40.1084 37.9382 40.1578 37.932 40.2072C37.9302 40.2213 37.9285 40.2354 37.9267 40.2494C37.9089 40.3778 37.8836 40.505 37.8503 40.6299C37.8495 40.6328 37.8486 40.6355 37.8478 40.6384C37.8321 40.6966 37.8143 40.7544 37.7952 40.8117C37.7917 40.8221 37.7882 40.8327 37.7845 40.843C37.7657 40.8977 37.7452 40.9521 37.7233 41.0057C37.7209 41.0114 37.7188 41.0174 37.7165 41.0232C37.6924 41.0811 37.6663 41.1383 37.6388 41.1946C37.6323 41.2077 37.6252 41.2207 37.6186 41.2337C37.5976 41.2752 37.5758 41.316 37.5529 41.3565C37.0151 42.3083 35.9947 42.9524 34.8261 42.9524C33.0999 42.9524 31.6957 41.5482 31.6957 39.822C31.6957 38.0959 33.0999 36.6916 34.8261 36.6916C35.9947 36.6916 37.0152 37.3358 37.5529 38.2873C37.5758 38.3278 37.5976 38.3687 37.6186 38.4102C37.6252 38.4232 37.6323 38.4361 37.6388 38.4493C37.6663 38.5057 37.6924 38.5628 37.7165 38.6207C37.7189 38.6264 37.721 38.6323 37.7233 38.6382C37.7453 38.6919 37.7657 38.7462 37.7845 38.8009C37.7882 38.8113 37.7917 38.8218 37.7952 38.8322C37.8143 38.8895 37.8321 38.9473 37.8478 39.0055C37.8486 39.0084 37.8495 39.0111 37.8503 39.014C37.8836 39.139 37.9088 39.2661 37.9267 39.3944C37.9285 39.4084 37.9303 39.4225 37.932 39.4366C37.9382 39.4859 37.943 39.5354 37.9467 39.5851C37.9479 39.6011 37.9494 39.6171 37.9504 39.633C37.9541 39.6958 37.9567 39.7588 37.9567 39.822C37.9567 39.8852 37.9542 39.948 37.9504 40.0108ZM60.913 9.56112H58.8261V5.38719H60.913V9.56112Z" fill="#888888"/>
<path d="M50.4578 37.5002C50.4442 37.4335 50.4234 37.3677 50.3972 37.3051C50.3712 37.2425 50.3388 37.182 50.3013 37.1246C50.2637 37.0682 50.2199 37.015 50.1719 36.9659C50.1239 36.9179 50.0706 36.8752 50.0132 36.8366C49.9569 36.799 49.8963 36.7666 49.8327 36.7406C49.7701 36.7145 49.7043 36.6946 49.6376 36.6811C49.2985 36.6133 48.9385 36.7239 48.6963 36.966C48.6483 37.0151 48.6046 37.0683 48.567 37.1247C48.5283 37.182 48.497 37.2426 48.471 37.3052C48.4449 37.3678 48.424 37.4336 48.4115 37.5003C48.3979 37.5681 48.3906 37.636 48.3906 37.7049C48.3906 37.7727 48.3979 37.8416 48.4115 37.9083C48.4241 37.9751 48.4449 38.0409 48.471 38.1034C48.497 38.166 48.5283 38.2265 48.567 38.284C48.6046 38.3403 48.6483 38.3946 48.6963 38.4426C48.8904 38.6367 49.1597 38.7483 49.4341 38.7483C49.5019 38.7483 49.5707 38.741 49.6375 38.7274C49.7042 38.7138 49.7701 38.694 49.8326 38.668C49.8962 38.6419 49.9568 38.6096 50.0132 38.572C50.0705 38.5344 50.1238 38.4906 50.1718 38.4426C50.2198 38.3946 50.2636 38.3403 50.3012 38.284C50.3387 38.2266 50.3711 38.166 50.3972 38.1034C50.4232 38.0408 50.4441 37.9751 50.4577 37.9083C50.4713 37.8416 50.4775 37.7727 50.4775 37.7049C50.4777 37.6359 50.4714 37.5681 50.4578 37.5002Z" fill="#888888"/>
<path d="M3.076 64.2538C2.524 64.2538 2.028 64.1578 1.588 63.9658C1.156 63.7658 0.816 63.4938 0.568 63.1498C0.32 62.7978 0.192 62.3938 0.184 61.9378H1.348C1.388 62.3298 1.548 62.6618 1.828 62.9338C2.116 63.1978 2.532 63.3298 3.076 63.3298C3.596 63.3298 4.004 63.2018 4.3 62.9458C4.604 62.6818 4.756 62.3458 4.756 61.9378C4.756 61.6178 4.668 61.3578 4.492 61.1578C4.316 60.9578 4.096 60.8058 3.832 60.7018C3.568 60.5978 3.212 60.4858 2.764 60.3658C2.212 60.2218 1.768 60.0778 1.432 59.9338C1.104 59.7898 0.82 59.5658 0.58 59.2618C0.348 58.9498 0.232 58.5338 0.232 58.0138C0.232 57.5578 0.348 57.1538 0.58 56.8018C0.812 56.4498 1.136 56.1778 1.552 55.9858C1.976 55.7938 2.46 55.6978 3.004 55.6978C3.788 55.6978 4.428 55.8938 4.924 56.2858C5.428 56.6778 5.712 57.1978 5.776 57.8458H4.576C4.536 57.5258 4.368 57.2458 4.072 57.0058C3.776 56.7578 3.384 56.6338 2.896 56.6338C2.44 56.6338 2.068 56.7538 1.78 56.9938C1.492 57.2258 1.348 57.5538 1.348 57.9778C1.348 58.2818 1.432 58.5298 1.6 58.7218C1.776 58.9138 1.988 59.0618 2.236 59.1658C2.492 59.2618 2.848 59.3738 3.304 59.5018C3.856 59.6538 4.3 59.8058 4.636 59.9578C4.972 60.1018 5.26 60.3298 5.5 60.6418C5.74 60.9458 5.86 61.3618 5.86 61.8898C5.86 62.2978 5.752 62.6818 5.536 63.0418C5.32 63.4018 5 63.6938 4.576 63.9178C4.152 64.1418 3.652 64.2538 3.076 64.2538ZM7.05897 60.8698C7.05897 60.1898 7.19497 59.5978 7.46697 59.0938C7.73897 58.5818 8.11497 58.1858 8.59497 57.9058C9.08297 57.6258 9.63897 57.4858 10.263 57.4858C11.071 57.4858 11.735 57.6818 12.255 58.0738C12.783 58.4658 13.131 59.0098 13.299 59.7058H12.123C12.011 59.3058 11.791 58.9898 11.463 58.7578C11.143 58.5258 10.743 58.4098 10.263 58.4098C9.63897 58.4098 9.13497 58.6258 8.75097 59.0578C8.36697 59.4818 8.17497 60.0858 8.17497 60.8698C8.17497 61.6618 8.36697 62.2738 8.75097 62.7058C9.13497 63.1378 9.63897 63.3538 10.263 63.3538C10.743 63.3538 11.143 63.2418 11.463 63.0178C11.783 62.7938 12.003 62.4738 12.123 62.0578H13.299C13.123 62.7298 12.771 63.2698 12.243 63.6778C11.715 64.0778 11.055 64.2778 10.263 64.2778C9.63897 64.2778 9.08297 64.1378 8.59497 63.8578C8.11497 63.5778 7.73897 63.1818 7.46697 62.6698C7.19497 62.1578 7.05897 61.5578 7.05897 60.8698ZM20.588 57.5938V64.1698H19.496V63.1978C19.288 63.5338 18.996 63.7978 18.62 63.9898C18.252 64.1738 17.844 64.2658 17.396 64.2658C16.884 64.2658 16.424 64.1618 16.016 63.9538C15.608 63.7378 15.284 63.4178 15.044 62.9938C14.812 62.5698 14.696 62.0538 14.696 61.4458V57.5938H15.776V61.3018C15.776 61.9498 15.94 62.4498 16.268 62.8018C16.596 63.1458 17.044 63.3178 17.612 63.3178C18.196 63.3178 18.656 63.1378 18.992 62.7778C19.328 62.4178 19.496 61.8938 19.496 61.2058V57.5938H20.588ZM23.5238 58.8178C23.7478 58.4258 24.0758 58.1058 24.5078 57.8578C24.9398 57.6098 25.4318 57.4858 25.9838 57.4858C26.5758 57.4858 27.1078 57.6258 27.5798 57.9058C28.0518 58.1858 28.4238 58.5818 28.6958 59.0938C28.9678 59.5978 29.1038 60.1858 29.1038 60.8578C29.1038 61.5218 28.9678 62.1138 28.6958 62.6338C28.4238 63.1538 28.0478 63.5578 27.5678 63.8458C27.0958 64.1338 26.5678 64.2778 25.9838 64.2778C25.4158 64.2778 24.9158 64.1538 24.4838 63.9058C24.0598 63.6578 23.7398 63.3418 23.5238 62.9578V64.1698H22.4318V55.2898H23.5238V58.8178ZM27.9878 60.8578C27.9878 60.3618 27.8878 59.9298 27.6878 59.5618C27.4878 59.1938 27.2158 58.9138 26.8718 58.7218C26.5358 58.5298 26.1638 58.4338 25.7558 58.4338C25.3558 58.4338 24.9838 58.5338 24.6398 58.7338C24.3038 58.9258 24.0318 59.2098 23.8238 59.5858C23.6238 59.9538 23.5238 60.3818 23.5238 60.8698C23.5238 61.3658 23.6238 61.8018 23.8238 62.1778C24.0318 62.5458 24.3038 62.8298 24.6398 63.0298C24.9838 63.2218 25.3558 63.3178 25.7558 63.3178C26.1638 63.3178 26.5358 63.2218 26.8718 63.0298C27.2158 62.8298 27.4878 62.5458 27.6878 62.1778C27.8878 61.8018 27.9878 61.3618 27.9878 60.8578ZM30.1332 60.8578C30.1332 60.1858 30.2692 59.5978 30.5412 59.0938C30.8132 58.5818 31.1852 58.1858 31.6572 57.9058C32.1372 57.6258 32.6692 57.4858 33.2532 57.4858C33.8292 57.4858 34.3292 57.6098 34.7532 57.8578C35.1772 58.1058 35.4932 58.4178 35.7012 58.7938V57.5938H36.8052V64.1698H35.7012V62.9458C35.4852 63.3298 35.1612 63.6498 34.7292 63.9058C34.3052 64.1538 33.8092 64.2778 33.2412 64.2778C32.6572 64.2778 32.1292 64.1338 31.6572 63.8458C31.1852 63.5578 30.8132 63.1538 30.5412 62.6338C30.2692 62.1138 30.1332 61.5218 30.1332 60.8578ZM35.7012 60.8698C35.7012 60.3738 35.6012 59.9418 35.4012 59.5738C35.2012 59.2058 34.9292 58.9258 34.5852 58.7338C34.2492 58.5338 33.8772 58.4338 33.4692 58.4338C33.0612 58.4338 32.6892 58.5298 32.3532 58.7218C32.0172 58.9138 31.7492 59.1938 31.5492 59.5618C31.3492 59.9298 31.2492 60.3618 31.2492 60.8578C31.2492 61.3618 31.3492 61.8018 31.5492 62.1778C31.7492 62.5458 32.0172 62.8298 32.3532 63.0298C32.6892 63.2218 33.0612 63.3178 33.4692 63.3178C33.8772 63.3178 34.2492 63.2218 34.5852 63.0298C34.9292 62.8298 35.2012 62.5458 35.4012 62.1778C35.6012 61.8018 35.7012 61.3658 35.7012 60.8698ZM44.4538 55.8058C45.3658 55.8058 46.1538 55.9778 46.8178 56.3218C47.4898 56.6578 48.0018 57.1418 48.3538 57.7738C48.7138 58.4058 48.8938 59.1498 48.8938 60.0058C48.8938 60.8618 48.7138 61.6058 48.3538 62.2378C48.0018 62.8618 47.4898 63.3418 46.8178 63.6778C46.1538 64.0058 45.3658 64.1698 44.4538 64.1698H41.8498V55.8058H44.4538ZM44.4538 63.2698C45.5338 63.2698 46.3578 62.9858 46.9258 62.4178C47.4938 61.8418 47.7778 61.0378 47.7778 60.0058C47.7778 58.9658 47.4898 58.1538 46.9138 57.5698C46.3458 56.9858 45.5258 56.6938 44.4538 56.6938H42.9418V63.2698H44.4538ZM50.8982 56.5258C50.6902 56.5258 50.5142 56.4538 50.3702 56.3098C50.2262 56.1658 50.1542 55.9898 50.1542 55.7818C50.1542 55.5738 50.2262 55.3978 50.3702 55.2538C50.5142 55.1098 50.6902 55.0378 50.8982 55.0378C51.0982 55.0378 51.2662 55.1098 51.4022 55.2538C51.5462 55.3978 51.6182 55.5738 51.6182 55.7818C51.6182 55.9898 51.5462 56.1658 51.4022 56.3098C51.2662 56.4538 51.0982 56.5258 50.8982 56.5258ZM51.4262 57.5938V64.1698H50.3342V57.5938H51.4262ZM55.7353 63.1618L57.7753 57.5938H58.9393L56.3593 64.1698H55.0873L52.5073 57.5938H53.6833L55.7353 63.1618ZM60.5778 56.5258C60.3698 56.5258 60.1938 56.4538 60.0498 56.3098C59.9058 56.1658 59.8338 55.9898 59.8338 55.7818C59.8338 55.5738 59.9058 55.3978 60.0498 55.2538C60.1938 55.1098 60.3698 55.0378 60.5778 55.0378C60.7778 55.0378 60.9458 55.1098 61.0818 55.2538C61.2258 55.3978 61.2978 55.5738 61.2978 55.7818C61.2978 55.9898 61.2258 56.1658 61.0818 56.3098C60.9458 56.4538 60.7778 56.5258 60.5778 56.5258ZM61.1058 57.5938V64.1698H60.0138V57.5938H61.1058ZM66.171 57.4738C66.971 57.4738 67.619 57.7178 68.115 58.2058C68.611 58.6858 68.859 59.3818 68.859 60.2938V64.1698H67.779V60.4498C67.779 59.7938 67.615 59.2938 67.287 58.9498C66.959 58.5978 66.511 58.4218 65.943 58.4218C65.367 58.4218 64.907 58.6018 64.563 58.9618C64.227 59.3218 64.059 59.8458 64.059 60.5338V64.1698H62.967V57.5938H64.059V58.5298C64.275 58.1938 64.567 57.9338 64.935 57.7498C65.311 57.5658 65.723 57.4738 66.171 57.4738ZM73.3548 57.4858C73.9228 57.4858 74.4188 57.6098 74.8428 57.8578C75.2748 58.1058 75.5948 58.4178 75.8028 58.7938V57.5938H76.9068V64.3138C76.9068 64.9138 76.7788 65.4458 76.5228 65.9098C76.2668 66.3818 75.8988 66.7498 75.4188 67.0138C74.9468 67.2778 74.3948 67.4098 73.7628 67.4098C72.8988 67.4098 72.1788 67.2058 71.6028 66.7978C71.0268 66.3898 70.6868 65.8338 70.5828 65.1298H71.6628C71.7828 65.5298 72.0308 65.8498 72.4068 66.0898C72.7828 66.3378 73.2348 66.4618 73.7628 66.4618C74.3628 66.4618 74.8508 66.2738 75.2268 65.8978C75.6108 65.5218 75.8028 64.9938 75.8028 64.3138V62.9338C75.5868 63.3178 75.2668 63.6378 74.8428 63.8938C74.4188 64.1498 73.9228 64.2778 73.3548 64.2778C72.7708 64.2778 72.2388 64.1338 71.7588 63.8458C71.2868 63.5578 70.9148 63.1538 70.6428 62.6338C70.3708 62.1138 70.2348 61.5218 70.2348 60.8578C70.2348 60.1858 70.3708 59.5978 70.6428 59.0938C70.9148 58.5818 71.2868 58.1858 71.7588 57.9058C72.2388 57.6258 72.7708 57.4858 73.3548 57.4858ZM75.8028 60.8698C75.8028 60.3738 75.7028 59.9418 75.5028 59.5738C75.3028 59.2058 75.0308 58.9258 74.6868 58.7338C74.3508 58.5338 73.9788 58.4338 73.5708 58.4338C73.1628 58.4338 72.7908 58.5298 72.4548 58.7218C72.1188 58.9138 71.8508 59.1938 71.6508 59.5618C71.4508 59.9298 71.3508 60.3618 71.3508 60.8578C71.3508 61.3618 71.4508 61.8018 71.6508 62.1778C71.8508 62.5458 72.1188 62.8298 72.4548 63.0298C72.7908 63.2218 73.1628 63.3178 73.5708 63.3178C73.9788 63.3178 74.3508 63.2218 74.6868 63.0298C75.0308 62.8298 75.3028 62.5458 75.5028 62.1778C75.7028 61.8018 75.8028 61.3658 75.8028 60.8698Z" fill="#707070"/>
</svg>
