<svg width="64" height="56" viewBox="0 0 64 56" fill="none" xmlns="http://www.w3.org/2000/svg">
<path d="M43.2283 36.2599V38.0017C43.2283 38.5477 42.7859 38.9905 42.2398 38.9905C41.6938 38.9905 41.2513 38.5477 41.2513 38.0017V36.2599C41.2513 35.7138 41.6938 35.2714 42.2398 35.2714C42.7859 35.2714 43.2283 35.7138 43.2283 36.2599ZM33.843 31.663V28.8719C33.843 27.9635 34.5822 27.2244 35.4905 27.2244H41.4174C42.3258 27.2244 43.0649 27.9635 43.0649 28.8719V31.663C43.0649 32.5714 42.3258 33.3105 41.4174 33.3105H35.4905C34.5822 33.3105 33.843 32.5714 33.843 31.663ZM35.82 31.3335H41.0879V29.2014H35.82V31.3335ZM19.3701 35.2714C18.824 35.2714 18.3816 35.7138 18.3816 36.2599V38.0017C18.3816 38.5477 18.824 38.9905 19.3701 38.9905C19.9161 38.9905 20.3586 38.5477 20.3586 38.0017V36.2599C20.3586 35.7138 19.9161 35.2714 19.3701 35.2714ZM10.9733 31.663V28.8719C10.9733 27.9635 11.7124 27.2244 12.6208 27.2244H18.5476C19.456 27.2244 20.1951 27.9635 20.1951 28.8719V31.663C20.1951 32.5714 19.456 33.3105 18.5476 33.3105H12.6208C11.7124 33.3105 10.9733 32.5714 10.9733 31.663ZM12.9503 31.3335H18.2181V29.2014H12.9503V31.3335ZM53.236 23.015V49.7611C53.4824 50.0491 53.6369 50.4181 53.6369 50.8262V53.8374C53.6369 54.7461 52.8981 55.4849 51.9894 55.4849H2.04844C1.14006 55.4849 0.400936 54.7461 0.400936 53.8374V50.8262C0.400936 50.418 0.555591 50.0488 0.802193 49.7608V19.3419C0.32383 19.0532 0 18.5335 0 17.9353V12.1915C0 11.2832 0.739125 10.544 1.6475 10.544H40.765C41.269 4.647 46.2222 0 52.2475 0C58.6064 0 63.78 5.17355 63.78 11.5325C63.78 17.5578 59.133 22.511 53.236 23.015ZM42.4621 17.6058C41.5263 16.1037 40.9236 14.3769 40.765 12.521H1.97701V17.6058H42.4621ZM47.8127 24.5781V49.1787H51.259V23.015C48.4259 22.7729 45.8839 21.5061 44.0051 19.5828H2.7792V49.1787H6.22512V24.5781C6.22512 23.6697 6.96425 22.9306 7.87263 22.9306H23.2958C24.2042 22.9306 24.9433 23.6697 24.9433 24.5781V49.1787H29.0949V24.5781C29.0949 23.6697 29.834 22.9306 30.7424 22.9306H46.1652C47.0739 22.9306 47.8127 23.6697 47.8127 24.5781ZM31.0719 24.9076V49.1787H45.8357V24.9076H31.0719ZM8.20213 24.9076V49.1787H22.9663V24.9076H8.20213ZM51.6599 51.1557H2.37794V53.5079H51.6599V51.1557ZM61.803 11.5325C61.803 6.26374 57.5163 1.97701 52.2475 1.97701C46.9787 1.97701 42.6919 6.26374 42.6919 11.5325C42.6919 16.8013 46.9787 21.0881 52.2475 21.0881C57.5163 21.0881 61.803 16.8013 61.803 11.5325ZM58.4861 6.13052C58.0594 5.7904 57.4377 5.86055 57.0973 6.28723L50.5131 14.5489L47.4137 10.4414C47.0842 10.0051 46.4645 9.91881 46.0294 10.2477C45.5937 10.5765 45.5069 11.1963 45.8357 11.632L49.7028 16.7569C49.8869 17.0008 50.1733 17.146 50.479 17.1501C50.4828 17.1501 50.4873 17.1501 50.4918 17.1501C50.7924 17.1501 51.0775 17.0131 51.2648 16.7778L58.6431 7.51964C58.9836 7.09264 58.9134 6.47064 58.4861 6.13052Z" fill="#707070"/>
</svg>
