<svg width="42" height="16" viewBox="0 0 42 16" fill="none" xmlns="http://www.w3.org/2000/svg">
<path d="M0.336901 12.992H0.651284L0.356862 14.2145C0.311951 14.3942 0.321931 14.5339 0.381813 14.6237C0.441696 14.7136 0.55148 14.7585 0.716156 14.7585C0.875842 14.7585 1.01058 14.7136 1.11537 14.6237C1.22017 14.5339 1.29003 14.3942 1.33494 14.2145L1.62936 12.992H1.94873L1.64932 14.2445C1.58445 14.514 1.46967 14.7186 1.30001 14.8533C1.13533 14.988 0.915764 15.0579 0.646294 15.0579C0.376823 15.0579 0.192186 14.993 0.0923821 14.8583C-0.00742174 14.7235 -0.0273824 14.5189 0.03749 14.2495L0.336901 12.992ZM1.90382 15.003L2.40284 12.9121L3.35098 14.1397C3.37593 14.1746 3.40088 14.2096 3.42583 14.2495C3.45078 14.2894 3.47573 14.3343 3.50567 14.3842L3.84002 12.992H4.13444L3.63542 15.0779L2.66732 13.8253L2.59247 13.7205C2.56752 13.6806 2.54756 13.6457 2.53259 13.6008L2.19824 14.998H1.90382V15.003ZM4.10949 15.003L4.58854 12.992H4.90792L4.42886 15.003H4.10949ZM4.88296 15.003L5.36202 12.992H6.45487L6.39 13.2714H5.61652L5.49676 13.7704H6.27024L6.20038 14.0549H5.4269L5.20234 14.998H4.88296V15.003ZM6.33012 15.003L6.80918 12.992H7.12855L6.64949 15.003H6.33012ZM7.1036 15.003L7.58266 12.992H8.67551L8.61064 13.2714H7.83716L7.71739 13.7754H8.49087L8.42101 14.0599H7.64753L7.49283 14.7086H8.26631L8.19645 15.003H7.1036ZM8.56573 15.003L9.04478 12.992H9.47394C9.75339 12.992 9.94801 13.0069 10.0528 13.0369C10.1576 13.0668 10.2474 13.1117 10.3173 13.1816C10.4071 13.2714 10.467 13.3862 10.4919 13.5209C10.5169 13.6606 10.5069 13.8203 10.467 13.995C10.4221 14.1746 10.3572 14.3293 10.2674 14.469C10.1776 14.6088 10.0628 14.7186 9.92805 14.8084C9.82824 14.8782 9.71846 14.9232 9.59869 14.9531C9.48392 14.983 9.30926 14.998 9.07971 14.998H8.56573V15.003ZM8.95496 14.7036H9.22443C9.36915 14.7036 9.48392 14.6936 9.56376 14.6736C9.64361 14.6537 9.71347 14.6188 9.77834 14.5738C9.86816 14.509 9.94302 14.4291 10.0029 14.3293C10.0628 14.2345 10.1077 14.1197 10.1376 13.99C10.1676 13.8602 10.1776 13.7505 10.1626 13.6556C10.1476 13.5608 10.1127 13.476 10.0528 13.4111C10.0079 13.3612 9.953 13.3313 9.87814 13.3113C9.80329 13.2914 9.68852 13.2814 9.52384 13.2814H9.29429L8.95496 14.7036ZM11.9341 14.0998L11.7195 15.003H11.4201L11.8992 12.992H12.3832C12.5279 12.992 12.6277 13.0019 12.6926 13.0169C12.7575 13.0319 12.8074 13.0568 12.8473 13.0967C12.8972 13.1417 12.9321 13.2065 12.9471 13.2864C12.9621 13.3662 12.9571 13.451 12.9371 13.5459C12.9122 13.6407 12.8772 13.7305 12.8224 13.8103C12.7675 13.8902 12.7026 13.9551 12.6327 14C12.5728 14.0349 12.508 14.0648 12.4381 14.0798C12.3683 14.0948 12.2585 14.1048 12.1187 14.1048H11.9341V14.0998ZM12.0189 13.8303H12.0988C12.2734 13.8303 12.3982 13.8103 12.4681 13.7704C12.5379 13.7305 12.5828 13.6606 12.6078 13.5608C12.6327 13.456 12.6178 13.3762 12.5679 13.3363C12.513 13.2914 12.4032 13.2714 12.2385 13.2714H12.1587L12.0189 13.8303ZM14.02 15.003L13.9202 14.484H13.1417L12.7924 15.003H12.4581L13.9052 12.9121L14.3543 15.003H14.02ZM13.3314 14.2096H13.8753L13.7855 13.7505C13.7805 13.7205 13.7755 13.6856 13.7755 13.6507C13.7705 13.6107 13.7705 13.5708 13.7705 13.5259C13.7505 13.5708 13.7306 13.6107 13.7056 13.6507C13.6857 13.6906 13.6657 13.7255 13.6457 13.7555L13.3314 14.2096ZM14.8134 15.003L15.033 14.0848L14.6338 12.9969H14.9681L15.2176 13.6806C15.2226 13.7006 15.2276 13.7205 15.2376 13.7505C15.2476 13.7804 15.2526 13.8103 15.2626 13.8403L15.3224 13.7505C15.3424 13.7205 15.3624 13.6956 15.3823 13.6706L15.9662 12.9969H16.2856L15.3524 14.0798L15.1328 14.998H14.8134V15.003ZM17.8525 14.01C17.8525 13.995 17.8575 13.9501 17.8674 13.8802C17.8724 13.8203 17.8774 13.7754 17.8824 13.7355C17.8624 13.7804 17.8425 13.8253 17.8175 13.8752C17.7926 13.9201 17.7626 13.97 17.7277 14.0149L16.9592 15.0878L16.7097 13.995C16.6997 13.9501 16.6898 13.9052 16.6848 13.8652C16.6798 13.8253 16.6748 13.7804 16.6748 13.7405C16.6648 13.7804 16.6498 13.8253 16.6349 13.8752C16.6199 13.9201 16.5999 13.97 16.575 14.0199L16.1259 15.008H15.8314L16.7945 12.9121L17.069 14.1796C17.074 14.1996 17.079 14.2345 17.084 14.2794C17.089 14.3243 17.099 14.3842 17.1089 14.4541C17.1439 14.3942 17.1888 14.3243 17.2487 14.2345C17.2636 14.2096 17.2786 14.1946 17.2836 14.1796L18.1519 12.9121L18.1219 15.008H17.8275L17.8525 14.01ZM18.3814 15.003L18.8605 12.992H19.9533L19.8885 13.2714H19.115L18.9952 13.7754H19.7687L19.6988 14.0599H18.9254L18.7707 14.7086H19.5441L19.4743 15.003H18.3814ZM19.8386 15.003L20.3376 12.9121L21.2857 14.1397C21.3107 14.1746 21.3356 14.2096 21.3606 14.2495C21.3855 14.2894 21.4105 14.3343 21.4404 14.3842L21.7748 12.992H22.0692L21.5702 15.0779L20.6021 13.8253L20.5272 13.7205C20.5023 13.6806 20.4823 13.6457 20.4673 13.6008L20.133 14.998H19.8386V15.003ZM23.0872 13.2664L22.673 14.998H22.3536L22.7678 13.2664H22.2488L22.3137 12.987H23.671L23.6062 13.2664H23.0872ZM23.4215 14.5988L23.706 14.479C23.711 14.5689 23.7359 14.6387 23.7908 14.6836C23.8457 14.7285 23.9205 14.7535 24.0203 14.7535C24.1152 14.7535 24.195 14.7285 24.2649 14.6736C24.3347 14.6188 24.3796 14.5489 24.3996 14.4591C24.4295 14.3393 24.3597 14.2345 24.19 14.1447C24.1651 14.1297 24.1501 14.1197 24.1351 14.1147C23.9455 14.005 23.8257 13.9101 23.7758 13.8203C23.7259 13.7305 23.7159 13.6257 23.7459 13.501C23.7858 13.3363 23.8706 13.2065 24.0054 13.1017C24.1401 13.0019 24.2898 12.947 24.4695 12.947C24.6142 12.947 24.729 12.977 24.8138 13.0319C24.8986 13.0868 24.9435 13.1716 24.9585 13.2764L24.6791 13.4061C24.6541 13.3413 24.6242 13.2964 24.5842 13.2664C24.5443 13.2365 24.4944 13.2215 24.4345 13.2215C24.3497 13.2215 24.2748 13.2465 24.215 13.2914C24.1551 13.3363 24.1152 13.3962 24.0952 13.476C24.0653 13.5958 24.1501 13.7105 24.3447 13.8153C24.3597 13.8253 24.3697 13.8303 24.3796 13.8353C24.5493 13.9251 24.6641 14.0149 24.714 14.1048C24.7639 14.1946 24.7739 14.2994 24.7439 14.4341C24.699 14.6237 24.6042 14.7735 24.4595 14.8882C24.3148 14.998 24.1451 15.0579 23.9455 15.0579C23.7808 15.0579 23.6511 15.018 23.5612 14.9381C23.4614 14.8583 23.4165 14.7435 23.4215 14.5988ZM25.7719 15.003L26.251 12.992H26.5703L26.0913 15.003H25.7719ZM26.5504 15.003L27.0494 12.9121L27.9975 14.1397C28.0225 14.1746 28.0474 14.2096 28.0724 14.2495C28.0973 14.2894 28.1223 14.3343 28.1522 14.3842L28.4866 12.992H28.781L28.282 15.0779L27.3139 13.8253L27.239 13.7205C27.2141 13.6806 27.1941 13.6457 27.1791 13.6008L26.8448 14.998H26.5504V15.003ZM29.799 13.2664L29.3848 14.998H29.0654L29.4796 13.2664H28.9606L29.0255 12.987H30.3828L30.318 13.2664H29.799ZM30.1433 15.003L30.6224 12.992H31.7202L31.6553 13.2714H30.8819L30.7621 13.7754H31.5356L31.4657 14.0599H30.6922L30.5375 14.7086H31.311L31.2412 15.003H30.1433ZM32.1144 14.0998L31.8999 14.998H31.6004L32.0795 12.987H32.5236C32.6534 12.987 32.7532 12.9969 32.8181 13.0119C32.8879 13.0269 32.9428 13.0568 32.9827 13.0967C33.0326 13.1466 33.0626 13.2065 33.0775 13.2864C33.0925 13.3612 33.0875 13.4461 33.0676 13.5409C33.0276 13.7006 32.9628 13.8303 32.863 13.9201C32.7632 14.01 32.6384 14.0648 32.4887 14.0848L32.9428 14.998H32.5835L32.1494 14.0998H32.1144ZM32.1943 13.8453H32.2542C32.4238 13.8453 32.5386 13.8253 32.6035 13.7854C32.6683 13.7455 32.7133 13.6756 32.7382 13.5708C32.7632 13.461 32.7532 13.3812 32.7033 13.3363C32.6534 13.2914 32.5486 13.2664 32.3889 13.2664H32.329L32.1943 13.8453ZM33.1374 15.003L33.6165 12.992H34.7093L34.6445 13.2714H33.871L33.7512 13.7704H34.5247L34.4548 14.0549H33.6814L33.4568 14.998H33.1374V15.003ZM35.7722 15.003L35.6724 14.484H34.894L34.5447 15.003H34.2103L35.6575 12.9121L36.1066 15.003H35.7722ZM35.0786 14.2096H35.6225L35.5327 13.7505C35.5277 13.7205 35.5227 13.6856 35.5227 13.6507C35.5177 13.6107 35.5177 13.5708 35.5177 13.5259C35.4978 13.5708 35.4778 13.6107 35.4529 13.6507C35.4329 13.6906 35.4129 13.7255 35.393 13.7555L35.0786 14.2096ZM38.1825 13.481C38.1126 13.4011 38.0278 13.3413 37.938 13.3063C37.8482 13.2664 37.7484 13.2465 37.6336 13.2465C37.419 13.2465 37.2294 13.3163 37.0597 13.456C36.89 13.5958 36.7803 13.7804 36.7254 14.005C36.6755 14.2195 36.6954 14.3992 36.7952 14.5439C36.89 14.6836 37.0398 14.7535 37.2394 14.7535C37.3541 14.7535 37.4689 14.7335 37.5837 14.6886C37.6985 14.6487 37.8132 14.5838 37.933 14.499L37.8432 14.8683C37.7434 14.9331 37.6386 14.978 37.5288 15.008C37.419 15.0379 37.3092 15.0529 37.1895 15.0529C37.0398 15.0529 36.905 15.0279 36.7902 14.978C36.6755 14.9281 36.5807 14.8533 36.5058 14.7535C36.431 14.6587 36.386 14.5439 36.3661 14.4142C36.3461 14.2844 36.3511 14.1447 36.391 13.995C36.426 13.8453 36.4858 13.7105 36.5657 13.5808C36.6455 13.451 36.7503 13.3363 36.8701 13.2415C36.9899 13.1417 37.1196 13.0668 37.2593 13.0169C37.399 12.967 37.5388 12.9421 37.6835 12.9421C37.7983 12.9421 37.9031 12.957 38.0029 12.992C38.0977 13.0269 38.1875 13.0768 38.2673 13.1466L38.1825 13.481ZM38.2124 15.003L38.6915 12.992H39.7844L39.7195 13.2714H38.946L38.8262 13.7754H39.5997L39.5299 14.0599H38.7564L38.6017 14.7086H39.3752L39.3053 15.003H38.2124Z" fill="#3D3D3C"/>
<path d="M32.404 11.2395H30.2133L33.2573 0.246094H35.448L32.404 11.2395ZM31.2662 0.590417C31.1165 0.380829 30.882 0.276035 30.5626 0.276035H18.5263L17.9324 2.4318H28.8809L28.2422 4.73227H19.4844V4.72728H17.2937L15.4773 11.2894H17.668L18.8856 6.88804H28.7312C29.0406 6.88804 29.33 6.78324 29.5995 6.57365C29.869 6.36407 30.0486 6.10458 30.1335 5.79518L31.3511 1.39384C31.4459 1.06448 31.4159 0.800005 31.2662 0.590417ZM14.1998 10.5508C14.08 10.985 13.6808 11.2894 13.2317 11.2894H1.93889C1.62949 11.2894 1.39995 11.1846 1.25024 10.975C1.10053 10.7654 1.0656 10.5059 1.15543 10.1965L3.91001 0.276035H6.1007L3.64054 9.13861H12.4033L14.8635 0.276035H17.0542L14.1998 10.5508Z" fill="#70706E"/>
<path d="M39.2308 0.265625L42.0003 5.7748L36.1768 11.284L39.2308 0.265625Z" fill="#098041"/>
<path d="M37.2846 0.265625L40.0541 5.7748L34.2256 11.284L37.2846 0.265625Z" fill="#E97626"/>
</svg>
