<svg width="30" height="20" viewBox="0 0 30 20" fill="none" xmlns="http://www.w3.org/2000/svg">
<path d="M28.158 0.154297H1.84204C0.824711 0.154297 0 0.979008 0 1.99634V17.492C0 18.5093 0.824711 19.334 1.84204 19.334H28.158C29.1753 19.334 30 18.5093 30 17.492V1.99634C30 0.979008 29.1753 0.154297 28.158 0.154297Z" fill="#898989"/>
<path d="M28.158 0H1.84204C0.824711 0 0 0.824711 0 1.84204V17.3377C0 18.355 0.824711 19.1798 1.84204 19.1798H28.158C29.1753 19.1798 30 18.355 30 17.3377V1.84204C30 0.824711 29.1753 0 28.158 0Z" fill="url(#paint0_linear_528_1741)"/>
<path fill-rule="evenodd" clip-rule="evenodd" d="M1.84185 19.1798H11.4669L18.9686 0H1.84888C0.836459 0 0.00683594 0.829623 0.00683594 1.84204V17.3377C0.00683594 18.3501 0.836459 19.1798 1.84888 19.1798H1.84185Z" fill="url(#paint1_linear_528_1741)"/>
<path fill-rule="evenodd" clip-rule="evenodd" d="M3.87394 3.94363C3.83878 3.89441 3.80363 3.81004 3.77551 3.7538C3.67708 3.55694 3.431 3.24759 3.27633 3.12103C3.14275 3.00854 2.94589 2.84684 2.78418 2.78356C2.79121 2.82574 2.8123 2.88902 2.82636 2.9312L3.48725 5.31461H4.33796L5.28008 3.12806C5.32226 3.02963 5.56834 2.48124 5.58943 2.39687H4.73871L3.9794 4.33734C3.96534 4.35844 3.97237 4.35141 3.95831 4.36547C3.95128 4.31625 3.88097 3.97878 3.86691 3.95066L3.87394 3.94363ZM10.5812 3.21243C10.5812 3.28977 10.6656 3.64131 10.6867 3.74677C10.7289 3.9155 10.764 4.0983 10.8062 4.27407H10.1664L10.5812 3.21243ZM8.95714 5.32867C9.88519 5.32867 9.72348 5.39898 9.83597 5.11775C9.8641 5.04042 9.89222 4.94902 9.92737 4.87871H10.9398C10.9468 4.95605 10.9749 5.03338 10.989 5.11072C11.0101 5.20915 11.0171 5.32164 11.0734 5.32164C11.8678 5.32164 11.7905 5.37086 11.7483 5.16697C11.7343 5.09666 11.7272 5.05448 11.7061 4.98417C11.678 4.85762 11.6499 4.73809 11.6218 4.61857L11.2913 3.12806C11.2421 2.88199 11.1859 2.62888 11.1226 2.38281C10.9187 2.38281 10.3773 2.34063 10.2227 2.45312C10.075 2.56561 9.95549 2.91011 9.88519 3.07885C9.81488 3.23352 9.7516 3.37414 9.6813 3.53584C9.61802 3.69052 9.55474 3.83113 9.48444 3.97878C9.32976 4.31625 9.08369 4.93495 8.92901 5.23024C8.90792 5.27243 8.87277 5.31461 8.94307 5.31461L8.95714 5.32867ZM7.03072 3.26868V3.36008C7.03072 3.69755 7.41741 3.97175 7.67052 4.07721C7.73379 4.10533 7.79707 4.13345 7.86035 4.16861C8.54935 4.54124 7.83222 4.95605 7.0026 4.6256C6.96042 4.60451 6.85496 4.5553 6.80574 4.5553C6.79871 4.6467 6.77059 4.77325 6.7495 4.87168L6.70028 5.19509C6.70028 5.27243 7.34007 5.3568 7.48772 5.3568C7.91659 5.3568 8.24 5.32867 8.57045 5.10369C9.01338 4.80137 9.21727 4.10533 8.52123 3.68349C8.26813 3.52881 7.86035 3.42335 7.86035 3.19837C7.86035 2.90308 8.59154 2.90308 8.97823 3.10697C8.98526 2.98745 9.08369 2.60076 9.08369 2.46718C8.86574 2.36172 8.54232 2.34766 8.27516 2.34766C7.70567 2.34766 7.02369 2.69216 7.02369 3.26868H7.03072ZM5.40663 5.30758H6.20813L6.637 2.75544C6.64403 2.69216 6.6581 2.63592 6.66513 2.57967C6.67919 2.51639 6.69325 2.46015 6.69325 2.38281H5.89175C5.89175 2.48124 5.50506 4.65373 5.46288 4.93495L5.3996 5.30758H5.40663Z" fill="#2B2A29"/>
<path fill-rule="evenodd" clip-rule="evenodd" d="M2.79154 2.77666C2.95324 2.84697 3.1501 3.00868 3.28369 3.11414C3.43836 3.24069 3.68444 3.55004 3.78287 3.7469C3.81099 3.80315 3.84614 3.88751 3.8813 3.93673C3.8813 3.85236 3.69147 3.00868 3.66334 2.854C3.56491 2.36185 3.53679 2.38294 2.84075 2.38294H1.96191V2.43216C1.96191 2.46731 1.99004 2.46028 2.13768 2.50247C2.30642 2.55168 2.66498 2.69229 2.79154 2.77666Z" fill="#2B2A29"/>
<path fill-rule="evenodd" clip-rule="evenodd" d="M3.84562 3.90847C3.81046 3.85925 3.77531 3.77489 3.74719 3.71864C3.64876 3.52178 3.40268 3.21243 3.24801 3.08588C3.11443 2.97339 2.91757 2.81168 2.75586 2.7484C2.76289 2.79059 2.78398 2.85386 2.79804 2.89605L3.45893 5.27946H4.30964L5.25176 3.09291C5.29394 2.99448 5.54002 2.44608 5.56111 2.36171H4.71039L3.95108 4.30219C3.93702 4.32328 3.94405 4.31625 3.92999 4.33031C3.92296 4.2811 3.85265 3.94362 3.83859 3.9155L3.84562 3.90847ZM10.5529 3.17728C10.5529 3.25461 10.6373 3.60615 10.6584 3.71161C10.7006 3.88035 10.7357 4.06314 10.7779 4.23891H10.1381L10.5529 3.17728ZM8.92881 5.29352C9.85687 5.29352 9.69516 5.36382 9.80765 5.0826C9.83577 5.00526 9.8639 4.91386 9.89905 4.84355H10.9115C10.9185 4.92089 10.9466 4.99823 10.9607 5.07557C10.9818 5.174 10.9888 5.28649 11.0451 5.28649C11.8395 5.28649 11.7622 5.3357 11.72 5.13181C11.7059 5.0615 11.6989 5.01932 11.6778 4.94901C11.6497 4.82246 11.6216 4.70294 11.5935 4.58342L11.263 3.09291C11.2138 2.84683 11.1575 2.59373 11.1013 2.34765C10.8974 2.34765 10.356 2.30547 10.2014 2.41796C10.0537 2.53045 9.93421 2.87496 9.8639 3.04369C9.79359 3.19837 9.73031 3.33898 9.66001 3.50069C9.59673 3.65536 9.53345 3.79598 9.46315 3.94362C9.30847 4.2811 9.0624 4.8998 8.90772 5.19509C8.88663 5.23727 8.85148 5.27946 8.92178 5.27946L8.92881 5.29352ZM7.0024 3.23352V3.32492C7.0024 3.66239 7.38909 3.93659 7.6422 4.04205C7.70547 4.07018 7.76875 4.0983 7.83203 4.13345C8.52103 4.50608 7.8039 4.92089 6.97428 4.59045C6.9321 4.56936 6.82664 4.52014 6.77742 4.52014C6.77039 4.61154 6.74227 4.73809 6.72117 4.83652L6.67196 5.15993C6.67196 5.23727 7.31175 5.32164 7.4594 5.32164C7.88827 5.32164 8.21168 5.29352 8.54213 5.06854C8.98506 4.76621 9.18895 4.07018 8.49291 3.64833C8.23981 3.49366 7.83203 3.3882 7.83203 3.16321C7.83203 2.86793 8.56322 2.86793 8.94991 3.07182C8.95694 2.95229 9.05537 2.56561 9.05537 2.43202C8.83742 2.32656 8.514 2.3125 8.24684 2.3125C7.67735 2.3125 6.99537 2.657 6.99537 3.23352H7.0024ZM5.37831 5.27243H6.18684L6.61571 2.72028C6.62274 2.657 6.63681 2.60076 6.64384 2.54451C6.6579 2.48124 6.67196 2.42499 6.67196 2.34765H5.87046C5.87046 2.44608 5.48377 4.61857 5.44159 4.8998L5.37831 5.27243Z" fill="#FEFEFE"/>
<path fill-rule="evenodd" clip-rule="evenodd" d="M2.75638 2.74932C2.91809 2.81963 3.11495 2.98133 3.24853 3.08679C3.40321 3.21335 3.64928 3.5227 3.74771 3.71956C3.77583 3.7758 3.81099 3.86017 3.84614 3.90939C3.84614 3.82502 3.65631 2.98133 3.62819 2.82666C3.52976 2.33451 3.50163 2.3556 2.8056 2.3556H1.92676V2.40482C1.92676 2.43997 1.95488 2.43294 2.10253 2.47512C2.27126 2.52434 2.62983 2.66495 2.75638 2.74932Z" fill="#C5C6C6"/>
<path fill-rule="evenodd" clip-rule="evenodd" d="M21.2401 14.4686L21.2823 14.2858C21.5143 14.2296 21.8588 14.2015 21.9432 14.4194C21.9713 14.5038 21.8658 15.024 21.8588 15.1858H21.6338C21.6268 15.1365 21.6409 15.1295 21.6268 15.0944C21.5706 15.1295 21.4721 15.242 21.2823 15.1998C21.0222 15.1436 21.0362 14.7569 21.3034 14.6444C21.4229 14.5952 21.5846 14.5952 21.7252 14.5952C21.7182 14.3772 21.437 14.4475 21.2401 14.4827V14.4686ZM21.9643 14.9748C22.0486 14.9959 22.4283 15.0662 22.3861 14.8975C22.365 14.7991 22.126 14.792 22.0627 14.6655C21.9854 14.5178 22.0768 14.3491 22.1822 14.2929C22.3088 14.2296 22.5267 14.2577 22.6814 14.2647L22.6392 14.4546C22.5056 14.4475 22.351 14.3983 22.3018 14.5108C22.2807 14.6585 22.7587 14.6233 22.6111 15.017C22.5619 15.1436 22.4916 15.1717 22.3439 15.1858C22.1822 15.2068 22.0979 15.1928 21.9502 15.1717L21.9643 14.9748ZM20.98 15.1858H20.7339C20.762 15.0311 20.7902 14.8834 20.8183 14.7288C20.8394 14.6092 20.8886 14.3632 20.8886 14.2577L20.4949 15.1858H20.2769L20.2136 14.2647C20.1714 14.335 20.059 15.0381 20.0379 15.1787L19.8129 15.1858C19.8762 14.8061 19.9816 14.4335 20.0238 14.0468C20.1011 14.0257 20.3332 14.0397 20.4246 14.0397L20.4386 14.778C20.4949 14.7358 20.5722 14.4897 20.6074 14.4194C20.6566 14.3069 20.7269 14.1522 20.762 14.0397H21.1768C21.1136 14.4053 21.0081 14.8061 20.98 15.1858ZM23.8415 16.4794C23.8766 16.4091 23.9258 16.4232 23.954 16.3528C23.8977 16.3528 23.7571 16.3599 23.722 16.3458C23.6798 16.3318 23.6235 16.2544 23.6024 16.2193H23.9962C24.1016 16.2193 24.0805 16.2263 24.1297 16.163C24.1649 16.1138 24.193 16.0997 24.2141 16.0505H23.4478L23.3774 15.924L24.3125 15.9169C24.3407 15.8607 24.3899 15.8115 24.4039 15.7412H23.279L23.2157 15.6076H24.4883L24.5586 15.4389H23.1665C23.1243 15.4178 23.1173 15.3475 23.1033 15.3053L24.6078 15.2982L24.657 15.1295H24.2563L24.2422 15.1717C24.193 15.2068 24.0454 15.1858 23.9751 15.1858C24.0172 14.8834 24.1016 14.6022 24.1368 14.2577H24.3688L24.3547 14.3913C24.4391 14.3491 24.3899 14.2647 24.643 14.2577L24.5516 14.5108C24.4039 14.5108 24.3617 14.553 24.3266 14.6866H24.5867L24.6078 14.6233C24.6289 14.4686 24.65 14.4335 24.6992 14.3069L24.6922 14.2015C24.6219 14.1874 23.1525 14.1874 23.0611 14.2015L23.054 14.2507L23.1947 14.2577C23.1876 14.4686 23.1665 14.4616 23.1173 14.4686H23.0119L22.9767 14.6725L23.1595 14.6795C23.3071 14.0749 23.8344 14.2155 23.9469 14.4124C23.9891 14.4897 23.9962 14.6163 23.9751 14.7077C23.9469 14.8412 23.9751 14.7991 23.3915 14.7991C23.3634 14.9256 23.4688 14.9889 23.5673 15.003C23.7149 15.0311 23.7993 14.9748 23.9188 14.9467L23.8837 15.1576C23.7571 15.2139 23.5392 15.2209 23.4056 15.1787C23.2509 15.1295 23.1947 15.0381 23.1454 14.8834C23.1384 14.8694 23.1384 14.8764 23.1314 14.8412V14.8131H22.9486C22.9275 14.8834 22.9275 14.9326 22.9556 14.9819L23.1033 14.9889L23.054 15.1787C22.9767 15.2279 22.7728 15.2209 22.7095 15.1506C22.6181 15.0522 22.7377 14.5881 22.7728 14.4194C22.7939 14.3139 22.815 14.1452 22.8361 14.0468H23.0329C23.0962 14.0538 23.0611 14.0327 23.0751 14.0679H24.657C24.657 14.0187 24.6289 13.9343 24.6149 13.8921H23.0681C23.0751 13.8429 23.0822 13.7796 23.1243 13.7585H24.5727L24.5235 13.5898H23.1736L23.2228 13.4562H24.4531L24.3688 13.2875H23.3071C23.3212 13.2453 23.3634 13.1679 23.4056 13.1469H24.2774C24.2422 13.0906 24.193 13.0273 24.1579 12.9781H23.511C23.5392 12.9289 23.5743 12.8797 23.6095 12.8445H23.9962C23.9469 12.7531 23.8485 12.6969 23.8063 12.6266C23.7712 12.6195 23.5813 12.4578 23.5392 12.4297C23.279 12.261 23.04 12.1555 22.7377 12.0782C21.9643 11.8813 21.1628 12.029 20.5511 12.5352C20.2277 12.8023 19.9957 13.0555 19.8059 13.4421C19.7496 13.5546 19.7145 13.646 19.6652 13.7656C19.4754 14.2507 19.5035 14.9045 19.6652 15.3756C19.6863 15.4389 19.7074 15.4881 19.7285 15.5443C19.7637 15.6427 19.9183 15.924 19.9816 16.0083C20.1504 16.2404 20.305 16.4302 20.5441 16.606C20.8323 16.8239 20.994 16.8942 21.3175 17.0208C21.3737 17.0419 21.437 17.0559 21.4932 17.07C22.0416 17.2106 22.7587 17.1473 23.2509 16.8802C23.3071 16.852 23.3423 16.8309 23.3985 16.8028C23.4478 16.7747 23.4899 16.7466 23.5462 16.7114C23.6306 16.6622 23.736 16.5638 23.8204 16.5075L23.8415 16.4794Z" fill="#E63D24"/>
<path fill-rule="evenodd" clip-rule="evenodd" d="M28.0244 15.0448C28.0947 15.101 27.9963 15.2417 27.9119 15.1995L27.8697 15.1714V15.1573L27.8768 15.0307C27.8346 15.0729 27.8486 15.1151 27.8346 15.094L27.8205 15.1081C27.8346 14.9253 28.0174 14.9675 28.0174 15.0448H28.0244ZM25.634 17.161H25.5426C25.3949 17.161 25.2473 17.147 25.1067 17.1189C24.8184 17.0696 24.4739 16.9361 24.2419 16.7814C24.1857 16.7462 24.1435 16.7251 24.0943 16.69C24.031 16.6408 23.8833 16.5423 23.8341 16.4791C23.8693 16.4088 23.9185 16.4228 23.9466 16.3525C23.8904 16.3525 23.7498 16.3595 23.7146 16.3455C23.6724 16.3314 23.6162 16.2541 23.5951 16.2189H23.9888C24.0943 16.2189 24.0732 16.226 24.1224 16.1627C24.1575 16.1135 24.1857 16.0994 24.2067 16.0502H23.4404L23.3701 15.9236L24.3052 15.9166C24.3333 15.8604 24.3825 15.8111 24.3966 15.7408H23.2717L23.2084 15.6073H24.4809L24.5513 15.4385H23.1592C23.117 15.4174 23.11 15.3471 23.0959 15.3049L24.6005 15.2979L24.6497 15.1292H24.2489L24.2349 15.1714L24.27 14.9675C24.2981 14.9886 24.263 14.9745 24.3052 14.9886H24.6708C24.7481 15.1573 25.0926 15.2768 25.3246 15.1643C25.3387 15.0448 25.3598 15.0167 25.3738 14.9323C25.2262 14.9604 25.1348 15.0307 24.9731 14.9393C24.8676 14.8761 24.8254 14.7425 24.8606 14.5948C24.9168 14.3628 25.0293 14.2503 25.2614 14.2714C25.3668 14.2785 25.3879 14.3066 25.4723 14.3206L25.5004 14.1097C25.3738 14.0113 25.0504 13.9972 24.8325 14.166C24.7481 14.2292 24.7551 14.2644 24.6919 14.3277L24.6848 14.2222C24.6145 14.2081 23.1451 14.2081 23.0537 14.2222L23.0818 14.0816H24.6637C24.6637 14.0324 24.6356 13.948 24.6216 13.9058H23.0748C23.0818 13.8566 23.0889 13.7933 23.131 13.7722H24.5794L24.5302 13.6035H23.1803L23.2295 13.4699H24.4599L24.3755 13.3012H23.3138C23.3279 13.259 23.3701 13.1817 23.4123 13.1606H24.2841C24.2489 13.1043 24.1997 13.0411 24.1646 12.9918H23.5177C23.5459 12.9426 23.581 12.8934 23.6162 12.8583H24.0029C23.9536 12.7669 23.8552 12.7106 23.813 12.6403L24.0802 12.4294C24.1294 12.3942 24.1716 12.3661 24.2278 12.338C24.3895 12.2325 24.5302 12.1692 24.713 12.106C25.0223 11.9935 25.4441 11.9232 25.7605 11.9583C26.3089 12.0146 26.8854 12.2255 27.2862 12.5981C27.5112 12.809 27.6729 12.9918 27.8276 13.252C28.0596 13.6387 28.1932 14.0816 28.1932 14.5667C28.1932 15.0167 28.1228 15.2206 27.9963 15.5721C27.9611 15.6776 27.8135 15.9377 27.7432 16.0361C27.5815 16.2681 27.3776 16.4861 27.1596 16.6478C26.8784 16.8587 26.7097 16.9431 26.3722 17.0626L26.0839 17.14C26.0488 17.147 26.0066 17.147 25.9855 17.154C25.866 17.1751 25.7465 17.1821 25.6269 17.1892L25.634 17.161ZM26.1964 15.0589L26.1894 15.1854L25.9574 15.1784L25.9504 15.101C25.8941 15.1362 25.8871 15.1643 25.7957 15.1854C25.3246 15.312 25.2403 14.6581 25.8168 14.6159H25.9785L26.0277 14.5948C26.0839 14.3699 25.6902 14.4683 25.5637 14.4823C25.5988 14.2995 25.5777 14.2292 25.9785 14.2503C26.4636 14.2785 26.1894 14.8269 26.1894 15.0659L26.1964 15.0589ZM26.2738 15.1784C26.323 14.8761 26.4144 14.5667 26.4425 14.2503H26.6745L26.6675 14.3839C26.7308 14.3417 26.773 14.2433 26.9557 14.2503C26.9276 14.3488 26.8925 14.3628 26.8714 14.5034C26.6675 14.5105 26.6534 14.5597 26.6112 14.7565C26.5831 14.8972 26.562 15.0237 26.5409 15.1784H26.2738ZM27.5604 14.3628C27.5955 14.3066 27.6166 14.1097 27.6237 14.0324H27.8908C27.8416 14.3417 27.708 14.8761 27.6869 15.1784H27.4338L27.4409 15.08L27.4338 15.087L27.3565 15.1432C27.1315 15.2628 26.8573 15.1503 26.8573 14.8058C26.8573 14.3136 27.2651 14.173 27.469 14.2925C27.5112 14.3206 27.5182 14.3417 27.5604 14.3699V14.3628Z" fill="#EF7F1A"/>
<path fill-rule="evenodd" clip-rule="evenodd" d="M20.9796 15.1855C21.0077 14.8058 21.1132 14.405 21.1765 14.0395H20.7616C20.7265 14.1519 20.6562 14.3066 20.607 14.4191C20.5788 14.4894 20.4945 14.7355 20.4382 14.7777L20.4242 14.0395C20.3257 14.0395 20.1008 14.0254 20.0234 14.0465C19.9742 14.4332 19.8758 14.8058 19.8125 15.1855L20.0375 15.1784C20.0515 15.0378 20.1711 14.3347 20.2132 14.2644L20.2765 15.1855H20.4945L20.8882 14.2574C20.8882 14.3629 20.839 14.6089 20.8179 14.7285C20.7968 14.8831 20.7616 15.0308 20.7335 15.1855H20.9796ZM27.1104 14.7566C27.1104 14.4191 27.5041 14.3418 27.5041 14.63C27.5041 15.0378 27.1104 15.0941 27.1104 14.7706V14.7566ZM27.5674 14.3629C27.5252 14.3418 27.5181 14.3136 27.476 14.2855C27.2721 14.166 26.8643 14.2996 26.8643 14.7988C26.8643 15.1433 27.1385 15.2558 27.3635 15.1362L27.4408 15.08L27.4478 15.073L27.4408 15.1714H27.6939C27.715 14.8691 27.8416 14.3418 27.8978 14.0254H27.6306C27.6166 14.1027 27.5955 14.2926 27.5674 14.3558V14.3629ZM21.6616 14.7566C21.6897 14.8339 21.6335 14.9324 21.5913 14.9675C21.4155 15.1011 21.2327 14.8902 21.4225 14.7847C21.4858 14.7496 21.5772 14.7425 21.6616 14.7566ZM21.2468 14.4683C21.4436 14.4332 21.7249 14.3629 21.7319 14.5808C21.5913 14.5808 21.4225 14.5808 21.31 14.63C21.0499 14.7425 21.0358 15.1292 21.2889 15.1855C21.4717 15.2276 21.5772 15.1151 21.6335 15.08C21.6475 15.1222 21.6335 15.1222 21.6405 15.1714H21.8655C21.8725 15.0167 21.978 14.4894 21.9498 14.405C21.8655 14.1871 21.521 14.2152 21.2889 14.2715L21.2468 14.4543V14.4683ZM25.9995 14.7777C25.9925 14.9113 25.8941 15.073 25.7323 15.0097C25.641 14.9745 25.5988 14.7425 25.9995 14.7777ZM25.9573 15.1011C25.9784 15.1292 25.9714 15.1222 25.9714 15.1784H26.1823C26.1753 15.1292 26.1753 15.1011 26.1964 15.0659C26.1964 14.8339 26.4706 14.2785 25.9855 14.2504C25.5847 14.2293 25.5988 14.2996 25.5706 14.4824C25.6972 14.4683 26.0909 14.3699 26.0347 14.5949L25.9855 14.616H25.8237C25.2472 14.6582 25.3316 15.319 25.8027 15.1855C25.8941 15.1573 25.9011 15.1362 25.9573 15.1011ZM23.4263 14.6089C23.4263 14.391 23.7567 14.3699 23.7497 14.6019C23.6724 14.623 23.5106 14.616 23.4263 14.6089ZM23.1661 14.6792L23.1591 14.8761C23.2083 15.0378 23.2646 15.1222 23.4192 15.1714C23.5528 15.2136 23.7708 15.2065 23.8973 15.1503L23.9325 14.9394C23.813 14.9745 23.7286 15.0238 23.581 14.9956C23.4825 14.9816 23.37 14.9183 23.4052 14.7917C23.9958 14.7917 23.9606 14.8339 23.9887 14.7003C24.0098 14.6089 24.0098 14.4824 23.9606 14.405C23.8481 14.2082 23.3208 14.0676 23.1732 14.6722L23.1661 14.6792Z" fill="#FEFCFD"/>
<path fill-rule="evenodd" clip-rule="evenodd" d="M24.7062 14.3059C24.657 14.4324 24.6359 14.4676 24.6148 14.6223L24.6219 14.8191L24.6781 14.9808C24.7554 15.1496 25.0999 15.2691 25.332 15.1566C25.346 15.0371 25.3671 15.009 25.3812 14.9246C25.2335 14.9527 25.1421 15.023 24.9804 14.9316C24.875 14.8683 24.8328 14.7348 24.8679 14.5871C24.9242 14.3551 25.0367 14.2426 25.2687 14.2637C25.3741 14.2707 25.3952 14.2989 25.4796 14.3129L25.5077 14.102C25.3812 14.0036 25.0578 13.9895 24.8398 14.1582C24.7554 14.2215 24.7625 14.2567 24.6992 14.3199L24.7062 14.3059ZM21.9643 14.9738L21.9502 15.1707C22.1049 15.1918 22.1822 15.2058 22.3439 15.1847C22.4916 15.1636 22.5689 15.1355 22.6111 15.016C22.7587 14.6223 22.2806 14.6574 22.3017 14.5098C22.3509 14.3973 22.5056 14.4465 22.6392 14.4535L22.6814 14.2637C22.5267 14.2567 22.3088 14.2215 22.1822 14.2918C22.0767 14.3481 21.9853 14.5238 22.0627 14.6644C22.126 14.791 22.365 14.798 22.3861 14.8965C22.4283 15.0722 22.0557 14.9949 21.9643 14.9738ZM22.9626 14.798L22.9837 14.6644L23.0189 14.4606C23.047 14.4606 23.1032 14.4676 23.1243 14.4606C23.1735 14.4535 23.1876 14.4606 23.2017 14.2496L23.061 14.2426L23.0681 14.1934L23.0962 14.0528C23.0821 14.0176 23.1173 14.0387 23.054 14.0317H22.8572C22.829 14.1231 22.815 14.2918 22.7939 14.4043C22.7587 14.5801 22.6392 15.0441 22.7306 15.1355C22.7939 15.1988 22.9978 15.2128 23.0751 15.1636L23.1243 14.9738L22.9767 14.9668C22.9415 14.9176 22.9486 14.8683 22.9696 14.798H22.9626ZM24.2422 15.1707L24.2774 14.9668L24.3055 14.8191L24.3336 14.6785C24.3688 14.5449 24.4109 14.5027 24.5586 14.5027L24.65 14.2496C24.4039 14.2567 24.4531 14.341 24.3617 14.3832L24.3758 14.2496H24.1438C24.1086 14.5941 24.0243 14.8754 23.9821 15.1777C24.0524 15.1777 24.2 15.1988 24.2492 15.1636L24.2422 15.1707ZM26.2811 15.1847H26.5483C26.5694 15.03 26.5975 14.9035 26.6186 14.7629C26.6537 14.566 26.6748 14.5238 26.8787 14.5098C26.8928 14.3692 26.935 14.3551 26.9631 14.2567C26.7803 14.2496 26.7381 14.341 26.6748 14.3903L26.6819 14.2567H26.4498C26.4217 14.573 26.3303 14.8824 26.2811 15.1847Z" fill="#FEFCFD"/>
<path fill-rule="evenodd" clip-rule="evenodd" d="M27.1104 14.7572V14.7713C27.1104 15.0947 27.5041 15.0385 27.5041 14.6307C27.5041 14.3424 27.1104 14.4197 27.1104 14.7572Z" fill="#EF7F1A"/>
<path fill-rule="evenodd" clip-rule="evenodd" d="M21.6623 14.7568C21.5779 14.7427 21.4865 14.7498 21.4233 14.7849C21.2334 14.8904 21.4162 15.1013 21.592 14.9677C21.6342 14.9326 21.6904 14.8341 21.6623 14.7568Z" fill="#E63D24"/>
<path fill-rule="evenodd" clip-rule="evenodd" d="M26.0003 14.7785C25.5996 14.7364 25.6418 14.9684 25.7332 15.0106C25.8949 15.0738 25.9933 14.9192 26.0003 14.7785Z" fill="#EF7F1A"/>
<path fill-rule="evenodd" clip-rule="evenodd" d="M24.2704 14.9665C24.2986 14.9876 24.2634 14.9736 24.3056 14.9876H24.6712L24.6149 14.8259H24.2986L24.2704 14.9736V14.9665ZM23.4268 14.608C23.5111 14.615 23.6728 14.6291 23.7502 14.6009C23.7572 14.3689 23.4338 14.39 23.4268 14.608Z" fill="#E63D24"/>
<path fill-rule="evenodd" clip-rule="evenodd" d="M24.3339 14.6793L24.3058 14.8199H24.6151V14.623L24.594 14.6863L24.3339 14.6793ZM22.9629 14.7988H23.1457V14.8269C23.1527 14.8621 23.1527 14.8551 23.1598 14.8691L23.1668 14.6723L22.984 14.6652L22.9629 14.7988Z" fill="#ED7B1B"/>
<path fill-rule="evenodd" clip-rule="evenodd" d="M27.9125 15.1993C27.8773 15.1641 27.9547 15.1993 27.8844 15.1711L27.9055 15.1571L27.8844 15.0305L27.9687 15.0446L27.9898 15.0376L27.9969 15.0305C27.9969 15.0657 27.9898 15.0516 28.025 15.0446C28.018 14.9673 27.8422 14.9251 27.8281 15.1079C27.8352 15.1008 27.8352 15.0938 27.8422 15.0938C27.8633 15.1219 27.8422 15.0727 27.8844 15.0305L27.8773 15.1571V15.1711L27.9195 15.1993H27.9125Z" fill="#F9BD84"/>
<path fill-rule="evenodd" clip-rule="evenodd" d="M27.9682 15.0453C27.9682 15.0734 27.9752 15.0945 27.933 15.0945C27.8908 15.0875 27.9049 15.0805 27.9049 15.0383L27.9682 15.0453ZM27.9049 15.1578V15.1086C27.9752 15.1156 27.926 15.0945 27.9611 15.1367C27.9752 15.1578 27.9822 15.1719 27.9963 15.1859L27.9119 15.2C27.9963 15.2422 28.1017 15.1016 28.0244 15.0453C28.0244 15.0734 28.0314 15.0875 28.0244 15.1086C28.0174 15.1437 28.0174 15.1367 28.0033 15.1578C27.9471 15.0945 27.9963 15.1226 27.9892 15.0383L27.9682 15.0453L27.8838 15.0312L27.9049 15.1578Z" fill="#FDE6CD"/>
<path fill-rule="evenodd" clip-rule="evenodd" d="M27.9049 15.1644L27.8838 15.1785C27.9541 15.2066 27.8768 15.1715 27.9119 15.2066L27.9963 15.1926C27.9892 15.1785 27.9822 15.1644 27.9611 15.1434C27.926 15.1082 27.9752 15.1223 27.9049 15.1152V15.1644Z" fill="#F0811A"/>
<path fill-rule="evenodd" clip-rule="evenodd" d="M25.958 15.0949L25.965 15.1723L26.1971 15.1793L26.2041 15.0527C26.183 15.0879 26.183 15.116 26.19 15.1652H25.9791C25.9791 15.109 25.9791 15.116 25.965 15.0879L25.958 15.0949Z" fill="#FBCA9A"/>
<path fill-rule="evenodd" clip-rule="evenodd" d="M28.025 15.0453C27.9898 15.0523 27.9968 15.0664 27.9968 15.0312L27.9898 15.0383C27.9968 15.1226 27.9476 15.0875 28.0039 15.1578C28.0179 15.1367 28.025 15.1508 28.025 15.1086V15.0453Z" fill="#F0811A"/>
<path fill-rule="evenodd" clip-rule="evenodd" d="M27.9688 15.0441L27.9056 15.0371C27.9056 15.0793 27.8915 15.0863 27.9337 15.0934C27.9759 15.1004 27.9688 15.0723 27.9688 15.0441Z" fill="#F0831F"/>
<defs>
<linearGradient id="paint0_linear_528_1741" x1="14.9997" y1="19.179" x2="14.9997" y2="-0.00217911" gradientUnits="userSpaceOnUse">
<stop stop-color="#E5097F"/>
<stop offset="1" stop-color="#96336D"/>
</linearGradient>
<linearGradient id="paint1_linear_528_1741" x1="7.60379" y1="-0.508671" x2="11.3609" y2="19.6856" gradientUnits="userSpaceOnUse">
<stop stop-color="#E8388C"/>
<stop offset="1" stop-color="#97326D"/>
</linearGradient>
</defs>
</svg>
