<svg width="28" height="20" viewBox="0 0 28 20" fill="none" xmlns="http://www.w3.org/2000/svg">
<path fill-rule="evenodd" clip-rule="evenodd" d="M3.76613 1.13867H24.2332C24.6851 1.13999 25.1182 1.32012 25.4378 1.63969C25.7573 1.95926 25.9375 2.39232 25.9388 2.84426V12.5093C25.9375 12.9612 25.7573 13.3943 25.4378 13.7138C25.1182 14.0334 24.6851 14.2135 24.2332 14.2148H3.76613C3.31419 14.2135 2.88114 14.0334 2.56156 13.7138C2.24199 13.3943 2.06187 12.9612 2.06055 12.5093V2.84426C2.06187 2.39232 2.24199 1.95926 2.56156 1.63969C2.88114 1.32012 3.31419 1.13999 3.76613 1.13867Z" fill="white"/>
<path fill-rule="evenodd" clip-rule="evenodd" d="M3.19795 0.00195312H24.8021C25.4047 0.00371698 25.9821 0.243877 26.4082 0.669975C26.8343 1.09607 27.0744 1.67348 27.0762 2.27607V17.0578C27.0744 17.6604 26.8343 18.2378 26.4082 18.6639C25.9821 19.09 25.4047 19.3302 24.8021 19.332H3.19795C2.59535 19.3302 2.01795 19.09 1.59185 18.6639C1.16575 18.2378 0.925592 17.6604 0.923828 17.0578V2.27607C0.925592 1.67348 1.16575 1.09607 1.59185 0.669975C2.01795 0.243877 2.59535 0.00371698 3.19795 0.00195312Z" fill="#D9D6CC"/>
<path fill-rule="evenodd" clip-rule="evenodd" d="M3.76613 1.13867H24.2332C24.6851 1.13999 25.1182 1.32012 25.4378 1.63969C25.7573 1.95926 25.9375 2.39232 25.9388 2.84426V12.5093C25.9375 12.9612 25.7573 13.3943 25.4378 13.7138C25.1182 14.0334 24.6851 14.2135 24.2332 14.2148H3.76613C3.31419 14.2135 2.88114 14.0334 2.56156 13.7138C2.24199 13.3943 2.06187 12.9612 2.06055 12.5093V2.84426C2.06187 2.39232 2.24199 1.95926 2.56156 1.63969C2.88114 1.32012 3.31419 1.13999 3.76613 1.13867Z" fill="#3B99C9"/>
<path fill-rule="evenodd" clip-rule="evenodd" d="M3.76613 3.12891H24.2332C24.6851 3.13023 25.1182 3.31035 25.4378 3.62992C25.7573 3.9495 25.9375 4.38255 25.9388 4.83449V8.24567C25.9375 8.69761 25.7573 9.13067 25.4378 9.45024C25.1182 9.76982 24.6851 9.94994 24.2332 9.95126H3.76613C3.31419 9.94994 2.88114 9.76982 2.56156 9.45024C2.24199 9.13067 2.06187 8.69761 2.06055 8.24567V4.83449C2.06187 4.38255 2.24199 3.9495 2.56156 3.62992C2.88114 3.31035 3.31419 3.13023 3.76613 3.12891Z" fill="black"/>
<path fill-rule="evenodd" clip-rule="evenodd" d="M3.76613 3.12891H24.2332C24.6851 3.13023 25.1182 3.31035 25.4378 3.62992C25.7573 3.9495 25.9375 4.38255 25.9388 4.83449V8.24567C25.9375 8.69761 25.7573 9.13067 25.4378 9.45024C25.1182 9.76982 24.6851 9.94994 24.2332 9.95126H3.76613C3.31419 9.94994 2.88114 9.76982 2.56156 9.45024C2.24199 9.13067 2.06187 8.69761 2.06055 8.24567V4.83449C2.06187 4.38255 2.24199 3.9495 2.56156 3.62992C2.88114 3.31035 3.31419 3.13023 3.76613 3.12891Z" fill="#FFB003"/>
<path fill-rule="evenodd" clip-rule="evenodd" d="M3.76613 5.11914H24.2332C24.6851 5.12046 25.1182 5.30058 25.4378 5.62016C25.7573 5.93973 25.9375 6.37279 25.9388 6.82473V10.2359C25.9375 10.6878 25.7573 11.1209 25.4378 11.4405C25.1182 11.7601 24.6851 11.9402 24.2332 11.9415H3.76613C3.31419 11.9402 2.88114 11.7601 2.56156 11.4405C2.24199 11.1209 2.06187 10.6878 2.06055 10.2359V6.82473C2.06187 6.37279 2.24199 5.93973 2.56156 5.62016C2.88114 5.30058 3.31419 5.12046 3.76613 5.11914Z" fill="black"/>
<path fill-rule="evenodd" clip-rule="evenodd" d="M3.76613 5.11914H24.2332C24.6851 5.12046 25.1182 5.30058 25.4378 5.62016C25.7573 5.93973 25.9375 6.37279 25.9388 6.82473V10.2359C25.9375 10.6878 25.7573 11.1209 25.4378 11.4405C25.1182 11.7601 24.6851 11.9402 24.2332 11.9415H3.76613C3.31419 11.9402 2.88114 11.7601 2.56156 11.4405C2.24199 11.1209 2.06187 10.6878 2.06055 10.2359V6.82473C2.06187 6.37279 2.24199 5.93973 2.56156 5.62016C2.88114 5.30058 3.31419 5.12046 3.76613 5.11914Z" fill="#50BE3D"/>
<path fill-rule="evenodd" clip-rule="evenodd" d="M3.76613 7.10938H24.2332C24.6851 7.1107 25.1182 7.29082 25.4378 7.61039C25.7573 7.92997 25.9375 8.36302 25.9388 8.81496V12.2261C25.9375 12.6781 25.7573 13.1111 25.4378 13.4307C25.1182 13.7503 24.6851 13.9304 24.2332 13.9317H3.76613C3.31419 13.9304 2.88114 13.7503 2.56156 13.4307C2.24199 13.1111 2.06187 12.6781 2.06055 12.2261V8.81496C2.06187 8.36302 2.24199 7.92997 2.56156 7.61039C2.88114 7.29082 3.31419 7.1107 3.76613 7.10938Z" fill="black"/>
<path fill-rule="evenodd" clip-rule="evenodd" d="M3.76613 7.10938H24.2332C24.6851 7.1107 25.1182 7.29082 25.4378 7.61039C25.7573 7.92997 25.9375 8.36302 25.9388 8.81496V12.2261C25.9375 12.6781 25.7573 13.1111 25.4378 13.4307C25.1182 13.7503 24.6851 13.9304 24.2332 13.9317H3.76613C3.31419 13.9304 2.88114 13.7503 2.56156 13.4307C2.24199 13.1111 2.06187 12.6781 2.06055 12.2261V8.81496C2.06187 8.36302 2.24199 7.92997 2.56156 7.61039C2.88114 7.29082 3.31419 7.1107 3.76613 7.10938Z" fill="#F26D5F"/>
<path fill-rule="evenodd" clip-rule="evenodd" d="M0.923828 9.09766H27.0762V17.0571C27.0744 17.6597 26.8343 18.2371 26.4082 18.6632C25.9821 19.0893 25.4047 19.3294 24.8021 19.3312H3.19795C2.59535 19.3294 2.01795 19.0893 1.59185 18.6632C1.16575 18.2371 0.925592 17.6597 0.923828 17.0571V9.09766ZM8.59897 9.09766C11.1574 9.09766 11.4416 12.3667 14 12.3667C16.5584 12.3667 16.8427 9.09766 19.401 9.09766H8.59897Z" fill="black"/>
<path fill-rule="evenodd" clip-rule="evenodd" d="M0.923828 9.09766H27.0762V17.0571C27.0744 17.6597 26.8343 18.2371 26.4082 18.6632C25.9821 19.0893 25.4047 19.3294 24.8021 19.3312H3.19795C2.59535 19.3294 2.01795 19.0893 1.59185 18.6632C1.16575 18.2371 0.925592 17.6597 0.923828 17.0571V9.09766ZM8.59897 9.09766C11.1574 9.09766 11.4416 12.3667 14 12.3667C16.5584 12.3667 16.8427 9.09766 19.401 9.09766H8.59897Z" fill="#D9D6CC"/>
</svg>
