<svg width="96" height="84" viewBox="0 0 96 84" fill="none" xmlns="http://www.w3.org/2000/svg">
<rect x="0.5" y="0.5" width="95" height="83" rx="7.5" fill="#EBEBEB" fill-opacity="0.2"/>
<rect x="0.5" y="0.5" width="95" height="83" rx="7.5" stroke="#E9E9E9"/>
<path d="M58.9556 33.8364C61.6 30.6931 65 26.2463 65 21.0329C65 13.2127 58.2 7.99989 48 7.99989C37.8 7.99989 31 13.2132 31 21.0329C31 26.2463 34.4 30.6932 37.0444 33.8364L41.3889 47.1766V50.9332C41.3889 52.6199 43.0889 53.9999 45.1667 53.9999H50.8333C52.9111 53.9999 54.6111 52.6199 54.6111 50.9332V47.1766L58.9556 33.8364ZM43.3724 41.2729L44.8835 46.3326H43.089L40.1612 37.4393L43.3724 41.2729ZM46.8668 46.3326L45.4501 41.7327H50.5501L49.1334 46.3326H46.8668ZM48.0001 9.68582C49.7946 10.8358 55.5557 14.8991 55.5557 21.0325C55.5557 27.626 49.6056 37.9756 48.3779 40.1988H47.7168C46.3945 37.9755 40.4447 27.6255 40.4447 21.0325C40.4447 14.9757 46.2056 10.8359 48.0001 9.68582ZM52.6279 41.2724L55.839 37.4391L52.9112 46.3324H51.1167L52.6279 41.2724ZM63.1114 21.0325C63.1114 26.629 58.9558 31.306 56.1228 34.3727C55.5561 34.986 55.0838 35.446 54.7061 35.906L51.3061 40.1993H50.4561C52.345 36.9793 57.4447 27.5495 57.4447 21.0329C57.4447 15.666 53.5725 11.7564 50.9282 9.68631C58.3894 10.5297 63.1114 14.8226 63.1114 21.0325ZM45.0723 9.68582C42.4279 11.7558 38.5558 15.666 38.5558 21.0325C38.5558 27.549 43.6558 36.9791 45.5444 40.1988H44.6944L41.2 35.9055C40.8222 35.4455 40.35 34.9089 39.7833 34.3722C37.0444 31.3055 32.889 26.629 32.889 21.032C32.889 14.8221 37.6112 10.5288 45.0722 9.68533L45.0723 9.68582ZM52.7222 50.9321C52.7222 51.7755 51.8722 52.4655 50.8333 52.4655H45.1666C44.1277 52.4655 43.2777 51.7755 43.2777 50.9321V47.8655H52.7222V50.9321Z" fill="#888888"/>
<path d="M12.868 61.6359V69.9999H11.776V66.2079H7.516V69.9999H6.424V61.6359H7.516V65.3079H11.776V61.6359H12.868ZM17.6006 70.1079C16.9846 70.1079 16.4246 69.9679 15.9206 69.6879C15.4246 69.4079 15.0326 69.0119 14.7446 68.4999C14.4646 67.9799 14.3246 67.3799 14.3246 66.6999C14.3246 66.0279 14.4686 65.4359 14.7566 64.9239C15.0526 64.4039 15.4526 64.0079 15.9566 63.7359C16.4606 63.4559 17.0246 63.3159 17.6486 63.3159C18.2726 63.3159 18.8366 63.4559 19.3406 63.7359C19.8446 64.0079 20.2406 64.3999 20.5286 64.9119C20.8246 65.4239 20.9726 66.0199 20.9726 66.6999C20.9726 67.3799 20.8206 67.9799 20.5166 68.4999C20.2206 69.0119 19.8166 69.4079 19.3046 69.6879C18.7926 69.9679 18.2246 70.1079 17.6006 70.1079ZM17.6006 69.1479C17.9926 69.1479 18.3606 69.0559 18.7046 68.8719C19.0486 68.6879 19.3246 68.4119 19.5326 68.0439C19.7486 67.6759 19.8566 67.2279 19.8566 66.6999C19.8566 66.1719 19.7526 65.7239 19.5446 65.3559C19.3366 64.9879 19.0646 64.7159 18.7286 64.5399C18.3926 64.3559 18.0286 64.2639 17.6366 64.2639C17.2366 64.2639 16.8686 64.3559 16.5326 64.5399C16.2046 64.7159 15.9406 64.9879 15.7406 65.3559C15.5406 65.7239 15.4406 66.1719 15.4406 66.6999C15.4406 67.2359 15.5366 67.6879 15.7286 68.0559C15.9286 68.4239 16.1926 68.6999 16.5206 68.8839C16.8486 69.0599 17.2086 69.1479 17.6006 69.1479ZM23.7404 64.3239V68.1999C23.7404 68.5199 23.8084 68.7479 23.9444 68.8839C24.0804 69.0119 24.3164 69.0759 24.6524 69.0759H25.4564V69.9999H24.4724C23.8644 69.9999 23.4084 69.8599 23.1044 69.5799C22.8004 69.2999 22.6484 68.8399 22.6484 68.1999V64.3239H21.7964V63.4239H22.6484V61.7679H23.7404V63.4239H25.4564V64.3239H23.7404ZM29.5707 66.6879C29.5707 66.0159 29.7067 65.4279 29.9787 64.9239C30.2507 64.4119 30.6227 64.0159 31.0947 63.7359C31.5747 63.4559 32.1067 63.3159 32.6907 63.3159C33.2667 63.3159 33.7667 63.4399 34.1907 63.6879C34.6147 63.9359 34.9307 64.2479 35.1387 64.6239V63.4239H36.2427V69.9999H35.1387V68.7759C34.9227 69.1599 34.5987 69.4799 34.1667 69.7359C33.7427 69.9839 33.2467 70.1079 32.6787 70.1079C32.0947 70.1079 31.5667 69.9639 31.0947 69.6759C30.6227 69.3879 30.2507 68.9839 29.9787 68.4639C29.7067 67.9439 29.5707 67.3519 29.5707 66.6879ZM35.1387 66.6999C35.1387 66.2039 35.0387 65.7719 34.8387 65.4039C34.6387 65.0359 34.3667 64.7559 34.0227 64.5639C33.6867 64.3639 33.3147 64.2639 32.9067 64.2639C32.4987 64.2639 32.1267 64.3599 31.7907 64.5519C31.4547 64.7439 31.1867 65.0239 30.9867 65.3919C30.7867 65.7599 30.6867 66.1919 30.6867 66.6879C30.6867 67.1919 30.7867 67.6319 30.9867 68.0079C31.1867 68.3759 31.4547 68.6599 31.7907 68.8599C32.1267 69.0519 32.4987 69.1479 32.9067 69.1479C33.3147 69.1479 33.6867 69.0519 34.0227 68.8599C34.3667 68.6599 34.6387 68.3759 34.8387 68.0079C35.0387 67.6319 35.1387 67.1959 35.1387 66.6999ZM38.6521 62.3559C38.4441 62.3559 38.2681 62.2839 38.1241 62.1399C37.9801 61.9959 37.9081 61.8199 37.9081 61.6119C37.9081 61.4039 37.9801 61.2279 38.1241 61.0839C38.2681 60.9399 38.4441 60.8679 38.6521 60.8679C38.8521 60.8679 39.0201 60.9399 39.1561 61.0839C39.3001 61.2279 39.3721 61.4039 39.3721 61.6119C39.3721 61.8199 39.3001 61.9959 39.1561 62.1399C39.0201 62.2839 38.8521 62.3559 38.6521 62.3559ZM39.1801 63.4239V69.9999H38.0881V63.4239H39.1801ZM42.1332 64.4919C42.3252 64.1159 42.5972 63.8239 42.9492 63.6159C43.3092 63.4079 43.7452 63.3039 44.2572 63.3039V64.4319H43.9692C42.7452 64.4319 42.1332 65.0959 42.1332 66.4239V69.9999H41.0412V63.4239H42.1332V64.4919ZM49.809 64.6479C50.033 64.2559 50.361 63.9359 50.793 63.6879C51.225 63.4399 51.717 63.3159 52.269 63.3159C52.861 63.3159 53.393 63.4559 53.865 63.7359C54.337 64.0159 54.709 64.4119 54.981 64.9239C55.253 65.4279 55.389 66.0159 55.389 66.6879C55.389 67.3519 55.253 67.9439 54.981 68.4639C54.709 68.9839 54.333 69.3879 53.853 69.6759C53.381 69.9639 52.853 70.1079 52.269 70.1079C51.701 70.1079 51.201 69.9839 50.769 69.7359C50.345 69.4879 50.025 69.1719 49.809 68.7879V69.9999H48.717V61.1199H49.809V64.6479ZM54.273 66.6879C54.273 66.1919 54.173 65.7599 53.973 65.3919C53.773 65.0239 53.501 64.7439 53.157 64.5519C52.821 64.3599 52.449 64.2639 52.041 64.2639C51.641 64.2639 51.269 64.3639 50.925 64.5639C50.589 64.7559 50.317 65.0399 50.109 65.4159C49.909 65.7839 49.809 66.2119 49.809 66.6999C49.809 67.1959 49.909 67.6319 50.109 68.0079C50.317 68.3759 50.589 68.6599 50.925 68.8599C51.269 69.0519 51.641 69.1479 52.041 69.1479C52.449 69.1479 52.821 69.0519 53.157 68.8599C53.501 68.6599 53.773 68.3759 53.973 68.0079C54.173 67.6319 54.273 67.1919 54.273 66.6879ZM56.4183 66.6879C56.4183 66.0159 56.5543 65.4279 56.8263 64.9239C57.0983 64.4119 57.4703 64.0159 57.9423 63.7359C58.4223 63.4559 58.9543 63.3159 59.5383 63.3159C60.1143 63.3159 60.6143 63.4399 61.0383 63.6879C61.4623 63.9359 61.7783 64.2479 61.9863 64.6239V63.4239H63.0903V69.9999H61.9863V68.7759C61.7703 69.1599 61.4463 69.4799 61.0143 69.7359C60.5903 69.9839 60.0943 70.1079 59.5263 70.1079C58.9423 70.1079 58.4143 69.9639 57.9423 69.6759C57.4703 69.3879 57.0983 68.9839 56.8263 68.4639C56.5543 67.9439 56.4183 67.3519 56.4183 66.6879ZM61.9863 66.6999C61.9863 66.2039 61.8863 65.7719 61.6863 65.4039C61.4863 65.0359 61.2143 64.7559 60.8703 64.5639C60.5343 64.3639 60.1623 64.2639 59.7543 64.2639C59.3463 64.2639 58.9743 64.3599 58.6383 64.5519C58.3023 64.7439 58.0343 65.0239 57.8343 65.3919C57.6343 65.7599 57.5343 66.1919 57.5343 66.6879C57.5343 67.1919 57.6343 67.6319 57.8343 68.0079C58.0343 68.3759 58.3023 68.6599 58.6383 68.8599C58.9743 69.0519 59.3463 69.1479 59.7543 69.1479C60.1623 69.1479 60.5343 69.0519 60.8703 68.8599C61.2143 68.6599 61.4863 68.3759 61.6863 68.0079C61.8863 67.6319 61.9863 67.1959 61.9863 66.6999ZM66.0277 61.1199V69.9999H64.9357V61.1199H66.0277ZM70.7568 70.1079C70.1408 70.1079 69.5808 69.9679 69.0768 69.6879C68.5808 69.4079 68.1888 69.0119 67.9008 68.4999C67.6208 67.9799 67.4808 67.3799 67.4808 66.6999C67.4808 66.0279 67.6248 65.4359 67.9128 64.9239C68.2088 64.4039 68.6088 64.0079 69.1128 63.7359C69.6168 63.4559 70.1808 63.3159 70.8048 63.3159C71.4288 63.3159 71.9928 63.4559 72.4968 63.7359C73.0008 64.0079 73.3968 64.3999 73.6848 64.9119C73.9808 65.4239 74.1288 66.0199 74.1288 66.6999C74.1288 67.3799 73.9768 67.9799 73.6728 68.4999C73.3768 69.0119 72.9728 69.4079 72.4608 69.6879C71.9488 69.9679 71.3808 70.1079 70.7568 70.1079ZM70.7568 69.1479C71.1488 69.1479 71.5168 69.0559 71.8608 68.8719C72.2048 68.6879 72.4808 68.4119 72.6888 68.0439C72.9048 67.6759 73.0128 67.2279 73.0128 66.6999C73.0128 66.1719 72.9088 65.7239 72.7008 65.3559C72.4928 64.9879 72.2208 64.7159 71.8848 64.5399C71.5488 64.3559 71.1848 64.2639 70.7928 64.2639C70.3928 64.2639 70.0248 64.3559 69.6888 64.5399C69.3608 64.7159 69.0968 64.9879 68.8968 65.3559C68.6968 65.7239 68.5968 66.1719 68.5968 66.6999C68.5968 67.2359 68.6928 67.6879 68.8848 68.0559C69.0848 68.4239 69.3488 68.6999 69.6768 68.8839C70.0048 69.0599 70.3648 69.1479 70.7568 69.1479ZM78.4326 70.1079C77.8166 70.1079 77.2566 69.9679 76.7526 69.6879C76.2566 69.4079 75.8646 69.0119 75.5766 68.4999C75.2966 67.9799 75.1566 67.3799 75.1566 66.6999C75.1566 66.0279 75.3006 65.4359 75.5886 64.9239C75.8846 64.4039 76.2846 64.0079 76.7886 63.7359C77.2926 63.4559 77.8566 63.3159 78.4806 63.3159C79.1046 63.3159 79.6686 63.4559 80.1726 63.7359C80.6766 64.0079 81.0726 64.3999 81.3606 64.9119C81.6566 65.4239 81.8046 66.0199 81.8046 66.6999C81.8046 67.3799 81.6526 67.9799 81.3486 68.4999C81.0526 69.0119 80.6486 69.4079 80.1366 69.6879C79.6246 69.9679 79.0566 70.1079 78.4326 70.1079ZM78.4326 69.1479C78.8246 69.1479 79.1926 69.0559 79.5366 68.8719C79.8806 68.6879 80.1566 68.4119 80.3646 68.0439C80.5806 67.6759 80.6886 67.2279 80.6886 66.6999C80.6886 66.1719 80.5846 65.7239 80.3766 65.3559C80.1686 64.9879 79.8966 64.7159 79.5606 64.5399C79.2246 64.3559 78.8606 64.2639 78.4686 64.2639C78.0686 64.2639 77.7006 64.3559 77.3646 64.5399C77.0366 64.7159 76.7726 64.9879 76.5726 65.3559C76.3726 65.7239 76.2726 66.1719 76.2726 66.6999C76.2726 67.2359 76.3686 67.6879 76.5606 68.0559C76.7606 68.4239 77.0246 68.6999 77.3526 68.8839C77.6806 69.0599 78.0406 69.1479 78.4326 69.1479ZM86.4444 63.3039C87.2444 63.3039 87.8924 63.5479 88.3884 64.0359C88.8844 64.5159 89.1324 65.2119 89.1324 66.1239V69.9999H88.0524V66.2799C88.0524 65.6239 87.8884 65.1239 87.5604 64.7799C87.2324 64.4279 86.7844 64.2519 86.2164 64.2519C85.6404 64.2519 85.1804 64.4319 84.8364 64.7919C84.5004 65.1519 84.3324 65.6759 84.3324 66.3639V69.9999H83.2404V63.4239H84.3324V64.3599C84.5484 64.0239 84.8404 63.7639 85.2084 63.5799C85.5844 63.3959 85.9964 63.3039 86.4444 63.3039Z" fill="#707070"/>
</svg>
