<svg width="96" height="84" viewBox="0 0 96 84" fill="none" xmlns="http://www.w3.org/2000/svg">
<rect x="0.5" y="0.5" width="95" height="83" rx="7.5" fill="#EBEBEB" fill-opacity="0.2"/>
<rect x="0.5" y="0.5" width="95" height="83" rx="7.5" stroke="#E9E9E9"/>
<path d="M30.2951 23.0175L33.955 23.4249C34.1954 23.4517 34.4719 23.4652 34.7768 23.4652C35.6457 23.4652 36.5938 23.3593 37.2513 23.1887L40.1706 22.4306C40.9844 22.2192 41.6906 21.5628 42.0259 20.7624H66.3628C67.5919 20.7624 68.5921 19.7624 68.5921 18.5331C68.5921 17.3039 67.592 16.3038 66.3628 16.3038H42.026C41.6907 15.5032 40.9843 14.8469 40.1706 14.6356L37.2515 13.8776C36.5943 13.7069 35.6464 13.6008 34.7778 13.6008C34.4724 13.6008 34.1956 13.6143 33.9551 13.6411L30.2953 14.0486C29.0748 14.1842 28.082 15.2938 28.082 16.5217V20.544C28.082 21.7718 29.0747 22.8814 30.2951 23.0175ZM30.4653 15.5777L34.1253 15.1703C34.307 15.15 34.5326 15.1394 34.7778 15.1394C35.5024 15.1394 36.3412 15.2308 36.8647 15.3666L39.7839 16.1248C40.2157 16.2368 40.6204 16.71 40.6863 17.1798C40.7394 17.5596 41.0644 17.8423 41.448 17.8423H66.3627C66.7436 17.8423 67.0535 18.1521 67.0535 18.5331C67.0535 18.9141 66.7436 19.224 66.3627 19.224H41.448C41.0643 19.224 40.7395 19.5065 40.6863 19.8864C40.6204 20.356 40.2156 20.8293 39.7839 20.9415L36.8648 21.6995C36.341 21.8355 35.5019 21.9268 34.7769 21.9268C34.5321 21.9268 34.3068 21.9161 34.1253 21.8959L30.4655 21.4885C30.0153 21.4383 29.6206 20.9971 29.6206 20.5443V16.5221C29.6206 16.069 30.0153 15.6278 30.4653 15.5777Z" fill="#888888"/>
<path d="M54.636 38.641C53.148 38.641 51.7605 39.3151 50.7291 40.5393C49.9949 41.4106 49.0253 41.8906 47.9987 41.8906C46.972 41.8906 46.0024 41.4106 45.2681 40.5392C44.2367 39.3152 42.8492 38.6411 41.3613 38.6411C39.8733 38.6411 38.4858 39.3152 37.4544 40.5392C37.1807 40.8642 37.2221 41.3495 37.5471 41.6231C37.8719 41.8968 38.3572 41.8553 38.6309 41.5305C39.3651 40.6593 40.3347 40.1794 41.3614 40.1794C42.388 40.1794 43.3576 40.6593 44.0918 41.5305C45.1233 42.7548 46.5108 43.4291 47.9988 43.4291C49.4868 43.4291 50.8743 42.7548 51.9056 41.5305C52.6398 40.6593 53.6094 40.1794 54.636 40.1794C55.6626 40.1794 56.6322 40.6593 57.3665 41.5305C57.6401 41.8554 58.1255 41.8968 58.4503 41.6231C58.7753 41.3493 58.8167 40.8642 58.5429 40.5392C57.5115 39.315 56.124 38.641 54.636 38.641Z" fill="#888888"/>
<path d="M71.1081 34.6226C70.9773 34.5135 70.8428 34.4122 70.7055 34.3175C70.9865 33.5328 71.1307 32.71 71.1307 31.8619C71.1307 30.5028 70.7563 29.2299 70.1069 28.1389C70.0842 28.0916 70.0568 28.047 70.0253 28.0056C68.7343 25.9383 66.4396 24.5592 63.8278 24.5592H32.1721C29.5577 24.5592 27.261 25.941 25.9706 28.0117C25.9426 28.0492 25.9179 28.0895 25.8971 28.132C25.2453 29.2244 24.8693 30.4999 24.8693 31.8618C24.8693 32.7099 25.0134 33.5327 25.2945 34.3174C25.1572 34.4121 25.0227 34.5132 24.8919 34.6224C24.6238 34.8466 24 35.498 24 36.7088V41.825C24 45.4499 26.949 48.3988 30.5738 48.3988H65.4262C69.051 48.3988 72 45.4499 72 41.825V36.7088C72 35.4979 71.3761 34.8465 71.1081 34.6226ZM32.1721 26.0977H63.828C65.8262 26.0977 67.5896 27.1201 68.6242 28.6688C68.4153 29.7061 66.5998 30.7826 64.0605 30.7826C61.3589 30.7826 59.4762 29.5641 59.4762 28.4708C59.4762 28.0459 59.1318 27.7016 58.707 27.7016C58.2822 27.7016 57.9378 28.0459 57.9378 28.4708C57.9378 29.5642 56.0552 30.7826 53.3536 30.7826C50.6522 30.7826 48.7695 29.5641 48.7695 28.4708C48.7695 28.0459 48.4251 27.7016 48.0003 27.7016C47.5755 27.7016 47.2311 28.0459 47.2311 28.4708C47.2311 29.5642 45.3485 30.7826 42.6469 30.7826C39.9454 30.7826 38.0627 29.5641 38.0627 28.4708C38.0627 28.0459 37.7182 27.7016 37.2935 27.7016C36.8687 27.7016 36.5243 28.0459 36.5243 28.4708C36.5243 29.5642 34.6417 30.7826 31.9401 30.7826C29.4 30.7826 27.5844 29.7055 27.3763 28.668C28.411 27.1198 30.1742 26.0977 32.1721 26.0977ZM26.6014 30.3816C27.6419 31.5483 29.6205 32.321 31.9402 32.321C34.2706 32.321 36.2571 31.5414 37.2937 30.3655C38.3302 31.5414 40.3166 32.321 42.6471 32.321C44.9775 32.321 46.964 31.5414 48.0005 30.3655C49.037 31.5414 51.0233 32.321 53.3538 32.321C55.6842 32.321 57.6707 31.5414 58.7072 30.3655C59.7437 31.5414 61.7303 32.321 64.0607 32.321C66.38 32.321 68.3585 31.5486 69.399 30.3821C69.5246 30.8545 69.5924 31.3503 69.5924 31.8619C69.5924 32.4749 69.497 33.0707 69.3112 33.6418C68.8597 33.5051 68.3908 33.434 67.9123 33.434C66.4243 33.434 65.0368 34.1082 64.0055 35.3324C63.2712 36.2037 62.3016 36.6836 61.2749 36.6836C60.2482 36.6836 59.2786 36.2037 58.5444 35.3325C57.513 34.1083 56.1254 33.434 54.6375 33.434C53.1496 33.434 51.762 34.1082 50.7306 35.3325C49.9964 36.2037 49.0268 36.6836 48.0002 36.6836C46.9735 36.6836 46.0039 36.2037 45.2697 35.3325C44.2383 34.1083 42.8508 33.434 41.3628 33.434C39.8748 33.434 38.4873 34.1082 37.4558 35.3325C36.7217 36.2037 35.752 36.6836 34.7254 36.6836C33.6987 36.6836 32.7291 36.2037 31.9949 35.3324C30.9635 34.1082 29.5759 33.434 28.088 33.434C27.6096 33.434 27.1406 33.5051 26.6891 33.6418C26.5034 33.0707 26.4079 32.4749 26.4079 31.8619C26.4077 31.3503 26.4757 30.8543 26.6014 30.3816ZM65.4262 46.8604H30.5738C27.7973 46.8603 25.5384 44.6015 25.5384 41.8251V36.7089C25.5384 36.1319 25.7983 35.87 25.878 35.8035C26.529 35.2599 27.2932 34.9725 28.0878 34.9725C29.1143 34.9725 30.084 35.4524 30.8182 36.3236C31.8496 37.5478 33.2372 38.222 34.7251 38.222C36.213 38.222 37.6006 37.5479 38.632 36.3236C39.3662 35.4524 40.3358 34.9725 41.3624 34.9725C42.3891 34.9725 43.3586 35.4524 44.0929 36.3237C45.1243 37.5479 46.5119 38.222 47.9998 38.222C49.4878 38.222 50.8753 37.5479 51.9067 36.3236C52.6409 35.4524 53.6105 34.9725 54.6371 34.9725C55.6638 34.9725 56.6333 35.4524 57.3676 36.3237C58.399 37.5479 59.7866 38.222 61.2745 38.222C62.7624 38.222 64.15 37.5479 65.1816 36.3236C65.9157 35.4524 66.8853 34.9725 67.9119 34.9725C68.7067 34.9725 69.4707 35.2598 70.1218 35.8036C70.2014 35.87 70.4613 36.1319 70.4613 36.7088V41.825H70.4614C70.4616 44.6015 68.2027 46.8604 65.4262 46.8604Z" fill="#888888"/>
<path d="M15.828 70.9999L13.836 67.5799H12.516V70.9999H11.424V62.6359H14.124C14.756 62.6359 15.288 62.7439 15.72 62.9599C16.16 63.1759 16.488 63.4679 16.704 63.8359C16.92 64.2039 17.028 64.6239 17.028 65.0959C17.028 65.6719 16.86 66.1799 16.524 66.6199C16.196 67.0599 15.7 67.3519 15.036 67.4959L17.136 70.9999H15.828ZM12.516 66.7039H14.124C14.716 66.7039 15.16 66.5599 15.456 66.2719C15.752 65.9759 15.9 65.5839 15.9 65.0959C15.9 64.5999 15.752 64.2159 15.456 63.9439C15.168 63.6719 14.724 63.5359 14.124 63.5359H12.516V66.7039ZM19.2888 63.3559C19.0808 63.3559 18.9048 63.2839 18.7608 63.1399C18.6168 62.9959 18.5448 62.8199 18.5448 62.6119C18.5448 62.4039 18.6168 62.2279 18.7608 62.0839C18.9048 61.9399 19.0808 61.8679 19.2888 61.8679C19.4888 61.8679 19.6568 61.9399 19.7928 62.0839C19.9368 62.2279 20.0088 62.4039 20.0088 62.6119C20.0088 62.8199 19.9368 62.9959 19.7928 63.1399C19.6568 63.2839 19.4888 63.3559 19.2888 63.3559ZM19.8168 64.4239V70.9999H18.7248V64.4239H19.8168ZM24.1259 69.9919L26.1659 64.4239H27.3299L24.7499 70.9999H23.4779L20.8979 64.4239H22.0739L24.1259 69.9919ZM34.4045 67.4599C34.4045 67.6679 34.3925 67.8879 34.3685 68.1199H29.1125C29.1525 68.7679 29.3725 69.2759 29.7725 69.6439C30.1805 70.0039 30.6725 70.1839 31.2485 70.1839C31.7205 70.1839 32.1125 70.0759 32.4245 69.8599C32.7445 69.6359 32.9685 69.3399 33.0965 68.9719H34.2725C34.0965 69.6039 33.7445 70.1199 33.2165 70.5199C32.6885 70.9119 32.0325 71.1079 31.2485 71.1079C30.6245 71.1079 30.0645 70.9679 29.5685 70.6879C29.0805 70.4079 28.6965 70.0119 28.4165 69.4999C28.1365 68.9799 27.9965 68.3799 27.9965 67.6999C27.9965 67.0199 28.1325 66.4239 28.4045 65.9119C28.6765 65.3999 29.0565 65.0079 29.5445 64.7359C30.0405 64.4559 30.6085 64.3159 31.2485 64.3159C31.8725 64.3159 32.4245 64.4519 32.9045 64.7239C33.3845 64.9959 33.7525 65.3719 34.0085 65.8519C34.2725 66.3239 34.4045 66.8599 34.4045 67.4599ZM33.2765 67.2319C33.2765 66.8159 33.1845 66.4599 33.0005 66.1639C32.8165 65.8599 32.5645 65.6319 32.2445 65.4799C31.9325 65.3199 31.5845 65.2399 31.2005 65.2399C30.6485 65.2399 30.1765 65.4159 29.7845 65.7679C29.4005 66.1199 29.1805 66.6079 29.1245 67.2319H33.2765ZM36.9379 65.4919C37.1299 65.1159 37.4019 64.8239 37.7539 64.6159C38.1139 64.4079 38.5499 64.3039 39.0619 64.3039V65.4319H38.7739C37.5499 65.4319 36.9379 66.0959 36.9379 67.4239V70.9999H35.8459V64.4239H36.9379V65.4919ZM47.9257 70.9999L45.9337 67.5799H44.6137V70.9999H43.5217V62.6359H46.2217C46.8537 62.6359 47.3857 62.7439 47.8177 62.9599C48.2577 63.1759 48.5857 63.4679 48.8017 63.8359C49.0177 64.2039 49.1257 64.6239 49.1257 65.0959C49.1257 65.6719 48.9577 66.1799 48.6217 66.6199C48.2937 67.0599 47.7977 67.3519 47.1337 67.4959L49.2337 70.9999H47.9257ZM44.6137 66.7039H46.2217C46.8137 66.7039 47.2577 66.5599 47.5537 66.2719C47.8497 65.9759 47.9977 65.5839 47.9977 65.0959C47.9977 64.5999 47.8497 64.2159 47.5537 63.9439C47.2657 63.6719 46.8217 63.5359 46.2217 63.5359H44.6137V66.7039ZM50.4144 67.6879C50.4144 67.0159 50.5504 66.4279 50.8224 65.9239C51.0944 65.4119 51.4664 65.0159 51.9384 64.7359C52.4184 64.4559 52.9504 64.3159 53.5344 64.3159C54.1104 64.3159 54.6104 64.4399 55.0344 64.6879C55.4584 64.9359 55.7744 65.2479 55.9824 65.6239V64.4239H57.0864V70.9999H55.9824V69.7759C55.7664 70.1599 55.4424 70.4799 55.0104 70.7359C54.5864 70.9839 54.0904 71.1079 53.5224 71.1079C52.9384 71.1079 52.4104 70.9639 51.9384 70.6759C51.4664 70.3879 51.0944 69.9839 50.8224 69.4639C50.5504 68.9439 50.4144 68.3519 50.4144 67.6879ZM55.9824 67.6999C55.9824 67.2039 55.8824 66.7719 55.6824 66.4039C55.4824 66.0359 55.2104 65.7559 54.8664 65.5639C54.5304 65.3639 54.1584 65.2639 53.7504 65.2639C53.3424 65.2639 52.9704 65.3599 52.6344 65.5519C52.2984 65.7439 52.0304 66.0239 51.8304 66.3919C51.6304 66.7599 51.5304 67.1919 51.5304 67.6879C51.5304 68.1919 51.6304 68.6319 51.8304 69.0079C52.0304 69.3759 52.2984 69.6599 52.6344 69.8599C52.9704 70.0519 53.3424 70.1479 53.7504 70.1479C54.1584 70.1479 54.5304 70.0519 54.8664 69.8599C55.2104 69.6599 55.4824 69.3759 55.6824 69.0079C55.8824 68.6319 55.9824 68.1959 55.9824 67.6999ZM61.6078 65.3239H60.2278V70.9999H59.1358V65.3239H58.2838V64.4239H59.1358V63.9559C59.1358 63.2199 59.3238 62.6839 59.6998 62.3479C60.0838 62.0039 60.6958 61.8319 61.5358 61.8319V62.7439C61.0558 62.7439 60.7158 62.8399 60.5158 63.0319C60.3238 63.2159 60.2278 63.5239 60.2278 63.9559V64.4239H61.6078V65.3239ZM64.213 65.3239V69.1999C64.213 69.5199 64.281 69.7479 64.417 69.8839C64.553 70.0119 64.789 70.0759 65.125 70.0759H65.929V70.9999H64.945C64.337 70.9999 63.881 70.8599 63.577 70.5799C63.273 70.2999 63.121 69.8399 63.121 69.1999V65.3239H62.269V64.4239H63.121V62.7679H64.213V64.4239H65.929V65.3239H64.213ZM67.8161 63.3559C67.6081 63.3559 67.4321 63.2839 67.2881 63.1399C67.1441 62.9959 67.0721 62.8199 67.0721 62.6119C67.0721 62.4039 67.1441 62.2279 67.2881 62.0839C67.4321 61.9399 67.6081 61.8679 67.8161 61.8679C68.0161 61.8679 68.1841 61.9399 68.3201 62.0839C68.4641 62.2279 68.5361 62.4039 68.5361 62.6119C68.5361 62.8199 68.4641 62.9959 68.3201 63.1399C68.1841 63.2839 68.0161 63.3559 67.8161 63.3559ZM68.3441 64.4239V70.9999H67.2521V64.4239H68.3441ZM73.4093 64.3039C74.2093 64.3039 74.8573 64.5479 75.3533 65.0359C75.8493 65.5159 76.0973 66.2119 76.0973 67.1239V70.9999H75.0173V67.2799C75.0173 66.6239 74.8533 66.1239 74.5253 65.7799C74.1973 65.4279 73.7493 65.2519 73.1813 65.2519C72.6053 65.2519 72.1453 65.4319 71.8013 65.7919C71.4653 66.1519 71.2973 66.6759 71.2973 67.3639V70.9999H70.2053V64.4239H71.2973V65.3599C71.5133 65.0239 71.8053 64.7639 72.1733 64.5799C72.5493 64.3959 72.9613 64.3039 73.4093 64.3039ZM80.593 64.3159C81.161 64.3159 81.657 64.4399 82.081 64.6879C82.513 64.9359 82.833 65.2479 83.041 65.6239V64.4239H84.145V71.1439C84.145 71.7439 84.017 72.2759 83.761 72.7399C83.505 73.2119 83.137 73.5799 82.657 73.8439C82.185 74.1079 81.633 74.2399 81.001 74.2399C80.137 74.2399 79.417 74.0359 78.841 73.6279C78.265 73.2199 77.925 72.6639 77.821 71.9599H78.901C79.021 72.3599 79.269 72.6799 79.645 72.9199C80.021 73.1679 80.473 73.2919 81.001 73.2919C81.601 73.2919 82.089 73.1039 82.465 72.7279C82.849 72.3519 83.041 71.8239 83.041 71.1439V69.7639C82.825 70.1479 82.505 70.4679 82.081 70.7239C81.657 70.9799 81.161 71.1079 80.593 71.1079C80.009 71.1079 79.477 70.9639 78.997 70.6759C78.525 70.3879 78.153 69.9839 77.881 69.4639C77.609 68.9439 77.473 68.3519 77.473 67.6879C77.473 67.0159 77.609 66.4279 77.881 65.9239C78.153 65.4119 78.525 65.0159 78.997 64.7359C79.477 64.4559 80.009 64.3159 80.593 64.3159ZM83.041 67.6999C83.041 67.2039 82.941 66.7719 82.741 66.4039C82.541 66.0359 82.269 65.7559 81.925 65.5639C81.589 65.3639 81.217 65.2639 80.809 65.2639C80.401 65.2639 80.029 65.3599 79.693 65.5519C79.357 65.7439 79.089 66.0239 78.889 66.3919C78.689 66.7599 78.589 67.1919 78.589 67.6879C78.589 68.1919 78.689 68.6319 78.889 69.0079C79.089 69.3759 79.357 69.6599 79.693 69.8599C80.029 70.0519 80.401 70.1479 80.809 70.1479C81.217 70.1479 81.589 70.0519 81.925 69.8599C82.269 69.6599 82.541 69.3759 82.741 69.0079C82.941 68.6319 83.041 68.1959 83.041 67.6999Z" fill="#707070"/>
</svg>
