<svg width="169" height="86" viewBox="0 0 169 86" fill="none" xmlns="http://www.w3.org/2000/svg">
<path d="M84.4098 26.9335L76.7959 35.0277L93.8226 52.3316H86.8147C83.1443 52.3316 79.6211 50.8884 77.0054 48.3137L63.507 35.0265L77.9031 20.6525L70.0124 12.6978L54.7287 27.9965C52.1068 30.621 48.5474 32.0966 44.8358 32.0966H37.8965L70.0124 0L84.4085 14.0948L98.6675 0L130.229 32.0966H123.517C119.754 32.0966 116.149 30.5799 113.519 27.8893L98.6675 12.6991L90.6385 20.6537L111.818 42.0053H105.086C101.334 42.0053 97.7411 40.4986 95.1118 37.8242L84.4098 26.9335Z" fill="#36621F"/>
<path d="M0 80.7427V66.8077C0 66.7378 0.0561624 66.6816 0.126101 66.6816H4.55657C4.60956 66.6816 4.65618 66.7145 4.67526 66.7643L8.60133 77.3654H8.70835L12.5698 66.7643C12.5878 66.7145 12.6355 66.6816 12.6885 66.6816H16.9038C16.9738 66.6816 17.0299 66.7378 17.0299 66.8077V80.7427C17.0299 80.8126 16.9738 80.8687 16.9038 80.8687H15.7732C14.8682 80.8687 14.1381 80.1282 14.1519 79.2225L14.296 69.9477C14.297 69.8778 14.2398 69.8195 14.1699 69.8195C14.118 69.8195 14.0713 69.8513 14.0523 69.9L9.81465 80.7882C9.79557 80.8369 9.74895 80.8687 9.69702 80.8687H7.24707C7.19515 80.8687 7.14746 80.8369 7.12945 80.7882L2.95541 69.9011C2.93634 69.8523 2.88971 69.8206 2.83779 69.8206C2.76785 69.8206 2.71063 69.8778 2.71169 69.9487L2.85687 79.2542C2.87064 80.142 2.15431 80.8698 1.26524 80.8698H0.126101C0.0561624 80.8687 0 80.8126 0 80.7427Z" fill="#36621F"/>
<path d="M22.7097 81.1697C22.0644 81.1697 21.4985 81.0436 21.0111 80.7936C20.5236 80.5425 20.1443 80.1813 19.8719 79.7077C19.5996 79.2342 19.4629 78.6547 19.4629 77.9661C19.4629 77.3506 19.5816 76.8305 19.8179 76.4078C20.0542 75.9851 20.406 75.6451 20.8712 75.3866C21.3364 75.1291 21.8991 74.9141 22.5592 74.7414C23.2184 74.5698 23.993 74.4194 24.881 74.2901C25.325 74.2181 25.6948 74.1503 25.9883 74.0857C26.2819 74.021 26.5001 73.913 26.6443 73.7636C26.7873 73.6132 26.8594 73.395 26.8594 73.1079C26.8594 72.7064 26.7153 72.3631 26.4291 72.076C26.142 71.79 25.6842 71.6459 25.0526 71.6459C24.651 71.6459 24.2748 71.7137 23.9241 71.8493C23.5723 71.986 23.2713 72.201 23.0213 72.4945C23.0191 72.4977 23.016 72.5008 23.0138 72.503C22.5073 73.1036 21.7051 73.3653 20.9538 73.1343L19.7416 72.7625C19.9133 72.1746 20.157 71.6661 20.4728 71.236C20.7875 70.8059 21.1743 70.4446 21.6342 70.1501C22.093 69.8567 22.6239 69.6374 23.2258 69.4944C23.8277 69.3513 24.4656 69.2793 25.1395 69.2793C26.2289 69.2793 27.1211 69.4552 27.8163 69.8058C28.5114 70.1565 29.0306 70.702 29.375 71.4394C29.7194 72.1777 29.8911 73.1269 29.8911 74.288V76.2012C29.8911 76.7034 29.9017 77.215 29.9229 77.7384C29.9441 78.2617 29.9769 78.785 30.0193 79.3073C30.0628 79.8306 30.1126 80.3497 30.1698 80.8656H28.628C27.9233 80.8656 27.332 80.3338 27.2578 79.6336L27.2567 79.6198C27.2059 79.1473 27.1667 78.6812 27.1381 78.2225H26.7725C26.5574 78.7522 26.2638 79.2437 25.8908 79.695C25.5178 80.1463 25.0632 80.5044 24.5249 80.7703C23.9887 81.0372 23.3826 81.1697 22.7097 81.1697ZM24.0205 78.9344C24.278 78.9344 24.5504 78.8846 24.8375 78.784C25.1247 78.6833 25.397 78.5445 25.6545 78.3645C25.912 78.1854 26.1558 77.9598 26.3857 77.6875C26.6146 77.4153 26.7873 77.107 26.9018 76.7637V74.9798L27.3754 75.0656C27.1317 75.252 26.8339 75.3982 26.4832 75.5063C26.1314 75.6133 25.7732 75.697 25.4076 75.7531C25.042 75.8103 24.6796 75.8749 24.3215 75.947C23.9633 76.019 23.6412 76.108 23.354 76.2161C23.0668 76.3231 22.8454 76.4777 22.6875 76.6779C22.5296 76.8782 22.4512 77.1504 22.4512 77.4947C22.4512 77.9386 22.5942 78.2903 22.8814 78.5477C23.1675 78.8052 23.5479 78.9344 24.0205 78.9344Z" fill="#36621F"/>
<path d="M31.7368 85.2116C31.6361 85.2116 31.5471 85.2084 31.4676 85.201C31.3881 85.1936 31.2991 85.183 31.1985 85.1681L31.1593 84.7666C31.0618 83.757 31.5291 82.7962 32.3397 82.1871C32.3429 82.1849 32.345 82.1828 32.3482 82.1807C32.628 81.9657 32.7678 81.543 32.7678 80.9126V69.5837H35.8642V80.9974C35.8642 81.7284 35.7741 82.3629 35.595 82.9C35.4159 83.4371 35.1542 83.8746 34.8098 84.2115C34.4654 84.5484 34.0362 84.7995 33.5202 84.9637C33.0041 85.1279 32.4107 85.2116 31.7368 85.2116ZM34.2948 67.8856C33.6929 67.8856 33.2309 67.7563 32.9077 67.4989C32.5856 67.2415 32.4245 66.876 32.4245 66.4024C32.4245 65.9014 32.5824 65.5211 32.8971 65.2636C33.2118 65.0062 33.6781 64.877 34.2948 64.877C34.8967 64.877 35.363 65.0062 35.6925 65.2636C36.0221 65.5211 36.1874 65.9014 36.1874 66.4024C36.1874 66.8898 36.0263 67.2584 35.7042 67.5095C35.381 67.7606 34.9115 67.8856 34.2948 67.8856Z" fill="#36621F"/>
<path d="M43.9272 81.1703C43.0095 81.1703 42.1851 81.0411 41.4539 80.7836C40.7228 80.5262 40.106 80.1533 39.6048 79.666C39.1025 79.1787 38.72 78.5801 38.454 77.8714C38.1891 77.1617 38.0566 76.3491 38.0566 75.4317C38.0566 74.5291 38.1859 73.7007 38.4434 72.9485C38.7009 72.1964 39.0665 71.5481 39.5402 71.0035C40.0128 70.459 40.6083 70.0363 41.3247 69.7355C42.041 69.4346 42.8294 69.2842 43.6898 69.2842C44.5789 69.2842 45.3556 69.4272 46.0232 69.7143C46.6898 70.0014 47.245 70.4198 47.6901 70.9718C48.1341 71.5237 48.4636 72.2006 48.6788 73.0036C48.8939 73.8066 48.9723 74.7442 48.9151 75.8194L40.0562 75.8841V74.2071L47.1306 74.1213L46.055 74.9603C46.1408 74.2155 46.0836 73.599 45.8834 73.1117C45.682 72.6244 45.3885 72.2621 45.0017 72.0258C44.6149 71.7896 44.1921 71.6709 43.7333 71.6709C43.1886 71.6709 42.7149 71.8182 42.3144 72.1116C41.9128 72.4051 41.5938 72.8288 41.3575 73.3797C41.1212 73.9316 41.0025 74.5948 41.0025 75.3681C41.0025 76.6002 41.2674 77.4996 41.7983 78.0653C42.3282 78.631 43.0307 78.9138 43.9049 78.9138C44.3066 78.9138 44.6467 78.8598 44.9265 78.7528C45.2062 78.6458 45.4383 78.506 45.6248 78.3333C45.8113 78.1617 45.9586 77.9678 46.0656 77.7528C46.0667 77.7507 46.0677 77.7485 46.0688 77.7464C46.2521 77.3799 46.6537 77.1765 47.0543 77.2634L49.0221 77.6882C48.8928 78.2189 48.7031 78.6988 48.452 79.1289C48.2008 79.559 47.8681 79.9245 47.4517 80.2253C47.0363 80.5262 46.5382 80.7593 45.9575 80.9235C45.3789 81.0877 44.7018 81.1703 43.9272 81.1703Z" fill="#36621F"/>
<path d="M55.6875 81.1703C54.9277 81.1703 54.2432 81.0983 53.6339 80.9553C53.0246 80.8122 52.4979 80.6046 52.0539 80.3323C51.6099 80.0601 51.2507 79.7338 50.9784 79.3545C50.706 78.9753 50.5195 78.5558 50.4199 78.0971L51.5951 77.6013C52.1663 77.3608 52.8264 77.5091 53.2397 77.971L53.2471 77.9795C53.4983 78.2592 53.8458 78.4816 54.2898 78.6458C54.7338 78.8111 55.2711 78.8927 55.9026 78.8927C56.548 78.8927 57.0492 78.7963 57.4074 78.6024C57.7655 78.4085 57.9446 78.1331 57.9446 77.775C57.9446 77.5028 57.844 77.2877 57.6437 77.1299C57.4423 76.972 57.1531 76.8364 56.7726 76.721C56.3922 76.6065 55.9228 76.4921 55.3643 76.3767C54.8334 76.2771 54.2962 76.1478 53.7515 75.99C53.2068 75.8321 52.694 75.6245 52.2139 75.3671C51.7339 75.1097 51.3535 74.7685 51.0748 74.3458C50.795 73.9232 50.6552 73.3892 50.6552 72.7441C50.6552 72.0555 50.8374 71.458 51.203 70.9495C51.5686 70.441 52.1133 70.0363 52.837 69.7355C53.5608 69.4346 54.4318 69.2842 55.4491 69.2842C56.3806 69.2842 57.1944 69.4102 57.8895 69.6603C58.5847 69.9113 59.1611 70.2694 59.62 70.7355C60.0788 71.2016 60.3797 71.7567 60.5228 72.4008L59.2989 72.8119C58.6928 73.0153 58.0368 72.814 57.6161 72.333C57.614 72.3309 57.6119 72.3277 57.6098 72.3256C57.3872 72.0746 57.0937 71.8818 56.7281 71.7451C56.3625 71.6095 55.9355 71.5406 55.4491 71.5406C54.8472 71.5406 54.3746 71.6413 54.0302 71.8415C53.6858 72.0428 53.5142 72.314 53.5142 72.6583C53.5142 72.9305 53.6254 73.153 53.8469 73.3246C54.0694 73.4962 54.381 73.6329 54.7826 73.7335C55.1842 73.8342 55.6568 73.9486 56.2015 74.0778C56.7599 74.1922 57.312 74.3247 57.8567 74.4751C58.4013 74.6255 58.8962 74.8194 59.3402 75.0556C59.7842 75.2919 60.136 75.6118 60.3935 76.0122C60.651 76.4137 60.7803 76.9371 60.7803 77.5812C60.7803 78.327 60.5832 78.9721 60.189 79.5156C59.7948 80.0601 59.2173 80.4722 58.4586 80.7519C57.702 81.0305 56.7769 81.1703 55.6875 81.1703Z" fill="#36621F"/>
<path d="M67.0653 81.1282C65.818 81.1282 64.894 80.7955 64.291 80.1292C63.6881 79.4628 63.3882 78.3982 63.3882 76.9373V72.0366H61.7754L61.7987 70.7039C61.8093 70.0832 62.3158 69.5863 62.9368 69.5863C63.367 69.5863 63.6923 69.5217 63.9149 69.3924C64.1374 69.2632 64.2773 69.027 64.3345 68.6827L64.592 67.0703H66.3553V69.5853H69.2153V72.1002H66.3553V76.808C66.3553 77.3102 66.4771 77.6831 66.7209 77.9257C66.9646 78.1693 67.3302 78.2912 67.8176 78.2912C68.1048 78.2912 68.3697 78.2583 68.6134 78.1948C68.8571 78.1301 69.0786 78.0337 69.28 77.9045V79.68C69.28 80.3802 68.7607 80.9809 68.0656 81.0625C68.0613 81.0625 68.0582 81.0635 68.0539 81.0635C67.682 81.1059 67.3524 81.1282 67.0653 81.1282Z" fill="#36621F"/>
<path d="M72.9573 67.8856C72.3554 67.8856 71.8934 67.7563 71.5702 67.4989C71.2481 67.2415 71.0859 66.876 71.0859 66.4024C71.0859 65.9014 71.2438 65.5211 71.5596 65.2636C71.8743 65.0062 72.3406 64.877 72.9573 64.877C73.5592 64.877 74.0255 65.0062 74.355 65.2636C74.6846 65.5211 74.8499 65.9014 74.8499 66.4024C74.8499 66.8898 74.6888 67.2584 74.3656 67.5095C74.0435 67.7606 73.573 67.8856 72.9573 67.8856ZM71.4091 80.8692V69.5837H74.5055V78.5354C74.5055 79.8247 73.4607 80.8692 72.171 80.8692H71.4091Z" fill="#36621F"/>
<path d="M82.5702 81.1704C81.5953 81.1704 80.7454 81.0306 80.0228 80.7509C79.299 80.4712 78.6971 80.0739 78.2171 79.558C77.737 79.0421 77.3715 78.4298 77.1203 77.72C76.8692 77.0102 76.7441 76.2263 76.7441 75.3661C76.7441 74.4773 76.8692 73.6605 77.1203 72.9158C77.3715 72.171 77.7402 71.5291 78.2277 70.992C78.7151 70.4549 79.317 70.0354 80.0333 69.7345C80.7497 69.4336 81.5667 69.2832 82.4844 69.2832C83.402 69.2832 84.201 69.4336 84.8824 69.7345C85.5627 70.0354 86.119 70.4538 86.5482 70.992C86.9784 71.5291 87.2645 72.1562 87.4086 72.8723L85.9484 73.3554C85.2723 73.5789 84.5475 73.2813 84.1894 72.6668C84.1872 72.6637 84.1862 72.6605 84.1841 72.6573C83.9976 72.3427 83.7464 72.1022 83.4317 71.9369C83.1159 71.7727 82.7429 71.6901 82.3138 71.6901C81.927 71.6901 81.5826 71.7695 81.2816 71.9263C80.9807 72.0842 80.7221 72.3204 80.5081 72.6361C80.293 72.9518 80.1319 73.3279 80.0249 73.7643C79.9178 74.2008 79.8638 74.6998 79.8638 75.2581C79.8638 76.0314 79.9677 76.684 80.1753 77.2147C80.383 77.7454 80.6914 78.1533 81.1004 78.4404C81.5095 78.7275 82.0139 78.8705 82.6158 78.8705C83.189 78.8705 83.6447 78.7561 83.9806 78.5273C84.3176 78.2984 84.5719 78.0114 84.7436 77.6671C84.7457 77.6639 84.7468 77.6607 84.7489 77.6565C85.0477 77.0526 85.7057 76.7179 86.3638 76.863L87.7541 77.1713C87.682 77.7306 87.5316 78.2539 87.3027 78.7402C87.0727 79.2275 86.7463 79.6534 86.3246 80.0189C85.9018 80.3843 85.3815 80.6672 84.7658 80.8674C84.147 81.0697 83.4158 81.1704 82.5702 81.1704Z" fill="#36621F"/>
<path d="M94.6523 80.8687V66.6816H97.7487V80.8687H94.6523ZM96.7812 69.1754V66.6816H105.532V67.7103C105.532 68.5196 104.876 69.1754 104.066 69.1754H96.7812ZM96.7812 74.8504V72.5505H104.522V74.8504H96.7812ZM96.7812 80.8687V78.3538H103.638C104.72 78.3538 105.597 79.2309 105.597 80.3115V80.8687H96.7812Z" fill="#36621F"/>
<path d="M112.112 81.1704C111.353 81.1704 110.668 81.0984 110.059 80.9553C109.449 80.8123 108.923 80.6047 108.479 80.3324C108.035 80.0602 107.676 79.7339 107.403 79.3546C107.131 78.9754 106.944 78.5559 106.844 78.0972L108.018 77.6014C108.589 77.3609 109.25 77.5082 109.664 77.97L109.671 77.9785C109.921 78.2582 110.27 78.4807 110.714 78.6449C111.158 78.8101 111.695 78.8917 112.326 78.8917C112.972 78.8917 113.473 78.7953 113.831 78.6014C114.189 78.4076 114.368 78.1321 114.368 77.7741C114.368 77.5018 114.268 77.2867 114.068 77.1289C113.866 76.971 113.577 76.8355 113.196 76.72C112.816 76.6056 112.347 76.4912 111.788 76.3757C111.257 76.2761 110.72 76.1469 110.175 75.989C109.631 75.8312 109.118 75.6235 108.638 75.3661C108.158 75.1087 107.777 74.7676 107.499 74.3449C107.219 73.9222 107.079 73.3883 107.079 72.7431C107.079 72.0545 107.262 71.457 107.628 70.9485C107.993 70.44 108.538 70.0354 109.262 69.7345C109.986 69.4336 110.857 69.2832 111.874 69.2832C112.805 69.2832 113.619 69.4093 114.314 69.6593C115.01 69.9103 115.586 70.2684 116.046 70.7345C116.505 71.2007 116.806 71.7558 116.949 72.3999L115.725 72.8109C115.119 73.0143 114.463 72.813 114.042 72.3321C114.04 72.3299 114.038 72.3268 114.036 72.3247C113.813 72.0736 113.52 71.8808 113.154 71.7441C112.788 71.6085 112.361 71.5397 111.875 71.5397C111.273 71.5397 110.799 71.6403 110.456 71.8405C110.112 72.0418 109.94 72.313 109.94 72.6573C109.94 72.9296 110.05 73.152 110.273 73.3236C110.495 73.4953 110.807 73.6319 111.209 73.7326C111.61 73.8332 112.083 73.9476 112.627 74.0769C113.187 74.1913 113.738 74.3237 114.283 74.4741C114.827 74.6245 115.322 74.8184 115.766 75.0546C116.21 75.2909 116.562 75.6108 116.819 76.0113C117.077 76.4128 117.206 76.9361 117.206 77.5802C117.206 78.326 117.009 78.9711 116.615 79.5146C116.221 80.0591 115.643 80.4712 114.883 80.7509C114.126 81.0306 113.201 81.1704 112.112 81.1704Z" fill="#36621F"/>
<path d="M124.494 81.1704C123.519 81.1704 122.669 81.0306 121.947 80.7509C121.223 80.4712 120.621 80.0739 120.141 79.558C119.661 79.0421 119.295 78.4298 119.044 77.72C118.793 77.0102 118.668 76.2263 118.668 75.3661C118.668 74.4773 118.794 73.6605 119.044 72.9158C119.294 72.171 119.664 71.5291 120.152 70.992C120.639 70.4549 121.241 70.0354 121.957 69.7345C122.674 69.4336 123.491 69.2832 124.408 69.2832C125.326 69.2832 126.125 69.4336 126.806 69.7345C127.487 70.0354 128.043 70.4538 128.472 70.992C128.902 71.5291 129.188 72.1562 129.332 72.8723L127.872 73.3554C127.196 73.5789 126.471 73.2813 126.113 72.6668C126.111 72.6637 126.109 72.6605 126.108 72.6573C125.921 72.3427 125.67 72.1022 125.356 71.9369C125.04 71.7727 124.667 71.6901 124.238 71.6901C123.851 71.6901 123.506 71.7695 123.205 71.9263C122.905 72.0842 122.646 72.3204 122.432 72.6361C122.217 72.9518 122.056 73.3279 121.949 73.7643C121.842 74.2008 121.788 74.6998 121.788 75.2581C121.788 76.0314 121.891 76.684 122.099 77.2147C122.307 77.7454 122.615 78.1533 123.024 78.4404C123.433 78.7275 123.938 78.8705 124.54 78.8705C125.113 78.8705 125.569 78.7561 125.904 78.5273C126.241 78.2984 126.496 78.0114 126.667 77.6671C126.67 77.6639 126.671 77.6607 126.673 77.6565C126.972 77.0526 127.63 76.7179 128.288 76.863L129.678 77.1713C129.606 77.7306 129.455 78.2539 129.227 78.7402C128.997 79.2275 128.67 79.6534 128.248 80.0189C127.826 80.3843 127.305 80.6672 126.69 80.8674C126.071 81.0697 125.34 81.1704 124.494 81.1704Z" fill="#36621F"/>
<path d="M134.149 81.1697C133.504 81.1697 132.938 81.0436 132.451 80.7936C131.963 80.5425 131.584 80.1813 131.311 79.7077C131.039 79.2342 130.902 78.6547 130.902 77.9661C130.902 77.3506 131.021 76.8305 131.257 76.4078C131.494 75.9851 131.845 75.6451 132.311 75.3866C132.777 75.1291 133.34 74.9141 133.999 74.7414C134.658 74.5698 135.432 74.4194 136.32 74.2901C136.764 74.2181 137.133 74.1503 137.428 74.0857C137.721 74.021 137.941 73.913 138.084 73.7636C138.227 73.6132 138.299 73.395 138.299 73.1079C138.299 72.7064 138.156 72.3631 137.869 72.076C137.581 71.79 137.123 71.6459 136.492 71.6459C136.09 71.6459 135.714 71.7137 135.364 71.8493C135.012 71.986 134.711 72.201 134.461 72.4945C134.459 72.4977 134.455 72.5008 134.453 72.503C133.946 73.1036 133.145 73.3653 132.393 73.1343L131.182 72.7625C131.354 72.1746 131.597 71.6661 131.913 71.236C132.228 70.8059 132.616 70.4446 133.075 70.1501C133.533 69.8567 134.063 69.6374 134.666 69.4944C135.268 69.3513 135.906 69.2793 136.58 69.2793C137.669 69.2793 138.562 69.4552 139.257 69.8058C139.952 70.1565 140.471 70.702 140.816 71.4394C141.16 72.1777 141.332 73.1269 141.332 74.288V76.2012C141.332 76.7034 141.342 77.215 141.364 77.7384C141.386 78.2617 141.418 78.785 141.461 79.3073C141.504 79.8306 141.554 80.3497 141.611 80.8656H140.072C139.366 80.8656 138.775 80.3338 138.699 79.6336C138.699 79.6293 138.698 79.624 138.698 79.6198C138.647 79.1473 138.608 78.6812 138.58 78.2225H138.214C137.999 78.7522 137.705 79.2437 137.332 79.695C136.959 80.1463 136.505 80.5044 135.967 80.7703C135.428 81.0372 134.823 81.1697 134.149 81.1697ZM135.46 78.9344C135.719 78.9344 135.99 78.8846 136.277 78.784C136.563 78.6833 136.836 78.5445 137.094 78.3645C137.351 78.1854 137.595 77.9598 137.825 77.6875C138.054 77.4153 138.227 77.107 138.341 76.7637V74.9798L138.814 75.0656C138.57 75.252 138.273 75.3982 137.922 75.5063C137.571 75.6133 137.212 75.697 136.846 75.7531C136.48 75.8103 136.119 75.8749 135.76 75.947C135.402 76.019 135.079 76.108 134.792 76.2161C134.505 76.3231 134.283 76.4777 134.126 76.6779C133.968 76.8782 133.89 77.1504 133.89 77.4947C133.89 77.9386 134.033 78.2903 134.32 78.5477C134.607 78.8052 134.987 78.9344 135.46 78.9344Z" fill="#36621F"/>
<path d="M144.062 84.4598V75.3238V69.5842H146.643V72.722L147.008 72.7432C147.151 71.9836 147.385 71.3459 147.708 70.83C148.03 70.3141 148.45 69.9274 148.966 69.6689C149.482 69.4115 150.076 69.2822 150.75 69.2822C151.754 69.2822 152.613 69.5291 153.33 70.0238C154.047 70.5185 154.596 71.2135 154.975 72.1086C155.354 73.0049 155.545 74.0621 155.545 75.2793C155.545 76.397 155.372 77.397 155.029 78.2784C154.685 79.1598 154.176 79.8622 153.502 80.3855C152.828 80.9077 151.975 81.1705 150.944 81.1705C150.227 81.1705 149.622 81.0338 149.127 80.7616C148.632 80.4893 148.224 80.1058 147.902 79.6111C147.578 79.1164 147.31 78.5189 147.095 77.8165H146.686C146.772 78.2032 146.847 78.6015 146.912 79.0094C146.977 79.4183 147.034 79.8124 147.084 80.1916C147.133 80.5719 147.159 80.9406 147.159 81.2987V82.4746C147.159 83.5699 146.271 84.4577 145.175 84.4577H144.062V84.4598ZM149.868 78.699C150.384 78.699 150.821 78.5591 151.18 78.2795C151.538 77.9998 151.818 77.5993 152.018 77.076C152.219 76.5527 152.319 75.9616 152.319 75.3026C152.319 74.5865 152.216 73.9699 152.008 73.454C151.8 72.9381 151.51 72.5408 151.137 72.2612C150.764 71.9815 150.327 71.8417 149.825 71.8417C149.352 71.8417 148.947 71.9423 148.61 72.1425C148.273 72.3438 147.997 72.6086 147.782 72.9381C147.567 73.2686 147.409 73.6225 147.309 74.0028C147.209 74.3831 147.159 74.7443 147.159 75.0886V75.4975C147.159 75.7698 147.195 76.0527 147.266 76.3461C147.338 76.6395 147.449 76.9266 147.6 77.2063C147.75 77.486 147.932 77.7371 148.148 77.9585C148.363 78.1809 148.617 78.36 148.91 78.4956C149.205 78.6301 149.524 78.699 149.868 78.699Z" fill="#36621F"/>
<path d="M163.024 81.1703C162.106 81.1703 161.282 81.0411 160.551 80.7836C159.819 80.5262 159.203 80.1533 158.701 79.666C158.199 79.1787 157.817 78.5801 157.552 77.8714C157.286 77.1617 157.154 76.3491 157.154 75.4317C157.154 74.5291 157.284 73.7007 157.541 72.9485C157.8 72.1964 158.164 71.5481 158.638 71.0035C159.11 70.459 159.706 70.0363 160.422 69.7355C161.139 69.4346 161.927 69.2842 162.787 69.2842C163.677 69.2842 164.454 69.4272 165.121 69.7143C165.787 70.0014 166.343 70.4198 166.787 70.9718C167.231 71.5237 167.561 72.2006 167.775 73.0036C167.99 73.8066 168.069 74.7442 168.012 75.8194L159.153 75.8841V74.2071L166.227 74.1213L165.152 74.9603C165.237 74.2155 165.18 73.599 164.98 73.1117C164.779 72.6244 164.485 72.2621 164.098 72.0258C163.712 71.7896 163.289 71.6709 162.83 71.6709C162.285 71.6709 161.812 71.8182 161.411 72.1116C161.009 72.4051 160.69 72.8288 160.454 73.3797C160.218 73.9316 160.099 74.5948 160.099 75.3681C160.099 76.6002 160.364 77.4996 160.895 78.0653C161.425 78.631 162.127 78.9138 163.003 78.9138C163.404 78.9138 163.744 78.8598 164.024 78.7528C164.304 78.6458 164.537 78.506 164.724 78.3333C164.91 78.1617 165.056 77.9678 165.164 77.7528C165.165 77.7507 165.166 77.7485 165.168 77.7464C165.351 77.3799 165.752 77.1765 166.154 77.2634L168.122 77.6882C167.993 78.2189 167.803 78.6988 167.552 79.1289C167.301 79.559 166.968 79.9245 166.551 80.2253C166.136 80.5262 165.638 80.7593 165.057 80.9235C164.474 81.0877 163.797 81.1703 163.024 81.1703Z" fill="#36621F"/>
</svg>
