<svg width="293" height="36" viewBox="0 0 293 36" fill="none" xmlns="http://www.w3.org/2000/svg">
<path d="M32.3846 18.5281L27.0835 24.0963L38.9383 36H34.059C31.5035 36 29.0505 35.0072 27.2294 33.236L17.8312 24.0954L27.8543 14.2073L22.3606 8.73509L11.7193 19.2594C9.89385 21.0649 7.41561 22.0799 4.83148 22.0799H0L22.3606 0L32.3837 9.69613L42.3114 0L64.2857 22.0799H59.6131C56.9925 22.0799 54.483 21.0366 52.6515 19.1857L42.3114 8.73595L36.7213 14.2081L51.4675 28.8964H46.7801C44.1682 28.8964 41.6665 27.8599 39.8358 26.0201L32.3846 18.5281Z" fill="#36621F"/>
<path d="M80.2852 25.1484V7.67214C80.2852 7.58445 80.3561 7.51404 80.4444 7.51404H86.038C86.1049 7.51404 86.1638 7.55522 86.1878 7.61766L91.1447 20.9129H91.2798L96.155 7.61766C96.1777 7.55522 96.2379 7.51404 96.3048 7.51404H101.627C101.715 7.51404 101.786 7.58445 101.786 7.67214V25.1484C101.786 25.2361 101.715 25.3065 101.627 25.3065H100.199C99.0568 25.3065 98.135 24.3779 98.1524 23.2419L98.3344 11.6101C98.3357 11.5224 98.2635 11.4493 98.1752 11.4493C98.1096 11.4493 98.0507 11.4892 98.0267 11.5503L92.6765 25.2056C92.6524 25.2667 92.5936 25.3065 92.528 25.3065H89.4349C89.3693 25.3065 89.3091 25.2667 89.2864 25.2056L84.0165 11.5516C83.9924 11.4905 83.9335 11.4507 83.868 11.4507C83.7797 11.4507 83.7074 11.5224 83.7088 11.6114L83.8921 23.2818C83.9094 24.3951 83.005 25.3079 81.8826 25.3079H80.4444C80.3561 25.3065 80.2852 25.2361 80.2852 25.1484Z" fill="#36621F"/>
<path d="M108.959 25.6823C108.144 25.6823 107.429 25.5242 106.814 25.2106C106.199 24.8957 105.72 24.4427 105.376 23.8488C105.032 23.2549 104.859 22.5282 104.859 21.6646C104.859 20.8927 105.009 20.2403 105.308 19.7102C105.606 19.1801 106.05 18.7537 106.637 18.4295C107.225 18.1066 107.935 17.8369 108.769 17.6204C109.601 17.4051 110.579 17.2165 111.7 17.0544C112.26 16.964 112.727 16.879 113.098 16.798C113.469 16.7169 113.744 16.5814 113.926 16.3941C114.107 16.2054 114.198 15.9317 114.198 15.5717C114.198 15.0681 114.016 14.6377 113.655 14.2776C113.292 13.9189 112.714 13.7382 111.917 13.7382C111.41 13.7382 110.935 13.8232 110.492 13.9933C110.048 14.1647 109.668 14.4344 109.352 14.8024C109.349 14.8064 109.345 14.8104 109.343 14.8131C108.703 15.5664 107.69 15.8945 106.742 15.6049L105.211 15.1386C105.428 14.4012 105.736 13.7635 106.134 13.2241C106.532 12.6846 107.02 12.2316 107.601 11.8622C108.18 11.4942 108.85 11.2192 109.61 11.0398C110.37 10.8605 111.175 10.7701 112.026 10.7701C113.402 10.7701 114.528 10.9907 115.406 11.4305C116.283 11.8702 116.939 12.5544 117.374 13.4791C117.809 14.4052 118.025 15.5956 118.025 17.0517V19.4512C118.025 20.0809 118.039 20.7226 118.066 21.379C118.092 22.0353 118.134 22.6916 118.187 23.3466C118.242 24.0029 118.305 24.6539 118.377 25.301H116.431C115.541 25.301 114.794 24.634 114.701 23.7558L114.699 23.7385C114.635 23.146 114.586 22.5614 114.55 21.9861H114.088C113.816 22.6504 113.446 23.2669 112.975 23.8329C112.504 24.3988 111.93 24.8479 111.25 25.1814C110.573 25.5162 109.808 25.6823 108.959 25.6823ZM110.614 22.8789C110.939 22.8789 111.282 22.8165 111.645 22.6903C112.008 22.5641 112.351 22.39 112.677 22.1641C113.002 21.9396 113.309 21.6566 113.6 21.3152C113.889 20.9737 114.107 20.5871 114.251 20.1566V17.9193L114.849 18.0269C114.542 18.2607 114.166 18.4441 113.723 18.5796C113.279 18.7138 112.826 18.8188 112.365 18.8892C111.903 18.9609 111.446 19.042 110.994 19.1323C110.541 19.2226 110.135 19.3342 109.772 19.4698C109.409 19.604 109.13 19.7979 108.931 20.049C108.731 20.3001 108.632 20.6416 108.632 21.0734C108.632 21.6301 108.813 22.0711 109.175 22.394C109.537 22.7168 110.017 22.8789 110.614 22.8789Z" fill="#36621F"/>
<path d="M120.347 30.7512C120.22 30.7512 120.107 30.7472 120.007 30.7379C119.907 30.7286 119.794 30.7153 119.667 30.6967L119.618 30.1932C119.495 28.9271 120.085 27.722 121.108 26.9581C121.112 26.9554 121.115 26.9528 121.119 26.9501C121.472 26.6804 121.649 26.1503 121.649 25.3598V11.1518H125.558V25.4661C125.558 26.3828 125.444 27.1786 125.218 27.8522C124.992 28.5258 124.661 29.0745 124.227 29.497C123.792 29.9195 123.25 30.2344 122.598 30.4403C121.947 30.6463 121.198 30.7512 120.347 30.7512ZM123.576 9.0221C122.817 9.0221 122.233 8.86001 121.825 8.53717C121.418 8.21432 121.215 7.75596 121.215 7.16208C121.215 6.53365 121.414 6.05669 121.812 5.73384C122.209 5.41099 122.798 5.2489 123.576 5.2489C124.336 5.2489 124.925 5.41099 125.341 5.73384C125.757 6.05669 125.966 6.53365 125.966 7.16208C125.966 7.77323 125.763 8.23558 125.356 8.55046C124.948 8.86533 124.355 9.0221 123.576 9.0221Z" fill="#36621F"/>
<path d="M135.744 25.6828C134.585 25.6828 133.544 25.5207 132.621 25.1979C131.698 24.875 130.919 24.4074 130.287 23.7962C129.653 23.185 129.17 22.4344 128.834 21.5456C128.499 20.6554 128.332 19.6364 128.332 18.4858C128.332 17.3539 128.495 16.3149 128.82 15.3716C129.145 14.4283 129.607 13.6152 130.205 12.9323C130.802 12.2494 131.554 11.7193 132.458 11.342C133.362 10.9647 134.358 10.776 135.444 10.776C136.567 10.776 137.547 10.9554 138.39 11.3154C139.232 11.6755 139.933 12.2003 140.495 12.8924C141.055 13.5846 141.471 14.4336 141.743 15.4407C142.014 16.4478 142.113 17.6236 142.041 18.9721L130.857 19.0531V16.95L139.788 16.8423L138.43 17.8946C138.539 16.9606 138.466 16.1874 138.214 15.5762C137.959 14.9651 137.589 14.5107 137.1 14.2144C136.612 13.9181 136.078 13.7693 135.499 13.7693C134.811 13.7693 134.213 13.954 133.708 14.322C133.201 14.69 132.798 15.2215 132.499 15.9123C132.201 16.6045 132.051 17.4362 132.051 18.4061C132.051 19.9513 132.386 21.0792 133.056 21.7887C133.725 22.4982 134.612 22.8529 135.716 22.8529C136.223 22.8529 136.652 22.7851 137.005 22.651C137.359 22.5168 137.652 22.3414 137.887 22.1248C138.123 21.9096 138.309 21.6665 138.444 21.3968C138.445 21.3941 138.446 21.3914 138.448 21.3888C138.679 20.9291 139.186 20.674 139.692 20.783L142.176 21.3157C142.013 21.9813 141.774 22.5832 141.457 23.1226C141.139 23.662 140.719 24.1204 140.194 24.4977C139.669 24.875 139.04 25.1673 138.307 25.3732C137.577 25.5792 136.722 25.6828 135.744 25.6828Z" fill="#36621F"/>
<path d="M150.6 25.6828C149.641 25.6828 148.776 25.5925 148.007 25.4131C147.238 25.2337 146.573 24.9733 146.012 24.6319C145.452 24.2904 144.998 23.8812 144.654 23.4056C144.31 22.93 144.075 22.4038 143.949 21.8286L145.433 21.2068C146.154 20.9052 146.988 21.0912 147.509 21.6705L147.519 21.6811C147.836 22.0318 148.275 22.3108 148.835 22.5168C149.396 22.724 150.074 22.8263 150.871 22.8263C151.686 22.8263 152.319 22.7054 152.771 22.4623C153.223 22.2192 153.449 21.8737 153.449 21.4247C153.449 21.0832 153.322 20.8135 153.069 20.6156C152.815 20.4176 152.45 20.2475 151.97 20.1027C151.489 19.9592 150.897 19.8157 150.192 19.6709C149.521 19.546 148.843 19.3839 148.155 19.186C147.468 18.988 146.82 18.7276 146.214 18.4048C145.608 18.0819 145.128 17.6541 144.776 17.124C144.423 16.5939 144.246 15.9243 144.246 15.1152C144.246 14.2516 144.476 13.5023 144.938 12.8645C145.399 12.2268 146.087 11.7193 147.001 11.342C147.915 10.9647 149.014 10.776 150.299 10.776C151.475 10.776 152.502 10.9341 153.38 11.2476C154.258 11.5625 154.985 12.0116 155.565 12.5962C156.144 13.1808 156.524 13.8769 156.704 14.6847L155.159 15.2002C154.394 15.4553 153.566 15.2029 153.035 14.5997C153.032 14.597 153.029 14.593 153.027 14.5904C152.746 14.2755 152.375 14.0337 151.914 13.8623C151.452 13.6923 150.913 13.6059 150.299 13.6059C149.539 13.6059 148.942 13.7321 148.507 13.9832C148.073 14.2357 147.856 14.5758 147.856 15.0076C147.856 15.349 147.996 15.628 148.276 15.8433C148.557 16.0585 148.95 16.2299 149.457 16.3561C149.964 16.4823 150.561 16.6258 151.249 16.7879C151.954 16.9314 152.651 17.0974 153.338 17.2861C154.026 17.4748 154.651 17.7179 155.211 18.0142C155.772 18.3104 156.216 18.7117 156.541 19.2139C156.866 19.7174 157.03 20.3737 157.03 21.1815C157.03 22.1169 156.781 22.926 156.283 23.6075C155.785 24.2904 155.056 24.8073 154.098 25.158C153.143 25.5074 151.975 25.6828 150.6 25.6828Z" fill="#36621F"/>
<path d="M164.964 25.6282C163.389 25.6282 162.223 25.211 161.461 24.3754C160.7 23.5397 160.321 22.2044 160.321 20.3723V14.2262H158.285L158.315 12.5549C158.328 11.7763 158.967 11.1532 159.751 11.1532C160.295 11.1532 160.705 11.0722 160.986 10.9101C161.267 10.748 161.444 10.4517 161.516 10.0199L161.841 7.9978H164.067V11.1519H167.678V14.306H164.067V20.2102C164.067 20.84 164.221 21.3076 164.529 21.6119C164.837 21.9175 165.298 22.0702 165.914 22.0702C166.276 22.0702 166.611 22.0291 166.918 21.9493C167.226 21.8683 167.506 21.7474 167.76 21.5853V23.812C167.76 24.6902 167.104 25.4435 166.227 25.5458C166.221 25.5458 166.217 25.5472 166.212 25.5472C165.742 25.6003 165.326 25.6282 164.964 25.6282Z" fill="#36621F"/>
<path d="M172.41 9.0221C171.65 9.0221 171.066 8.86001 170.658 8.53716C170.252 8.21432 170.047 7.75596 170.047 7.16208C170.047 6.53365 170.246 6.05669 170.645 5.73384C171.042 5.41099 171.631 5.2489 172.41 5.2489C173.169 5.2489 173.758 5.41099 174.174 5.73384C174.59 6.05669 174.799 6.53365 174.799 7.16208C174.799 7.77323 174.596 8.23558 174.188 8.55046C173.781 8.86533 173.187 9.0221 172.41 9.0221ZM170.455 25.3053V11.1518H174.364V22.3784C174.364 23.9953 173.045 25.3053 171.417 25.3053H170.455Z" fill="#36621F"/>
<path d="M184.539 25.6808C183.308 25.6808 182.235 25.5055 181.323 25.1547C180.409 24.804 179.649 24.3057 179.043 23.6587C178.437 23.0117 177.976 22.2438 177.659 21.3536C177.341 20.4635 177.184 19.4803 177.184 18.4015C177.184 17.2868 177.341 16.2624 177.659 15.3284C177.976 14.3944 178.441 13.5893 179.057 12.9157C179.672 12.2421 180.432 11.716 181.336 11.3387C182.241 10.9614 183.272 10.7727 184.431 10.7727C185.589 10.7727 186.598 10.9614 187.458 11.3387C188.317 11.716 189.02 12.2408 189.562 12.9157C190.105 13.5893 190.466 14.3758 190.648 15.274L188.804 15.8798C187.951 16.1601 187.036 15.7868 186.583 15.0162C186.581 15.0122 186.579 15.0083 186.577 15.0043C186.341 14.6097 186.024 14.3081 185.627 14.1008C185.228 13.8949 184.757 13.7913 184.215 13.7913C183.727 13.7913 183.292 13.8909 182.912 14.0875C182.532 14.2855 182.206 14.5818 181.936 14.9777C181.664 15.3736 181.461 15.8453 181.326 16.3926C181.191 16.94 181.122 17.5658 181.122 18.266C181.122 19.2358 181.253 20.0542 181.516 20.7199C181.778 21.3855 182.167 21.897 182.684 22.257C183.2 22.6171 183.837 22.7965 184.597 22.7965C185.321 22.7965 185.896 22.653 186.32 22.366C186.745 22.079 187.066 21.719 187.283 21.2872C187.286 21.2832 187.287 21.2792 187.29 21.2739C187.667 20.5166 188.498 20.0968 189.329 20.2788L191.084 20.6654C190.993 21.3669 190.803 22.0232 190.514 22.633C190.224 23.2442 189.812 23.7783 189.279 24.2367C188.745 24.695 188.089 25.0497 187.311 25.3008C186.53 25.5546 185.607 25.6808 184.539 25.6808Z" fill="#36621F"/>
<path d="M199.785 25.3065V7.51404H203.694V25.3065H199.785ZM202.473 10.6415V7.51404H213.521V8.8041C213.521 9.81914 212.693 10.6415 211.671 10.6415H202.473ZM202.473 17.7588V14.8744H212.246V17.7588H202.473ZM202.473 25.3065V22.1525H211.13C212.496 22.1525 213.603 23.2525 213.603 24.6077V25.3065H202.473Z" fill="#36621F"/>
<path d="M221.839 25.6808C220.88 25.6808 220.016 25.5905 219.247 25.4111C218.477 25.2318 217.812 24.9714 217.252 24.6299C216.691 24.2885 216.238 23.8793 215.894 23.4036C215.55 22.928 215.315 22.4019 215.188 21.8266L216.67 21.2048C217.391 20.9032 218.226 21.0879 218.748 21.6672L218.757 21.6778C219.073 22.0285 219.513 22.3075 220.073 22.5135C220.634 22.7207 221.312 22.823 222.11 22.823C222.924 22.823 223.557 22.7021 224.009 22.459C224.462 22.2159 224.688 21.8704 224.688 21.4214C224.688 21.0799 224.561 20.8102 224.308 20.6123C224.054 20.4143 223.688 20.2442 223.208 20.0994C222.728 19.9559 222.135 19.8124 221.43 19.6676C220.76 19.5427 220.081 19.3806 219.394 19.1827C218.706 18.9847 218.059 18.7243 217.453 18.4015C216.846 18.0786 216.366 17.6508 216.014 17.1207C215.661 16.5906 215.485 15.921 215.485 15.1119C215.485 14.2483 215.716 13.499 216.178 12.8612C216.639 12.2235 217.327 11.716 218.241 11.3387C219.154 10.9614 220.254 10.7727 221.538 10.7727C222.714 10.7727 223.742 10.9308 224.619 11.2444C225.497 11.5592 226.225 12.0083 226.806 12.5929C227.385 13.1775 227.765 13.8736 227.945 14.6814L226.4 15.1969C225.635 15.452 224.807 15.1996 224.276 14.5964C224.273 14.5937 224.27 14.5898 224.268 14.5871C223.987 14.2722 223.616 14.0304 223.155 13.859C222.693 13.689 222.154 13.6026 221.54 13.6026C220.78 13.6026 220.182 13.7288 219.748 13.9799C219.313 14.2324 219.097 14.5725 219.097 15.0043C219.097 15.3457 219.236 15.6247 219.517 15.84C219.798 16.0552 220.191 16.2266 220.698 16.3528C221.205 16.479 221.802 16.6225 222.49 16.7846C223.196 16.9281 223.892 17.0941 224.579 17.2828C225.267 17.4715 225.892 17.7146 226.452 18.0109C227.013 18.3071 227.457 18.7084 227.782 19.2106C228.107 19.7141 228.271 20.3705 228.271 21.1782C228.271 22.1136 228.022 22.9227 227.524 23.6042C227.026 24.2871 226.297 24.804 225.338 25.1547C224.381 25.5055 223.213 25.6808 221.839 25.6808Z" fill="#36621F"/>
<path d="M237.453 25.6808C236.222 25.6808 235.149 25.5055 234.237 25.1547C233.323 24.804 232.563 24.3057 231.957 23.6587C231.351 23.0117 230.89 22.2438 230.573 21.3536C230.256 20.4635 230.098 19.4803 230.098 18.4015C230.098 17.2868 230.257 16.2624 230.573 15.3284C230.888 14.3944 231.355 13.5893 231.971 12.9157C232.586 12.2421 233.346 11.716 234.25 11.3387C235.155 10.9614 236.186 10.7727 237.345 10.7727C238.504 10.7727 239.512 10.9614 240.373 11.3387C241.231 11.716 241.934 12.2408 242.476 12.9157C243.019 13.5893 243.38 14.3758 243.562 15.274L241.718 15.8798C240.865 16.1601 239.95 15.7868 239.498 15.0162C239.495 15.0122 239.492 15.0083 239.491 15.0043C239.255 14.6097 238.938 14.3081 238.541 14.1008C238.142 13.8949 237.671 13.7913 237.13 13.7913C236.641 13.7913 236.206 13.8909 235.826 14.0875C235.446 14.2855 235.12 14.5818 234.85 14.9777C234.578 15.3736 234.375 15.8453 234.24 16.3926C234.105 16.94 234.036 17.5658 234.036 18.266C234.036 19.2358 234.167 20.0542 234.43 20.7199C234.692 21.3855 235.081 21.897 235.598 22.257C236.114 22.6171 236.751 22.7965 237.511 22.7965C238.235 22.7965 238.81 22.653 239.234 22.366C239.659 22.079 239.981 21.719 240.197 21.2872C240.2 21.2832 240.201 21.2792 240.204 21.2739C240.581 20.5166 241.412 20.0968 242.243 20.2788L243.998 20.6654C243.907 21.3669 243.717 22.0232 243.428 22.633C243.138 23.2442 242.726 23.7783 242.193 24.2367C241.66 24.695 241.003 25.0497 240.225 25.3008C239.444 25.5546 238.521 25.6808 237.453 25.6808Z" fill="#36621F"/>
<path d="M249.654 25.6823C248.839 25.6823 248.125 25.5242 247.509 25.2106C246.894 24.8957 246.415 24.4427 246.071 23.8488C245.727 23.2549 245.555 22.5282 245.555 21.6646C245.555 20.8927 245.705 20.2403 246.003 19.7102C246.301 19.1801 246.745 18.7537 247.333 18.4295C247.921 18.1066 248.632 17.8369 249.464 17.6204C250.296 17.4051 251.274 17.2165 252.395 17.0544C252.956 16.964 253.421 16.879 253.793 16.798C254.164 16.7169 254.441 16.5814 254.621 16.3941C254.802 16.2054 254.893 15.9317 254.893 15.5717C254.893 15.0681 254.712 14.6377 254.35 14.2776C253.987 13.9189 253.408 13.7382 252.612 13.7382C252.105 13.7382 251.63 13.8232 251.187 13.9933C250.743 14.1647 250.363 14.4344 250.047 14.8024C250.045 14.8064 250.041 14.8104 250.038 14.8131C249.397 15.5664 248.386 15.8945 247.437 15.6049L245.908 15.1386C246.125 14.4012 246.432 13.7635 246.831 13.2241C247.228 12.6846 247.718 12.2316 248.297 11.8622C248.877 11.4942 249.546 11.2192 250.307 11.0398C251.067 10.8605 251.872 10.7701 252.723 10.7701C254.098 10.7701 255.225 10.9907 256.102 11.4305C256.98 11.8702 257.636 12.5544 258.07 13.4791C258.505 14.4052 258.722 15.5956 258.722 17.0517V19.4512C258.722 20.0809 258.735 20.7226 258.764 21.379C258.79 22.0353 258.832 22.6916 258.885 23.3466C258.94 24.0029 259.003 24.6539 259.075 25.301H257.131C256.24 25.301 255.494 24.634 255.399 23.7558C255.399 23.7505 255.397 23.7438 255.397 23.7385C255.333 23.146 255.284 22.5614 255.248 21.9861H254.786C254.514 22.6504 254.144 23.2669 253.673 23.8329C253.202 24.3988 252.628 24.8479 251.948 25.1814C251.269 25.5162 250.505 25.6823 249.654 25.6823ZM251.309 22.8789C251.635 22.8789 251.978 22.8165 252.34 22.6903C252.702 22.5641 253.047 22.39 253.372 22.1641C253.697 21.9396 254.005 21.6566 254.295 21.3152C254.584 20.9737 254.802 20.5871 254.947 20.1566V17.9193L255.543 18.0269C255.236 18.2607 254.861 18.4441 254.417 18.5796C253.974 18.7138 253.52 18.8188 253.059 18.8892C252.597 18.9609 252.141 19.042 251.688 19.1323C251.235 19.2226 250.827 19.3342 250.466 19.4698C250.103 19.604 249.823 19.7979 249.624 20.049C249.425 20.3001 249.326 20.6416 249.326 21.0734C249.326 21.6301 249.507 22.0711 249.869 22.394C250.232 22.7168 250.712 22.8789 251.309 22.8789Z" fill="#36621F"/>
<path d="M262.16 29.8074V18.3497V11.1514H265.418V15.0866L265.879 15.1132C266.06 14.1606 266.354 13.3608 266.762 12.7138C267.169 12.0668 267.699 11.5818 268.35 11.2576C269.002 10.9348 269.753 10.7727 270.603 10.7727C271.87 10.7727 272.955 11.0823 273.861 11.7027C274.766 12.3232 275.459 13.1947 275.938 14.3174C276.417 15.4414 276.657 16.7673 276.657 18.2939C276.657 19.6955 276.439 20.9497 276.006 22.0551C275.571 23.1605 274.929 24.0413 274.078 24.6977C273.227 25.3527 272.15 25.6822 270.848 25.6822C269.943 25.6822 269.179 25.5108 268.554 25.1693C267.929 24.8279 267.414 24.3469 267.007 23.7265C266.599 23.106 266.261 22.3567 265.989 21.4758H265.473C265.581 21.9608 265.676 22.4603 265.758 22.9718C265.839 23.4847 265.912 23.9789 265.974 24.4545C266.037 24.9315 266.069 25.3939 266.069 25.8429V27.3177C266.069 28.6914 264.948 29.8048 263.565 29.8048H262.16V29.8074ZM269.49 22.5826C270.142 22.5826 270.693 22.4072 271.147 22.0564C271.599 21.7057 271.952 21.2035 272.205 20.5472C272.458 19.8908 272.585 19.1495 272.585 18.3231C272.585 17.425 272.454 16.6517 272.192 16.0047C271.929 15.3577 271.563 14.8595 271.092 14.5087C270.621 14.158 270.07 13.9826 269.436 13.9826C268.839 13.9826 268.326 14.1088 267.901 14.3599C267.476 14.6123 267.128 14.9445 266.856 15.3577C266.584 15.7722 266.385 16.2159 266.259 16.6929C266.132 17.1699 266.069 17.6229 266.069 18.0547V18.5675C266.069 18.909 266.115 19.2637 266.205 19.6318C266.296 19.9998 266.436 20.3598 266.626 20.7106C266.816 21.0613 267.046 21.3762 267.318 21.6539C267.589 21.9329 267.91 22.1574 268.281 22.3275C268.653 22.4962 269.056 22.5826 269.49 22.5826Z" fill="#36621F"/>
<path d="M286.118 25.6828C284.959 25.6828 283.918 25.5207 282.995 25.1979C282.072 24.875 281.293 24.4074 280.66 23.7962C280.026 23.185 279.543 22.4344 279.209 21.5456C278.873 20.6554 278.707 19.6364 278.707 18.4858C278.707 17.3539 278.87 16.3149 279.195 15.3716C279.522 14.4283 279.982 13.6152 280.58 12.9323C281.177 12.2494 281.929 11.7193 282.833 11.342C283.737 10.9647 284.733 10.776 285.819 10.776C286.942 10.776 287.924 10.9554 288.765 11.3154C289.607 11.6755 290.308 12.2003 290.868 12.8924C291.429 13.5846 291.846 14.4336 292.117 15.4407C292.388 16.4478 292.487 17.6236 292.415 18.9721L281.23 19.0531V16.95L290.162 16.8423L288.804 17.8946C288.912 16.9606 288.84 16.1874 288.587 15.5762C288.333 14.9651 287.962 14.5107 287.474 14.2144C286.986 13.9181 286.452 13.7693 285.873 13.7693C285.185 13.7693 284.587 13.954 284.081 14.322C283.574 14.69 283.172 15.2215 282.873 15.9123C282.575 16.6045 282.425 17.4362 282.425 18.4061C282.425 19.9513 282.759 21.0792 283.43 21.7887C284.099 22.4982 284.986 22.8529 286.091 22.8529C286.598 22.8529 287.027 22.7851 287.38 22.651C287.734 22.5168 288.028 22.3414 288.263 22.1248C288.499 21.9096 288.684 21.6665 288.82 21.3968C288.821 21.3941 288.823 21.3914 288.824 21.3888C289.055 20.9291 289.563 20.674 290.07 20.783L292.554 21.3157C292.391 21.9813 292.151 22.5832 291.834 23.1226C291.517 23.662 291.097 24.1204 290.571 24.4977C290.047 24.875 289.418 25.1673 288.685 25.3732C287.949 25.5792 287.094 25.6828 286.118 25.6828Z" fill="#36621F"/>
</svg>
