<svg width="32" height="32" viewBox="0 0 32 32" fill="none" xmlns="http://www.w3.org/2000/svg">
<g filter="url(#filter0_b_126_5203)">
<rect width="32" height="32" rx="5" fill="white"/>
<rect x="0.25" y="0.25" width="31.5" height="31.5" rx="4.75" stroke="#A7A7A7" stroke-opacity="0.66" stroke-width="0.5"/>
<path d="M11.2167 14.907C10.9745 14.4714 10.5946 14.1284 10.1365 13.932C9.67832 13.7356 9.16794 13.6969 8.68544 13.822C8.20293 13.9471 7.77562 14.2288 7.47057 14.623C7.16552 15.0172 7 15.5016 7 16C7 16.4985 7.16552 16.9828 7.47057 17.377C7.77562 17.7712 8.20293 18.053 8.68544 18.1781C9.16794 18.3031 9.67832 18.2644 10.1365 18.0681C10.5946 17.8717 10.9745 17.5287 11.2167 17.093M11.2167 14.907C11.3967 15.231 11.4997 15.603 11.4997 16C11.4997 16.397 11.3967 16.77 11.2167 17.093M11.2167 14.907L20.7827 9.59304M11.2167 17.093L20.7827 22.407M20.7827 9.59304C20.9229 9.85718 21.1144 10.0907 21.346 10.28C21.5776 10.4692 21.8445 10.6104 22.1313 10.6953C22.4181 10.7802 22.7189 10.8071 23.0161 10.7743C23.3134 10.7416 23.6012 10.6499 23.8626 10.5047C24.124 10.3595 24.3539 10.1636 24.5387 9.92845C24.7236 9.69334 24.8597 9.42375 24.9391 9.13542C25.0185 8.8471 25.0397 8.54583 25.0013 8.24923C24.963 7.95264 24.8659 7.66667 24.7157 7.40804C24.4198 6.89838 23.9357 6.52518 23.3675 6.36865C22.7993 6.21213 22.1924 6.28478 21.6772 6.57099C21.162 6.8572 20.7797 7.33412 20.6124 7.89923C20.4452 8.46434 20.5063 9.07252 20.7827 9.59304ZM20.7827 22.407C20.6392 22.6654 20.5479 22.9495 20.5142 23.2432C20.4804 23.5368 20.5049 23.8342 20.5861 24.1184C20.6673 24.4026 20.8037 24.668 20.9875 24.8995C21.1712 25.131 21.3988 25.324 21.6572 25.4675C21.9156 25.6111 22.1997 25.7023 22.4933 25.736C22.787 25.7698 23.0844 25.7453 23.3685 25.6641C23.6527 25.5829 23.9182 25.4465 24.1496 25.2628C24.3811 25.079 24.5742 24.8514 24.7177 24.593C25.0076 24.0712 25.0783 23.4556 24.9143 22.8817C24.7503 22.3077 24.365 21.8224 23.8432 21.5325C23.3214 21.2427 22.7058 21.1719 22.1318 21.3359C21.5579 21.4999 21.0726 21.8852 20.7827 22.407Z" stroke="#707070" stroke-width="1.5" stroke-linecap="round" stroke-linejoin="round"/>
</g>
<defs>
<filter id="filter0_b_126_5203" x="-12" y="-12" width="56" height="56" filterUnits="userSpaceOnUse" color-interpolation-filters="sRGB">
<feFlood flood-opacity="0" result="BackgroundImageFix"/>
<feGaussianBlur in="BackgroundImageFix" stdDeviation="6"/>
<feComposite in2="SourceAlpha" operator="in" result="effect1_backgroundBlur_126_5203"/>
<feBlend mode="normal" in="SourceGraphic" in2="effect1_backgroundBlur_126_5203" result="shape"/>
</filter>
</defs>
</svg>
