<svg width="96" height="84" viewBox="0 0 96 84" fill="none" xmlns="http://www.w3.org/2000/svg">
<rect x="0.5" y="0.5" width="95" height="83" rx="7.5" fill="#EBEBEB" fill-opacity="0.2"/>
<rect x="0.5" y="0.5" width="95" height="83" rx="7.5" stroke="#E9E9E9"/>
<g clip-path="url(#clip0_80_93)">
<path d="M47.2711 12.3572C45.8025 12.3543 44.3814 12.8895 43.2656 13.8657L27.1141 27.2341C25.139 28.8462 27.6032 31.8634 29.4681 30.1156L45.6225 16.7519C46.0798 16.3449 46.6655 16.1206 47.2718 16.1206C47.8782 16.1206 48.4639 16.3449 48.9212 16.7519L65.0414 30.1156C66.9062 31.8634 69.3705 28.8464 67.3953 27.2357L51.2781 13.8672C50.1621 12.8901 48.7405 12.3544 47.2711 12.3572Z" stroke="#707070" stroke-linecap="round" stroke-linejoin="round"/>
<path d="M32.3481 48.9285V52.738H62.5345V48.9285M32.3481 39.0237V35.2142M62.5345 45.8808V42.0713M62.5345 39.0237V35.2142M62.5345 32.1666V27.9761" stroke="#707070"/>
<path d="M62.1617 28.3571H54.8812M58.0623 24.5476H54.3462" stroke="#707070" stroke-linecap="round" stroke-linejoin="round"/>
<path d="M32.7207 32.1666V27.5952" stroke="#707070"/>
<path d="M32.9192 28.3571H40M36.4582 24.5476H40.5364M50.9818 45.8809H62.5346C63.3604 45.8809 64.0252 46.5606 64.0252 47.4048C64.0252 48.2489 63.3604 48.9286 62.5346 48.9286H50.9818M43.342 48.9286H31.9755C31.1497 48.9286 30.4849 48.2489 30.4849 47.4048C30.4849 46.5606 31.1497 45.8809 31.9755 45.8809H43.342M31.9755 32.1667H62.5346C63.3604 32.1667 64.0252 32.8463 64.0252 33.6905C64.0252 34.5347 63.3604 35.2143 62.5346 35.2143H31.9755C31.1497 35.2143 30.4849 34.5347 30.4849 33.6905C30.4849 32.8463 31.1497 32.1667 31.9755 32.1667Z" stroke="#707070" stroke-linecap="round" stroke-linejoin="round"/>
<path d="M50.9817 52.7382V38.2605H43.5298V52.7367" stroke="#707070" stroke-linejoin="round"/>
<path d="M32.3481 45.8811V42.0715" stroke="#707070"/>
<path d="M50.9818 39.0239H62.5346C63.3604 39.0239 64.0252 39.7035 64.0252 40.5477C64.0252 41.3919 63.3604 42.0715 62.5346 42.0715H50.9818M43.342 42.0715H31.9755C31.1497 42.0715 30.4849 41.3919 30.4849 40.5477C30.4849 39.7035 31.1497 39.0239 31.9755 39.0239H43.342M65.878 52.7382H30.4954" stroke="#707070" stroke-linecap="round" stroke-linejoin="round"/>
<path d="M68.1245 52.738C68.1245 52.94 68.2031 53.1338 68.3429 53.2767C68.4827 53.4196 68.6722 53.4999 68.8699 53.4999C69.0675 53.4999 69.2571 53.4196 69.3968 53.2767C69.5366 53.1338 69.6152 52.94 69.6152 52.738C69.6152 52.5359 69.5366 52.3422 69.3968 52.1993C69.2571 52.0564 69.0675 51.9761 68.8699 51.9761C68.6722 51.9761 68.4827 52.0564 68.3429 52.1993C68.2031 52.3422 68.1245 52.5359 68.1245 52.738Z" fill="#707070"/>
<path d="M27.8656 52.738H26.396" stroke="#707070" stroke-linecap="round" stroke-linejoin="round"/>
<path d="M62.5345 23.4032V13.8794M58.0625 13.8794V19.5937" stroke="#707070"/>
<path d="M57.3277 14.2619H63.2693M49.1289 5.5H54.704C55.3212 5.5 55.8221 6.01055 55.8221 6.63988V7.77511C55.8221 8.40444 56.3215 8.91481 56.9372 8.91481H61.4179C62.0336 8.91481 62.5345 9.42532 62.5345 10.0562V11.202" stroke="#707070" stroke-linecap="round" stroke-linejoin="round"/>
<path d="M47.255 32.1652C49.3132 32.1652 50.9817 30.4596 50.9817 28.3557C50.9817 26.2517 49.3132 24.5461 47.255 24.5461C45.1968 24.5461 43.5283 26.2517 43.5283 28.3557C43.5283 30.4596 45.1968 32.1652 47.255 32.1652Z" stroke="#707070" stroke-linejoin="round"/>
<path d="M47.255 24.5476V32.1667M50.9817 28.3571H43.5283" stroke="#707070"/>
<path d="M47.4292 44.3572L48.3609 43.4048L49.2926 44.3572L48.3609 45.3096L47.4292 44.3572ZM57.876 11.6426L58.8077 10.6902L59.7393 11.6426L58.8077 12.5949L57.876 11.6426Z" fill="#707070"/>
</g>
<path d="M27.102 66.614C27.102 65.662 27.3167 64.808 27.746 64.052C28.1753 63.2867 28.7587 62.6893 29.496 62.26C30.2427 61.8307 31.0687 61.616 31.974 61.616C33.038 61.616 33.9667 61.8727 34.76 62.386C35.5533 62.8993 36.132 63.6273 36.496 64.57H34.97C34.6993 63.982 34.3073 63.5293 33.794 63.212C33.29 62.8947 32.6833 62.736 31.974 62.736C31.2927 62.736 30.6813 62.8947 30.14 63.212C29.5987 63.5293 29.174 63.982 28.866 64.57C28.558 65.1487 28.404 65.83 28.404 66.614C28.404 67.3887 28.558 68.07 28.866 68.658C29.174 69.2367 29.5987 69.6847 30.14 70.002C30.6813 70.3193 31.2927 70.478 31.974 70.478C32.6833 70.478 33.29 70.324 33.794 70.016C34.3073 69.6987 34.6993 69.246 34.97 68.658H36.496C36.132 69.5913 35.5533 70.3147 34.76 70.828C33.9667 71.332 33.038 71.584 31.974 71.584C31.0687 71.584 30.2427 71.374 29.496 70.954C28.7587 70.5247 28.1753 69.932 27.746 69.176C27.3167 68.42 27.102 67.566 27.102 66.614ZM37.9165 67.636C37.9165 66.852 38.0751 66.166 38.3925 65.578C38.7098 64.9807 39.1438 64.5187 39.6945 64.192C40.2545 63.8653 40.8751 63.702 41.5565 63.702C42.2285 63.702 42.8118 63.8467 43.3065 64.136C43.8011 64.4253 44.1698 64.7893 44.4125 65.228V63.828H45.7005V71.5H44.4125V70.072C44.1605 70.52 43.7825 70.8933 43.2785 71.192C42.7838 71.4813 42.2051 71.626 41.5425 71.626C40.8611 71.626 40.2451 71.458 39.6945 71.122C39.1438 70.786 38.7098 70.3147 38.3925 69.708C38.0751 69.1013 37.9165 68.4107 37.9165 67.636ZM44.4125 67.65C44.4125 67.0713 44.2958 66.5673 44.0625 66.138C43.8291 65.7087 43.5118 65.382 43.1105 65.158C42.7185 64.9247 42.2845 64.808 41.8085 64.808C41.3325 64.808 40.8985 64.92 40.5065 65.144C40.1145 65.368 39.8018 65.6947 39.5685 66.124C39.3351 66.5533 39.2185 67.0573 39.2185 67.636C39.2185 68.224 39.3351 68.7373 39.5685 69.176C39.8018 69.6053 40.1145 69.9367 40.5065 70.17C40.8985 70.394 41.3325 70.506 41.8085 70.506C42.2845 70.506 42.7185 70.394 43.1105 70.17C43.5118 69.9367 43.8291 69.6053 44.0625 69.176C44.2958 68.7373 44.4125 68.2287 44.4125 67.65ZM49.1274 65.256C49.3887 64.7987 49.7714 64.4253 50.2754 64.136C50.7794 63.8467 51.3534 63.702 51.9974 63.702C52.6881 63.702 53.3087 63.8653 53.8594 64.192C54.4101 64.5187 54.8441 64.9807 55.1614 65.578C55.4787 66.166 55.6374 66.852 55.6374 67.636C55.6374 68.4107 55.4787 69.1013 55.1614 69.708C54.8441 70.3147 54.4054 70.786 53.8454 71.122C53.2947 71.458 52.6787 71.626 51.9974 71.626C51.3347 71.626 50.7514 71.4813 50.2474 71.192C49.7527 70.9027 49.3794 70.534 49.1274 70.086V71.5H47.8534V61.14H49.1274V65.256ZM54.3354 67.636C54.3354 67.0573 54.2187 66.5533 53.9854 66.124C53.7521 65.6947 53.4347 65.368 53.0334 65.144C52.6414 64.92 52.2074 64.808 51.7314 64.808C51.2647 64.808 50.8307 64.9247 50.4294 65.158C50.0374 65.382 49.7201 65.7133 49.4774 66.152C49.2441 66.5813 49.1274 67.0807 49.1274 67.65C49.1274 68.2287 49.2441 68.7373 49.4774 69.176C49.7201 69.6053 50.0374 69.9367 50.4294 70.17C50.8307 70.394 51.2647 70.506 51.7314 70.506C52.2074 70.506 52.6414 70.394 53.0334 70.17C53.4347 69.9367 53.7521 69.6053 53.9854 69.176C54.2187 68.7373 54.3354 68.224 54.3354 67.636ZM57.9723 62.582C57.7297 62.582 57.5243 62.498 57.3563 62.33C57.1883 62.162 57.1043 61.9567 57.1043 61.714C57.1043 61.4713 57.1883 61.266 57.3563 61.098C57.5243 60.93 57.7297 60.846 57.9723 60.846C58.2057 60.846 58.4017 60.93 58.5603 61.098C58.7283 61.266 58.8123 61.4713 58.8123 61.714C58.8123 61.9567 58.7283 62.162 58.5603 62.33C58.4017 62.498 58.2057 62.582 57.9723 62.582ZM58.5883 63.828V71.5H57.3143V63.828H58.5883ZM64.4976 63.688C65.431 63.688 66.187 63.9727 66.7656 64.542C67.3443 65.102 67.6336 65.914 67.6336 66.978V71.5H66.3736V67.16C66.3736 66.3947 66.1823 65.8113 65.7996 65.41C65.417 64.9993 64.8943 64.794 64.2316 64.794C63.5596 64.794 63.023 65.004 62.6216 65.424C62.2296 65.844 62.0336 66.4553 62.0336 67.258V71.5H60.7596V63.828H62.0336V64.92C62.2856 64.528 62.6263 64.2247 63.0556 64.01C63.4943 63.7953 63.975 63.688 64.4976 63.688Z" fill="#707070"/>
<defs>
<clipPath id="clip0_80_93">
<rect width="48" height="48" fill="white" transform="translate(24 5.5)"/>
</clipPath>
</defs>
</svg>
