<svg width="32" height="32" viewBox="0 0 32 32" fill="none" xmlns="http://www.w3.org/2000/svg">
<rect width="32" height="32" fill="#D8FFAD"/>
<rect width="20" height="16" transform="translate(6 10)" fill="#D8FFAD"/>
<path fill-rule="evenodd" clip-rule="evenodd" d="M2.44716 9.83327C1.72654 11.3364 1.9795 13.0944 2.48542 16.6105L2.85712 19.1936C3.507 23.7103 3.83194 25.9685 5.3987 27.3176C6.96545 28.6667 9.26316 28.6667 13.8585 28.6667H16.8081C21.4035 28.6667 23.7012 28.6667 25.268 27.3176C26.8347 25.9685 27.1596 23.7103 27.8096 19.1936L28.1812 16.6105C28.6872 13.0944 28.9401 11.3364 28.2195 9.83327C27.4989 8.33013 25.9651 7.41645 22.8975 5.58908L21.0509 4.48916C18.2653 2.82972 16.8724 2 15.3333 2C13.7943 2 12.4014 2.82972 9.61566 4.48916L7.76921 5.58908C4.70158 7.41645 3.16777 8.33013 2.44716 9.83327ZM17.2667 21.346C16.1896 20.1836 14.4775 20.1836 13.4004 21.346C13.0251 21.7512 12.3924 21.7753 11.9872 21.4C11.5821 21.0245 11.5579 20.3919 11.9333 19.9868C13.8019 17.97 16.8652 17.97 18.7337 19.9868C19.1091 20.3919 19.0849 21.0245 18.6799 21.4C18.2747 21.7753 17.642 21.7512 17.2667 21.346ZM10.7337 18.4673C13.2835 15.7152 17.3835 15.7152 19.9332 18.4673C20.3087 18.8725 20.9413 18.8967 21.3464 18.5213C21.7516 18.146 21.7757 17.5132 21.4004 17.1081C18.0591 13.5016 12.6079 13.5016 9.2666 17.1081C8.89125 17.5132 8.9154 18.146 9.32053 18.5213C9.72566 18.8967 10.3584 18.8725 10.7337 18.4673ZM22.5999 15.5893C18.5773 11.2476 12.0895 11.2476 8.06702 15.5893C7.69168 15.9945 7.05897 16.0187 6.65384 15.6433C6.2487 15.268 6.22456 14.6352 6.5999 14.2301C11.4139 9.03403 19.2529 9.03403 24.0671 14.2301C24.4424 14.6352 24.4183 15.268 24.0131 15.6433C23.608 16.0187 22.9752 15.9945 22.5999 15.5893Z" fill="#017003"/>
</svg>
