<svg width="48" height="48" viewBox="0 0 48 48" fill="none" xmlns="http://www.w3.org/2000/svg">
<path d="M44.4072 7.97041C44.7339 7.97041 45 7.70084 45 7.36793V4.15659C45 3.8237 44.734 3.55412 44.4072 3.55412H25.3588V2.60247C25.3588 2.26958 25.0928 2 24.7642 2H22.243C21.9145 2 21.6484 2.26957 21.6484 2.60247V3.55231H2.59638C2.43925 3.55231 2.28748 3.61564 2.17498 3.72781C2.06428 3.84179 2 3.99557 2 4.15478V7.36432C2 7.52353 2.06428 7.67731 2.17498 7.79129C2.28747 7.90346 2.43924 7.96679 2.59638 7.96679H3.58559V14.9285H3.36776C3.03921 14.9285 2.77137 15.1981 2.77137 15.531V17.2913C2.77137 17.6242 3.03921 17.8938 3.36776 17.8938H3.58559V22.567H2.59638C2.43925 22.567 2.28748 22.6304 2.17498 22.7425C2.06428 22.8547 2 23.0085 2 23.1695V26.3754C2 26.5365 2.06428 26.6884 2.17498 26.8024C2.28747 26.9146 2.43924 26.9779 2.59638 26.9779H3.58559V34.1804H3.42132C3.09278 34.1804 2.82672 34.45 2.82672 34.7811V36.4872C2.82672 36.8183 3.09277 37.0879 3.42132 37.0879H3.58559V41.5729H2.59638C2.43925 41.5729 2.28748 41.6362 2.17498 41.7484C2.06428 41.8624 2 42.0161 2 42.1754V45.3975C2 45.5586 2.06428 45.7123 2.17498 45.8245C2.28747 45.9367 2.43924 46 2.59638 46H44.4071C44.7338 46 44.9999 45.7304 44.9999 45.3975V42.188C44.9999 41.8551 44.7339 41.5855 44.4071 41.5855H43.4179V37.0987H43.5857C43.9143 37.0987 44.1803 36.8291 44.1821 36.4962V34.7919C44.1803 34.459 43.9143 34.1895 43.5857 34.1895H43.4197L43.4179 26.9832H44.4071C44.7338 26.9832 44.9999 26.7136 44.9999 26.3807V23.173C44.9999 22.8401 44.7339 22.5705 44.4071 22.5705H43.4179V17.8954H43.6304C43.9589 17.8954 44.225 17.6259 44.225 17.293V15.5326V15.5344C44.225 15.2015 43.9589 14.9319 43.6304 14.9319H43.4179V7.97024L44.4072 7.97041ZM43.8108 4.76087V6.76185H25.3589V4.76087H43.8108ZM39.9254 14.9285H36.7614V11.7208H39.9254V14.9285ZM43.0341 16.1371V16.6871H3.96417V16.1371H43.0341ZM22.8393 22.569V17.8957H24.1642V22.569H22.8393ZM7.35495 14.9125V11.7066H10.5208V14.9125H7.35495ZM21.6467 7.97073V14.9287H20.6861L20.6879 11.1167C20.6879 10.7838 20.4218 10.5142 20.0933 10.5142H15.7311C15.4026 10.5161 15.1383 10.7856 15.1365 11.1167V14.9287H14.0652V7.97073H21.6467ZM19.4951 14.9287H16.3276V11.721H19.4951V14.9287ZM27.7893 14.9124V11.7065H30.9551V14.9124H27.7893ZM32.1496 14.9287V11.1023C32.1478 10.7694 31.8818 10.4998 31.5532 10.4998H27.1929C26.8643 10.4998 26.5983 10.7694 26.5983 11.1023V14.9287H25.3591V7.97073H33.3068V14.9287H32.1496ZM22.8398 3.20856H24.1647L24.1665 14.9287H22.8416L22.8398 3.20856ZM3.19354 4.76087H21.6472V6.76185H3.19354V4.76087ZM4.77731 7.97041H12.873V14.9284H11.716V11.1019C11.716 10.7691 11.45 10.4995 11.1214 10.4995H6.7593C6.43076 10.4995 6.1647 10.769 6.1647 11.1019V14.9284H4.77913L4.77731 7.97041ZM4.77731 17.8977H21.6435V22.5709L4.77868 22.5691L4.77731 17.8977ZM4.77731 26.9853L12.873 26.9835V34.186H11.716V30.2347C11.716 29.9018 11.45 29.6323 11.1214 29.6323H6.7593C6.43076 29.6323 6.1647 29.9018 6.1647 30.2347V34.186H4.77913L4.77731 26.9853ZM24.1649 26.9853V34.1878H22.84L22.8418 26.9834L24.1649 26.9853ZM33.3051 26.9853V34.1878L32.1498 34.186V30.2347C32.1481 29.9 31.882 29.6323 31.5535 29.6323H27.1931C26.8646 29.6323 26.5985 29.9018 26.5985 30.2347V34.186H25.3594V26.9835L33.3051 26.9853ZM39.9258 34.1878L36.7617 34.186V30.8553H39.9258V34.1878ZM42.988 35.3964V35.8921L4.01815 35.8903V35.3946L42.988 35.3964ZM22.8398 37.0989H24.1647V41.5839H22.8398V37.0989ZM7.35546 34.1716V30.8372H10.5213V34.1716H7.35546ZM19.4956 34.186H16.3281V30.8553H19.4956V34.186ZM27.7898 34.1716V30.8372H30.9556V34.1716H27.7898ZM21.6472 34.186H20.6866L20.6884 30.2528C20.6884 29.9199 20.4223 29.6504 20.0938 29.6504H15.7316C15.4031 29.6522 15.1388 29.9199 15.137 30.2528V34.1897H14.0657V26.9834H21.6472L21.6472 34.186ZM4.77923 37.0989H21.6454V41.5839H4.77923V37.0989ZM43.8117 44.7933L3.19399 44.7915V42.7905H43.8117V44.7933ZM42.2279 41.5838H25.3617L25.3599 37.0987H42.2261L42.2279 41.5838ZM42.2279 34.1858H41.1208V30.2526C41.1191 29.9197 40.853 29.6501 40.5227 29.6501H36.1641C35.8356 29.6501 35.5695 29.9196 35.5695 30.2526V34.1894H34.5V26.9831H42.2241L42.2279 34.1858ZM43.8117 25.7749H3.19399V23.7775H43.8117V25.7749ZM42.2279 22.5689H25.3617L25.3599 17.8957H42.2261L42.2279 22.5689ZM42.2279 14.9287H41.1208V11.1167C41.1191 10.7838 40.853 10.5142 40.5227 10.5142H36.1641C35.8356 10.5142 35.5695 10.7838 35.5695 11.1167V14.9287H34.5V7.97071H42.2241L42.2279 14.9287Z" fill="#1E1E1E"/>
</svg>
