<svg width="48" height="48" viewBox="0 0 48 48" fill="none" xmlns="http://www.w3.org/2000/svg">
<path d="M41.8431 8.43644C41.9384 8.43655 42.0328 8.41783 42.1208 8.38136C42.2089 8.34489 42.2889 8.29138 42.3562 8.22391L43.2613 7.31884C43.3286 7.25145 43.3821 7.17144 43.4185 7.0834C43.455 6.99535 43.4738 6.90099 43.4738 6.80569C43.4737 6.71039 43.455 6.61603 43.4185 6.52799C43.382 6.43995 43.3286 6.35996 43.2612 6.29258C43.1938 6.2252 43.1138 6.17175 43.0257 6.13529C42.9377 6.09883 42.8433 6.08007 42.748 6.08008C42.6527 6.08009 42.5584 6.09887 42.4703 6.13534C42.3823 6.17182 42.3023 6.22528 42.2349 6.29267L41.3297 7.19774C41.2282 7.29923 41.1591 7.42853 41.1311 7.56928C41.1031 7.71003 41.1175 7.85592 41.1724 7.9885C41.2274 8.12108 41.3204 8.2344 41.4397 8.31413C41.559 8.39386 41.6993 8.43643 41.8428 8.43644H41.8431Z" fill="black"/>
<path d="M37.6866 6.79922C37.879 6.79922 38.0636 6.72277 38.1997 6.58668C38.3358 6.45059 38.4123 6.26602 38.4123 6.07356V4.72566C38.4123 4.5332 38.3358 4.34863 38.1997 4.21254C38.0636 4.07645 37.879 4 37.6866 4C37.4941 4 37.3096 4.07645 37.1735 4.21254C37.0374 4.34863 36.9609 4.5332 36.9609 4.72566V6.07356C36.9609 6.26602 37.0374 6.45059 37.1735 6.58668C37.3096 6.72277 37.4941 6.79922 37.6866 6.79922Z" fill="black"/>
<path d="M33.1226 8.22468C33.2589 8.35941 33.4431 8.43471 33.6348 8.43414C33.8264 8.43357 34.0101 8.35717 34.1457 8.22162C34.2812 8.08608 34.3576 7.90241 34.3582 7.71072C34.3588 7.51903 34.2835 7.33489 34.1488 7.19852L33.2435 6.29344C33.1071 6.15871 32.923 6.08341 32.7313 6.08399C32.5396 6.08456 32.3559 6.16096 32.2204 6.2965C32.0848 6.43204 32.0084 6.61571 32.0078 6.80741C32.0072 6.9991 32.0825 7.18324 32.2172 7.31961L33.1226 8.22468Z" fill="black"/>
<path d="M8.11892 44.2739C8.11892 44.4663 8.19537 44.6509 8.33146 44.787C8.46754 44.9231 8.65212 44.9995 8.84457 44.9995C9.03703 44.9995 9.2216 44.9231 9.35769 44.787C9.49378 44.6509 9.57023 44.4663 9.57023 44.2739V39.285H42.3155V44.2739C42.3155 44.4663 42.3919 44.6509 42.528 44.787C42.6641 44.9231 42.8487 44.9995 43.0411 44.9995C43.2336 44.9995 43.4182 44.9231 43.5543 44.787C43.6903 44.6509 43.7668 44.4663 43.7668 44.2739V38.5291C43.7668 38.1283 43.4221 37.8337 43.0217 37.8337H16.9175V21.2343H28.4917C28.6859 21.2305 28.8708 21.1505 29.0065 21.0116C29.1423 20.8727 29.218 20.6861 29.2174 20.4918C29.2174 13.7783 24.0971 8.22961 17.5566 7.56282C16.675 7.45779 15.7842 7.45566 14.9022 7.55647C8.36165 8.22335 3.24142 13.779 3.24142 20.4929C3.24081 20.687 3.31658 20.8736 3.45235 21.0123C3.58812 21.151 3.77301 21.2307 3.96707 21.2343H15.4662V37.8337H9.2074C7.22028 34.8403 4.50152 30.878 4.3455 30.6247C4.24667 30.4614 4.0874 30.3436 3.90226 30.297C3.71713 30.2503 3.52107 30.2786 3.35664 30.3756C3.19221 30.4726 3.07267 30.6306 3.02398 30.8152C2.97529 30.9998 3.00137 31.1961 3.09656 31.3616C3.26681 31.6454 6.94 37.0605 8.11919 38.7996L8.11892 44.2739ZM16.9175 8.96161C17.1896 8.97395 17.3336 8.99137 17.5302 9.01386C19.5439 9.29152 20.7989 10.2838 21.5002 12.095C22.2647 14.0687 22.3337 16.8801 22.3383 19.7827H16.9175V8.96161ZM27.7438 19.783H23.7896C23.7849 16.7896 23.7212 13.7858 22.8633 11.5711C22.7676 11.3204 22.6592 11.0747 22.5385 10.835C23.2046 11.279 23.8238 11.7896 24.3865 12.3589C26.3782 14.3381 27.5731 16.9803 27.7438 19.783ZM8.07284 12.3541C8.63568 11.7862 9.2549 11.2772 9.9209 10.8348C9.80018 11.0759 9.69176 11.323 9.59608 11.5751C8.73826 13.79 8.6745 16.7896 8.66969 19.783H4.71559C4.88606 16.9788 6.08084 14.335 8.07284 12.3541ZM10.121 19.783C10.1256 16.8803 10.1845 14.069 10.9494 12.0953C11.6507 10.2844 12.8761 9.30022 14.89 9.02257C15.0876 8.99998 15.2848 8.97413 15.4662 8.9617V19.783H10.121Z" fill="black"/>
<path d="M37.7416 16.5613C38.681 16.5613 39.5992 16.2828 40.3802 15.7609C41.1613 15.239 41.77 14.4973 42.1295 13.6294C42.489 12.7616 42.583 11.8067 42.3998 10.8854C42.2165 9.96406 41.7642 9.11779 41.1 8.45358C40.4357 7.78936 39.5895 7.33702 38.6682 7.15376C37.7469 6.9705 36.7919 7.06456 35.9241 7.42403C35.0562 7.7835 34.3145 8.39225 33.7926 9.17329C33.2707 9.95432 32.9922 10.8726 32.9922 11.8119C32.9936 13.0711 33.4945 14.2783 34.3849 15.1687C35.2752 16.0591 36.4824 16.5599 37.7416 16.5613ZM37.7416 8.51382C38.3939 8.51382 39.0316 8.70725 39.5739 9.06965C40.1163 9.43205 40.539 9.94714 40.7887 10.5498C41.0383 11.1524 41.1036 11.8156 40.9763 12.4554C40.8491 13.0951 40.535 13.6828 40.0737 14.144C39.6125 14.6053 39.0248 14.9194 38.385 15.0467C37.7453 15.1739 37.0821 15.1086 36.4795 14.859C35.8768 14.6094 35.3617 14.1866 34.9993 13.6443C34.6369 13.1019 34.4435 12.4642 34.4435 11.8119C34.4445 10.9375 34.7922 10.0992 35.4106 9.48087C36.0289 8.86256 36.8672 8.51478 37.7416 8.51382Z" fill="black"/>
<path d="M33.1198 15.3999L32.2147 16.3048C32.0811 16.4414 32.0068 16.6252 32.0078 16.8162C32.0089 17.0073 32.0852 17.1902 32.2203 17.3253C32.3553 17.4604 32.5382 17.5368 32.7293 17.5379C32.9203 17.539 33.1041 17.4647 33.2407 17.3312L34.1461 16.4263C34.2822 16.2902 34.3586 16.1056 34.3586 15.9132C34.3586 15.7207 34.2822 15.5361 34.1461 15.4C34.01 15.264 33.8254 15.1875 33.6329 15.1875C33.4405 15.1875 33.2559 15.264 33.1198 15.4V15.3999Z" fill="black"/>
<path d="M36.9609 17.6275V18.9759C36.9609 19.1684 37.0374 19.3529 37.1735 19.489C37.3096 19.6251 37.4941 19.7016 37.6866 19.7016C37.879 19.7016 38.0636 19.6251 38.1997 19.489C38.3358 19.3529 38.4123 19.1684 38.4123 18.9759V17.628C38.4123 17.4355 38.3358 17.251 38.1997 17.1149C38.0636 16.9788 37.879 16.9023 37.6866 16.9023C37.4941 16.9023 37.3096 16.9788 37.1735 17.1149C37.0374 17.251 36.9609 17.4355 36.9609 17.628V17.6275Z" fill="black"/>
<path d="M41.3219 15.4001C41.2545 15.4674 41.2011 15.5474 41.1646 15.6355C41.1281 15.7235 41.1094 15.8179 41.1094 15.9132C41.1094 16.0085 41.1281 16.1028 41.1646 16.1909C41.2011 16.2789 41.2545 16.3589 41.3219 16.4263L42.227 17.3313C42.3636 17.4649 42.5474 17.5392 42.7384 17.5381C42.9295 17.537 43.1124 17.4607 43.2475 17.3256C43.3826 17.1905 43.4589 17.0076 43.46 16.8165C43.4611 16.6255 43.3867 16.4417 43.2532 16.3051L42.3482 15.4001C42.2808 15.3327 42.2008 15.2792 42.1128 15.2427C42.0247 15.2063 41.9304 15.1875 41.8351 15.1875C41.7398 15.1875 41.6454 15.2063 41.5574 15.2427C41.4693 15.2792 41.3893 15.3327 41.3219 15.4001Z" fill="black"/>
<path d="M30.7413 12.6173H31.8967C32.0892 12.6173 32.2737 12.5409 32.4098 12.4048C32.5459 12.2687 32.6224 12.0841 32.6224 11.8917C32.6224 11.6992 32.5459 11.5146 32.4098 11.3786C32.2737 11.2425 32.0892 11.166 31.8967 11.166H30.7413C30.5488 11.166 30.3643 11.2425 30.2282 11.3786C30.0921 11.5146 30.0156 11.6992 30.0156 11.8917C30.0156 12.0841 30.0921 12.2687 30.2282 12.4048C30.3643 12.5409 30.5488 12.6173 30.7413 12.6173Z" fill="black"/>
<path d="M44.808 11.166H43.46C43.2676 11.166 43.083 11.2425 42.9469 11.3786C42.8108 11.5146 42.7344 11.6992 42.7344 11.8917C42.7344 12.0841 42.8108 12.2687 42.9469 12.4048C43.083 12.5409 43.2676 12.6173 43.46 12.6173H44.808C45.0005 12.6173 45.1851 12.5409 45.3211 12.4048C45.4572 12.2687 45.5337 12.0841 45.5337 11.8917C45.5337 11.6992 45.4572 11.5146 45.3211 11.3786C45.1851 11.2425 45.0005 11.166 44.808 11.166Z" fill="black"/>
</svg>
