<svg width="48" height="48" viewBox="0 0 48 48" fill="none" xmlns="http://www.w3.org/2000/svg">
<mask id="mask0_1676_3705" style="mask-type:alpha" maskUnits="userSpaceOnUse" x="0" y="2" width="48" height="45">
<path d="M47.8514 19.0796C45.6671 16.8179 42.3717 15.9372 39.235 16.7757C37.9426 17.1209 36.8089 17.748 35.8641 18.5512C35.7734 17.3464 35.403 16.1557 34.7077 15.0706C33.0449 12.4637 29.9989 11.0052 26.7414 11.2589C26.5222 11.273 26.3332 11.4068 26.2576 11.5971C26.1821 11.7873 26.2274 11.9987 26.3786 12.1466C28.6687 14.3942 30.6036 17.1914 32.274 20.6156C30.6338 19.4037 28.5478 18.7907 26.3786 18.9528C23.1361 19.1923 20.3849 21.1017 19.1983 23.9341C19.1227 24.1243 19.1605 24.3357 19.3117 24.4837C19.4175 24.5894 19.5686 24.6528 19.7274 24.6528C19.7803 24.6528 19.8407 24.6457 19.8936 24.6316C23.3402 23.6311 27.2251 23.2436 31.6995 23.462C29.7873 25.0826 28.0111 26.8722 26.4315 28.845C25.0105 30.5782 23.7408 32.5721 22.6599 34.7704C22.1006 35.8554 21.6245 37.0744 21.1861 38.4976C19.3343 38.4976 17.5128 38.709 15.7744 39.0894C15.7215 38.568 15.6611 38.0678 15.5628 37.6098C15.2454 35.9682 14.7616 34.4322 14.1267 33.0583C13.4843 31.621 12.7134 30.2682 11.8366 28.9788C14.6256 29.5354 16.9686 30.3668 18.9489 31.5012C19.0396 31.5505 19.1454 31.5787 19.2436 31.5787C19.3495 31.5787 19.4553 31.5505 19.546 31.4942C19.7274 31.3814 19.8332 31.1841 19.8029 30.9869C19.5233 28.8591 18.0041 27.1117 15.8349 26.4212C14.5954 26.0267 13.3105 26.0337 12.1238 26.386C13.711 24.6246 15.3512 23.2507 17.1047 22.222C17.2861 22.1163 17.3919 21.919 17.3692 21.7147C17.3465 21.5104 17.1954 21.3413 16.9913 21.2779C14.8221 20.5733 12.4639 21.0806 10.8465 22.5884C10.257 23.1379 9.81858 23.7721 9.52381 24.4555C9.0552 23.8707 8.46567 23.3634 7.76275 22.9759C5.78251 21.8979 3.36389 21.9613 1.45923 23.152C1.28539 23.2648 1.18713 23.455 1.20981 23.6523C1.23248 23.8496 1.37609 24.0187 1.5726 24.0891C2.85749 24.54 4.03657 25.0262 5.11739 25.5476C4.9889 25.5617 4.86797 25.5617 4.73948 25.5828C2.47958 25.9421 0.673175 27.4358 0.0231706 29.4932C-0.0372949 29.6834 0.0231706 29.8877 0.174334 30.0286C0.280149 30.1202 0.423755 30.1766 0.56736 30.1766C0.627826 30.1766 0.695849 30.1696 0.756315 30.1484C2.43423 29.5989 4.01389 29.1973 5.51797 28.9507C5.12495 29.2748 4.76971 29.6482 4.47494 30.078C3.22028 31.8676 3.18249 34.1222 4.36157 35.9611C4.46738 36.1232 4.64878 36.2148 4.84529 36.2148C4.86041 36.2148 4.86797 36.2148 4.88308 36.2148C5.10227 36.1866 5.28367 36.0668 5.36681 35.8836C6.62147 33.1569 8.05752 30.9728 9.743 29.2466C10.4232 30.7403 10.9523 32.2974 11.2924 33.8756C11.5796 35.1297 11.7157 36.4896 11.693 37.9339C11.7006 38.8146 11.5796 39.6742 11.4058 40.4986C8.73776 41.6611 6.44007 43.2887 4.76971 45.2826H3.25807C2.94819 45.2826 2.69121 45.5222 2.69121 45.811C2.69121 46.0999 2.94819 46.3395 3.25807 46.3395H39.1897C39.4996 46.3395 39.7566 46.0999 39.7566 45.811C39.7566 45.5222 39.4996 45.2826 39.1897 45.2826H37.6781C35.2065 42.3375 31.3745 40.1886 26.9908 39.174C27.0815 38.251 27.2326 37.3069 27.5047 36.3698C28.0338 34.3195 28.767 32.4171 29.6739 30.7121C30.8379 28.4715 32.2891 26.3296 33.9519 24.3498C35.7885 27.464 37.0583 31.17 37.8065 35.6511C37.8368 35.8484 37.9879 36.0104 38.192 36.0739C38.2525 36.095 38.3129 36.102 38.3659 36.102C38.5095 36.102 38.6531 36.0457 38.7664 35.947C41.0868 33.8122 41.8804 30.6909 40.8298 27.8163C40.467 26.8228 39.9077 25.9492 39.2048 25.1882C41.5554 26.0971 43.9665 27.316 46.4833 28.8872C46.5816 28.9436 46.6874 28.9788 46.8008 28.9788C46.899 28.9788 46.9897 28.9577 47.0729 28.9154C47.2618 28.8168 47.3677 28.6336 47.3601 28.4363C47.2467 25.3996 45.3269 22.7434 42.349 21.5104C41.9031 21.3272 41.4496 21.1933 40.9961 21.0806C42.9915 20.5944 45.1455 20.2281 47.5037 19.9885C47.7153 19.9674 47.8967 19.8406 47.9723 19.6503C48.0328 19.4389 47.995 19.2276 47.8514 19.0796ZM33.7251 15.6131C34.5414 16.8954 34.8664 18.3469 34.7153 19.756C34.36 20.221 34.0577 20.7283 33.8158 21.2708C32.1908 17.6846 30.2937 14.7254 28.0565 12.3087C30.3995 12.4848 32.5007 13.6897 33.7251 15.6131ZM20.7855 23.3C21.9873 21.4188 24.0733 20.1858 26.4617 20.0097C26.6658 19.9956 26.8623 19.9885 27.0588 19.9885C29.2582 19.9885 31.299 20.8974 32.6821 22.4686C28.2077 22.1727 24.2925 22.4475 20.7855 23.3ZM15.4721 27.4288C16.8175 27.8586 17.8605 28.7956 18.3669 29.9864C16.3791 29.0211 14.0965 28.3024 11.436 27.8233C12.6378 27.147 14.1041 26.9919 15.4721 27.4288ZM11.6477 23.3352C12.5698 22.4827 13.7791 22.0247 15.0262 22.0247C15.1471 22.0247 15.268 22.0318 15.389 22.0388C13.6884 23.2014 12.0936 24.695 10.5442 26.5481C10.4837 26.2874 10.4006 26.0337 10.3023 25.7801C10.461 24.8782 10.9145 24.0187 11.6477 23.3352ZM7.18833 23.8918C8.07264 24.378 8.73776 25.0896 9.13834 25.921C9.11567 26.1112 9.11567 26.3085 9.11567 26.5058C8.76044 26.2733 8.39008 26.069 7.9895 25.914C6.58368 25.0262 4.98134 24.2371 3.15226 23.5325C4.46738 23.0886 5.94123 23.2084 7.18833 23.8918ZM4.92843 26.6185C5.20053 26.5762 5.47262 26.5551 5.74472 26.5551C6.34937 26.5551 6.93891 26.6678 7.49066 26.8722C7.85345 27.1047 8.20113 27.3442 8.54125 27.5908C6.37205 27.6472 4.08192 28.0277 1.58772 28.7604C2.29063 27.6331 3.49238 26.844 4.92843 26.6185ZM4.84529 34.3829C4.43715 33.1358 4.63366 31.776 5.41972 30.6416C6.19821 29.5284 7.42264 28.8168 8.79067 28.6477C7.3017 30.2048 6.0017 32.1001 4.84529 34.3829ZM10.3023 28.7111C10.4308 28.7322 10.5668 28.7534 10.6953 28.7745C10.5215 28.8097 10.3477 28.8309 10.1587 28.852C10.204 28.8027 10.2494 28.7604 10.3023 28.7111ZM12.411 33.6572C12.1767 32.5651 11.8517 31.4801 11.4587 30.4162C12.0634 31.3885 12.6076 32.4101 13.0837 33.474C13.6808 34.7845 14.1419 36.243 14.4518 37.8141C14.5576 38.2933 14.6331 38.8076 14.6785 39.3642C13.9907 39.5474 13.318 39.7588 12.668 39.9913C12.7814 39.329 12.857 38.6315 12.8494 37.9269C12.857 36.4261 12.7134 34.9888 12.411 33.6572ZM36.2118 45.2756H6.24356C9.62963 41.7245 15.2529 39.5615 21.2239 39.5615C27.2024 39.5615 32.8257 41.7245 36.2118 45.2756ZM28.646 30.233C27.7013 32.0085 26.9454 33.9813 26.3937 36.095C26.1216 37.0391 25.9629 37.9973 25.8646 38.9274C24.7158 38.716 23.5442 38.5751 22.3501 38.5258C22.7431 37.2787 23.1739 36.1866 23.6727 35.2213C24.7233 33.0865 25.9553 31.156 27.3233 29.4791C28.971 27.4288 30.8077 25.5687 32.8181 23.913C31.2082 25.8928 29.7949 28.0206 28.646 30.233ZM39.749 28.1333C40.5275 30.2823 40.1269 32.5792 38.7211 34.3547C37.935 30.2541 36.6955 26.8017 34.9647 23.8496C35.0629 23.8707 35.1612 23.8918 35.2594 23.913C37.3531 24.5964 39.0083 26.1183 39.749 28.1333ZM41.8804 22.4475C44.1025 23.3705 45.6444 25.2023 46.0903 27.3724C42.4397 25.2023 38.9705 23.7298 35.5693 22.9054C35.5467 22.8984 35.524 22.8913 35.5013 22.8843C36.2949 22.532 37.1263 22.222 37.9879 21.9261C39.2804 21.764 40.6182 21.9261 41.8804 22.4475ZM37.7536 20.8763C36.9751 20.9749 36.2118 21.1792 35.4937 21.4822C35.6449 21.0524 35.7432 20.6085 35.8112 20.1647C36.7408 19.0514 38.0257 18.206 39.5525 17.7973C40.2327 17.6141 40.9205 17.5296 41.6008 17.5296C43.256 17.5296 44.8659 18.058 46.1735 19.0514C43.0519 19.4249 40.263 20.0308 37.7536 20.8763Z" fill="black"/>
<path d="M15.3628 13.5127C18.764 13.5127 21.5378 10.9269 21.5378 7.75634C21.5378 4.58577 18.764 2 15.3628 2C11.9616 2 9.19531 4.58577 9.19531 7.75634C9.19531 10.934 11.9616 13.5127 15.3628 13.5127ZM15.3628 3.05686C18.1442 3.05686 20.4041 5.16352 20.4041 7.75634C20.4041 10.3492 18.1442 12.4558 15.3628 12.4558C12.5889 12.4558 10.329 10.3492 10.329 7.75634C10.329 5.16352 12.5889 3.05686 15.3628 3.05686Z" fill="black"/>
</mask>
<g mask="url(#mask0_1676_3705)">
<rect x="-12.4844" y="-1.82812" width="65.0654" height="60.526" fill="#1E1E1E"/>
</g>
</svg>
