<svg width="48" height="48" viewBox="0 0 48 48" fill="none" xmlns="http://www.w3.org/2000/svg">
<path d="M14.183 36.7154C13.4815 37.5152 13.1395 38.4414 13.291 39.3676C13.5797 41.1225 15.5483 42.2468 18.045 42.2468C18.4376 42.2468 18.8461 42.2087 19.2603 42.1523C19.585 43.1075 20.5203 43.7031 21.493 43.5249L23.961 43.0724C24.4993 43.6696 25.2542 44.0428 26.0826 44.0428H31.2106C32.0375 44.0428 32.7938 43.6696 33.3307 43.0724L35.7987 43.5249C36.7686 43.7046 37.7067 43.1075 38.0314 42.1523C40.4691 42.4905 43.6024 41.7913 44.0022 39.3691C44.337 37.3339 42.2803 35.2985 39.271 34.6117C39.271 33.5667 38.5595 32.7045 37.6113 32.5308L35.5633 32.1546C37.363 31.0852 38.4267 29.1703 38.0746 27.2568C37.8465 26.0198 37.0773 24.9763 35.9082 24.3213C35.4002 24.0364 34.8416 23.849 34.2571 23.7439C34.4216 22.4825 34.5025 21.1603 34.5025 19.937C34.5025 17.3381 24.1789 16.7852 21.252 16.7852C18.2803 16.7852 8 17.3808 8 19.937C7.99712 27.429 10.7741 33.4801 14.183 36.7154ZM8.9209 21.4542C11.1594 22.9136 17.022 23.4757 21.2492 23.4757C25.4793 23.4757 31.3447 22.9121 33.5819 21.4512C33.4058 24.827 32.6409 27.9499 31.456 30.5959H25.5344C24.6323 30.5959 23.7274 31.0407 23.153 31.8908L19.6863 32.5275C18.7352 32.7027 18.0265 33.5665 18.0265 34.6084C16.755 34.8994 15.6538 35.428 14.8312 36.0983C11.5319 33.0226 9.24419 27.6589 8.9209 21.4542ZM14.1571 39.209C13.9146 37.7359 15.7057 36.1135 18.1389 35.5285C18.6701 38.7504 18.5546 38.0512 19.0814 41.2488C16.6048 41.5672 14.3995 40.6791 14.1571 39.209ZM21.3445 42.6107C20.7297 42.7234 20.1466 42.2908 20.0398 41.6418C20.0254 41.558 19.4726 38.1944 19.4784 38.231L18.917 34.8201C18.8102 34.1727 19.2229 33.5542 19.8349 33.443L22.6998 32.9175C22.6189 33.248 22.5858 33.5923 22.6132 33.9381L23.1631 41.1938C23.1905 41.5609 23.2829 41.9097 23.4228 42.2296L21.3445 42.6107ZM31.2106 43.1134H26.0826C25.0204 43.1134 24.1213 42.2375 24.0361 41.1193L23.4862 33.8637C23.3909 32.6069 24.3276 31.5238 25.5328 31.5238H31.7603C32.9553 31.5238 33.9021 32.5962 33.8068 33.8637L33.2569 41.1193C33.1718 42.2375 32.2728 43.1134 31.2106 43.1134ZM43.1361 39.2089C42.8937 40.6789 40.6884 41.5656 38.2118 41.2487L38.9594 36.7089L39.1542 35.5283C41.5875 36.1133 43.3789 37.7373 43.1361 39.2089ZM38.19 33.9305C38.3632 34.191 38.431 34.5063 38.379 34.8201C37.578 39.6844 38.1669 36.1043 37.2562 41.6401C37.1494 42.286 36.5706 42.7217 35.9515 42.609L33.8746 42.2282C34.0146 41.9083 34.107 41.5609 34.1344 41.1923L34.6843 33.9367C34.7103 33.5909 34.6785 33.2466 34.5963 32.916L37.4597 33.4416C37.757 33.4964 38.0153 33.67 38.19 33.9305ZM35.494 25.1391C36.4248 25.6601 37.0339 26.4751 37.21 27.4333C37.5491 29.2781 36.1809 31.1412 34.094 31.8206C33.661 31.2173 33.0505 30.8243 32.3866 30.6705C33.1717 28.8485 33.7649 26.8224 34.1199 24.6593C34.6063 24.7461 35.0725 24.903 35.494 25.1391ZM21.2488 17.7111C29.2849 17.7111 33.5265 19.2512 33.6163 20.1013C33.6163 20.1241 33.6148 20.1454 33.6148 20.1683C33.4893 21.0214 29.2491 22.5478 21.2489 22.5478C18.169 22.5478 8.89178 21.8684 8.87996 20.1043C8.95933 19.2558 13.2024 17.7111 21.2488 17.7111Z" fill="black"/>
<path d="M18.0218 14.6553C18.221 14.509 18.2701 14.2196 18.1315 14.0094C17.7361 13.4076 17.3897 12.8211 17.5051 12.2453C17.6523 11.5065 18.5962 10.9246 18.8257 9.90542C19.0812 8.77358 18.3639 7.78185 17.9785 7.25019C17.8313 7.04758 17.5556 7.00797 17.3622 7.16335C17.1688 7.31874 17.1327 7.60969 17.2799 7.81384C17.8039 8.53898 18.1026 9.10566 17.9698 9.69064C17.8039 10.4279 16.8499 11.0236 16.6435 12.0534C16.44 13.068 17.0231 13.953 17.4084 14.538C17.5499 14.7513 17.8241 14.8015 18.0218 14.6553Z" fill="black"/>
<path d="M23.9744 14.6553C24.1736 14.509 24.2227 14.2196 24.0841 14.0094C23.6887 13.4076 23.3423 12.8211 23.4577 12.2453C23.6035 11.5171 24.5503 10.9154 24.7783 9.90542C25.0338 8.77358 24.3165 7.78337 23.9326 7.25019C23.7853 7.04758 23.5097 7.00797 23.3163 7.16335C23.1229 7.31874 23.0868 7.60969 23.234 7.81384C23.7579 8.53898 24.0567 9.10566 23.9239 9.69064C23.6482 10.9139 21.4083 11.5689 23.3639 14.5381C23.5025 14.7514 23.7782 14.8015 23.9744 14.6553Z" fill="black"/>
<path d="M21.0074 15.7242C21.2066 15.578 21.2557 15.2885 21.1171 15.0783C20.5774 14.2587 20.1068 13.4559 20.2699 12.6409C20.4705 11.637 21.7204 10.8449 22.0105 9.55607C22.3064 8.24445 21.6035 7.12629 20.9208 6.18183C20.7736 5.97922 20.498 5.93961 20.3046 6.09499C20.1112 6.25038 20.0751 6.54133 20.2223 6.74549C20.7823 7.52089 21.3624 8.42424 21.1561 9.34129C20.9237 10.3711 19.6753 11.1251 19.4111 12.449C19.1557 13.724 19.9033 14.8574 20.3969 15.6085C20.5355 15.8202 20.8097 15.8689 21.0074 15.7242Z" fill="black"/>
</svg>
