<svg width="48" height="48" viewBox="0 0 48 48" fill="none" xmlns="http://www.w3.org/2000/svg">
<path d="M44.4051 16.017L39.3893 13.1217V6.93278H40.5093C40.8998 6.93278 41.2196 6.613 41.2196 6.22236V2.71042C41.2196 2.31978 40.8998 2 40.5093 2H31.5225C31.132 2 30.8122 2.31979 30.8122 2.71042V6.22236C30.8122 6.61301 31.132 6.93278 31.5225 6.93278H32.6425V9.22875L23.8548 4.15601C23.6346 4.03154 23.3647 4.03154 23.1445 4.15601L2.5959 16.0168C1.86073 16.4419 1.33616 17.1274 1.11026 17.9527C0.890095 18.7838 1.00114 19.6436 1.42999 20.3789C1.85501 21.1199 2.54613 21.6504 3.37516 21.8687C3.65085 21.9434 3.93036 21.9778 4.20605 21.9778C4.75552 21.9778 5.29543 21.8323 5.78167 21.5527V42.0672H4.17542C3.78486 42.0672 3.46514 42.387 3.46514 42.7776V46.2896C3.46514 46.6802 3.78486 47 4.17542 47H42.8201C43.2106 47 43.5303 46.6802 43.5303 46.2896V42.7776C43.5303 42.387 43.2106 42.0672 42.8201 42.0672H41.2138L41.2157 21.5586C41.9451 21.9837 42.8009 22.0948 43.6261 21.8746C44.4513 21.6543 45.1424 21.124 45.5674 20.3848C46.4557 18.8567 45.931 16.9017 44.4051 16.017ZM32.2326 3.42098H39.799V5.51204H32.2326V3.42098ZM34.0572 6.93293H37.9685V12.3062L34.0572 10.0504V6.93293ZM19.66 42.0676V26.3807H27.347V42.0676H19.66ZM39.7989 22.3747H7.20225V20.7394L8.8832 19.7685H38.1161L39.7971 20.7394L39.7952 22.3747H39.7989ZM28.7615 31.8383H39.7989V34.4444H28.7615V31.8383ZM28.7615 30.4174V27.8208H39.7989V30.4174H28.7615ZM28.7615 26.4019V25.6723C28.7615 25.2817 28.4417 24.9619 28.0512 24.9619L18.9497 24.96C18.5592 24.96 18.2395 25.2798 18.2395 25.6704V26.4L7.20206 26.4019V23.7957H39.8006V26.4019H28.7615ZM18.2392 30.4174H7.20176V27.8208H18.2392V30.4174ZM18.2392 31.8383V34.4444H7.20176V31.8383H18.2392ZM21.7906 18.3476H11.3374L17.9599 14.5216L21.7906 18.3476ZM19.2347 13.7863L22.79 11.7297V17.3461L19.2347 13.7863ZM24.2104 11.7297C25.6309 12.5493 26.7701 13.2099 27.7618 13.7863L24.2104 17.3422V11.7297ZM7.20191 35.8649H18.2393V38.4711H7.20191V35.8649ZM28.7611 35.8649H39.7985V38.4711H28.7611V35.8649ZM35.6629 18.3476H25.2097L29.0311 14.5159C30.2507 15.2205 31.3171 15.8371 32.5825 16.5667L35.6629 18.3476ZM7.20191 39.892H18.2393V42.0673H7.20191V39.892ZM42.1148 45.5795H4.88513V43.4884H42.1089V45.5795H42.1148ZM28.7611 42.0675V39.8922H39.7985V42.0675H28.7611ZM44.3394 19.6726C44.104 20.0824 43.7192 20.3773 43.2597 20.5036C42.804 20.6243 42.3292 20.563 41.9252 20.3294L34.6328 16.1166C34.0431 15.7757 33.5071 15.4655 32.9978 15.1706L24.1547 10.0577C24.0551 10.0021 23.9594 9.94278 23.8598 9.88724C23.8503 9.8815 23.8407 9.8815 23.8349 9.87767C23.8005 9.85852 23.7603 9.8432 23.7201 9.82788C23.7105 9.82214 23.7009 9.81831 23.6894 9.81831H23.6741C23.6243 9.80873 23.5746 9.79916 23.519 9.79916H23.4942C23.4386 9.79916 23.3889 9.80873 23.3391 9.81831C23.3238 9.82405 23.3084 9.82788 23.2931 9.83363C23.2529 9.84894 23.2127 9.86426 23.1783 9.88341C23.1687 9.88916 23.1591 9.88916 23.1476 9.89299C18.3958 12.639 15.7366 14.1747 13.5502 15.4403C10.9637 16.9358 9.03386 18.0522 5.07265 20.3367C4.66678 20.5722 4.1977 20.6316 3.73821 20.5109C3.27873 20.3864 2.89389 20.0954 2.65844 19.6799C2.42295 19.2701 2.35786 18.7894 2.48422 18.3299C2.60866 17.8703 2.89967 17.4892 3.30364 17.2537L23.4998 5.58609L32.9767 11.053C32.9825 11.0587 32.9863 11.0625 32.9959 11.0683L38.3278 14.1494C38.3431 14.159 38.3623 14.1647 38.3776 14.1685L43.6944 17.24C44.5291 17.7264 44.8257 18.8377 44.3394 19.6726Z" fill="#1E1E1E"/>
</svg>
