<svg width="48" height="48" viewBox="0 0 48 48" fill="none" xmlns="http://www.w3.org/2000/svg">
<path d="M44.7354 31.8982H41.6999V30.4161C41.6999 30.2197 41.6202 30.0308 41.4779 29.8918C41.3356 29.7529 41.1421 29.6751 40.941 29.6751H38.6643V18.6262L40.2959 21.1754C40.4041 21.3458 40.5805 21.4662 40.7816 21.5089L40.941 21.5237C41.0889 21.5218 41.235 21.4792 41.3584 21.3977L43.635 19.9156C43.9765 19.6952 44.079 19.2487 43.8627 18.9078L40.0682 12.9796C40.0075 12.887 39.9279 12.8092 39.833 12.7499L24.6553 3.11671C24.4048 2.9611 24.0861 2.9611 23.8357 3.11671L8.65797 12.7499C8.56311 12.8092 8.48342 12.887 8.42271 12.9796L4.62828 18.9078C4.412 19.2487 4.51445 19.6952 4.85595 19.9156L7.1326 21.3977C7.30146 21.5089 7.51015 21.5496 7.70936 21.5089C7.91046 21.4662 8.0869 21.3458 8.19504 21.1754L9.82666 18.6263V25.4883L3.44425 28.2598C3.11983 28.4043 2.94147 28.7488 3.01737 29.0897C3.09136 29.4306 3.39872 29.6733 3.75538 29.6752C3.86352 29.6752 3.96786 29.6511 4.06652 29.6085L5.27316 29.0897V37.0853C5.27316 37.2816 5.35284 37.4706 5.49513 37.6096C5.63742 37.7485 5.83094 37.8263 6.03206 37.8263H9.82649V38.5674C9.82649 38.7637 9.90617 38.9527 10.0485 39.0916C10.1908 39.2306 10.3843 39.3084 10.5854 39.3084H16.8692L14.4787 43.3841C14.344 43.6138 14.344 43.8954 14.4787 44.1251C14.6153 44.3548 14.8676 44.4975 15.1389 44.4956H33.3522C33.6216 44.4938 33.8701 44.353 34.0049 44.1251C34.1396 43.8954 34.1396 43.6138 34.0049 43.3841L31.622 39.3084H37.9058C38.1069 39.3084 38.3004 39.2306 38.4427 39.0916C38.585 38.9527 38.6647 38.7637 38.6647 38.5674V37.0853H44.7358C44.9369 37.0853 45.1304 37.0075 45.2727 36.8685C45.415 36.7296 45.4947 36.5406 45.4947 36.3442V32.6391C45.4947 32.4427 45.415 32.2538 45.2727 32.1148C45.1304 31.9758 44.9365 31.8982 44.7354 31.8982ZM40.1821 31.1571V32.6392H38.6643V31.1571H40.1821ZM7.32245 19.7455L6.30552 19.086L9.62184 13.8986L24.2454 4.62109L38.8689 13.9061L42.1852 19.0936L41.1683 19.7531L37.7913 14.4694C37.7306 14.3767 37.6509 14.2989 37.556 14.2397L24.6552 6.08808C24.4048 5.93247 24.086 5.93247 23.8356 6.08808L10.9348 14.2397C10.8399 14.2989 10.7603 14.3767 10.6996 14.4694L7.32245 19.7455ZM6.79121 36.3446V28.4302L9.82675 27.1111V36.3445L6.79121 36.3446ZM20.3676 32.2689L18.9333 35.233V29.2825L20.3676 32.2689ZM21.21 34.0103L23.0465 37.8267H19.3735L21.21 34.0103ZM25.0044 29.2825L26.4387 32.2467L25.0044 35.2108V29.2825ZM23.4866 35.2554L22.0524 32.2912L23.4866 29.3271V35.2554ZM27.2811 34.0104L29.1176 37.8268H25.4445L27.2811 34.0104ZM28.1234 32.269L29.5577 29.3049V35.2777L28.1234 32.269ZM27.2811 30.5276L25.4446 26.7112H29.1176L27.2811 30.5276ZM21.21 30.5276L19.3735 26.7112H23.0465L21.21 30.5276ZM16.4442 43.0139L18.6146 39.3087H29.8767L32.0472 43.0139H16.4442ZM31.0755 37.8264V25.9699C31.0755 25.7736 30.9958 25.5846 30.8535 25.4456C30.7112 25.3067 30.5177 25.2289 30.3166 25.2289H18.1744C17.7551 25.2289 17.4155 25.5605 17.4155 25.9699V37.8264H16.6567V25.2291C16.6567 24.8197 16.9963 24.4881 17.4155 24.4881H31.0755C31.2766 24.4881 31.4701 24.5659 31.6124 24.7048C31.7547 24.8438 31.8344 25.0328 31.8344 25.2291V37.8264H31.0755ZM37.1466 37.8264H33.3522V25.2291C33.3522 24.0009 32.3333 23.006 31.0755 23.006H17.4156C16.1577 23.006 15.1389 24.0009 15.1389 25.2291V37.8264H11.3445V16.2552L11.8984 15.3882L24.2456 7.58521L36.5927 15.3882L37.1467 16.2552L37.1466 37.8264ZM38.6644 34.1213H40.1821V35.6033H38.6644V34.1213ZM43.9768 35.6033H41.7001V33.3802H43.9768V35.6033Z" fill="black"/>
<path d="M27.2831 18.5595V14.8543C27.2831 14.658 27.2034 14.469 27.0611 14.33C26.9188 14.1911 26.7253 14.1133 26.5242 14.1133H21.9709C21.5516 14.1133 21.212 14.4449 21.212 14.8543V18.5595C20.7927 18.5595 20.4531 18.8911 20.4531 19.3005C20.4531 19.7099 20.7927 20.0415 21.212 20.0415H27.2831C27.7024 20.0415 28.042 19.7099 28.042 19.3005C28.042 18.8911 27.7024 18.5595 27.2831 18.5595ZM22.7298 18.5595V15.5954H25.7653V18.5595H22.7298Z" fill="black"/>
</svg>
