<svg width="48" height="48" viewBox="0 0 48 48" fill="none" xmlns="http://www.w3.org/2000/svg">
<path d="M44.0286 44.9814V19.3342H29.7801V2L4.1329 9.54382V44.9814H2V46.4062H46.1702V44.9814H44.0286ZM12.682 44.9814V33.5826H21.2311V44.9814H12.682ZM28.3553 44.9814H22.6559V32.1578H11.2571V44.9814H5.55774V10.6103L28.3553 3.90562V44.9814ZM42.6037 44.9814H29.7801V20.759H42.6037V44.9814Z" fill="black"/>
<path d="M40.4631 23.6094H31.9141V25.0342H40.4631V23.6094Z" fill="black"/>
<path d="M40.4631 27.8828H31.9141V29.3077H40.4631V27.8828Z" fill="black"/>
<path d="M40.4631 32.1582H31.9141V33.583H40.4631V32.1582Z" fill="black"/>
<path d="M40.4631 36.4316H31.9141V37.8565H40.4631V36.4316Z" fill="black"/>
<path d="M40.4631 40.707H31.9141V42.1319H40.4631V40.707Z" fill="black"/>
<path d="M8.40625 19.3352H15.5305V12.2109H8.40625V19.3352ZM9.8311 13.6358H14.1056V17.9103H9.8311V13.6358Z" fill="black"/>
<path d="M18.3828 19.3352H25.507V12.2109H18.3828V19.3352ZM19.8077 13.6358H24.0822V17.9103H19.8077V13.6358Z" fill="black"/>
<path d="M8.40625 29.3078H15.5305V22.1836H8.40625V29.3078ZM9.8311 23.6084H14.1056V27.883H9.8311V23.6084Z" fill="black"/>
<path d="M18.3828 29.3078H25.507V22.1836H18.3828V29.3078ZM19.8077 23.6084H24.0822V27.883H19.8077V23.6084Z" fill="black"/>
</svg>
