<svg width="48" height="48" viewBox="0 0 48 48" fill="none" xmlns="http://www.w3.org/2000/svg">
<path d="M46.4248 40.0303H44.4789V3.5811C44.4789 3.50479 44.464 3.42922 44.4351 3.35872C44.4062 3.28822 44.3638 3.22416 44.3104 3.1702C44.257 3.11624 44.1936 3.07343 44.1238 3.04423C44.054 3.01503 43.9792 3 43.9037 3H5.09632C5.02079 3 4.94599 3.01503 4.87621 3.04423C4.80642 3.07344 4.74301 3.11624 4.6896 3.1702C4.63618 3.22416 4.59382 3.28822 4.56491 3.35872C4.536 3.42922 4.52113 3.50479 4.52113 3.5811V40.0303H2.57519C2.49965 40.0303 2.42485 40.0453 2.35507 40.0745C2.28528 40.1037 2.22187 40.1465 2.16846 40.2005C2.11505 40.2544 2.07268 40.3185 2.04378 40.389C2.01487 40.4595 2 40.5351 2 40.6114V44.4189C2 44.4952 2.01487 44.5708 2.04378 44.6413C2.07268 44.7118 2.11505 44.7758 2.16846 44.8298C2.22188 44.8838 2.28529 44.9266 2.35508 44.9558C2.42486 44.985 2.49966 45 2.5752 45H46.4248C46.5003 45 46.5751 44.985 46.6449 44.9558C46.7147 44.9266 46.7781 44.8838 46.8315 44.8298C46.8849 44.7758 46.9273 44.7118 46.9562 44.6413C46.9851 44.5708 47 44.4952 47 44.4189V40.6114C47 40.5351 46.9851 40.4595 46.9562 40.389C46.9273 40.3185 46.8849 40.2544 46.8315 40.2005C46.7781 40.1465 46.7147 40.1037 46.6449 40.0745C46.5751 40.0453 46.5003 40.0303 46.4248 40.0303ZM41.2445 4.1622H43.3285V7.34841H41.2445V4.1622ZM38.011 4.1622H40.0941V7.34841H38.011V4.1622ZM34.7766 4.1622H36.8606V7.34841H34.7766V4.1622ZM31.5431 4.1622H33.6262V7.34841H31.5431V4.1622ZM31.5431 8.5106H43.3285V21.5156H40.0976V15.9353C40.0976 15.2219 39.8171 14.5378 39.3179 14.0334C38.8186 13.529 38.1414 13.2457 37.4353 13.2457C36.7293 13.2457 36.0521 13.529 35.5528 14.0334C35.0535 14.5378 34.7731 15.2219 34.7731 15.9353V21.5156H31.5431V8.5106ZM43.3285 22.6778V25.864H41.2445V22.6778H43.3285ZM35.835 21.5156V15.9353C35.835 15.5065 36.0036 15.0952 36.3037 14.792C36.6038 14.4888 37.0109 14.3185 37.4353 14.3185C37.8598 14.3185 38.2668 14.4888 38.567 14.792C38.8671 15.0952 39.0357 15.5065 39.0357 15.9353V21.5156H35.835ZM36.8606 22.6778V25.864H34.7766V22.6778H36.8606ZM38.011 22.6778H40.0941V25.864H38.011V22.6778ZM31.5431 22.6778H33.6262V25.864H31.5431V22.6778ZM31.5431 27.0262H43.3285V40.0303H40.0976V34.4499C40.0976 33.7366 39.8171 33.0525 39.3179 32.5481C38.8186 32.0437 38.1414 31.7604 37.4353 31.7604C36.7293 31.7604 36.0521 32.0437 35.5528 32.5481C35.0535 33.0525 34.7731 33.7366 34.7731 34.4499V40.0303H31.5431V27.0262ZM39.0357 34.4499V40.0303H35.835V34.4499C35.835 34.0211 36.0036 33.6099 36.3037 33.3067C36.6038 33.0035 37.0109 32.8332 37.4353 32.8332C37.8598 32.8332 38.2668 33.0035 38.567 33.3067C38.8671 33.6099 39.0357 34.0211 39.0357 34.4499ZM28.3087 4.1622H30.3927V7.34841H28.3087V4.1622ZM25.0752 4.1622H27.1583V7.34841H25.0752V4.1622ZM21.8417 4.1622H23.9248V7.34841H21.8417V4.1622ZM18.6073 4.1622H20.6913V7.34841H18.6073V4.1622ZM18.6073 8.5106H30.3927V21.5156H27.1618V15.9353C27.1618 15.222 26.8814 14.538 26.3822 14.0337C25.883 13.5294 25.206 13.2461 24.5 13.2461C23.794 13.2461 23.117 13.5294 22.6178 14.0337C22.1186 14.538 21.8381 15.222 21.8381 15.9353V21.5156H18.6073V8.5106ZM30.3927 22.6778V25.864H28.3087V22.6778H30.3927ZM22.9 21.5156V15.9353C22.9 15.723 22.9414 15.5128 23.0218 15.3167C23.1022 15.1206 23.2201 14.9424 23.3687 14.7923C23.5172 14.6422 23.6936 14.5232 23.8877 14.4419C24.0818 14.3607 24.2899 14.3189 24.5 14.3189C24.7101 14.3189 24.9182 14.3607 25.1123 14.4419C25.3064 14.5232 25.4828 14.6422 25.6313 14.7923C25.7799 14.9424 25.8977 15.1206 25.9781 15.3167C26.0586 15.5128 26.0999 15.723 26.0999 15.9353V21.5156H22.9ZM23.9248 22.6778V25.864H21.8417V22.6778H23.9248ZM25.0752 22.6778H27.1583V25.864H25.0752V22.6778ZM18.6073 22.6778H20.6913V25.864H18.6073L18.6073 22.6778ZM18.6073 27.0262H30.3927V40.0303H27.1618V34.4499C27.1618 33.7367 26.8814 33.0527 26.3822 32.5484C25.883 32.0441 25.206 31.7608 24.5 31.7608C23.794 31.7608 23.117 32.0441 22.6178 32.5484C22.1186 33.0527 21.8381 33.7367 21.8381 34.4499V40.0303H18.6073L18.6073 27.0262ZM26.0999 34.4499V40.0303H22.9V34.4499C22.9 34.0213 23.0686 33.6101 23.3687 33.307C23.6687 33.0039 24.0757 32.8336 24.5 32.8336C24.9243 32.8336 25.3313 33.0039 25.6313 33.307C25.9314 33.6101 26.0999 34.0212 26.0999 34.4499ZM15.3738 4.1622H17.4569V7.34841H15.3738V4.1622ZM12.1394 4.1622H14.2234V7.34841H12.1394V4.1622ZM8.90592 4.1622H10.989V7.34841H8.90592V4.1622ZM5.67152 4.1622H7.75552V7.34841H5.67152L5.67152 4.1622ZM5.67152 8.5106H17.4569V21.5156H14.2269V15.9353C14.2269 15.2219 13.9464 14.5378 13.4472 14.0334C12.9479 13.529 12.2707 13.2457 11.5647 13.2457C10.8586 13.2457 10.1814 13.529 9.68214 14.0334C9.18286 14.5378 8.90237 15.2219 8.90237 15.9353V21.5156H5.67152L5.67152 8.5106ZM17.4569 22.6778V25.864H15.3738V22.6778H17.4569ZM9.96428 21.5156V15.9353C9.96428 15.7229 10.0057 15.5127 10.0861 15.3165C10.1665 15.1204 10.2844 14.9421 10.433 14.792C10.5816 14.6419 10.758 14.5228 10.9522 14.4415C11.1464 14.3603 11.3545 14.3185 11.5647 14.3185C11.7748 14.3185 11.9829 14.3603 12.1771 14.4415C12.3713 14.5228 12.5477 14.6419 12.6963 14.792C12.8449 14.9421 12.9628 15.1204 13.0432 15.3165C13.1236 15.5127 13.165 15.7229 13.165 15.9353V21.5156H9.96428ZM10.989 22.6778V25.864H8.90591V22.6778H10.989ZM12.1394 22.6778H14.2234V25.864H12.1394L12.1394 22.6778ZM5.67152 22.6778H7.75552V25.864H5.67152V22.6778ZM5.67152 27.0262H17.4569V40.0303H14.2269V34.4499C14.2269 33.7366 13.9464 33.0525 13.4472 32.5481C12.9479 32.0437 12.2707 31.7604 11.5647 31.7604C10.8586 31.7604 10.1814 32.0437 9.68214 32.5481C9.18286 33.0525 8.90237 33.7366 8.90237 34.4499V40.0303H5.67152V27.0262ZM13.165 34.4499V40.0303H9.96428V34.4499C9.96428 34.0211 10.1329 33.6099 10.433 33.3067C10.7331 33.0035 11.1402 32.8332 11.5647 32.8332C11.9891 32.8332 12.3962 33.0035 12.6963 33.3067C12.9964 33.6099 13.165 34.0211 13.165 34.4499ZM45.8496 43.8378H3.15038V41.1925H45.8496L45.8496 43.8378Z" fill="#1E1E1E"/>
</svg>
