<svg width="48" height="48" viewBox="0 0 48 48" fill="none" xmlns="http://www.w3.org/2000/svg">
<path d="M44.0577 33.0061H43.5679V17.2957H44.2311C44.8772 17.2957 45.4527 16.9691 45.769 16.4217C46.0854 15.878 46.0758 15.2378 45.7461 14.7107L40.9037 6.81279C40.5721 6.30433 40.0081 6 39.3982 6H8.60201C7.99028 6 7.42617 6.30248 7.08505 6.82766L2.25411 14.7052C1.92442 15.2359 1.91489 15.878 2.22933 16.4199C2.54568 16.9673 3.12119 17.2939 3.76722 17.2939H4.43042V33.0042L3.94255 33.0061C2.87536 33.0061 2.00828 33.8504 2.00828 34.8896V37.1165C2.00828 38.1557 2.87536 39 3.94255 39H44.0579C45.1251 39 45.9922 38.1557 45.9922 37.1165V34.8896C45.9922 33.8523 45.1249 33.0061 44.0577 33.0061ZM42.272 33.0061H33.5496V17.5071L33.7173 17.5739C33.9116 17.6519 34.1175 17.6908 34.3233 17.6908C34.5482 17.6908 34.7768 17.6426 34.9846 17.5517C35.1218 17.4904 35.2323 17.3884 35.3448 17.2937H42.2719L42.2738 33.006L42.272 33.0061ZM21.0003 33.0061V26.3443C21.0003 26.0826 21.2176 25.8711 21.4844 25.8711H26.5152C26.782 25.8711 26.9992 26.0826 26.9992 26.3443V33.0061H21.0003ZM26.5156 24.6108H21.4848C20.5033 24.6108 19.7048 25.3883 19.7048 26.344V33.0058H15.7448V16.9871L24.0004 13.6617L32.2559 16.9871V33.0077H28.2959V26.344C28.2959 25.3883 27.497 24.6108 26.5156 24.6108ZM13.3965 16.2378L12.7505 14.3338C12.7028 14.1928 12.7772 14.0387 12.9163 13.9812L22.9135 9.95429C23.6148 9.67222 24.3866 9.67222 25.0879 9.95429L35.0852 13.9812C35.2262 14.0387 35.3005 14.1928 35.251 14.3338L34.603 16.2378C34.5687 16.3398 34.4906 16.3881 34.4468 16.4066C34.4029 16.4252 34.3134 16.4512 34.2143 16.4103L33.1719 15.991C33.1604 15.9872 33.149 15.9817 33.1376 15.978L24.3463 12.4373C24.2663 12.4057 24.1824 12.389 24.0986 12.389H23.9042C23.8184 12.389 23.7346 12.4057 23.6564 12.4373L14.8652 15.978C14.8537 15.9817 14.8423 15.9872 14.8309 15.991L13.7847 16.4085C13.6837 16.4493 13.596 16.4233 13.5522 16.4048C13.5083 16.3862 13.4302 16.3398 13.3959 16.2378L13.3965 16.2378ZM3.35925 15.7998C3.32113 15.7312 3.24109 15.553 3.36496 15.3544L8.1883 7.48644C8.28358 7.34169 8.43032 7.26004 8.60184 7.26004H39.3981C39.5696 7.26004 39.7144 7.3417 39.8021 7.47159L44.6369 15.3586C44.7589 15.5553 44.6788 15.7335 44.6407 15.8003C44.5988 15.8708 44.4787 16.0341 44.231 16.0341H36.0364L36.4804 14.7314C36.7415 13.9668 36.347 13.1243 35.5809 12.8163L25.5836 8.78936C24.5621 8.37739 23.4378 8.37739 22.4163 8.78936L12.4191 12.8163C11.6549 13.1243 11.2585 13.9668 11.5196 14.7314L11.9636 16.0341H3.769C3.52126 16.0341 3.39927 15.8703 3.35925 15.7998ZM5.72806 17.2955H12.6552C12.7676 17.3901 12.8763 17.4922 13.0154 17.5534C13.4137 17.7297 13.8748 17.7409 14.2846 17.5757L14.4523 17.5089V33.0079H5.72788L5.72806 17.2955ZM44.696 37.1185C44.696 37.4618 44.4101 37.7401 44.0576 37.7401H3.94219C3.58963 37.7401 3.30378 37.4618 3.30378 37.1185V34.8916C3.30378 34.5483 3.58963 34.2699 3.94219 34.2699H44.0576C44.4101 34.2699 44.696 34.5483 44.696 34.8916L44.6979 37.1185H44.696Z" fill="#1E1E1E"/>
<path d="M23.7879 15.2266C21.9021 15.2266 20.3672 16.7615 20.3672 18.6472C20.3672 20.533 21.9022 22.0679 23.7879 22.0679C25.6736 22.0679 27.2085 20.5329 27.2085 18.6472C27.2085 16.7615 25.6736 15.2266 23.7879 15.2266ZM23.7879 20.7501C22.6289 20.7501 21.685 19.8083 21.685 18.6473C21.685 17.4884 22.6269 16.5445 23.7879 16.5445C24.9468 16.5445 25.8907 17.4864 25.8907 18.6473C25.8907 19.8083 24.9469 20.7501 23.7879 20.7501Z" fill="#1E1E1E"/>
<path d="M35.1172 19.5735V22.9961C35.1172 23.6008 35.6095 24.093 36.2141 24.093H39.6367C40.2414 24.093 40.7336 23.6008 40.7336 22.9961V19.5735C40.7336 18.9688 40.2414 18.4766 39.6367 18.4766H36.2141C35.6075 18.4766 35.1172 18.9688 35.1172 19.5735ZM36.435 19.7944H39.4158V22.7752H36.435V19.7944Z" fill="#1E1E1E"/>
<path d="M39.6367 25.9043H36.2141C35.6094 25.9043 35.1172 26.3966 35.1172 27.0012V30.4238C35.1172 31.0285 35.6095 31.5208 36.2141 31.5208H39.6367C40.2414 31.5208 40.7336 31.0285 40.7336 30.4238V27.0012C40.7336 26.3965 40.2414 25.9043 39.6367 25.9043ZM39.4158 30.2029H36.435V27.2222H39.4158V30.2029Z" fill="#1E1E1E"/>
<path d="M11.3398 18.4766H7.91724C7.31254 18.4766 6.82031 18.9688 6.82031 19.5735V22.9961C6.82031 23.6008 7.31258 24.093 7.91724 24.093H11.3398C11.9445 24.093 12.4368 23.6008 12.4368 22.9961V19.5735C12.4348 18.9688 11.9445 18.4766 11.3398 18.4766ZM11.117 22.7752H8.13816V19.7945H11.1189L11.117 22.7752Z" fill="#1E1E1E"/>
<path d="M11.3398 25.9043H7.91724C7.31254 25.9043 6.82031 26.3966 6.82031 27.0012V30.4238C6.82031 31.0285 7.31258 31.5208 7.91724 31.5208H11.3398C11.9445 31.5208 12.4368 31.0285 12.4368 30.4238V27.0012C12.4348 26.3965 11.9445 25.9043 11.3398 25.9043ZM11.117 30.2029H8.13816V27.2222H11.1189L11.117 30.2029Z" fill="#1E1E1E"/>
</svg>
