<svg width="48" height="48" viewBox="0 0 48 48" fill="none" xmlns="http://www.w3.org/2000/svg">
<path d="M14.1774 10.0003C12.6519 10.0394 11.4125 11.3031 11.4125 12.8427V13.1265H9.06061C8.01374 13.1277 7.10388 13.8807 6.91093 14.9131L3.03582 35.7647C2.79141 37.0972 3.82955 38.3592 5.17986 38.3616C5.18168 38.3616 5.18351 38.3616 5.18533 38.3616H42.8147C44.165 38.3592 45.2087 37.0972 44.9644 35.7647C44.9625 35.7647 44.9607 35.7647 44.9589 35.7647L41.0838 14.9131C40.8908 13.8807 39.9867 13.1277 38.9398 13.1265C38.938 13.1265 38.9361 13.1265 38.9343 13.1265H23.2303V12.8427C23.2303 11.2786 21.9506 10.0003 20.3919 10.0003C18.8332 10.0003 17.5535 11.2787 17.5535 12.8427V13.1265H17.0839V12.8427C17.0839 11.2786 15.8098 10.0003 14.2511 10.0003C14.2265 10.0003 14.2018 9.99966 14.1774 10.0003ZM14.251 11.4534C15.0325 11.4534 15.6342 12.0585 15.6342 12.8427V13.1265H12.8608V12.8427C12.8608 12.0585 13.4695 11.4534 14.251 11.4534ZM20.3917 11.4534C21.1732 11.4534 21.782 12.0585 21.782 12.8427V13.1265H19.003V12.8427C19.003 12.0585 19.6103 11.4534 20.3917 11.4534ZM9.06069 14.5739H12.1212C12.1257 14.5744 12.1303 14.5749 12.1348 14.5753C12.1394 14.5749 12.144 14.5744 12.1485 14.5739H15.6347V16.0597H10.2902C10.1209 16.0599 9.95698 16.1196 9.82702 16.2285C9.69706 16.3374 9.60922 16.4885 9.57879 16.6557L6.24961 34.5642C6.23036 34.6688 6.23425 34.7764 6.261 34.8794C6.28776 34.9824 6.33673 35.0782 6.40445 35.1601C6.47217 35.242 6.557 35.3079 6.65292 35.3533C6.74885 35.3987 6.85354 35.4224 6.95959 35.4227H41.0674C41.174 35.4234 41.2795 35.4005 41.3763 35.3556C41.4731 35.3107 41.5588 35.2448 41.6273 35.1628C41.6958 35.0808 41.7454 34.9846 41.7726 34.8811C41.7997 34.7776 41.8038 34.6694 41.7844 34.5642L38.4482 16.6557C38.4178 16.4887 38.3301 16.3377 38.2003 16.2288C38.0705 16.1199 37.9068 16.0601 37.7377 16.0597H23.2301V14.5753H38.9341C39.2938 14.5757 39.5947 14.8262 39.661 15.1813L43.5375 36.0287C43.6238 36.4983 43.286 36.9062 42.8106 36.9071H5.1841C4.71032 36.9062 4.37436 36.5004 4.45715 36.0329V36.0288L8.33366 15.1814C8.39989 14.8264 8.70098 14.5743 9.06069 14.5739ZM17.0838 14.5753H21.782V16.0597H17.0838V14.5753ZM10.8936 17.5142H15.6342V21.6593C15.6338 21.7552 15.6523 21.8502 15.6887 21.9388C15.7251 22.0275 15.7787 22.1081 15.8463 22.1759C15.9138 22.2437 15.9941 22.2974 16.0825 22.3339C16.1709 22.3704 16.2656 22.389 16.3611 22.3887C16.4563 22.3885 16.5506 22.3694 16.6384 22.3327C16.7263 22.2959 16.8061 22.2421 16.8732 22.1743C16.9404 22.1066 16.9935 22.0262 17.0296 21.9378C17.0658 21.8495 17.0842 21.7548 17.0838 21.6593V20.3991H21.782V21.6593C21.7812 21.852 21.8568 22.0371 21.9921 22.1738C22.1273 22.3106 22.3112 22.3879 22.5032 22.3887C22.5988 22.389 22.6935 22.3704 22.7819 22.3339C22.8702 22.2974 22.9505 22.2437 23.0181 22.1759C23.0857 22.1081 23.1392 22.0275 23.1756 21.9388C23.212 21.8502 23.2306 21.7552 23.2302 21.6593V17.5142H37.1395L40.1957 33.9682H7.83026L10.8936 17.5142ZM17.0838 17.5142H21.782V18.946H17.0838V17.5142ZM34.0592 25.6766C33.9563 25.6828 33.8559 25.7109 33.7647 25.7591C33.6735 25.8073 33.5936 25.8745 33.5303 25.9562C33.2895 26.265 32.8604 26.4755 32.3876 26.4755C31.9168 26.4756 31.4878 26.2671 31.2462 25.9604C31.2275 25.936 31.2072 25.9128 31.1855 25.8909C31.165 25.8702 31.1432 25.8508 31.1203 25.8327C31.1208 25.8327 31.1199 25.8327 31.1203 25.8327C31.0283 25.76 30.9187 25.7109 30.8036 25.6894C30.775 25.6844 30.7462 25.6811 30.7173 25.6795C30.6004 25.6723 30.4834 25.6938 30.3765 25.7419C30.3498 25.7541 30.3238 25.7678 30.2988 25.7831C30.2743 25.7982 30.2507 25.8148 30.2282 25.8328C30.2048 25.8508 30.1826 25.8702 30.1617 25.891C30.1415 25.9116 30.1226 25.9334 30.105 25.9563C29.8642 26.2651 29.4337 26.4756 28.9609 26.4756C28.488 26.4756 28.0576 26.2651 27.8168 25.9563C27.7577 25.8806 27.6843 25.8174 27.6008 25.7704C27.5173 25.7234 27.4253 25.6935 27.3302 25.6824C27.1411 25.6608 26.951 25.7148 26.8013 25.8328C26.6497 25.9509 26.5509 26.1245 26.5268 26.3155C26.5027 26.5066 26.5551 26.6994 26.6727 26.8517C27.2141 27.5459 28.0673 27.9302 28.9609 27.9302C29.5838 27.9302 30.1836 27.7433 30.6736 27.3952C31.1636 27.7433 31.7648 27.9302 32.3877 27.9302C33.2814 27.9302 34.1332 27.5459 34.6746 26.8517C34.7927 26.7001 34.8461 26.5077 34.823 26.3167C34.7999 26.1257 34.7022 25.9517 34.5514 25.8328C34.412 25.7219 34.2368 25.6662 34.0592 25.6766ZM16.115 28.5034C15.9504 28.5021 15.7903 28.5572 15.6611 28.6595C15.5102 28.7783 15.4126 28.9524 15.3895 29.1434C15.3664 29.3344 15.4198 29.5268 15.5379 29.6784C16.0793 30.3726 16.9268 30.7554 17.8205 30.7554C18.4439 30.7554 19.0471 30.569 19.5388 30.2204C20.029 30.569 20.6296 30.7554 21.2529 30.7554C22.1466 30.7554 22.9941 30.3726 23.5356 29.6784C23.6537 29.5268 23.707 29.3344 23.6839 29.1434C23.6609 28.9524 23.5632 28.7783 23.4124 28.6595C23.3375 28.6004 23.2518 28.5566 23.16 28.5308C23.0683 28.505 22.9724 28.4976 22.8778 28.509C22.6877 28.5329 22.5148 28.6314 22.397 28.7829C22.1561 29.0918 21.7256 29.3023 21.2528 29.3023C20.7948 29.3023 20.3745 29.1031 20.1299 28.8099C20.1281 28.807 20.1262 28.8042 20.1244 28.8014C20.1189 28.7962 20.1162 28.7912 20.1107 28.7857C20.092 28.7613 20.0717 28.738 20.05 28.7162C20.0437 28.7099 20.0373 28.7038 20.0308 28.6978C20.0219 28.6895 20.0128 28.6814 20.0034 28.6736C19.9528 28.6311 19.8966 28.5958 19.8365 28.5686C19.8369 28.5686 19.836 28.5686 19.8365 28.5686C19.8102 28.5566 19.7819 28.5462 19.7543 28.5374C19.7548 28.5374 19.7539 28.5374 19.7543 28.5374C19.727 28.5286 19.6977 28.5214 19.6694 28.516C19.6699 28.516 19.669 28.516 19.6694 28.516C19.6414 28.511 19.6117 28.5077 19.5832 28.5061C19.5837 28.5061 19.5827 28.5061 19.5832 28.5061C19.554 28.5043 19.5234 28.5043 19.4942 28.5061C19.4653 28.5076 19.4365 28.5109 19.408 28.516C19.3793 28.5214 19.351 28.5285 19.3232 28.5374C19.2952 28.5461 19.2678 28.5565 19.2411 28.5686C19.2328 28.5732 19.2245 28.578 19.2164 28.5829C19.147 28.6174 19.0835 28.6629 19.0284 28.7177C19.0078 28.7383 18.9884 28.7601 18.9704 28.783C18.7295 29.0918 18.2934 29.3023 17.8206 29.3023C17.3478 29.3023 16.9187 29.0918 16.6778 28.783C16.5596 28.6311 16.3862 28.5326 16.1956 28.5091C16.1689 28.5057 16.1419 28.5038 16.115 28.5034Z" fill="#1E1E1E"/>
</svg>
