<svg width="48" height="48" viewBox="0 0 48 48" fill="none" xmlns="http://www.w3.org/2000/svg">
<path fill-rule="evenodd" clip-rule="evenodd" d="M20.8854 22.4016C20.4957 22.4016 20.1787 22.0065 20.1787 21.521V15.0658C20.1787 14.6774 19.9261 14.3627 19.6144 14.3627H10.9699C10.6582 14.3627 10.4056 14.6774 10.4056 15.0658V21.521C10.4056 22.0065 10.0885 22.4016 9.69889 22.4016C9.30924 22.4016 8.99219 22.0065 8.99219 21.521V15.0658C8.99219 13.7065 9.87899 12.6016 10.97 12.6016H19.6144C20.7054 12.6016 21.5922 13.7065 21.5922 15.0658V21.521C21.5922 22.0065 21.275 22.4016 20.8854 22.4016Z" fill="#1E1E1E"/>
<path fill-rule="evenodd" clip-rule="evenodd" d="M38.1594 40.5527H42.5819V26.6459H6.20387V40.5527H10.6265V34.6402C10.6265 34.2415 10.9401 33.917 11.3314 33.917H37.4539C37.8426 33.917 38.1588 34.2415 38.1588 34.6402L38.1594 40.5527ZM43.2869 41.9992H37.4545C37.0658 41.9992 36.7495 41.6747 36.7495 41.276V35.3635H12.0391V41.276C12.0391 41.6748 11.7229 41.9992 11.3342 41.9992H5.50178C5.11312 41.9992 4.79688 41.6747 4.79688 41.276V25.9224C4.79688 25.5237 5.11316 25.1992 5.50178 25.1992H43.292C43.6806 25.1992 43.9969 25.5237 43.9969 25.9224V41.276C43.9969 41.6748 43.6806 41.9992 43.292 41.9992H43.2869Z" fill="#1E1E1E"/>
<path fill-rule="evenodd" clip-rule="evenodd" d="M42.6814 29.397C42.3624 29.397 42.0745 29.1704 42.0123 28.8421C41.9423 28.4696 42.1835 28.1101 42.5544 28.0398C44.2247 27.7168 45.4359 26.245 45.4359 24.5387C45.4359 22.5719 43.8434 20.9724 41.8851 20.9724H6.91499C4.9568 20.9724 3.36426 22.5718 3.36426 24.5387C3.36426 26.245 4.57548 27.7168 6.24577 28.0398C6.61666 28.1101 6.85788 28.4722 6.78785 28.8421C6.71522 29.2147 6.3599 29.4569 5.98902 29.3866C3.67806 28.9385 2 26.8988 2 24.5387C2 21.8165 4.20459 19.5996 6.91493 19.5996H41.8851C44.5954 19.5996 46.8 21.8139 46.8 24.5387C46.8 26.9014 45.122 28.9412 42.811 29.3866C42.7669 29.3944 42.7228 29.3996 42.6813 29.3996L42.6814 29.397Z" fill="#1E1E1E"/>
<path fill-rule="evenodd" clip-rule="evenodd" d="M43.2897 22.4C42.901 22.4 42.5847 22.0656 42.5847 21.6547V8.49041H6.20668V21.6547C6.20668 22.0656 5.8904 22.4 5.50178 22.4C5.11316 22.4 4.79688 22.0656 4.79688 21.6547V7.74531C4.79688 7.33438 5.11316 7 5.50178 7H43.292C43.6806 7 43.9969 7.33441 43.9969 7.74531V21.6547C43.9969 22.0656 43.6806 22.4 43.292 22.4H43.2897Z" fill="#1E1E1E"/>
<path fill-rule="evenodd" clip-rule="evenodd" d="M37.6875 22.4016C37.2952 22.4016 36.9809 22.0065 36.9809 21.521V15.0658C36.9809 14.6774 36.7257 14.3627 36.4167 14.3627H27.7742C27.4625 14.3627 27.21 14.6774 27.21 15.0658V21.521C27.21 22.0065 26.893 22.4016 26.5034 22.4016C26.1139 22.4016 25.7969 22.0065 25.7969 21.521V15.0658C25.7969 13.7065 26.6835 12.6016 27.7742 12.6016H36.4195C37.5103 12.6016 38.3969 13.7065 38.3969 15.0658V21.521C38.3969 22.0065 38.0799 22.4016 37.6903 22.4016H37.6875Z" fill="#1E1E1E"/>
</svg>
