<svg width="48" height="48" viewBox="0 0 48 48" fill="none" xmlns="http://www.w3.org/2000/svg">
<path d="M14.2734 23.1994H17.6747C17.848 23.1994 18.0142 23.1192 18.1367 22.9763C18.2592 22.8335 18.3281 22.6398 18.3281 22.4378V18.4667C18.3281 18.2647 18.2592 18.071 18.1367 17.9282C18.0142 17.7853 17.848 17.7051 17.6747 17.7051H14.2734C14.101 17.7066 13.9361 17.7875 13.8147 17.9302C13.6932 18.0729 13.6251 18.2657 13.6251 18.4667V22.4261C13.6238 22.5266 13.6395 22.6265 13.6714 22.7198C13.7034 22.8132 13.7508 22.8983 13.8111 22.9702C13.8714 23.0421 13.9433 23.0993 14.0226 23.1387C14.102 23.178 14.1872 23.1987 14.2734 23.1994ZM14.9268 19.2342H17.0214V21.6761H14.9268V19.2342Z" fill="#1E1E1E"/>
<path d="M20.1456 23.1994H23.5419C23.7152 23.1994 23.8814 23.1192 24.0039 22.9763C24.1264 22.8335 24.1952 22.6398 24.1952 22.4378V18.4667C24.1952 18.2647 24.1264 18.071 24.0039 17.9282C23.8814 17.7853 23.7152 17.7051 23.5419 17.7051H20.1456C19.9723 17.7051 19.8061 17.7853 19.6836 17.9282C19.5611 18.071 19.4923 18.2647 19.4923 18.4667V22.4261C19.4909 22.5271 19.5069 22.6274 19.5391 22.7212C19.5713 22.8149 19.6193 22.9003 19.6801 22.9722C19.7409 23.0442 19.8133 23.1013 19.8932 23.1403C19.9732 23.1793 20.059 23.1994 20.1456 23.1994ZM20.7939 19.2342H22.8886V21.6761H20.7939V19.2342Z" fill="#1E1E1E"/>
<path d="M45.2966 16.4481C45.0025 16.02 44.6297 15.6824 44.2083 15.4627C43.787 15.2431 43.3291 15.1476 42.8717 15.184C42.6543 15.2001 42.4378 15.2305 42.2231 15.2752C42.1602 14.7115 41.9557 14.1853 41.6377 13.7686C41.3198 13.3519 40.9038 13.0651 40.4469 12.9475C40.363 12.9276 40.2767 12.928 40.193 12.9486C40.1092 12.9693 40.0296 13.0098 39.9587 13.068C39.8879 13.1261 39.8271 13.2006 39.7798 13.2874C39.7326 13.3741 39.6999 13.4714 39.6835 13.5735C39.6671 13.6757 39.6674 13.7807 39.6844 13.8828C39.7013 13.9848 39.7346 14.0817 39.7823 14.1681C39.8301 14.2544 39.8913 14.3285 39.9625 14.386C40.0337 14.4435 40.1135 14.4834 40.1974 14.5033C40.3353 14.5392 40.4648 14.6125 40.5762 14.7177C40.6876 14.8229 40.7781 14.9574 40.841 15.1111C40.2504 14.8936 39.6219 14.8789 39.0249 15.0685C38.4831 15.2388 37.9756 15.5423 37.5337 15.9604C37.0918 16.3784 36.7248 16.9022 36.4553 17.4995C36.3714 17.6841 36.351 17.9017 36.3987 18.1045C36.4464 18.3073 36.5583 18.4788 36.7098 18.5812C36.7847 18.6315 36.8671 18.6632 36.9521 18.6745C37.0372 18.6858 37.1232 18.6765 37.2053 18.6471C37.2874 18.6177 37.3639 18.5689 37.4304 18.5033C37.4969 18.4378 37.5522 18.3569 37.5929 18.2652C37.7766 17.856 38.0266 17.4964 38.3276 17.2081C38.6286 16.9199 38.9744 16.7088 39.3442 16.5879C39.4646 16.5463 39.5884 16.5219 39.7134 16.5149C38.7264 17.2885 38.0003 18.4682 37.6677 19.8392C37.4273 20.9281 37.494 22.0839 37.8573 23.121C37.9066 23.265 37.9897 23.388 38.0963 23.4745C38.2028 23.561 38.328 23.6072 38.4561 23.6072C38.5437 23.6054 38.6301 23.5827 38.7105 23.5404C38.7898 23.5006 38.8617 23.4419 38.922 23.3678C38.9824 23.2937 39.03 23.2057 39.0621 23.1089C39.0942 23.0121 39.11 22.9085 39.1088 22.8041C39.1075 22.6998 39.0892 22.5967 39.0548 22.5011C38.8058 21.7884 38.7601 20.9945 38.9251 20.2464C39.2391 19.098 39.9036 18.1406 40.7812 17.5724C40.407 21.8691 39.4889 35.3669 41.9836 41.3774H38.6507V24.5917C38.6507 24.4875 38.6337 24.3842 38.6008 24.288C38.5679 24.1917 38.5197 24.1044 38.4589 24.0309C38.3982 23.9575 38.3261 23.8994 38.2468 23.8601C38.1675 23.8207 38.0826 23.8009 37.997 23.8017H33.5614V14.9652H34.6391C34.7845 14.9635 34.9252 14.9028 35.0391 14.7927C35.1529 14.6827 35.2334 14.5295 35.2678 14.3575C35.3046 14.1872 35.2937 14.0068 35.2368 13.845C35.1798 13.6831 35.0801 13.5491 34.9535 13.4641L22.4399 5.09562C22.3431 5.03284 22.2352 5 22.1255 5C22.0159 5 21.908 5.03284 21.8112 5.09562L9.29763 13.4763C9.16847 13.5591 9.06603 13.6926 9.00688 13.8552C8.94773 14.0177 8.93533 14.1999 8.97169 14.3721C9.00804 14.5443 9.09103 14.6965 9.20722 14.8041C9.32341 14.9118 9.46601 14.9685 9.61196 14.9652H10.6897V22.4282C10.6055 22.2174 10.4962 22.0228 10.3654 21.8508C10.1811 21.4945 9.92879 21.1977 9.62988 20.9861C9.33097 20.7744 8.99441 20.6541 8.649 20.6354C8.12068 20.6516 7.60897 20.8636 7.18209 21.2431C7.17434 21.0031 7.20562 20.7635 7.27412 20.5382C7.34262 20.313 7.44699 20.1064 7.58125 19.9304C7.97542 19.5597 8.68891 19.9304 8.69889 19.9304C8.77686 19.9727 8.86091 19.9959 8.94624 19.9986C9.03156 20.0014 9.1165 19.9836 9.19619 19.9463C9.27588 19.9091 9.34876 19.8531 9.41068 19.7815C9.47261 19.71 9.52235 19.6243 9.55708 19.5293C9.59181 19.4343 9.61084 19.332 9.61308 19.228C9.61533 19.1241 9.60074 19.0206 9.57016 18.9236C9.53958 18.8265 9.49361 18.7377 9.43486 18.6623C9.37611 18.5869 9.30575 18.5263 9.22777 18.484C8.84327 18.2621 8.41902 18.1619 7.99429 18.1927C7.56956 18.2235 7.15807 18.3843 6.7979 18.6602C6.56533 18.8816 6.37472 19.1614 6.23908 19.4807C5.83947 18.8479 5.30673 18.3586 4.69734 18.0647C4.53457 17.9913 4.35456 17.9998 4.19689 18.0881C4.03922 18.1764 3.91682 18.3374 3.85661 18.5357C3.7964 18.7339 3.80332 18.9532 3.87584 19.1452C3.94835 19.3373 4.08053 19.4864 4.2433 19.5597C4.6695 19.7629 5.03372 20.1217 5.2861 20.5868C5.06827 20.4901 4.84239 20.4228 4.61252 20.3862C4.22095 20.3008 3.81835 20.3295 3.43764 20.47C3.05693 20.6104 2.70894 20.8587 2.42214 21.1945C1.99804 21.7354 1.54898 22.7868 1.81343 24.7194C1.85034 24.9175 1.94804 25.0909 2.08652 25.2041C2.22499 25.3174 2.39377 25.3618 2.55829 25.3284C2.72281 25.295 2.87062 25.1863 2.97146 25.0245C3.0723 24.8627 3.11854 24.66 3.10071 24.458C2.961 23.4553 3.0558 22.6895 3.36515 22.2945C3.51105 22.1422 3.68328 22.0319 3.86902 21.972C4.05475 21.912 4.2492 21.9038 4.43789 21.9481C4.66538 21.9854 4.88432 22.0785 5.08153 22.2216C4.6454 22.351 4.24782 22.6268 3.93395 23.0177C3.08075 24.1055 2.96599 25.9713 3.58968 28.5785C3.62938 28.7427 3.7115 28.887 3.82385 28.9899C3.9362 29.0928 4.07279 29.1489 4.21336 29.1497C4.27468 29.1586 4.33665 29.1586 4.39797 29.1497C4.56382 29.0905 4.70364 28.9536 4.78686 28.7691C4.87008 28.5846 4.88992 28.3675 4.84203 28.1652C4.37302 26.2083 4.383 24.7801 4.87197 24.1542C5.05134 23.9694 5.26187 23.835 5.48864 23.7605C5.71541 23.6859 5.95288 23.673 6.1842 23.7227C6.78792 24.9928 9.123 30.8696 6.74801 41.4077H3.6246C3.45125 41.4077 3.285 41.4916 3.16242 41.6409C3.03985 41.7902 2.97098 41.9927 2.97098 42.2039C2.97098 42.415 3.03985 42.6175 3.16242 42.7668C3.285 42.9161 3.45125 43 3.6246 43H44.628C44.8014 43 44.9676 42.9161 45.0902 42.7668C45.2128 42.6175 45.2817 42.415 45.2817 42.2039C45.2817 41.9927 45.2128 41.7902 45.0902 41.6409C44.9676 41.4916 44.8014 41.4077 44.628 41.4077H43.5104C40.8061 36.6188 41.6892 22.6531 42.0734 18.01C42.444 18.5398 42.7148 19.1621 42.8668 19.8332C42.9834 20.352 42.999 20.8969 42.9124 21.4244C42.8258 21.9519 42.6393 22.4475 42.3678 22.8718C42.2638 23.0397 42.2185 23.2509 42.2419 23.4593C42.2653 23.6676 42.3554 23.8563 42.4925 23.984C42.6308 24.1092 42.8038 24.1633 42.9745 24.1349C43.1452 24.1065 43.3 23.9978 43.4056 23.8321C43.7913 23.2165 44.0557 22.5013 44.1786 21.7416C44.3014 20.9819 44.2794 20.198 44.1141 19.4503C43.8938 18.4849 43.4905 17.5961 42.9366 16.8553C43.189 16.8325 43.4422 16.8828 43.6755 17.0022C43.9088 17.1215 44.1155 17.3065 44.2788 17.542C44.4464 17.7942 44.566 18.0885 44.629 18.4038C44.692 18.7191 44.6968 19.0474 44.643 19.3652C44.6065 19.5693 44.6373 19.7826 44.7288 19.9593C44.8202 20.136 44.965 20.2618 45.132 20.3096C45.2989 20.3574 45.4745 20.3235 45.6211 20.215C45.7676 20.1066 45.8733 19.9323 45.9153 19.7299C46.0255 19.1617 46.027 18.5702 45.9197 18.0012C45.8125 17.4322 45.5993 16.9008 45.2966 16.4481ZM14.8958 25.3818V28.6028H14.1224V25.3818H14.8958ZM16.9814 25.3818V28.6028H16.208V25.3818H16.9814ZM19.072 25.3818V28.6028H18.2986V25.3818H19.072ZM21.1576 25.3818V28.6028H20.3842V25.3818H21.1576ZM23.2482 25.3818V28.6028H22.4748V25.3818H23.2482ZM25.3438 25.3818V28.6028H24.5604V25.3818H25.3438ZM29.8343 23.7956H26.656V18.7089H29.8642L29.8343 23.7956ZM29.8343 25.3818V28.6028H26.656V25.3818H29.8343ZM33.5564 35.3365H37.3484V36.2298H33.5614L33.5564 35.3365ZM33.5564 33.7503V32.8569H37.3484V33.7503H33.5564ZM33.5564 37.816H37.3484V38.7094H33.5614L33.5564 37.816ZM37.3484 31.2768H33.5614V30.189H37.3484V31.2768ZM32.2542 28.6028H31.1415V25.3818H32.2542V28.6028ZM12.7952 28.6028H11.9919V25.3818H12.8152L12.7952 28.6028ZM15.7889 30.189V41.3774H13.0896V30.189H15.7889ZM17.0962 30.189H28.2177V41.3774H17.1261L17.0962 30.189ZM29.495 30.189H32.2242V41.3774H29.5249L29.495 30.189ZM33.5315 40.3017H37.3484V41.3774H33.5614L33.5315 40.3017ZM37.3484 25.3818V28.6028H33.5614V25.3818H37.3484ZM22.1255 6.70003L32.1045 13.3851H12.1466L22.1255 6.70003ZM32.2542 14.9652V23.7956H31.1415V17.9067C31.1415 17.6955 31.0726 17.493 30.9501 17.3437C30.8275 17.1944 30.6612 17.1105 30.4879 17.1105H25.9974C25.8293 17.1199 25.6706 17.2079 25.5544 17.3562C25.4383 17.5045 25.3735 17.7017 25.3737 17.9067V23.7834H11.9919V14.9652H32.2542ZM7.41161 23.0602C7.72979 22.6304 8.15634 22.3418 8.62405 22.2398C8.71885 22.2398 8.99826 22.2398 9.33754 22.8475L9.41238 22.9569C9.41238 22.9569 9.91133 23.6011 9.5471 25.0475C9.49902 25.249 9.51816 25.4654 9.60038 25.6498C9.6826 25.8342 9.82125 25.9715 9.98617 26.0321C10.049 26.0439 10.1129 26.0439 10.1758 26.0321C10.2726 26.0287 10.3676 25.9991 10.4539 25.9455C10.5402 25.8919 10.6156 25.8156 10.6747 25.7221V29.3685C10.6741 29.4728 10.6904 29.5762 10.7227 29.6727C10.755 29.7693 10.8026 29.8571 10.8629 29.9311C10.9232 30.0051 10.995 30.0639 11.074 30.1039C11.153 30.144 11.2377 30.1647 11.3234 30.1647H11.7724V41.3774H8.12011C10.4053 30.8818 8.23487 24.847 7.41161 23.0602Z" fill="#1E1E1E"/>
</svg>
