<svg width="48" height="48" viewBox="0 0 48 48" fill="none" xmlns="http://www.w3.org/2000/svg">
<path d="M40.6907 26.0908C39.7332 22.1296 37.7479 19.5232 35.9956 17.222C33.3671 13.7728 31.097 10.7911 32.881 4.16057C32.966 3.85372 32.8865 3.52841 32.6758 3.2955C32.4706 3.06999 32.1675 2.96093 31.8662 3.01268C29.4225 3.4175 24.7809 4.74471 21.1637 9.09054C18.5574 12.2218 17.6054 15.5877 17.2801 17.9873C16.9603 17.4235 16.7071 16.8265 16.524 16.2017C15.9584 14.2682 16.2098 12.527 16.5203 11.4048C16.6275 11.0185 16.4723 10.6155 16.1396 10.3974C15.805 10.1793 15.3743 10.2052 15.0675 10.4565C12.6219 12.4566 9.38709 15.9613 7.86763 21.2887C6.692 25.4107 6.7105 29.3517 7.92678 33.0043C10.2373 39.9529 16.295 44.8936 23.3613 45.5907C23.8586 45.6387 24.3558 45.6646 24.8512 45.6646C29.4539 45.6646 33.9642 43.5833 37.1436 39.9289C40.5707 35.988 41.8646 30.9436 40.6908 26.0914L40.6907 26.0908ZM36.1934 39.1021C32.9364 42.8471 28.1972 44.8047 23.4817 44.3405C16.9122 43.6935 11.2725 39.0869 9.11892 32.6083C7.98583 29.2016 7.97102 25.5083 9.07641 21.6356C10.35 17.1734 12.9046 14.0681 15.0786 12.1066C14.8715 13.3155 14.8235 14.8701 15.3189 16.5559C15.707 17.8812 16.3669 19.0957 17.2801 20.1678C17.4483 20.3637 17.72 20.4395 17.964 20.3526C18.2098 20.2676 18.3762 20.0384 18.3854 19.7796C18.4557 17.6834 19.0361 13.6095 22.1304 9.89574C25.3116 6.07682 29.4486 4.78086 31.5354 4.35402C29.8459 11.2264 32.3506 14.5114 34.9976 17.9847C36.7554 20.2953 38.5762 22.6817 39.4708 26.386C40.5448 30.8371 39.3507 35.4711 36.1935 39.1015L36.1934 39.1021Z" fill="#1E1E1E"/>
<path d="M30.7489 23.5076C28.601 22.8125 26.2331 23.4022 24.4274 25.0418C22.6233 23.4022 20.2536 22.8144 18.1077 23.5076C15.775 24.2617 14.1705 26.3764 13.8174 29.1638C13.0799 35.0235 19.3445 39.4801 23.7363 41.0436C23.96 41.1231 24.1947 41.1638 24.4295 41.1638C24.6624 41.1638 24.899 41.1231 25.1208 41.0436C29.5146 39.4798 35.7788 35.0287 35.0396 29.1638C34.6866 26.3745 33.0835 24.2618 30.7489 23.5076ZM24.7009 39.8592C24.5234 39.922 24.3349 39.922 24.1575 39.8592C20.3016 38.4858 14.4236 34.4078 15.0667 29.3195C15.3606 26.9941 16.6102 25.312 18.4956 24.702C20.3607 24.1013 22.4569 24.7334 23.9706 26.3527C24.0889 26.4802 24.2553 26.5523 24.4309 26.5523C24.6046 26.5523 24.771 26.4802 24.8911 26.3527C26.4032 24.7297 28.5012 24.1013 30.3661 24.702C32.2516 25.312 33.5011 26.9941 33.7932 29.3195C34.4365 34.414 28.557 38.4878 24.7009 39.8592Z" fill="#1E1E1E"/>
</svg>
