<svg width="48" height="48" viewBox="0 0 48 48" fill="none" xmlns="http://www.w3.org/2000/svg">
<path d="M37.7505 4.3364V3.6682C37.7505 3.29902 37.4514 3 37.0823 3C36.7131 3 36.4141 3.29902 36.4141 3.6682V4.3364C36.4141 4.70558 36.7131 5.0046 37.0823 5.0046C37.4514 5.0046 37.7505 4.70558 37.7505 4.3364Z" fill="black"/>
<path d="M34.4753 4.46953C34.2097 4.27075 33.8372 4.2958 33.6017 4.53134C33.3661 4.76688 33.3411 5.13942 33.5399 5.40503L34.0076 5.87279C34.1245 6.02815 34.3016 6.12503 34.4954 6.1384C34.6875 6.15176 34.8779 6.0816 35.0149 5.94462C35.1519 5.80764 35.222 5.61721 35.2087 5.42511C35.1953 5.23134 35.0984 5.05426 34.9431 4.93734L34.4753 4.46953Z" fill="black"/>
<path d="M32.0703 8.01194C32.0703 8.18901 32.1405 8.3594 32.2658 8.4847C32.391 8.61 32.5614 8.68015 32.7385 8.68015H33.4067C33.7759 8.68015 34.0749 8.38113 34.0749 8.01195C34.0749 7.64277 33.7759 7.34375 33.4067 7.34375H32.7385C32.3693 7.34375 32.0703 7.64276 32.0703 8.01194Z" fill="black"/>
<path d="M41.4302 7.34375H40.762C40.3928 7.34375 40.0938 7.64277 40.0938 8.01195C40.0938 8.38113 40.3928 8.68015 40.762 8.68015H41.4302C41.7993 8.68015 42.0984 8.38113 42.0984 8.01195C42.0984 7.64277 41.7993 7.34375 41.4302 7.34375Z" fill="black"/>
<path d="M39.6881 4.46958L39.2203 4.93734C39.065 5.05428 38.9681 5.23135 38.9547 5.42512C38.9414 5.61723 39.0115 5.80766 39.1485 5.94463C39.2855 6.08161 39.4759 6.15177 39.668 6.1384C39.8618 6.12504 40.0389 6.02815 40.1558 5.87279L40.6236 5.40503C40.8223 5.13942 40.7973 4.7669 40.5618 4.53135C40.3262 4.2958 39.9537 4.27079 39.6881 4.46958Z" fill="black"/>
<path d="M34.75 8.01184C34.75 8.63997 35.0022 9.243 35.4516 9.68232H38.7258C39.2854 9.13442 39.5326 8.34258 39.3856 7.57247C39.2386 6.80403 38.7174 6.15922 37.9941 5.85687C37.2724 5.55284 36.4472 5.63136 35.7941 6.06401C35.1426 6.49833 34.75 7.22839 34.75 8.01184ZM37.0887 7.00952C37.4947 7.00952 37.8588 7.25341 38.0142 7.6276C38.1696 8.00346 38.0844 8.43444 37.797 8.72011C37.5114 9.00744 37.0804 9.09263 36.7045 8.93727C36.3303 8.78192 36.0864 8.41777 36.0864 8.0118C36.0864 7.45885 36.5358 7.00952 37.0887 7.00952Z" fill="black"/>
<path d="M18.3791 28.0567C18.01 28.0567 17.7109 28.3557 17.7109 28.7249V30.0613C17.7109 30.4304 18.01 30.7295 18.3791 30.7295C18.7483 30.7295 19.0473 30.4304 19.0473 30.0613V28.7249C19.0473 28.5478 18.9772 28.3774 18.8519 28.2521C18.7266 28.1268 18.5562 28.0567 18.3791 28.0567Z" fill="black"/>
<path d="M20.043 18.7031C20.2201 18.7031 20.3905 18.6329 20.5158 18.5076C20.6411 18.3823 20.7112 18.2119 20.7112 18.0348V14.0256C20.7112 13.8486 20.6411 13.6782 20.5158 13.5529C20.3905 13.4276 20.2201 13.3574 20.043 13.3574H8.68383C8.31465 13.3574 8.01562 13.6564 8.01562 14.0256V18.0348C8.01562 18.2119 8.08579 18.3823 8.21107 18.5076C8.33636 18.6329 8.50675 18.703 8.68384 18.703L20.043 18.7031ZM13.027 17.3667V14.6938H15.6998V17.3667H13.027ZM19.375 17.3667H17.0363V14.6938H19.375V17.3667ZM9.35181 14.6938H11.6905V17.3667H9.35181V14.6938Z" fill="black"/>
<path d="M31.6397 29.5945C31.7617 29.7448 31.9421 29.8334 32.1359 29.84C32.328 29.8467 32.5151 29.7699 32.6471 29.6279C32.779 29.4859 32.8425 29.2955 32.8225 29.1033C32.8024 28.9112 32.7005 28.7358 32.5418 28.6256L30.7711 26.9885C30.4988 26.7964 30.1246 26.8365 29.8974 27.0804C29.6702 27.3243 29.6585 27.6984 29.869 27.9574L31.6397 29.5945Z" fill="black"/>
<path d="M32.6717 28.1581C32.7936 28.3084 32.974 28.3969 33.1678 28.4036C33.36 28.4103 33.5471 28.3335 33.679 28.1915C33.811 28.0495 33.8745 27.859 33.8544 27.6669C33.8344 27.4748 33.7325 27.2994 33.5738 27.1892L32.6383 26.3205C32.366 26.1284 31.9918 26.1685 31.7646 26.4124C31.5374 26.6563 31.5257 27.0305 31.7362 27.2894L32.6717 28.1581Z" fill="black"/>
<path d="M35.0793 26.9555C35.1411 26.182 35.2414 25.4136 35.38 24.6502C35.3466 24.3194 35.0777 24.0638 34.7452 24.0488H26.0588C25.6896 24.0488 25.3906 24.3478 25.3906 24.717V30.7306C25.3906 30.9077 25.4608 31.0781 25.5861 31.2034C25.7114 31.3287 25.8818 31.3988 26.0588 31.3988H34.7452C34.9223 31.3988 35.0927 31.3287 35.218 31.2034C35.3433 31.0781 35.4135 30.9077 35.4135 30.7306V29.7617C35.1428 28.8747 35.0292 27.9476 35.0793 27.0221L35.0793 26.9555ZM34.077 30.0626H26.7266V25.385H34.077V30.0626Z" fill="black"/>
<path d="M41.1289 39.4181C41.306 39.4181 41.4764 39.3479 41.6017 39.2226C41.727 39.0974 41.7971 38.927 41.7971 38.7499V32.3351C43.2338 32.1013 44.3363 31.4665 45.0045 30.4642C46.1739 28.7269 45.7061 26.5218 45.6393 26.1877C44.7372 19.873 43.0668 18.4366 42.6324 18.1693C42.1563 17.8068 41.555 17.6514 40.962 17.735C39.7926 17.902 39.0242 18.9377 38.9573 19.0714C36.8525 21.8778 36.4516 26.8559 36.4516 27.0898C36.3848 28.8939 36.8525 30.2637 37.8214 31.1992C38.5547 31.8591 39.4785 32.2683 40.4608 32.3686V38.75C40.4608 38.927 40.531 39.0974 40.6562 39.2227C40.7815 39.348 40.9519 39.4181 41.1289 39.4181ZM38.7234 30.2305C38.0218 29.5957 37.7211 28.56 37.7545 27.1568C37.7879 26.9229 38.1889 22.3124 40.0264 19.8401C40.3037 19.4526 40.7046 19.1686 41.1623 19.0383C41.4146 19.0032 41.6685 19.0767 41.8639 19.2387H41.9308C41.9308 19.2387 43.4676 20.4415 44.3029 26.3552V26.4221C44.3029 26.4555 44.7372 28.3264 43.8686 29.6294C43.3641 30.316 42.6057 30.7721 41.7637 30.899V29.3621L43.3006 27.0903C43.4276 26.9449 43.486 26.7528 43.4593 26.5624C43.4342 26.3719 43.329 26.2015 43.1686 26.0946C43.0083 25.9877 42.8095 25.956 42.6241 26.0044C42.4386 26.0545 42.2833 26.1831 42.1981 26.3552L41.7638 26.99V25.3863C41.7738 25.0171 41.4814 24.7115 41.1123 24.7014C40.7431 24.6914 40.4374 24.9837 40.4274 25.3529L39.9596 24.6847C39.7391 24.4324 39.3649 24.3823 39.0859 24.5677C38.8069 24.7548 38.7084 25.119 38.8571 25.4197L40.4273 27.725V30.9992C39.7959 30.9156 39.2028 30.6481 38.7234 30.2305Z" fill="black"/>
<path d="M8.7535 25.7197C8.97902 25.8934 9.18115 26.0955 9.35486 26.321V21.7105H36.1496C36.2833 21.2762 36.4837 20.8085 36.6508 20.3741H23.0528V12.3557H39.7576V13.0239H24.7232C24.354 13.0239 24.055 13.3229 24.055 13.6921V19.0044C24.055 19.1814 24.1252 19.3518 24.2505 19.4771C24.3758 19.6024 24.5462 19.6726 24.7232 19.6726H36.9848C37.217 19.2065 37.4859 18.7605 37.7866 18.3362H25.3917V14.3604H38.0877V17.9687C38.4669 17.5277 38.9196 17.1552 39.4241 16.8661V14.3604H39.8584C40.1925 14.3604 40.5116 14.2251 40.7438 13.9862C40.9776 13.7473 41.1029 13.4249 41.0946 13.0908V12.2555C41.0762 11.5807 40.5333 11.0377 39.8584 11.0194H23.0531V6.94338C23.0531 6.53578 22.856 6.15321 22.5252 5.91437C22.1945 5.67716 21.7702 5.61201 21.3826 5.74064L6.51495 10.8857C6.01046 11.0694 5.67638 11.5505 5.67971 12.0884V20.4408C5.67971 21.1424 6.24767 21.7104 6.94932 21.7104H8.01844V25.3187C8.27904 25.4206 8.52629 25.5559 8.7535 25.7197ZM7.01618 12.1217L21.7166 7.04339V20.374H7.01618V12.1217Z" fill="black"/>
<path d="M38.0836 35.0743C38.2607 35.0743 38.4311 35.0041 38.5564 34.8788C38.6817 34.7535 38.7518 34.5832 38.7518 34.4061V33.3036C38.2774 33.1298 37.828 32.8943 37.4154 32.6019V33.7379H21.3786V24.3831C21.3786 24.206 21.3084 24.0356 21.1831 23.9103C21.0579 23.785 20.8875 23.7148 20.7104 23.7148H12.692C12.3228 23.7148 12.0238 24.0139 12.0238 24.383V33.7379H11.6562C11.698 34.1822 11.698 34.6299 11.6562 35.0743L38.0836 35.0743ZM13.3604 25.0511H20.0424V33.7375H13.3604V25.0511Z" fill="black"/>
<path d="M5.67993 38.215V43.4272C5.67993 43.7963 5.97895 44.0954 6.34813 44.0954C6.71732 44.0954 7.01634 43.7963 7.01634 43.4272V38.3155H7.04975C8.10719 38.2219 9.07107 37.674 9.68915 36.812C10.658 35.4088 10.2905 33.5713 10.2237 33.2706C9.55551 28.2923 8.28595 27.0564 7.91843 26.8225C7.52753 26.4968 7.01801 26.3514 6.51523 26.4216C5.57975 26.5552 4.94494 27.4573 4.87815 27.5575C3.34126 29.796 3.04058 33.7717 3.00718 33.9389C2.94036 35.4423 3.34128 36.6117 4.1431 37.3801C4.57409 37.7877 5.10359 38.0747 5.67993 38.215ZM4.34353 34.0387C4.37694 33.8383 4.67763 30.23 6.01401 28.292C6.19108 28.0281 6.44833 27.8293 6.74905 27.724C6.88437 27.7123 7.01968 27.7608 7.11657 27.8577H7.18339C7.31703 27.9913 8.31931 29.0938 8.92071 33.4038V33.4707C8.92071 33.4707 9.25481 34.9741 8.58661 36.0098C8.21074 36.5143 7.64279 36.8417 7.01633 36.9119V36.1769C7.11321 36.1201 7.1934 36.0399 7.2502 35.943L8.48636 34.0052C8.69016 33.6912 8.59995 33.2736 8.2859 33.0698C7.97185 32.8659 7.55424 32.9562 7.35042 33.2702L7.11655 33.738L7.01631 33.6043V32.7357C7.01631 32.5586 6.94615 32.3882 6.82087 32.2629C6.69558 32.1376 6.52519 32.0675 6.3481 32.0675L6.08082 32.1343L6.014 32.0007C5.8102 31.6866 5.39258 31.5964 5.07852 31.8002C4.76445 32.004 4.67426 32.4216 4.87806 32.7357L5.6799 33.9718V36.8117C5.45605 36.7165 5.25225 36.5812 5.07854 36.4108C4.54398 35.943 4.31013 35.1413 4.34353 34.0387Z" fill="black"/>
</svg>
